<?xml version="1.0" encoding="utf-8" standalone="no"?>
<!DOCTYPE svg PUBLIC "-//W3C//DTD SVG 1.1//EN"
  "http://www.w3.org/Graphics/SVG/1.1/DTD/svg11.dtd">
<svg xmlns:xlink="http://www.w3.org/1999/xlink" width="612.342104pt" height="382.79952pt" viewBox="0 0 612.342104 382.79952" xmlns="http://www.w3.org/2000/svg" version="1.1">
 <metadata>
  <rdf:RDF xmlns:dc="http://purl.org/dc/elements/1.1/" xmlns:cc="http://creativecommons.org/ns#" xmlns:rdf="http://www.w3.org/1999/02/22-rdf-syntax-ns#">
   <cc:Work>
    <dc:type rdf:resource="http://purl.org/dc/dcmitype/StillImage"/>
    <dc:date>2026-06-11T23:40:08.222736</dc:date>
    <dc:format>image/svg+xml</dc:format>
    <dc:creator>
     <cc:Agent>
      <dc:title>Matplotlib v3.10.1, https://matplotlib.org/</dc:title>
     </cc:Agent>
    </dc:creator>
   </cc:Work>
  </rdf:RDF>
 </metadata>
 <defs>
  <style type="text/css">*{stroke-linejoin: round; stroke-linecap: butt}</style>
 </defs>
 <g id="figure_1">
  <g id="patch_1">
   <path d="M 0 382.79952 
L 612.342104 382.79952 
L 612.342104 0 
L 0 0 
z
" style="fill: #ffffff"/>
  </g>
  <g id="axes_1">
   <g id="patch_2">
    <path d="M 47.307188 357.953582 
L 577.19952 357.953582 
L 577.19952 23.837812 
L 47.307188 23.837812 
z
" style="fill: #ffffff"/>
   </g>
   <g id="patch_3">
    <path d="M 71.393203 326.685952 
L 168.884216 326.685952 
L 168.884216 115.251188 
L 71.393203 115.251188 
z
" clip-path="url(#p3888b3e9aa)" style="fill: #2980b9"/>
   </g>
   <g id="patch_4">
    <path d="M 358.131478 326.685952 
L 455.622491 326.685952 
L 455.622491 263.960838 
L 358.131478 263.960838 
z
" clip-path="url(#p3888b3e9aa)" style="fill: #2980b9"/>
   </g>
   <g id="patch_5">
    <path d="M 168.884216 326.685952 
L 266.37523 326.685952 
L 266.37523 122.295615 
L 168.884216 122.295615 
z
" clip-path="url(#p3888b3e9aa)" style="fill: #1a9850"/>
   </g>
   <g id="patch_6">
    <path d="M 455.622491 326.685952 
L 553.113505 326.685952 
L 553.113505 226.67583 
L 455.622491 226.67583 
z
" clip-path="url(#p3888b3e9aa)" style="fill: #1a9850"/>
   </g>
   <g id="matplotlib.axis_1">
    <g id="xtick_1">
     <g id="line2d_1">
      <defs>
       <path id="m86b6d95ab9" d="M 0 0 
L 0 3.5 
" style="stroke: #000000; stroke-width: 0.8"/>
      </defs>
      <g>
       <use xlink:href="#m86b6d95ab9" x="168.884216" y="357.953582" style="stroke: #000000; stroke-width: 0.8"/>
      </g>
     </g>
     <g id="text_1">
      <!-- 1 deck -->
      <g transform="translate(150.552029 373.311864) scale(0.11 -0.11)">
       <defs>
        <path id="DejaVuSans-31" d="M 794 531 
L 1825 531 
L 1825 4091 
L 703 3866 
L 703 4441 
L 1819 4666 
L 2450 4666 
L 2450 531 
L 3481 531 
L 3481 0 
L 794 0 
L 794 531 
z
" transform="scale(0.015625)"/>
        <path id="DejaVuSans-20" transform="scale(0.015625)"/>
        <path id="DejaVuSans-64" d="M 2906 2969 
L 2906 4863 
L 3481 4863 
L 3481 0 
L 2906 0 
L 2906 525 
Q 2725 213 2448 61 
Q 2172 -91 1784 -91 
Q 1150 -91 751 415 
Q 353 922 353 1747 
Q 353 2572 751 3078 
Q 1150 3584 1784 3584 
Q 2172 3584 2448 3432 
Q 2725 3281 2906 2969 
z
M 947 1747 
Q 947 1113 1208 752 
Q 1469 391 1925 391 
Q 2381 391 2643 752 
Q 2906 1113 2906 1747 
Q 2906 2381 2643 2742 
Q 2381 3103 1925 3103 
Q 1469 3103 1208 2742 
Q 947 2381 947 1747 
z
" transform="scale(0.015625)"/>
        <path id="DejaVuSans-65" d="M 3597 1894 
L 3597 1613 
L 953 1613 
Q 991 1019 1311 708 
Q 1631 397 2203 397 
Q 2534 397 2845 478 
Q 3156 559 3463 722 
L 3463 178 
Q 3153 47 2828 -22 
Q 2503 -91 2169 -91 
Q 1331 -91 842 396 
Q 353 884 353 1716 
Q 353 2575 817 3079 
Q 1281 3584 2069 3584 
Q 2775 3584 3186 3129 
Q 3597 2675 3597 1894 
z
M 3022 2063 
Q 3016 2534 2758 2815 
Q 2500 3097 2075 3097 
Q 1594 3097 1305 2825 
Q 1016 2553 972 2059 
L 3022 2063 
z
" transform="scale(0.015625)"/>
        <path id="DejaVuSans-63" d="M 3122 3366 
L 3122 2828 
Q 2878 2963 2633 3030 
Q 2388 3097 2138 3097 
Q 1578 3097 1268 2742 
Q 959 2388 959 1747 
Q 959 1106 1268 751 
Q 1578 397 2138 397 
Q 2388 397 2633 464 
Q 2878 531 3122 666 
L 3122 134 
Q 2881 22 2623 -34 
Q 2366 -91 2075 -91 
Q 1284 -91 818 406 
Q 353 903 353 1747 
Q 353 2603 823 3093 
Q 1294 3584 2113 3584 
Q 2378 3584 2631 3529 
Q 2884 3475 3122 3366 
z
" transform="scale(0.015625)"/>
        <path id="DejaVuSans-6b" d="M 581 4863 
L 1159 4863 
L 1159 1991 
L 2875 3500 
L 3609 3500 
L 1753 1863 
L 3688 0 
L 2938 0 
L 1159 1709 
L 1159 0 
L 581 0 
L 581 4863 
z
" transform="scale(0.015625)"/>
       </defs>
       <use xlink:href="#DejaVuSans-31"/>
       <use xlink:href="#DejaVuSans-20" transform="translate(63.623047 0)"/>
       <use xlink:href="#DejaVuSans-64" transform="translate(95.410156 0)"/>
       <use xlink:href="#DejaVuSans-65" transform="translate(158.886719 0)"/>
       <use xlink:href="#DejaVuSans-63" transform="translate(220.410156 0)"/>
       <use xlink:href="#DejaVuSans-6b" transform="translate(275.390625 0)"/>
      </g>
     </g>
    </g>
    <g id="xtick_2">
     <g id="line2d_2">
      <g>
       <use xlink:href="#m86b6d95ab9" x="455.622491" y="357.953582" style="stroke: #000000; stroke-width: 0.8"/>
      </g>
     </g>
     <g id="text_2">
      <!-- 6 decks -->
      <g transform="translate(434.425148 373.311864) scale(0.11 -0.11)">
       <defs>
        <path id="DejaVuSans-36" d="M 2113 2584 
Q 1688 2584 1439 2293 
Q 1191 2003 1191 1497 
Q 1191 994 1439 701 
Q 1688 409 2113 409 
Q 2538 409 2786 701 
Q 3034 994 3034 1497 
Q 3034 2003 2786 2293 
Q 2538 2584 2113 2584 
z
M 3366 4563 
L 3366 3988 
Q 3128 4100 2886 4159 
Q 2644 4219 2406 4219 
Q 1781 4219 1451 3797 
Q 1122 3375 1075 2522 
Q 1259 2794 1537 2939 
Q 1816 3084 2150 3084 
Q 2853 3084 3261 2657 
Q 3669 2231 3669 1497 
Q 3669 778 3244 343 
Q 2819 -91 2113 -91 
Q 1303 -91 875 529 
Q 447 1150 447 2328 
Q 447 3434 972 4092 
Q 1497 4750 2381 4750 
Q 2619 4750 2861 4703 
Q 3103 4656 3366 4563 
z
" transform="scale(0.015625)"/>
        <path id="DejaVuSans-73" d="M 2834 3397 
L 2834 2853 
Q 2591 2978 2328 3040 
Q 2066 3103 1784 3103 
Q 1356 3103 1142 2972 
Q 928 2841 928 2578 
Q 928 2378 1081 2264 
Q 1234 2150 1697 2047 
L 1894 2003 
Q 2506 1872 2764 1633 
Q 3022 1394 3022 966 
Q 3022 478 2636 193 
Q 2250 -91 1575 -91 
Q 1294 -91 989 -36 
Q 684 19 347 128 
L 347 722 
Q 666 556 975 473 
Q 1284 391 1588 391 
Q 1994 391 2212 530 
Q 2431 669 2431 922 
Q 2431 1156 2273 1281 
Q 2116 1406 1581 1522 
L 1381 1569 
Q 847 1681 609 1914 
Q 372 2147 372 2553 
Q 372 3047 722 3315 
Q 1072 3584 1716 3584 
Q 2034 3584 2315 3537 
Q 2597 3491 2834 3397 
z
" transform="scale(0.015625)"/>
       </defs>
       <use xlink:href="#DejaVuSans-36"/>
       <use xlink:href="#DejaVuSans-20" transform="translate(63.623047 0)"/>
       <use xlink:href="#DejaVuSans-64" transform="translate(95.410156 0)"/>
       <use xlink:href="#DejaVuSans-65" transform="translate(158.886719 0)"/>
       <use xlink:href="#DejaVuSans-63" transform="translate(220.410156 0)"/>
       <use xlink:href="#DejaVuSans-6b" transform="translate(275.390625 0)"/>
       <use xlink:href="#DejaVuSans-73" transform="translate(333.300781 0)"/>
      </g>
     </g>
    </g>
   </g>
   <g id="matplotlib.axis_2">
    <g id="ytick_1">
     <g id="line2d_3">
      <defs>
       <path id="mc0cdc49b18" d="M 0 0 
L -3.5 0 
" style="stroke: #000000; stroke-width: 0.8"/>
      </defs>
      <g>
       <use xlink:href="#mc0cdc49b18" x="47.307188" y="326.685952" style="stroke: #000000; stroke-width: 0.8"/>
      </g>
     </g>
     <g id="text_3">
      <!-- 0.0 -->
      <g transform="translate(22.81375 330.865093) scale(0.11 -0.11)">
       <defs>
        <path id="DejaVuSans-30" d="M 2034 4250 
Q 1547 4250 1301 3770 
Q 1056 3291 1056 2328 
Q 1056 1369 1301 889 
Q 1547 409 2034 409 
Q 2525 409 2770 889 
Q 3016 1369 3016 2328 
Q 3016 3291 2770 3770 
Q 2525 4250 2034 4250 
z
M 2034 4750 
Q 2819 4750 3233 4129 
Q 3647 3509 3647 2328 
Q 3647 1150 3233 529 
Q 2819 -91 2034 -91 
Q 1250 -91 836 529 
Q 422 1150 422 2328 
Q 422 3509 836 4129 
Q 1250 4750 2034 4750 
z
" transform="scale(0.015625)"/>
        <path id="DejaVuSans-2e" d="M 684 794 
L 1344 794 
L 1344 0 
L 684 0 
L 684 794 
z
" transform="scale(0.015625)"/>
       </defs>
       <use xlink:href="#DejaVuSans-30"/>
       <use xlink:href="#DejaVuSans-2e" transform="translate(63.623047 0)"/>
       <use xlink:href="#DejaVuSans-30" transform="translate(95.410156 0)"/>
      </g>
     </g>
    </g>
    <g id="ytick_2">
     <g id="line2d_4">
      <g>
       <use xlink:href="#mc0cdc49b18" x="47.307188" y="282.458754" style="stroke: #000000; stroke-width: 0.8"/>
      </g>
     </g>
     <g id="text_4">
      <!-- 0.2 -->
      <g transform="translate(22.81375 286.637894) scale(0.11 -0.11)">
       <defs>
        <path id="DejaVuSans-32" d="M 1228 531 
L 3431 531 
L 3431 0 
L 469 0 
L 469 531 
Q 828 903 1448 1529 
Q 2069 2156 2228 2338 
Q 2531 2678 2651 2914 
Q 2772 3150 2772 3378 
Q 2772 3750 2511 3984 
Q 2250 4219 1831 4219 
Q 1534 4219 1204 4116 
Q 875 4013 500 3803 
L 500 4441 
Q 881 4594 1212 4672 
Q 1544 4750 1819 4750 
Q 2544 4750 2975 4387 
Q 3406 4025 3406 3419 
Q 3406 3131 3298 2873 
Q 3191 2616 2906 2266 
Q 2828 2175 2409 1742 
Q 1991 1309 1228 531 
z
" transform="scale(0.015625)"/>
       </defs>
       <use xlink:href="#DejaVuSans-30"/>
       <use xlink:href="#DejaVuSans-2e" transform="translate(63.623047 0)"/>
       <use xlink:href="#DejaVuSans-32" transform="translate(95.410156 0)"/>
      </g>
     </g>
    </g>
    <g id="ytick_3">
     <g id="line2d_5">
      <g>
       <use xlink:href="#mc0cdc49b18" x="47.307188" y="238.231555" style="stroke: #000000; stroke-width: 0.8"/>
      </g>
     </g>
     <g id="text_5">
      <!-- 0.4 -->
      <g transform="translate(22.81375 242.410696) scale(0.11 -0.11)">
       <defs>
        <path id="DejaVuSans-34" d="M 2419 4116 
L 825 1625 
L 2419 1625 
L 2419 4116 
z
M 2253 4666 
L 3047 4666 
L 3047 1625 
L 3713 1625 
L 3713 1100 
L 3047 1100 
L 3047 0 
L 2419 0 
L 2419 1100 
L 313 1100 
L 313 1709 
L 2253 4666 
z
" transform="scale(0.015625)"/>
       </defs>
       <use xlink:href="#DejaVuSans-30"/>
       <use xlink:href="#DejaVuSans-2e" transform="translate(63.623047 0)"/>
       <use xlink:href="#DejaVuSans-34" transform="translate(95.410156 0)"/>
      </g>
     </g>
    </g>
    <g id="ytick_4">
     <g id="line2d_6">
      <g>
       <use xlink:href="#mc0cdc49b18" x="47.307188" y="194.004357" style="stroke: #000000; stroke-width: 0.8"/>
      </g>
     </g>
     <g id="text_6">
      <!-- 0.6 -->
      <g transform="translate(22.81375 198.183497) scale(0.11 -0.11)">
       <use xlink:href="#DejaVuSans-30"/>
       <use xlink:href="#DejaVuSans-2e" transform="translate(63.623047 0)"/>
       <use xlink:href="#DejaVuSans-36" transform="translate(95.410156 0)"/>
      </g>
     </g>
    </g>
    <g id="ytick_5">
     <g id="line2d_7">
      <g>
       <use xlink:href="#mc0cdc49b18" x="47.307188" y="149.777158" style="stroke: #000000; stroke-width: 0.8"/>
      </g>
     </g>
     <g id="text_7">
      <!-- 0.8 -->
      <g transform="translate(22.81375 153.956299) scale(0.11 -0.11)">
       <defs>
        <path id="DejaVuSans-38" d="M 2034 2216 
Q 1584 2216 1326 1975 
Q 1069 1734 1069 1313 
Q 1069 891 1326 650 
Q 1584 409 2034 409 
Q 2484 409 2743 651 
Q 3003 894 3003 1313 
Q 3003 1734 2745 1975 
Q 2488 2216 2034 2216 
z
M 1403 2484 
Q 997 2584 770 2862 
Q 544 3141 544 3541 
Q 544 4100 942 4425 
Q 1341 4750 2034 4750 
Q 2731 4750 3128 4425 
Q 3525 4100 3525 3541 
Q 3525 3141 3298 2862 
Q 3072 2584 2669 2484 
Q 3125 2378 3379 2068 
Q 3634 1759 3634 1313 
Q 3634 634 3220 271 
Q 2806 -91 2034 -91 
Q 1263 -91 848 271 
Q 434 634 434 1313 
Q 434 1759 690 2068 
Q 947 2378 1403 2484 
z
M 1172 3481 
Q 1172 3119 1398 2916 
Q 1625 2713 2034 2713 
Q 2441 2713 2670 2916 
Q 2900 3119 2900 3481 
Q 2900 3844 2670 4047 
Q 2441 4250 2034 4250 
Q 1625 4250 1398 4047 
Q 1172 3844 1172 3481 
z
" transform="scale(0.015625)"/>
       </defs>
       <use xlink:href="#DejaVuSans-30"/>
       <use xlink:href="#DejaVuSans-2e" transform="translate(63.623047 0)"/>
       <use xlink:href="#DejaVuSans-38" transform="translate(95.410156 0)"/>
      </g>
     </g>
    </g>
    <g id="ytick_6">
     <g id="line2d_8">
      <g>
       <use xlink:href="#mc0cdc49b18" x="47.307188" y="105.549959" style="stroke: #000000; stroke-width: 0.8"/>
      </g>
     </g>
     <g id="text_8">
      <!-- 1.0 -->
      <g transform="translate(22.81375 109.7291) scale(0.11 -0.11)">
       <use xlink:href="#DejaVuSans-31"/>
       <use xlink:href="#DejaVuSans-2e" transform="translate(63.623047 0)"/>
       <use xlink:href="#DejaVuSans-30" transform="translate(95.410156 0)"/>
      </g>
     </g>
    </g>
    <g id="ytick_7">
     <g id="line2d_9">
      <g>
       <use xlink:href="#mc0cdc49b18" x="47.307188" y="61.322761" style="stroke: #000000; stroke-width: 0.8"/>
      </g>
     </g>
     <g id="text_9">
      <!-- 1.2 -->
      <g transform="translate(22.81375 65.501901) scale(0.11 -0.11)">
       <use xlink:href="#DejaVuSans-31"/>
       <use xlink:href="#DejaVuSans-2e" transform="translate(63.623047 0)"/>
       <use xlink:href="#DejaVuSans-32" transform="translate(95.410156 0)"/>
      </g>
     </g>
    </g>
    <g id="text_10">
     <!-- edge vs COUNT0 (% per hand, paired shoes) -->
     <g transform="translate(16.318125 324.947885) rotate(-90) scale(0.12 -0.12)">
      <defs>
       <path id="DejaVuSans-67" d="M 2906 1791 
Q 2906 2416 2648 2759 
Q 2391 3103 1925 3103 
Q 1463 3103 1205 2759 
Q 947 2416 947 1791 
Q 947 1169 1205 825 
Q 1463 481 1925 481 
Q 2391 481 2648 825 
Q 2906 1169 2906 1791 
z
M 3481 434 
Q 3481 -459 3084 -895 
Q 2688 -1331 1869 -1331 
Q 1566 -1331 1297 -1286 
Q 1028 -1241 775 -1147 
L 775 -588 
Q 1028 -725 1275 -790 
Q 1522 -856 1778 -856 
Q 2344 -856 2625 -561 
Q 2906 -266 2906 331 
L 2906 616 
Q 2728 306 2450 153 
Q 2172 0 1784 0 
Q 1141 0 747 490 
Q 353 981 353 1791 
Q 353 2603 747 3093 
Q 1141 3584 1784 3584 
Q 2172 3584 2450 3431 
Q 2728 3278 2906 2969 
L 2906 3500 
L 3481 3500 
L 3481 434 
z
" transform="scale(0.015625)"/>
       <path id="DejaVuSans-76" d="M 191 3500 
L 800 3500 
L 1894 563 
L 2988 3500 
L 3597 3500 
L 2284 0 
L 1503 0 
L 191 3500 
z
" transform="scale(0.015625)"/>
       <path id="DejaVuSans-43" d="M 4122 4306 
L 4122 3641 
Q 3803 3938 3442 4084 
Q 3081 4231 2675 4231 
Q 1875 4231 1450 3742 
Q 1025 3253 1025 2328 
Q 1025 1406 1450 917 
Q 1875 428 2675 428 
Q 3081 428 3442 575 
Q 3803 722 4122 1019 
L 4122 359 
Q 3791 134 3420 21 
Q 3050 -91 2638 -91 
Q 1578 -91 968 557 
Q 359 1206 359 2328 
Q 359 3453 968 4101 
Q 1578 4750 2638 4750 
Q 3056 4750 3426 4639 
Q 3797 4528 4122 4306 
z
" transform="scale(0.015625)"/>
       <path id="DejaVuSans-4f" d="M 2522 4238 
Q 1834 4238 1429 3725 
Q 1025 3213 1025 2328 
Q 1025 1447 1429 934 
Q 1834 422 2522 422 
Q 3209 422 3611 934 
Q 4013 1447 4013 2328 
Q 4013 3213 3611 3725 
Q 3209 4238 2522 4238 
z
M 2522 4750 
Q 3503 4750 4090 4092 
Q 4678 3434 4678 2328 
Q 4678 1225 4090 567 
Q 3503 -91 2522 -91 
Q 1538 -91 948 565 
Q 359 1222 359 2328 
Q 359 3434 948 4092 
Q 1538 4750 2522 4750 
z
" transform="scale(0.015625)"/>
       <path id="DejaVuSans-55" d="M 556 4666 
L 1191 4666 
L 1191 1831 
Q 1191 1081 1462 751 
Q 1734 422 2344 422 
Q 2950 422 3222 751 
Q 3494 1081 3494 1831 
L 3494 4666 
L 4128 4666 
L 4128 1753 
Q 4128 841 3676 375 
Q 3225 -91 2344 -91 
Q 1459 -91 1007 375 
Q 556 841 556 1753 
L 556 4666 
z
" transform="scale(0.015625)"/>
       <path id="DejaVuSans-4e" d="M 628 4666 
L 1478 4666 
L 3547 763 
L 3547 4666 
L 4159 4666 
L 4159 0 
L 3309 0 
L 1241 3903 
L 1241 0 
L 628 0 
L 628 4666 
z
" transform="scale(0.015625)"/>
       <path id="DejaVuSans-54" d="M -19 4666 
L 3928 4666 
L 3928 4134 
L 2272 4134 
L 2272 0 
L 1638 0 
L 1638 4134 
L -19 4134 
L -19 4666 
z
" transform="scale(0.015625)"/>
       <path id="DejaVuSans-28" d="M 1984 4856 
Q 1566 4138 1362 3434 
Q 1159 2731 1159 2009 
Q 1159 1288 1364 580 
Q 1569 -128 1984 -844 
L 1484 -844 
Q 1016 -109 783 600 
Q 550 1309 550 2009 
Q 550 2706 781 3412 
Q 1013 4119 1484 4856 
L 1984 4856 
z
" transform="scale(0.015625)"/>
       <path id="DejaVuSans-25" d="M 4653 2053 
Q 4381 2053 4226 1822 
Q 4072 1591 4072 1178 
Q 4072 772 4226 539 
Q 4381 306 4653 306 
Q 4919 306 5073 539 
Q 5228 772 5228 1178 
Q 5228 1588 5073 1820 
Q 4919 2053 4653 2053 
z
M 4653 2450 
Q 5147 2450 5437 2106 
Q 5728 1763 5728 1178 
Q 5728 594 5436 251 
Q 5144 -91 4653 -91 
Q 4153 -91 3862 251 
Q 3572 594 3572 1178 
Q 3572 1766 3864 2108 
Q 4156 2450 4653 2450 
z
M 1428 4353 
Q 1159 4353 1004 4120 
Q 850 3888 850 3481 
Q 850 3069 1003 2837 
Q 1156 2606 1428 2606 
Q 1700 2606 1854 2837 
Q 2009 3069 2009 3481 
Q 2009 3884 1853 4118 
Q 1697 4353 1428 4353 
z
M 4250 4750 
L 4750 4750 
L 1831 -91 
L 1331 -91 
L 4250 4750 
z
M 1428 4750 
Q 1922 4750 2215 4408 
Q 2509 4066 2509 3481 
Q 2509 2891 2217 2550 
Q 1925 2209 1428 2209 
Q 931 2209 642 2551 
Q 353 2894 353 3481 
Q 353 4063 643 4406 
Q 934 4750 1428 4750 
z
" transform="scale(0.015625)"/>
       <path id="DejaVuSans-70" d="M 1159 525 
L 1159 -1331 
L 581 -1331 
L 581 3500 
L 1159 3500 
L 1159 2969 
Q 1341 3281 1617 3432 
Q 1894 3584 2278 3584 
Q 2916 3584 3314 3078 
Q 3713 2572 3713 1747 
Q 3713 922 3314 415 
Q 2916 -91 2278 -91 
Q 1894 -91 1617 61 
Q 1341 213 1159 525 
z
M 3116 1747 
Q 3116 2381 2855 2742 
Q 2594 3103 2138 3103 
Q 1681 3103 1420 2742 
Q 1159 2381 1159 1747 
Q 1159 1113 1420 752 
Q 1681 391 2138 391 
Q 2594 391 2855 752 
Q 3116 1113 3116 1747 
z
" transform="scale(0.015625)"/>
       <path id="DejaVuSans-72" d="M 2631 2963 
Q 2534 3019 2420 3045 
Q 2306 3072 2169 3072 
Q 1681 3072 1420 2755 
Q 1159 2438 1159 1844 
L 1159 0 
L 581 0 
L 581 3500 
L 1159 3500 
L 1159 2956 
Q 1341 3275 1631 3429 
Q 1922 3584 2338 3584 
Q 2397 3584 2469 3576 
Q 2541 3569 2628 3553 
L 2631 2963 
z
" transform="scale(0.015625)"/>
       <path id="DejaVuSans-68" d="M 3513 2113 
L 3513 0 
L 2938 0 
L 2938 2094 
Q 2938 2591 2744 2837 
Q 2550 3084 2163 3084 
Q 1697 3084 1428 2787 
Q 1159 2491 1159 1978 
L 1159 0 
L 581 0 
L 581 4863 
L 1159 4863 
L 1159 2956 
Q 1366 3272 1645 3428 
Q 1925 3584 2291 3584 
Q 2894 3584 3203 3211 
Q 3513 2838 3513 2113 
z
" transform="scale(0.015625)"/>
       <path id="DejaVuSans-61" d="M 2194 1759 
Q 1497 1759 1228 1600 
Q 959 1441 959 1056 
Q 959 750 1161 570 
Q 1363 391 1709 391 
Q 2188 391 2477 730 
Q 2766 1069 2766 1631 
L 2766 1759 
L 2194 1759 
z
M 3341 1997 
L 3341 0 
L 2766 0 
L 2766 531 
Q 2569 213 2275 61 
Q 1981 -91 1556 -91 
Q 1019 -91 701 211 
Q 384 513 384 1019 
Q 384 1609 779 1909 
Q 1175 2209 1959 2209 
L 2766 2209 
L 2766 2266 
Q 2766 2663 2505 2880 
Q 2244 3097 1772 3097 
Q 1472 3097 1187 3025 
Q 903 2953 641 2809 
L 641 3341 
Q 956 3463 1253 3523 
Q 1550 3584 1831 3584 
Q 2591 3584 2966 3190 
Q 3341 2797 3341 1997 
z
" transform="scale(0.015625)"/>
       <path id="DejaVuSans-6e" d="M 3513 2113 
L 3513 0 
L 2938 0 
L 2938 2094 
Q 2938 2591 2744 2837 
Q 2550 3084 2163 3084 
Q 1697 3084 1428 2787 
Q 1159 2491 1159 1978 
L 1159 0 
L 581 0 
L 581 3500 
L 1159 3500 
L 1159 2956 
Q 1366 3272 1645 3428 
Q 1925 3584 2291 3584 
Q 2894 3584 3203 3211 
Q 3513 2838 3513 2113 
z
" transform="scale(0.015625)"/>
       <path id="DejaVuSans-2c" d="M 750 794 
L 1409 794 
L 1409 256 
L 897 -744 
L 494 -744 
L 750 256 
L 750 794 
z
" transform="scale(0.015625)"/>
       <path id="DejaVuSans-69" d="M 603 3500 
L 1178 3500 
L 1178 0 
L 603 0 
L 603 3500 
z
M 603 4863 
L 1178 4863 
L 1178 4134 
L 603 4134 
L 603 4863 
z
" transform="scale(0.015625)"/>
       <path id="DejaVuSans-6f" d="M 1959 3097 
Q 1497 3097 1228 2736 
Q 959 2375 959 1747 
Q 959 1119 1226 758 
Q 1494 397 1959 397 
Q 2419 397 2687 759 
Q 2956 1122 2956 1747 
Q 2956 2369 2687 2733 
Q 2419 3097 1959 3097 
z
M 1959 3584 
Q 2709 3584 3137 3096 
Q 3566 2609 3566 1747 
Q 3566 888 3137 398 
Q 2709 -91 1959 -91 
Q 1206 -91 779 398 
Q 353 888 353 1747 
Q 353 2609 779 3096 
Q 1206 3584 1959 3584 
z
" transform="scale(0.015625)"/>
       <path id="DejaVuSans-29" d="M 513 4856 
L 1013 4856 
Q 1481 4119 1714 3412 
Q 1947 2706 1947 2009 
Q 1947 1309 1714 600 
Q 1481 -109 1013 -844 
L 513 -844 
Q 928 -128 1133 580 
Q 1338 1288 1338 2009 
Q 1338 2731 1133 3434 
Q 928 4138 513 4856 
z
" transform="scale(0.015625)"/>
      </defs>
      <use xlink:href="#DejaVuSans-65"/>
      <use xlink:href="#DejaVuSans-64" transform="translate(61.523438 0)"/>
      <use xlink:href="#DejaVuSans-67" transform="translate(125 0)"/>
      <use xlink:href="#DejaVuSans-65" transform="translate(188.476562 0)"/>
      <use xlink:href="#DejaVuSans-20" transform="translate(250 0)"/>
      <use xlink:href="#DejaVuSans-76" transform="translate(281.787109 0)"/>
      <use xlink:href="#DejaVuSans-73" transform="translate(340.966797 0)"/>
      <use xlink:href="#DejaVuSans-20" transform="translate(393.066406 0)"/>
      <use xlink:href="#DejaVuSans-43" transform="translate(424.853516 0)"/>
      <use xlink:href="#DejaVuSans-4f" transform="translate(494.677734 0)"/>
      <use xlink:href="#DejaVuSans-55" transform="translate(573.388672 0)"/>
      <use xlink:href="#DejaVuSans-4e" transform="translate(646.582031 0)"/>
      <use xlink:href="#DejaVuSans-54" transform="translate(721.386719 0)"/>
      <use xlink:href="#DejaVuSans-30" transform="translate(782.470703 0)"/>
      <use xlink:href="#DejaVuSans-20" transform="translate(846.09375 0)"/>
      <use xlink:href="#DejaVuSans-28" transform="translate(877.880859 0)"/>
      <use xlink:href="#DejaVuSans-25" transform="translate(916.894531 0)"/>
      <use xlink:href="#DejaVuSans-20" transform="translate(1011.914062 0)"/>
      <use xlink:href="#DejaVuSans-70" transform="translate(1043.701172 0)"/>
      <use xlink:href="#DejaVuSans-65" transform="translate(1107.177734 0)"/>
      <use xlink:href="#DejaVuSans-72" transform="translate(1168.701172 0)"/>
      <use xlink:href="#DejaVuSans-20" transform="translate(1209.814453 0)"/>
      <use xlink:href="#DejaVuSans-68" transform="translate(1241.601562 0)"/>
      <use xlink:href="#DejaVuSans-61" transform="translate(1304.980469 0)"/>
      <use xlink:href="#DejaVuSans-6e" transform="translate(1366.259766 0)"/>
      <use xlink:href="#DejaVuSans-64" transform="translate(1429.638672 0)"/>
      <use xlink:href="#DejaVuSans-2c" transform="translate(1493.115234 0)"/>
      <use xlink:href="#DejaVuSans-20" transform="translate(1524.902344 0)"/>
      <use xlink:href="#DejaVuSans-70" transform="translate(1556.689453 0)"/>
      <use xlink:href="#DejaVuSans-61" transform="translate(1620.166016 0)"/>
      <use xlink:href="#DejaVuSans-69" transform="translate(1681.445312 0)"/>
      <use xlink:href="#DejaVuSans-72" transform="translate(1709.228516 0)"/>
      <use xlink:href="#DejaVuSans-65" transform="translate(1748.091797 0)"/>
      <use xlink:href="#DejaVuSans-64" transform="translate(1809.615234 0)"/>
      <use xlink:href="#DejaVuSans-20" transform="translate(1873.091797 0)"/>
      <use xlink:href="#DejaVuSans-73" transform="translate(1904.878906 0)"/>
      <use xlink:href="#DejaVuSans-68" transform="translate(1956.978516 0)"/>
      <use xlink:href="#DejaVuSans-6f" transform="translate(2020.357422 0)"/>
      <use xlink:href="#DejaVuSans-65" transform="translate(2081.539062 0)"/>
      <use xlink:href="#DejaVuSans-73" transform="translate(2143.0625 0)"/>
      <use xlink:href="#DejaVuSans-29" transform="translate(2195.162109 0)"/>
     </g>
    </g>
   </g>
   <g id="line2d_10">
    <path d="M 47.307188 326.685952 
L 577.19952 326.685952 
" clip-path="url(#p3888b3e9aa)" style="fill: none; stroke: #808080; stroke-width: 0.8; stroke-linecap: square"/>
   </g>
   <g id="LineCollection_1">
    <path d="M 120.138709 191.477484 
L 120.138709 39.024893 
" clip-path="url(#p3888b3e9aa)" style="fill: none; stroke: #404040; stroke-width: 1.5"/>
    <path d="M 406.876985 342.766502 
L 406.876985 185.155174 
" clip-path="url(#p3888b3e9aa)" style="fill: none; stroke: #404040; stroke-width: 1.5"/>
   </g>
   <g id="line2d_11">
    <defs>
     <path id="m44e486e308" d="M 5 0 
L -5 -0 
" style="stroke: #404040"/>
    </defs>
    <g clip-path="url(#p3888b3e9aa)">
     <use xlink:href="#m44e486e308" x="120.138709" y="191.477484" style="fill: #404040; stroke: #404040"/>
     <use xlink:href="#m44e486e308" x="406.876985" y="342.766502" style="fill: #404040; stroke: #404040"/>
    </g>
   </g>
   <g id="line2d_12">
    <g clip-path="url(#p3888b3e9aa)">
     <use xlink:href="#m44e486e308" x="120.138709" y="39.024893" style="fill: #404040; stroke: #404040"/>
     <use xlink:href="#m44e486e308" x="406.876985" y="185.155174" style="fill: #404040; stroke: #404040"/>
    </g>
   </g>
   <g id="LineCollection_2">
    <path d="M 217.629723 192.719745 
L 217.629723 51.871485 
" clip-path="url(#p3888b3e9aa)" style="fill: none; stroke: #404040; stroke-width: 1.5"/>
    <path d="M 504.367998 295.710485 
L 504.367998 157.641175 
" clip-path="url(#p3888b3e9aa)" style="fill: none; stroke: #404040; stroke-width: 1.5"/>
   </g>
   <g id="line2d_13">
    <g clip-path="url(#p3888b3e9aa)">
     <use xlink:href="#m44e486e308" x="217.629723" y="192.719745" style="fill: #404040; stroke: #404040"/>
     <use xlink:href="#m44e486e308" x="504.367998" y="295.710485" style="fill: #404040; stroke: #404040"/>
    </g>
   </g>
   <g id="line2d_14">
    <g clip-path="url(#p3888b3e9aa)">
     <use xlink:href="#m44e486e308" x="217.629723" y="51.871485" style="fill: #404040; stroke: #404040"/>
     <use xlink:href="#m44e486e308" x="504.367998" y="157.641175" style="fill: #404040; stroke: #404040"/>
    </g>
   </g>
   <g id="patch_7">
    <path d="M 47.307188 357.953582 
L 47.307188 23.837812 
" style="fill: none; stroke: #000000; stroke-width: 0.8; stroke-linejoin: miter; stroke-linecap: square"/>
   </g>
   <g id="patch_8">
    <path d="M 577.19952 357.953582 
L 577.19952 23.837812 
" style="fill: none; stroke: #000000; stroke-width: 0.8; stroke-linejoin: miter; stroke-linecap: square"/>
   </g>
   <g id="patch_9">
    <path d="M 47.307188 357.953582 
L 577.19952 357.953582 
" style="fill: none; stroke: #000000; stroke-width: 0.8; stroke-linejoin: miter; stroke-linecap: square"/>
   </g>
   <g id="patch_10">
    <path d="M 47.307188 23.837812 
L 577.19952 23.837812 
" style="fill: none; stroke: #000000; stroke-width: 0.8; stroke-linejoin: miter; stroke-linecap: square"/>
   </g>
   <g id="text_11">
    <!-- What index plays are worth: edge gained over the same counter with no deviations -->
    <g transform="translate(19.364604 17.837812) scale(0.14 -0.14)">
     <defs>
      <path id="DejaVuSans-57" d="M 213 4666 
L 850 4666 
L 1831 722 
L 2809 4666 
L 3519 4666 
L 4500 722 
L 5478 4666 
L 6119 4666 
L 4947 0 
L 4153 0 
L 3169 4050 
L 2175 0 
L 1381 0 
L 213 4666 
z
" transform="scale(0.015625)"/>
      <path id="DejaVuSans-74" d="M 1172 4494 
L 1172 3500 
L 2356 3500 
L 2356 3053 
L 1172 3053 
L 1172 1153 
Q 1172 725 1289 603 
Q 1406 481 1766 481 
L 2356 481 
L 2356 0 
L 1766 0 
Q 1100 0 847 248 
Q 594 497 594 1153 
L 594 3053 
L 172 3053 
L 172 3500 
L 594 3500 
L 594 4494 
L 1172 4494 
z
" transform="scale(0.015625)"/>
      <path id="DejaVuSans-78" d="M 3513 3500 
L 2247 1797 
L 3578 0 
L 2900 0 
L 1881 1375 
L 863 0 
L 184 0 
L 1544 1831 
L 300 3500 
L 978 3500 
L 1906 2253 
L 2834 3500 
L 3513 3500 
z
" transform="scale(0.015625)"/>
      <path id="DejaVuSans-6c" d="M 603 4863 
L 1178 4863 
L 1178 0 
L 603 0 
L 603 4863 
z
" transform="scale(0.015625)"/>
      <path id="DejaVuSans-79" d="M 2059 -325 
Q 1816 -950 1584 -1140 
Q 1353 -1331 966 -1331 
L 506 -1331 
L 506 -850 
L 844 -850 
Q 1081 -850 1212 -737 
Q 1344 -625 1503 -206 
L 1606 56 
L 191 3500 
L 800 3500 
L 1894 763 
L 2988 3500 
L 3597 3500 
L 2059 -325 
z
" transform="scale(0.015625)"/>
      <path id="DejaVuSans-77" d="M 269 3500 
L 844 3500 
L 1563 769 
L 2278 3500 
L 2956 3500 
L 3675 769 
L 4391 3500 
L 4966 3500 
L 4050 0 
L 3372 0 
L 2619 2869 
L 1863 0 
L 1184 0 
L 269 3500 
z
" transform="scale(0.015625)"/>
      <path id="DejaVuSans-3a" d="M 750 794 
L 1409 794 
L 1409 0 
L 750 0 
L 750 794 
z
M 750 3309 
L 1409 3309 
L 1409 2516 
L 750 2516 
L 750 3309 
z
" transform="scale(0.015625)"/>
      <path id="DejaVuSans-6d" d="M 3328 2828 
Q 3544 3216 3844 3400 
Q 4144 3584 4550 3584 
Q 5097 3584 5394 3201 
Q 5691 2819 5691 2113 
L 5691 0 
L 5113 0 
L 5113 2094 
Q 5113 2597 4934 2840 
Q 4756 3084 4391 3084 
Q 3944 3084 3684 2787 
Q 3425 2491 3425 1978 
L 3425 0 
L 2847 0 
L 2847 2094 
Q 2847 2600 2669 2842 
Q 2491 3084 2119 3084 
Q 1678 3084 1418 2786 
Q 1159 2488 1159 1978 
L 1159 0 
L 581 0 
L 581 3500 
L 1159 3500 
L 1159 2956 
Q 1356 3278 1631 3431 
Q 1906 3584 2284 3584 
Q 2666 3584 2933 3390 
Q 3200 3197 3328 2828 
z
" transform="scale(0.015625)"/>
      <path id="DejaVuSans-75" d="M 544 1381 
L 544 3500 
L 1119 3500 
L 1119 1403 
Q 1119 906 1312 657 
Q 1506 409 1894 409 
Q 2359 409 2629 706 
Q 2900 1003 2900 1516 
L 2900 3500 
L 3475 3500 
L 3475 0 
L 2900 0 
L 2900 538 
Q 2691 219 2414 64 
Q 2138 -91 1772 -91 
Q 1169 -91 856 284 
Q 544 659 544 1381 
z
M 1991 3584 
L 1991 3584 
z
" transform="scale(0.015625)"/>
     </defs>
     <use xlink:href="#DejaVuSans-57"/>
     <use xlink:href="#DejaVuSans-68" transform="translate(98.876953 0)"/>
     <use xlink:href="#DejaVuSans-61" transform="translate(162.255859 0)"/>
     <use xlink:href="#DejaVuSans-74" transform="translate(223.535156 0)"/>
     <use xlink:href="#DejaVuSans-20" transform="translate(262.744141 0)"/>
     <use xlink:href="#DejaVuSans-69" transform="translate(294.53125 0)"/>
     <use xlink:href="#DejaVuSans-6e" transform="translate(322.314453 0)"/>
     <use xlink:href="#DejaVuSans-64" transform="translate(385.693359 0)"/>
     <use xlink:href="#DejaVuSans-65" transform="translate(449.169922 0)"/>
     <use xlink:href="#DejaVuSans-78" transform="translate(508.943359 0)"/>
     <use xlink:href="#DejaVuSans-20" transform="translate(568.123047 0)"/>
     <use xlink:href="#DejaVuSans-70" transform="translate(599.910156 0)"/>
     <use xlink:href="#DejaVuSans-6c" transform="translate(663.386719 0)"/>
     <use xlink:href="#DejaVuSans-61" transform="translate(691.169922 0)"/>
     <use xlink:href="#DejaVuSans-79" transform="translate(752.449219 0)"/>
     <use xlink:href="#DejaVuSans-73" transform="translate(811.628906 0)"/>
     <use xlink:href="#DejaVuSans-20" transform="translate(863.728516 0)"/>
     <use xlink:href="#DejaVuSans-61" transform="translate(895.515625 0)"/>
     <use xlink:href="#DejaVuSans-72" transform="translate(956.794922 0)"/>
     <use xlink:href="#DejaVuSans-65" transform="translate(995.658203 0)"/>
     <use xlink:href="#DejaVuSans-20" transform="translate(1057.181641 0)"/>
     <use xlink:href="#DejaVuSans-77" transform="translate(1088.96875 0)"/>
     <use xlink:href="#DejaVuSans-6f" transform="translate(1170.755859 0)"/>
     <use xlink:href="#DejaVuSans-72" transform="translate(1231.9375 0)"/>
     <use xlink:href="#DejaVuSans-74" transform="translate(1273.050781 0)"/>
     <use xlink:href="#DejaVuSans-68" transform="translate(1312.259766 0)"/>
     <use xlink:href="#DejaVuSans-3a" transform="translate(1375.638672 0)"/>
     <use xlink:href="#DejaVuSans-20" transform="translate(1409.330078 0)"/>
     <use xlink:href="#DejaVuSans-65" transform="translate(1441.117188 0)"/>
     <use xlink:href="#DejaVuSans-64" transform="translate(1502.640625 0)"/>
     <use xlink:href="#DejaVuSans-67" transform="translate(1566.117188 0)"/>
     <use xlink:href="#DejaVuSans-65" transform="translate(1629.59375 0)"/>
     <use xlink:href="#DejaVuSans-20" transform="translate(1691.117188 0)"/>
     <use xlink:href="#DejaVuSans-67" transform="translate(1722.904297 0)"/>
     <use xlink:href="#DejaVuSans-61" transform="translate(1786.380859 0)"/>
     <use xlink:href="#DejaVuSans-69" transform="translate(1847.660156 0)"/>
     <use xlink:href="#DejaVuSans-6e" transform="translate(1875.443359 0)"/>
     <use xlink:href="#DejaVuSans-65" transform="translate(1938.822266 0)"/>
     <use xlink:href="#DejaVuSans-64" transform="translate(2000.345703 0)"/>
     <use xlink:href="#DejaVuSans-20" transform="translate(2063.822266 0)"/>
     <use xlink:href="#DejaVuSans-6f" transform="translate(2095.609375 0)"/>
     <use xlink:href="#DejaVuSans-76" transform="translate(2156.791016 0)"/>
     <use xlink:href="#DejaVuSans-65" transform="translate(2215.970703 0)"/>
     <use xlink:href="#DejaVuSans-72" transform="translate(2277.494141 0)"/>
     <use xlink:href="#DejaVuSans-20" transform="translate(2318.607422 0)"/>
     <use xlink:href="#DejaVuSans-74" transform="translate(2350.394531 0)"/>
     <use xlink:href="#DejaVuSans-68" transform="translate(2389.603516 0)"/>
     <use xlink:href="#DejaVuSans-65" transform="translate(2452.982422 0)"/>
     <use xlink:href="#DejaVuSans-20" transform="translate(2514.505859 0)"/>
     <use xlink:href="#DejaVuSans-73" transform="translate(2546.292969 0)"/>
     <use xlink:href="#DejaVuSans-61" transform="translate(2598.392578 0)"/>
     <use xlink:href="#DejaVuSans-6d" transform="translate(2659.671875 0)"/>
     <use xlink:href="#DejaVuSans-65" transform="translate(2757.083984 0)"/>
     <use xlink:href="#DejaVuSans-20" transform="translate(2818.607422 0)"/>
     <use xlink:href="#DejaVuSans-63" transform="translate(2850.394531 0)"/>
     <use xlink:href="#DejaVuSans-6f" transform="translate(2905.375 0)"/>
     <use xlink:href="#DejaVuSans-75" transform="translate(2966.556641 0)"/>
     <use xlink:href="#DejaVuSans-6e" transform="translate(3029.935547 0)"/>
     <use xlink:href="#DejaVuSans-74" transform="translate(3093.314453 0)"/>
     <use xlink:href="#DejaVuSans-65" transform="translate(3132.523438 0)"/>
     <use xlink:href="#DejaVuSans-72" transform="translate(3194.046875 0)"/>
     <use xlink:href="#DejaVuSans-20" transform="translate(3235.160156 0)"/>
     <use xlink:href="#DejaVuSans-77" transform="translate(3266.947266 0)"/>
     <use xlink:href="#DejaVuSans-69" transform="translate(3348.734375 0)"/>
     <use xlink:href="#DejaVuSans-74" transform="translate(3376.517578 0)"/>
     <use xlink:href="#DejaVuSans-68" transform="translate(3415.726562 0)"/>
     <use xlink:href="#DejaVuSans-20" transform="translate(3479.105469 0)"/>
     <use xlink:href="#DejaVuSans-6e" transform="translate(3510.892578 0)"/>
     <use xlink:href="#DejaVuSans-6f" transform="translate(3574.271484 0)"/>
     <use xlink:href="#DejaVuSans-20" transform="translate(3635.453125 0)"/>
     <use xlink:href="#DejaVuSans-64" transform="translate(3667.240234 0)"/>
     <use xlink:href="#DejaVuSans-65" transform="translate(3730.716797 0)"/>
     <use xlink:href="#DejaVuSans-76" transform="translate(3792.240234 0)"/>
     <use xlink:href="#DejaVuSans-69" transform="translate(3851.419922 0)"/>
     <use xlink:href="#DejaVuSans-61" transform="translate(3879.203125 0)"/>
     <use xlink:href="#DejaVuSans-74" transform="translate(3940.482422 0)"/>
     <use xlink:href="#DejaVuSans-69" transform="translate(3979.691406 0)"/>
     <use xlink:href="#DejaVuSans-6f" transform="translate(4007.474609 0)"/>
     <use xlink:href="#DejaVuSans-6e" transform="translate(4068.65625 0)"/>
     <use xlink:href="#DejaVuSans-73" transform="translate(4132.035156 0)"/>
    </g>
   </g>
   <g id="legend_1">
    <g id="patch_11">
     <path d="M 367.619832 61.194062 
L 570.19952 61.194062 
Q 572.19952 61.194062 572.19952 59.194062 
L 572.19952 30.837812 
Q 572.19952 28.837812 570.19952 28.837812 
L 367.619832 28.837812 
Q 365.619832 28.837812 365.619832 30.837812 
L 365.619832 59.194062 
Q 365.619832 61.194062 367.619832 61.194062 
z
" style="fill: #ffffff; opacity: 0.8; stroke: #cccccc; stroke-linejoin: miter"/>
    </g>
    <g id="patch_12">
     <path d="M 369.619832 40.43625 
L 389.619832 40.43625 
L 389.619832 33.43625 
L 369.619832 33.43625 
z
" style="fill: #2980b9"/>
    </g>
    <g id="text_12">
     <!-- textbook Illustrious 18  (COUNT) -->
     <g transform="translate(397.619832 40.43625) scale(0.1 -0.1)">
      <defs>
       <path id="DejaVuSans-62" d="M 3116 1747 
Q 3116 2381 2855 2742 
Q 2594 3103 2138 3103 
Q 1681 3103 1420 2742 
Q 1159 2381 1159 1747 
Q 1159 1113 1420 752 
Q 1681 391 2138 391 
Q 2594 391 2855 752 
Q 3116 1113 3116 1747 
z
M 1159 2969 
Q 1341 3281 1617 3432 
Q 1894 3584 2278 3584 
Q 2916 3584 3314 3078 
Q 3713 2572 3713 1747 
Q 3713 922 3314 415 
Q 2916 -91 2278 -91 
Q 1894 -91 1617 61 
Q 1341 213 1159 525 
L 1159 0 
L 581 0 
L 581 4863 
L 1159 4863 
L 1159 2969 
z
" transform="scale(0.015625)"/>
       <path id="DejaVuSans-49" d="M 628 4666 
L 1259 4666 
L 1259 0 
L 628 0 
L 628 4666 
z
" transform="scale(0.015625)"/>
      </defs>
      <use xlink:href="#DejaVuSans-74"/>
      <use xlink:href="#DejaVuSans-65" transform="translate(39.208984 0)"/>
      <use xlink:href="#DejaVuSans-78" transform="translate(98.982422 0)"/>
      <use xlink:href="#DejaVuSans-74" transform="translate(158.162109 0)"/>
      <use xlink:href="#DejaVuSans-62" transform="translate(197.371094 0)"/>
      <use xlink:href="#DejaVuSans-6f" transform="translate(260.847656 0)"/>
      <use xlink:href="#DejaVuSans-6f" transform="translate(322.029297 0)"/>
      <use xlink:href="#DejaVuSans-6b" transform="translate(383.210938 0)"/>
      <use xlink:href="#DejaVuSans-20" transform="translate(441.121094 0)"/>
      <use xlink:href="#DejaVuSans-49" transform="translate(472.908203 0)"/>
      <use xlink:href="#DejaVuSans-6c" transform="translate(502.400391 0)"/>
      <use xlink:href="#DejaVuSans-6c" transform="translate(530.183594 0)"/>
      <use xlink:href="#DejaVuSans-75" transform="translate(557.966797 0)"/>
      <use xlink:href="#DejaVuSans-73" transform="translate(621.345703 0)"/>
      <use xlink:href="#DejaVuSans-74" transform="translate(673.445312 0)"/>
      <use xlink:href="#DejaVuSans-72" transform="translate(712.654297 0)"/>
      <use xlink:href="#DejaVuSans-69" transform="translate(753.767578 0)"/>
      <use xlink:href="#DejaVuSans-6f" transform="translate(781.550781 0)"/>
      <use xlink:href="#DejaVuSans-75" transform="translate(842.732422 0)"/>
      <use xlink:href="#DejaVuSans-73" transform="translate(906.111328 0)"/>
      <use xlink:href="#DejaVuSans-20" transform="translate(958.210938 0)"/>
      <use xlink:href="#DejaVuSans-31" transform="translate(989.998047 0)"/>
      <use xlink:href="#DejaVuSans-38" transform="translate(1053.621094 0)"/>
      <use xlink:href="#DejaVuSans-20" transform="translate(1117.244141 0)"/>
      <use xlink:href="#DejaVuSans-20" transform="translate(1149.03125 0)"/>
      <use xlink:href="#DejaVuSans-28" transform="translate(1180.818359 0)"/>
      <use xlink:href="#DejaVuSans-43" transform="translate(1219.832031 0)"/>
      <use xlink:href="#DejaVuSans-4f" transform="translate(1289.65625 0)"/>
      <use xlink:href="#DejaVuSans-55" transform="translate(1368.367188 0)"/>
      <use xlink:href="#DejaVuSans-4e" transform="translate(1441.560547 0)"/>
      <use xlink:href="#DejaVuSans-54" transform="translate(1516.365234 0)"/>
      <use xlink:href="#DejaVuSans-29" transform="translate(1577.449219 0)"/>
     </g>
    </g>
    <g id="patch_13">
     <path d="M 369.619832 55.114375 
L 389.619832 55.114375 
L 389.619832 48.114375 
L 369.619832 48.114375 
z
" style="fill: #1a9850"/>
    </g>
    <g id="text_13">
     <!-- engine-derived indices  (COUNTX) -->
     <g transform="translate(397.619832 55.114375) scale(0.1 -0.1)">
      <defs>
       <path id="DejaVuSans-2d" d="M 313 2009 
L 1997 2009 
L 1997 1497 
L 313 1497 
L 313 2009 
z
" transform="scale(0.015625)"/>
       <path id="DejaVuSans-58" d="M 403 4666 
L 1081 4666 
L 2241 2931 
L 3406 4666 
L 4084 4666 
L 2584 2425 
L 4184 0 
L 3506 0 
L 2194 1984 
L 872 0 
L 191 0 
L 1856 2491 
L 403 4666 
z
" transform="scale(0.015625)"/>
      </defs>
      <use xlink:href="#DejaVuSans-65"/>
      <use xlink:href="#DejaVuSans-6e" transform="translate(61.523438 0)"/>
      <use xlink:href="#DejaVuSans-67" transform="translate(124.902344 0)"/>
      <use xlink:href="#DejaVuSans-69" transform="translate(188.378906 0)"/>
      <use xlink:href="#DejaVuSans-6e" transform="translate(216.162109 0)"/>
      <use xlink:href="#DejaVuSans-65" transform="translate(279.541016 0)"/>
      <use xlink:href="#DejaVuSans-2d" transform="translate(341.064453 0)"/>
      <use xlink:href="#DejaVuSans-64" transform="translate(377.148438 0)"/>
      <use xlink:href="#DejaVuSans-65" transform="translate(440.625 0)"/>
      <use xlink:href="#DejaVuSans-72" transform="translate(502.148438 0)"/>
      <use xlink:href="#DejaVuSans-69" transform="translate(543.261719 0)"/>
      <use xlink:href="#DejaVuSans-76" transform="translate(571.044922 0)"/>
      <use xlink:href="#DejaVuSans-65" transform="translate(630.224609 0)"/>
      <use xlink:href="#DejaVuSans-64" transform="translate(691.748047 0)"/>
      <use xlink:href="#DejaVuSans-20" transform="translate(755.224609 0)"/>
      <use xlink:href="#DejaVuSans-69" transform="translate(787.011719 0)"/>
      <use xlink:href="#DejaVuSans-6e" transform="translate(814.794922 0)"/>
      <use xlink:href="#DejaVuSans-64" transform="translate(878.173828 0)"/>
      <use xlink:href="#DejaVuSans-69" transform="translate(941.650391 0)"/>
      <use xlink:href="#DejaVuSans-63" transform="translate(969.433594 0)"/>
      <use xlink:href="#DejaVuSans-65" transform="translate(1024.414062 0)"/>
      <use xlink:href="#DejaVuSans-73" transform="translate(1085.9375 0)"/>
      <use xlink:href="#DejaVuSans-20" transform="translate(1138.037109 0)"/>
      <use xlink:href="#DejaVuSans-20" transform="translate(1169.824219 0)"/>
      <use xlink:href="#DejaVuSans-28" transform="translate(1201.611328 0)"/>
      <use xlink:href="#DejaVuSans-43" transform="translate(1240.625 0)"/>
      <use xlink:href="#DejaVuSans-4f" transform="translate(1310.449219 0)"/>
      <use xlink:href="#DejaVuSans-55" transform="translate(1389.160156 0)"/>
      <use xlink:href="#DejaVuSans-4e" transform="translate(1462.353516 0)"/>
      <use xlink:href="#DejaVuSans-54" transform="translate(1537.158203 0)"/>
      <use xlink:href="#DejaVuSans-58" transform="translate(1598.242188 0)"/>
      <use xlink:href="#DejaVuSans-29" transform="translate(1666.748047 0)"/>
     </g>
    </g>
   </g>
  </g>
 </g>
 <defs>
  <clipPath id="p3888b3e9aa">
   <rect x="47.307188" y="23.837812" width="529.892332" height="334.11577"/>
  </clipPath>
 </defs>
</svg>
