<?xml version="1.0" encoding="utf-8" standalone="no"?>
<!DOCTYPE svg PUBLIC "-//W3C//DTD SVG 1.1//EN"
  "http://www.w3.org/Graphics/SVG/1.1/DTD/svg11.dtd">
<svg xmlns:xlink="http://www.w3.org/1999/xlink" width="656.39952pt" height="389.99952pt" viewBox="0 0 656.39952 389.99952" xmlns="http://www.w3.org/2000/svg" version="1.1">
 <metadata>
  <rdf:RDF xmlns:dc="http://purl.org/dc/elements/1.1/" xmlns:cc="http://creativecommons.org/ns#" xmlns:rdf="http://www.w3.org/1999/02/22-rdf-syntax-ns#">
   <cc:Work>
    <dc:type rdf:resource="http://purl.org/dc/dcmitype/StillImage"/>
    <dc:date>2026-06-12T15:32:16.073513</dc:date>
    <dc:format>image/svg+xml</dc:format>
    <dc:creator>
     <cc:Agent>
      <dc:title>Matplotlib v3.10.1, https://matplotlib.org/</dc:title>
     </cc:Agent>
    </dc:creator>
   </cc:Work>
  </rdf:RDF>
 </metadata>
 <defs>
  <style type="text/css">*{stroke-linejoin: round; stroke-linecap: butt}</style>
 </defs>
 <g id="figure_1">
  <g id="patch_1">
   <path d="M 0 389.99952 
L 656.39952 389.99952 
L 656.39952 0 
L 0 0 
z
" style="fill: #ffffff"/>
  </g>
  <g id="axes_1">
   <g id="patch_2">
    <path d="M 47.307188 349.539832 
L 607.49827 349.539832 
L 607.49827 23.837812 
L 47.307188 23.837812 
z
" style="fill: #ffffff"/>
   </g>
   <g id="matplotlib.axis_1">
    <g id="xtick_1">
     <g id="line2d_1">
      <defs>
       <path id="m24304811a7" d="M 0 0 
L 0 3.5 
" style="stroke: #000000; stroke-width: 0.8"/>
      </defs>
      <g>
       <use xlink:href="#m24304811a7" x="72.770419" y="349.539832" style="stroke: #000000; stroke-width: 0.8"/>
      </g>
     </g>
     <g id="text_1">
      <!-- 0 -->
      <g transform="translate(69.271044 364.898114) scale(0.11 -0.11)">
       <defs>
        <path id="DejaVuSans-30" d="M 2034 4250 
Q 1547 4250 1301 3770 
Q 1056 3291 1056 2328 
Q 1056 1369 1301 889 
Q 1547 409 2034 409 
Q 2525 409 2770 889 
Q 3016 1369 3016 2328 
Q 3016 3291 2770 3770 
Q 2525 4250 2034 4250 
z
M 2034 4750 
Q 2819 4750 3233 4129 
Q 3647 3509 3647 2328 
Q 3647 1150 3233 529 
Q 2819 -91 2034 -91 
Q 1250 -91 836 529 
Q 422 1150 422 2328 
Q 422 3509 836 4129 
Q 1250 4750 2034 4750 
z
" transform="scale(0.015625)"/>
       </defs>
       <use xlink:href="#DejaVuSans-30"/>
      </g>
     </g>
    </g>
    <g id="xtick_2">
     <g id="line2d_2">
      <g>
       <use xlink:href="#m24304811a7" x="157.647855" y="349.539832" style="stroke: #000000; stroke-width: 0.8"/>
      </g>
     </g>
     <g id="text_2">
      <!-- 1 -->
      <g transform="translate(154.14848 364.898114) scale(0.11 -0.11)">
       <defs>
        <path id="DejaVuSans-31" d="M 794 531 
L 1825 531 
L 1825 4091 
L 703 3866 
L 703 4441 
L 1819 4666 
L 2450 4666 
L 2450 531 
L 3481 531 
L 3481 0 
L 794 0 
L 794 531 
z
" transform="scale(0.015625)"/>
       </defs>
       <use xlink:href="#DejaVuSans-31"/>
      </g>
     </g>
    </g>
    <g id="xtick_3">
     <g id="line2d_3">
      <g>
       <use xlink:href="#m24304811a7" x="242.525292" y="349.539832" style="stroke: #000000; stroke-width: 0.8"/>
      </g>
     </g>
     <g id="text_3">
      <!-- 2 -->
      <g transform="translate(239.025917 364.898114) scale(0.11 -0.11)">
       <defs>
        <path id="DejaVuSans-32" d="M 1228 531 
L 3431 531 
L 3431 0 
L 469 0 
L 469 531 
Q 828 903 1448 1529 
Q 2069 2156 2228 2338 
Q 2531 2678 2651 2914 
Q 2772 3150 2772 3378 
Q 2772 3750 2511 3984 
Q 2250 4219 1831 4219 
Q 1534 4219 1204 4116 
Q 875 4013 500 3803 
L 500 4441 
Q 881 4594 1212 4672 
Q 1544 4750 1819 4750 
Q 2544 4750 2975 4387 
Q 3406 4025 3406 3419 
Q 3406 3131 3298 2873 
Q 3191 2616 2906 2266 
Q 2828 2175 2409 1742 
Q 1991 1309 1228 531 
z
" transform="scale(0.015625)"/>
       </defs>
       <use xlink:href="#DejaVuSans-32"/>
      </g>
     </g>
    </g>
    <g id="xtick_4">
     <g id="line2d_4">
      <g>
       <use xlink:href="#m24304811a7" x="327.402729" y="349.539832" style="stroke: #000000; stroke-width: 0.8"/>
      </g>
     </g>
     <g id="text_4">
      <!-- 3 -->
      <g transform="translate(323.903354 364.898114) scale(0.11 -0.11)">
       <defs>
        <path id="DejaVuSans-33" d="M 2597 2516 
Q 3050 2419 3304 2112 
Q 3559 1806 3559 1356 
Q 3559 666 3084 287 
Q 2609 -91 1734 -91 
Q 1441 -91 1130 -33 
Q 819 25 488 141 
L 488 750 
Q 750 597 1062 519 
Q 1375 441 1716 441 
Q 2309 441 2620 675 
Q 2931 909 2931 1356 
Q 2931 1769 2642 2001 
Q 2353 2234 1838 2234 
L 1294 2234 
L 1294 2753 
L 1863 2753 
Q 2328 2753 2575 2939 
Q 2822 3125 2822 3475 
Q 2822 3834 2567 4026 
Q 2313 4219 1838 4219 
Q 1578 4219 1281 4162 
Q 984 4106 628 3988 
L 628 4550 
Q 988 4650 1302 4700 
Q 1616 4750 1894 4750 
Q 2613 4750 3031 4423 
Q 3450 4097 3450 3541 
Q 3450 3153 3228 2886 
Q 3006 2619 2597 2516 
z
" transform="scale(0.015625)"/>
       </defs>
       <use xlink:href="#DejaVuSans-33"/>
      </g>
     </g>
    </g>
    <g id="xtick_5">
     <g id="line2d_5">
      <g>
       <use xlink:href="#m24304811a7" x="412.280165" y="349.539832" style="stroke: #000000; stroke-width: 0.8"/>
      </g>
     </g>
     <g id="text_5">
      <!-- 4 -->
      <g transform="translate(408.78079 364.898114) scale(0.11 -0.11)">
       <defs>
        <path id="DejaVuSans-34" d="M 2419 4116 
L 825 1625 
L 2419 1625 
L 2419 4116 
z
M 2253 4666 
L 3047 4666 
L 3047 1625 
L 3713 1625 
L 3713 1100 
L 3047 1100 
L 3047 0 
L 2419 0 
L 2419 1100 
L 313 1100 
L 313 1709 
L 2253 4666 
z
" transform="scale(0.015625)"/>
       </defs>
       <use xlink:href="#DejaVuSans-34"/>
      </g>
     </g>
    </g>
    <g id="xtick_6">
     <g id="line2d_6">
      <g>
       <use xlink:href="#m24304811a7" x="497.157602" y="349.539832" style="stroke: #000000; stroke-width: 0.8"/>
      </g>
     </g>
     <g id="text_6">
      <!-- 5 -->
      <g transform="translate(493.658227 364.898114) scale(0.11 -0.11)">
       <defs>
        <path id="DejaVuSans-35" d="M 691 4666 
L 3169 4666 
L 3169 4134 
L 1269 4134 
L 1269 2991 
Q 1406 3038 1543 3061 
Q 1681 3084 1819 3084 
Q 2600 3084 3056 2656 
Q 3513 2228 3513 1497 
Q 3513 744 3044 326 
Q 2575 -91 1722 -91 
Q 1428 -91 1123 -41 
Q 819 9 494 109 
L 494 744 
Q 775 591 1075 516 
Q 1375 441 1709 441 
Q 2250 441 2565 725 
Q 2881 1009 2881 1497 
Q 2881 1984 2565 2268 
Q 2250 2553 1709 2553 
Q 1456 2553 1204 2497 
Q 953 2441 691 2322 
L 691 4666 
z
" transform="scale(0.015625)"/>
       </defs>
       <use xlink:href="#DejaVuSans-35"/>
      </g>
     </g>
    </g>
    <g id="xtick_7">
     <g id="line2d_7">
      <g>
       <use xlink:href="#m24304811a7" x="582.035039" y="349.539832" style="stroke: #000000; stroke-width: 0.8"/>
      </g>
     </g>
     <g id="text_7">
      <!-- 6 -->
      <g transform="translate(578.535664 364.898114) scale(0.11 -0.11)">
       <defs>
        <path id="DejaVuSans-36" d="M 2113 2584 
Q 1688 2584 1439 2293 
Q 1191 2003 1191 1497 
Q 1191 994 1439 701 
Q 1688 409 2113 409 
Q 2538 409 2786 701 
Q 3034 994 3034 1497 
Q 3034 2003 2786 2293 
Q 2538 2584 2113 2584 
z
M 3366 4563 
L 3366 3988 
Q 3128 4100 2886 4159 
Q 2644 4219 2406 4219 
Q 1781 4219 1451 3797 
Q 1122 3375 1075 2522 
Q 1259 2794 1537 2939 
Q 1816 3084 2150 3084 
Q 2853 3084 3261 2657 
Q 3669 2231 3669 1497 
Q 3669 778 3244 343 
Q 2819 -91 2113 -91 
Q 1303 -91 875 529 
Q 447 1150 447 2328 
Q 447 3434 972 4092 
Q 1497 4750 2381 4750 
Q 2619 4750 2861 4703 
Q 3103 4656 3366 4563 
z
" transform="scale(0.015625)"/>
       </defs>
       <use xlink:href="#DejaVuSans-36"/>
      </g>
     </g>
    </g>
    <g id="text_8">
     <!-- number of other players at the table -->
     <g transform="translate(217.716166 380.303895) scale(0.12 -0.12)">
      <defs>
       <path id="DejaVuSans-6e" d="M 3513 2113 
L 3513 0 
L 2938 0 
L 2938 2094 
Q 2938 2591 2744 2837 
Q 2550 3084 2163 3084 
Q 1697 3084 1428 2787 
Q 1159 2491 1159 1978 
L 1159 0 
L 581 0 
L 581 3500 
L 1159 3500 
L 1159 2956 
Q 1366 3272 1645 3428 
Q 1925 3584 2291 3584 
Q 2894 3584 3203 3211 
Q 3513 2838 3513 2113 
z
" transform="scale(0.015625)"/>
       <path id="DejaVuSans-75" d="M 544 1381 
L 544 3500 
L 1119 3500 
L 1119 1403 
Q 1119 906 1312 657 
Q 1506 409 1894 409 
Q 2359 409 2629 706 
Q 2900 1003 2900 1516 
L 2900 3500 
L 3475 3500 
L 3475 0 
L 2900 0 
L 2900 538 
Q 2691 219 2414 64 
Q 2138 -91 1772 -91 
Q 1169 -91 856 284 
Q 544 659 544 1381 
z
M 1991 3584 
L 1991 3584 
z
" transform="scale(0.015625)"/>
       <path id="DejaVuSans-6d" d="M 3328 2828 
Q 3544 3216 3844 3400 
Q 4144 3584 4550 3584 
Q 5097 3584 5394 3201 
Q 5691 2819 5691 2113 
L 5691 0 
L 5113 0 
L 5113 2094 
Q 5113 2597 4934 2840 
Q 4756 3084 4391 3084 
Q 3944 3084 3684 2787 
Q 3425 2491 3425 1978 
L 3425 0 
L 2847 0 
L 2847 2094 
Q 2847 2600 2669 2842 
Q 2491 3084 2119 3084 
Q 1678 3084 1418 2786 
Q 1159 2488 1159 1978 
L 1159 0 
L 581 0 
L 581 3500 
L 1159 3500 
L 1159 2956 
Q 1356 3278 1631 3431 
Q 1906 3584 2284 3584 
Q 2666 3584 2933 3390 
Q 3200 3197 3328 2828 
z
" transform="scale(0.015625)"/>
       <path id="DejaVuSans-62" d="M 3116 1747 
Q 3116 2381 2855 2742 
Q 2594 3103 2138 3103 
Q 1681 3103 1420 2742 
Q 1159 2381 1159 1747 
Q 1159 1113 1420 752 
Q 1681 391 2138 391 
Q 2594 391 2855 752 
Q 3116 1113 3116 1747 
z
M 1159 2969 
Q 1341 3281 1617 3432 
Q 1894 3584 2278 3584 
Q 2916 3584 3314 3078 
Q 3713 2572 3713 1747 
Q 3713 922 3314 415 
Q 2916 -91 2278 -91 
Q 1894 -91 1617 61 
Q 1341 213 1159 525 
L 1159 0 
L 581 0 
L 581 4863 
L 1159 4863 
L 1159 2969 
z
" transform="scale(0.015625)"/>
       <path id="DejaVuSans-65" d="M 3597 1894 
L 3597 1613 
L 953 1613 
Q 991 1019 1311 708 
Q 1631 397 2203 397 
Q 2534 397 2845 478 
Q 3156 559 3463 722 
L 3463 178 
Q 3153 47 2828 -22 
Q 2503 -91 2169 -91 
Q 1331 -91 842 396 
Q 353 884 353 1716 
Q 353 2575 817 3079 
Q 1281 3584 2069 3584 
Q 2775 3584 3186 3129 
Q 3597 2675 3597 1894 
z
M 3022 2063 
Q 3016 2534 2758 2815 
Q 2500 3097 2075 3097 
Q 1594 3097 1305 2825 
Q 1016 2553 972 2059 
L 3022 2063 
z
" transform="scale(0.015625)"/>
       <path id="DejaVuSans-72" d="M 2631 2963 
Q 2534 3019 2420 3045 
Q 2306 3072 2169 3072 
Q 1681 3072 1420 2755 
Q 1159 2438 1159 1844 
L 1159 0 
L 581 0 
L 581 3500 
L 1159 3500 
L 1159 2956 
Q 1341 3275 1631 3429 
Q 1922 3584 2338 3584 
Q 2397 3584 2469 3576 
Q 2541 3569 2628 3553 
L 2631 2963 
z
" transform="scale(0.015625)"/>
       <path id="DejaVuSans-20" transform="scale(0.015625)"/>
       <path id="DejaVuSans-6f" d="M 1959 3097 
Q 1497 3097 1228 2736 
Q 959 2375 959 1747 
Q 959 1119 1226 758 
Q 1494 397 1959 397 
Q 2419 397 2687 759 
Q 2956 1122 2956 1747 
Q 2956 2369 2687 2733 
Q 2419 3097 1959 3097 
z
M 1959 3584 
Q 2709 3584 3137 3096 
Q 3566 2609 3566 1747 
Q 3566 888 3137 398 
Q 2709 -91 1959 -91 
Q 1206 -91 779 398 
Q 353 888 353 1747 
Q 353 2609 779 3096 
Q 1206 3584 1959 3584 
z
" transform="scale(0.015625)"/>
       <path id="DejaVuSans-66" d="M 2375 4863 
L 2375 4384 
L 1825 4384 
Q 1516 4384 1395 4259 
Q 1275 4134 1275 3809 
L 1275 3500 
L 2222 3500 
L 2222 3053 
L 1275 3053 
L 1275 0 
L 697 0 
L 697 3053 
L 147 3053 
L 147 3500 
L 697 3500 
L 697 3744 
Q 697 4328 969 4595 
Q 1241 4863 1831 4863 
L 2375 4863 
z
" transform="scale(0.015625)"/>
       <path id="DejaVuSans-74" d="M 1172 4494 
L 1172 3500 
L 2356 3500 
L 2356 3053 
L 1172 3053 
L 1172 1153 
Q 1172 725 1289 603 
Q 1406 481 1766 481 
L 2356 481 
L 2356 0 
L 1766 0 
Q 1100 0 847 248 
Q 594 497 594 1153 
L 594 3053 
L 172 3053 
L 172 3500 
L 594 3500 
L 594 4494 
L 1172 4494 
z
" transform="scale(0.015625)"/>
       <path id="DejaVuSans-68" d="M 3513 2113 
L 3513 0 
L 2938 0 
L 2938 2094 
Q 2938 2591 2744 2837 
Q 2550 3084 2163 3084 
Q 1697 3084 1428 2787 
Q 1159 2491 1159 1978 
L 1159 0 
L 581 0 
L 581 4863 
L 1159 4863 
L 1159 2956 
Q 1366 3272 1645 3428 
Q 1925 3584 2291 3584 
Q 2894 3584 3203 3211 
Q 3513 2838 3513 2113 
z
" transform="scale(0.015625)"/>
       <path id="DejaVuSans-70" d="M 1159 525 
L 1159 -1331 
L 581 -1331 
L 581 3500 
L 1159 3500 
L 1159 2969 
Q 1341 3281 1617 3432 
Q 1894 3584 2278 3584 
Q 2916 3584 3314 3078 
Q 3713 2572 3713 1747 
Q 3713 922 3314 415 
Q 2916 -91 2278 -91 
Q 1894 -91 1617 61 
Q 1341 213 1159 525 
z
M 3116 1747 
Q 3116 2381 2855 2742 
Q 2594 3103 2138 3103 
Q 1681 3103 1420 2742 
Q 1159 2381 1159 1747 
Q 1159 1113 1420 752 
Q 1681 391 2138 391 
Q 2594 391 2855 752 
Q 3116 1113 3116 1747 
z
" transform="scale(0.015625)"/>
       <path id="DejaVuSans-6c" d="M 603 4863 
L 1178 4863 
L 1178 0 
L 603 0 
L 603 4863 
z
" transform="scale(0.015625)"/>
       <path id="DejaVuSans-61" d="M 2194 1759 
Q 1497 1759 1228 1600 
Q 959 1441 959 1056 
Q 959 750 1161 570 
Q 1363 391 1709 391 
Q 2188 391 2477 730 
Q 2766 1069 2766 1631 
L 2766 1759 
L 2194 1759 
z
M 3341 1997 
L 3341 0 
L 2766 0 
L 2766 531 
Q 2569 213 2275 61 
Q 1981 -91 1556 -91 
Q 1019 -91 701 211 
Q 384 513 384 1019 
Q 384 1609 779 1909 
Q 1175 2209 1959 2209 
L 2766 2209 
L 2766 2266 
Q 2766 2663 2505 2880 
Q 2244 3097 1772 3097 
Q 1472 3097 1187 3025 
Q 903 2953 641 2809 
L 641 3341 
Q 956 3463 1253 3523 
Q 1550 3584 1831 3584 
Q 2591 3584 2966 3190 
Q 3341 2797 3341 1997 
z
" transform="scale(0.015625)"/>
       <path id="DejaVuSans-79" d="M 2059 -325 
Q 1816 -950 1584 -1140 
Q 1353 -1331 966 -1331 
L 506 -1331 
L 506 -850 
L 844 -850 
Q 1081 -850 1212 -737 
Q 1344 -625 1503 -206 
L 1606 56 
L 191 3500 
L 800 3500 
L 1894 763 
L 2988 3500 
L 3597 3500 
L 2059 -325 
z
" transform="scale(0.015625)"/>
       <path id="DejaVuSans-73" d="M 2834 3397 
L 2834 2853 
Q 2591 2978 2328 3040 
Q 2066 3103 1784 3103 
Q 1356 3103 1142 2972 
Q 928 2841 928 2578 
Q 928 2378 1081 2264 
Q 1234 2150 1697 2047 
L 1894 2003 
Q 2506 1872 2764 1633 
Q 3022 1394 3022 966 
Q 3022 478 2636 193 
Q 2250 -91 1575 -91 
Q 1294 -91 989 -36 
Q 684 19 347 128 
L 347 722 
Q 666 556 975 473 
Q 1284 391 1588 391 
Q 1994 391 2212 530 
Q 2431 669 2431 922 
Q 2431 1156 2273 1281 
Q 2116 1406 1581 1522 
L 1381 1569 
Q 847 1681 609 1914 
Q 372 2147 372 2553 
Q 372 3047 722 3315 
Q 1072 3584 1716 3584 
Q 2034 3584 2315 3537 
Q 2597 3491 2834 3397 
z
" transform="scale(0.015625)"/>
      </defs>
      <use xlink:href="#DejaVuSans-6e"/>
      <use xlink:href="#DejaVuSans-75" transform="translate(63.378906 0)"/>
      <use xlink:href="#DejaVuSans-6d" transform="translate(126.757812 0)"/>
      <use xlink:href="#DejaVuSans-62" transform="translate(224.169922 0)"/>
      <use xlink:href="#DejaVuSans-65" transform="translate(287.646484 0)"/>
      <use xlink:href="#DejaVuSans-72" transform="translate(349.169922 0)"/>
      <use xlink:href="#DejaVuSans-20" transform="translate(390.283203 0)"/>
      <use xlink:href="#DejaVuSans-6f" transform="translate(422.070312 0)"/>
      <use xlink:href="#DejaVuSans-66" transform="translate(483.251953 0)"/>
      <use xlink:href="#DejaVuSans-20" transform="translate(518.457031 0)"/>
      <use xlink:href="#DejaVuSans-6f" transform="translate(550.244141 0)"/>
      <use xlink:href="#DejaVuSans-74" transform="translate(611.425781 0)"/>
      <use xlink:href="#DejaVuSans-68" transform="translate(650.634766 0)"/>
      <use xlink:href="#DejaVuSans-65" transform="translate(714.013672 0)"/>
      <use xlink:href="#DejaVuSans-72" transform="translate(775.537109 0)"/>
      <use xlink:href="#DejaVuSans-20" transform="translate(816.650391 0)"/>
      <use xlink:href="#DejaVuSans-70" transform="translate(848.4375 0)"/>
      <use xlink:href="#DejaVuSans-6c" transform="translate(911.914062 0)"/>
      <use xlink:href="#DejaVuSans-61" transform="translate(939.697266 0)"/>
      <use xlink:href="#DejaVuSans-79" transform="translate(1000.976562 0)"/>
      <use xlink:href="#DejaVuSans-65" transform="translate(1060.15625 0)"/>
      <use xlink:href="#DejaVuSans-72" transform="translate(1121.679688 0)"/>
      <use xlink:href="#DejaVuSans-73" transform="translate(1162.792969 0)"/>
      <use xlink:href="#DejaVuSans-20" transform="translate(1214.892578 0)"/>
      <use xlink:href="#DejaVuSans-61" transform="translate(1246.679688 0)"/>
      <use xlink:href="#DejaVuSans-74" transform="translate(1307.958984 0)"/>
      <use xlink:href="#DejaVuSans-20" transform="translate(1347.167969 0)"/>
      <use xlink:href="#DejaVuSans-74" transform="translate(1378.955078 0)"/>
      <use xlink:href="#DejaVuSans-68" transform="translate(1418.164062 0)"/>
      <use xlink:href="#DejaVuSans-65" transform="translate(1481.542969 0)"/>
      <use xlink:href="#DejaVuSans-20" transform="translate(1543.066406 0)"/>
      <use xlink:href="#DejaVuSans-74" transform="translate(1574.853516 0)"/>
      <use xlink:href="#DejaVuSans-61" transform="translate(1614.0625 0)"/>
      <use xlink:href="#DejaVuSans-62" transform="translate(1675.341797 0)"/>
      <use xlink:href="#DejaVuSans-6c" transform="translate(1738.818359 0)"/>
      <use xlink:href="#DejaVuSans-65" transform="translate(1766.601562 0)"/>
     </g>
    </g>
   </g>
   <g id="matplotlib.axis_2">
    <g id="ytick_1">
     <g id="line2d_8">
      <defs>
       <path id="m9b852432fa" d="M 0 0 
L -3.5 0 
" style="stroke: #000000; stroke-width: 0.8"/>
      </defs>
      <g>
       <use xlink:href="#m9b852432fa" x="47.307188" y="300.639174" style="stroke: #000000; stroke-width: 0.8"/>
      </g>
     </g>
     <g id="text_9">
      <!-- 0.0 -->
      <g transform="translate(22.81375 304.818315) scale(0.11 -0.11)">
       <defs>
        <path id="DejaVuSans-2e" d="M 684 794 
L 1344 794 
L 1344 0 
L 684 0 
L 684 794 
z
" transform="scale(0.015625)"/>
       </defs>
       <use xlink:href="#DejaVuSans-30"/>
       <use xlink:href="#DejaVuSans-2e" transform="translate(63.623047 0)"/>
       <use xlink:href="#DejaVuSans-30" transform="translate(95.410156 0)"/>
      </g>
     </g>
    </g>
    <g id="ytick_2">
     <g id="line2d_9">
      <g>
       <use xlink:href="#m9b852432fa" x="47.307188" y="245.683356" style="stroke: #000000; stroke-width: 0.8"/>
      </g>
     </g>
     <g id="text_10">
      <!-- 0.2 -->
      <g transform="translate(22.81375 249.862496) scale(0.11 -0.11)">
       <use xlink:href="#DejaVuSans-30"/>
       <use xlink:href="#DejaVuSans-2e" transform="translate(63.623047 0)"/>
       <use xlink:href="#DejaVuSans-32" transform="translate(95.410156 0)"/>
      </g>
     </g>
    </g>
    <g id="ytick_3">
     <g id="line2d_10">
      <g>
       <use xlink:href="#m9b852432fa" x="47.307188" y="190.727537" style="stroke: #000000; stroke-width: 0.8"/>
      </g>
     </g>
     <g id="text_11">
      <!-- 0.4 -->
      <g transform="translate(22.81375 194.906678) scale(0.11 -0.11)">
       <use xlink:href="#DejaVuSans-30"/>
       <use xlink:href="#DejaVuSans-2e" transform="translate(63.623047 0)"/>
       <use xlink:href="#DejaVuSans-34" transform="translate(95.410156 0)"/>
      </g>
     </g>
    </g>
    <g id="ytick_4">
     <g id="line2d_11">
      <g>
       <use xlink:href="#m9b852432fa" x="47.307188" y="135.771718" style="stroke: #000000; stroke-width: 0.8"/>
      </g>
     </g>
     <g id="text_12">
      <!-- 0.6 -->
      <g transform="translate(22.81375 139.950859) scale(0.11 -0.11)">
       <use xlink:href="#DejaVuSans-30"/>
       <use xlink:href="#DejaVuSans-2e" transform="translate(63.623047 0)"/>
       <use xlink:href="#DejaVuSans-36" transform="translate(95.410156 0)"/>
      </g>
     </g>
    </g>
    <g id="ytick_5">
     <g id="line2d_12">
      <g>
       <use xlink:href="#m9b852432fa" x="47.307188" y="80.8159" style="stroke: #000000; stroke-width: 0.8"/>
      </g>
     </g>
     <g id="text_13">
      <!-- 0.8 -->
      <g transform="translate(22.81375 84.99504) scale(0.11 -0.11)">
       <defs>
        <path id="DejaVuSans-38" d="M 2034 2216 
Q 1584 2216 1326 1975 
Q 1069 1734 1069 1313 
Q 1069 891 1326 650 
Q 1584 409 2034 409 
Q 2484 409 2743 651 
Q 3003 894 3003 1313 
Q 3003 1734 2745 1975 
Q 2488 2216 2034 2216 
z
M 1403 2484 
Q 997 2584 770 2862 
Q 544 3141 544 3541 
Q 544 4100 942 4425 
Q 1341 4750 2034 4750 
Q 2731 4750 3128 4425 
Q 3525 4100 3525 3541 
Q 3525 3141 3298 2862 
Q 3072 2584 2669 2484 
Q 3125 2378 3379 2068 
Q 3634 1759 3634 1313 
Q 3634 634 3220 271 
Q 2806 -91 2034 -91 
Q 1263 -91 848 271 
Q 434 634 434 1313 
Q 434 1759 690 2068 
Q 947 2378 1403 2484 
z
M 1172 3481 
Q 1172 3119 1398 2916 
Q 1625 2713 2034 2713 
Q 2441 2713 2670 2916 
Q 2900 3119 2900 3481 
Q 2900 3844 2670 4047 
Q 2441 4250 2034 4250 
Q 1625 4250 1398 4047 
Q 1172 3844 1172 3481 
z
" transform="scale(0.015625)"/>
       </defs>
       <use xlink:href="#DejaVuSans-30"/>
       <use xlink:href="#DejaVuSans-2e" transform="translate(63.623047 0)"/>
       <use xlink:href="#DejaVuSans-38" transform="translate(95.410156 0)"/>
      </g>
     </g>
    </g>
    <g id="ytick_6">
     <g id="line2d_13">
      <g>
       <use xlink:href="#m9b852432fa" x="47.307188" y="25.860081" style="stroke: #000000; stroke-width: 0.8"/>
      </g>
     </g>
     <g id="text_14">
      <!-- 1.0 -->
      <g transform="translate(22.81375 30.039222) scale(0.11 -0.11)">
       <use xlink:href="#DejaVuSans-31"/>
       <use xlink:href="#DejaVuSans-2e" transform="translate(63.623047 0)"/>
       <use xlink:href="#DejaVuSans-30" transform="translate(95.410156 0)"/>
      </g>
     </g>
    </g>
    <g id="text_15">
     <!-- COUNT edge per hand (%) -->
     <g transform="translate(16.318125 266.216947) rotate(-90) scale(0.12 -0.12)">
      <defs>
       <path id="DejaVuSans-43" d="M 4122 4306 
L 4122 3641 
Q 3803 3938 3442 4084 
Q 3081 4231 2675 4231 
Q 1875 4231 1450 3742 
Q 1025 3253 1025 2328 
Q 1025 1406 1450 917 
Q 1875 428 2675 428 
Q 3081 428 3442 575 
Q 3803 722 4122 1019 
L 4122 359 
Q 3791 134 3420 21 
Q 3050 -91 2638 -91 
Q 1578 -91 968 557 
Q 359 1206 359 2328 
Q 359 3453 968 4101 
Q 1578 4750 2638 4750 
Q 3056 4750 3426 4639 
Q 3797 4528 4122 4306 
z
" transform="scale(0.015625)"/>
       <path id="DejaVuSans-4f" d="M 2522 4238 
Q 1834 4238 1429 3725 
Q 1025 3213 1025 2328 
Q 1025 1447 1429 934 
Q 1834 422 2522 422 
Q 3209 422 3611 934 
Q 4013 1447 4013 2328 
Q 4013 3213 3611 3725 
Q 3209 4238 2522 4238 
z
M 2522 4750 
Q 3503 4750 4090 4092 
Q 4678 3434 4678 2328 
Q 4678 1225 4090 567 
Q 3503 -91 2522 -91 
Q 1538 -91 948 565 
Q 359 1222 359 2328 
Q 359 3434 948 4092 
Q 1538 4750 2522 4750 
z
" transform="scale(0.015625)"/>
       <path id="DejaVuSans-55" d="M 556 4666 
L 1191 4666 
L 1191 1831 
Q 1191 1081 1462 751 
Q 1734 422 2344 422 
Q 2950 422 3222 751 
Q 3494 1081 3494 1831 
L 3494 4666 
L 4128 4666 
L 4128 1753 
Q 4128 841 3676 375 
Q 3225 -91 2344 -91 
Q 1459 -91 1007 375 
Q 556 841 556 1753 
L 556 4666 
z
" transform="scale(0.015625)"/>
       <path id="DejaVuSans-4e" d="M 628 4666 
L 1478 4666 
L 3547 763 
L 3547 4666 
L 4159 4666 
L 4159 0 
L 3309 0 
L 1241 3903 
L 1241 0 
L 628 0 
L 628 4666 
z
" transform="scale(0.015625)"/>
       <path id="DejaVuSans-54" d="M -19 4666 
L 3928 4666 
L 3928 4134 
L 2272 4134 
L 2272 0 
L 1638 0 
L 1638 4134 
L -19 4134 
L -19 4666 
z
" transform="scale(0.015625)"/>
       <path id="DejaVuSans-64" d="M 2906 2969 
L 2906 4863 
L 3481 4863 
L 3481 0 
L 2906 0 
L 2906 525 
Q 2725 213 2448 61 
Q 2172 -91 1784 -91 
Q 1150 -91 751 415 
Q 353 922 353 1747 
Q 353 2572 751 3078 
Q 1150 3584 1784 3584 
Q 2172 3584 2448 3432 
Q 2725 3281 2906 2969 
z
M 947 1747 
Q 947 1113 1208 752 
Q 1469 391 1925 391 
Q 2381 391 2643 752 
Q 2906 1113 2906 1747 
Q 2906 2381 2643 2742 
Q 2381 3103 1925 3103 
Q 1469 3103 1208 2742 
Q 947 2381 947 1747 
z
" transform="scale(0.015625)"/>
       <path id="DejaVuSans-67" d="M 2906 1791 
Q 2906 2416 2648 2759 
Q 2391 3103 1925 3103 
Q 1463 3103 1205 2759 
Q 947 2416 947 1791 
Q 947 1169 1205 825 
Q 1463 481 1925 481 
Q 2391 481 2648 825 
Q 2906 1169 2906 1791 
z
M 3481 434 
Q 3481 -459 3084 -895 
Q 2688 -1331 1869 -1331 
Q 1566 -1331 1297 -1286 
Q 1028 -1241 775 -1147 
L 775 -588 
Q 1028 -725 1275 -790 
Q 1522 -856 1778 -856 
Q 2344 -856 2625 -561 
Q 2906 -266 2906 331 
L 2906 616 
Q 2728 306 2450 153 
Q 2172 0 1784 0 
Q 1141 0 747 490 
Q 353 981 353 1791 
Q 353 2603 747 3093 
Q 1141 3584 1784 3584 
Q 2172 3584 2450 3431 
Q 2728 3278 2906 2969 
L 2906 3500 
L 3481 3500 
L 3481 434 
z
" transform="scale(0.015625)"/>
       <path id="DejaVuSans-28" d="M 1984 4856 
Q 1566 4138 1362 3434 
Q 1159 2731 1159 2009 
Q 1159 1288 1364 580 
Q 1569 -128 1984 -844 
L 1484 -844 
Q 1016 -109 783 600 
Q 550 1309 550 2009 
Q 550 2706 781 3412 
Q 1013 4119 1484 4856 
L 1984 4856 
z
" transform="scale(0.015625)"/>
       <path id="DejaVuSans-25" d="M 4653 2053 
Q 4381 2053 4226 1822 
Q 4072 1591 4072 1178 
Q 4072 772 4226 539 
Q 4381 306 4653 306 
Q 4919 306 5073 539 
Q 5228 772 5228 1178 
Q 5228 1588 5073 1820 
Q 4919 2053 4653 2053 
z
M 4653 2450 
Q 5147 2450 5437 2106 
Q 5728 1763 5728 1178 
Q 5728 594 5436 251 
Q 5144 -91 4653 -91 
Q 4153 -91 3862 251 
Q 3572 594 3572 1178 
Q 3572 1766 3864 2108 
Q 4156 2450 4653 2450 
z
M 1428 4353 
Q 1159 4353 1004 4120 
Q 850 3888 850 3481 
Q 850 3069 1003 2837 
Q 1156 2606 1428 2606 
Q 1700 2606 1854 2837 
Q 2009 3069 2009 3481 
Q 2009 3884 1853 4118 
Q 1697 4353 1428 4353 
z
M 4250 4750 
L 4750 4750 
L 1831 -91 
L 1331 -91 
L 4250 4750 
z
M 1428 4750 
Q 1922 4750 2215 4408 
Q 2509 4066 2509 3481 
Q 2509 2891 2217 2550 
Q 1925 2209 1428 2209 
Q 931 2209 642 2551 
Q 353 2894 353 3481 
Q 353 4063 643 4406 
Q 934 4750 1428 4750 
z
" transform="scale(0.015625)"/>
       <path id="DejaVuSans-29" d="M 513 4856 
L 1013 4856 
Q 1481 4119 1714 3412 
Q 1947 2706 1947 2009 
Q 1947 1309 1714 600 
Q 1481 -109 1013 -844 
L 513 -844 
Q 928 -128 1133 580 
Q 1338 1288 1338 2009 
Q 1338 2731 1133 3434 
Q 928 4138 513 4856 
z
" transform="scale(0.015625)"/>
      </defs>
      <use xlink:href="#DejaVuSans-43"/>
      <use xlink:href="#DejaVuSans-4f" transform="translate(69.824219 0)"/>
      <use xlink:href="#DejaVuSans-55" transform="translate(148.535156 0)"/>
      <use xlink:href="#DejaVuSans-4e" transform="translate(221.728516 0)"/>
      <use xlink:href="#DejaVuSans-54" transform="translate(296.533203 0)"/>
      <use xlink:href="#DejaVuSans-20" transform="translate(357.617188 0)"/>
      <use xlink:href="#DejaVuSans-65" transform="translate(389.404297 0)"/>
      <use xlink:href="#DejaVuSans-64" transform="translate(450.927734 0)"/>
      <use xlink:href="#DejaVuSans-67" transform="translate(514.404297 0)"/>
      <use xlink:href="#DejaVuSans-65" transform="translate(577.880859 0)"/>
      <use xlink:href="#DejaVuSans-20" transform="translate(639.404297 0)"/>
      <use xlink:href="#DejaVuSans-70" transform="translate(671.191406 0)"/>
      <use xlink:href="#DejaVuSans-65" transform="translate(734.667969 0)"/>
      <use xlink:href="#DejaVuSans-72" transform="translate(796.191406 0)"/>
      <use xlink:href="#DejaVuSans-20" transform="translate(837.304688 0)"/>
      <use xlink:href="#DejaVuSans-68" transform="translate(869.091797 0)"/>
      <use xlink:href="#DejaVuSans-61" transform="translate(932.470703 0)"/>
      <use xlink:href="#DejaVuSans-6e" transform="translate(993.75 0)"/>
      <use xlink:href="#DejaVuSans-64" transform="translate(1057.128906 0)"/>
      <use xlink:href="#DejaVuSans-20" transform="translate(1120.605469 0)"/>
      <use xlink:href="#DejaVuSans-28" transform="translate(1152.392578 0)"/>
      <use xlink:href="#DejaVuSans-25" transform="translate(1191.40625 0)"/>
      <use xlink:href="#DejaVuSans-29" transform="translate(1286.425781 0)"/>
     </g>
    </g>
   </g>
   <g id="LineCollection_1">
    <path d="M 72.770419 267.106104 
L 72.770419 179.032668 
" clip-path="url(#p2b5058f84e)" style="fill: none; stroke: #2980b9; stroke-width: 1.5"/>
    <path d="M 157.647855 246.271944 
L 157.647855 159.513247 
" clip-path="url(#p2b5058f84e)" style="fill: none; stroke: #2980b9; stroke-width: 1.5"/>
    <path d="M 242.525292 214.806364 
L 242.525292 131.285757 
" clip-path="url(#p2b5058f84e)" style="fill: none; stroke: #2980b9; stroke-width: 1.5"/>
    <path d="M 412.280165 237.082113 
L 412.280165 152.396721 
" clip-path="url(#p2b5058f84e)" style="fill: none; stroke: #2980b9; stroke-width: 1.5"/>
    <path d="M 582.035039 194.274048 
L 582.035039 106.271541 
" clip-path="url(#p2b5058f84e)" style="fill: none; stroke: #2980b9; stroke-width: 1.5"/>
   </g>
   <g id="line2d_14">
    <defs>
     <path id="m2d49cde59f" d="M 5 0 
L -5 -0 
" style="stroke: #2980b9"/>
    </defs>
    <g clip-path="url(#p2b5058f84e)">
     <use xlink:href="#m2d49cde59f" x="72.770419" y="267.106104" style="fill: #2980b9; stroke: #2980b9"/>
     <use xlink:href="#m2d49cde59f" x="157.647855" y="246.271944" style="fill: #2980b9; stroke: #2980b9"/>
     <use xlink:href="#m2d49cde59f" x="242.525292" y="214.806364" style="fill: #2980b9; stroke: #2980b9"/>
     <use xlink:href="#m2d49cde59f" x="412.280165" y="237.082113" style="fill: #2980b9; stroke: #2980b9"/>
     <use xlink:href="#m2d49cde59f" x="582.035039" y="194.274048" style="fill: #2980b9; stroke: #2980b9"/>
    </g>
   </g>
   <g id="line2d_15">
    <g clip-path="url(#p2b5058f84e)">
     <use xlink:href="#m2d49cde59f" x="72.770419" y="179.032668" style="fill: #2980b9; stroke: #2980b9"/>
     <use xlink:href="#m2d49cde59f" x="157.647855" y="159.513247" style="fill: #2980b9; stroke: #2980b9"/>
     <use xlink:href="#m2d49cde59f" x="242.525292" y="131.285757" style="fill: #2980b9; stroke: #2980b9"/>
     <use xlink:href="#m2d49cde59f" x="412.280165" y="152.396721" style="fill: #2980b9; stroke: #2980b9"/>
     <use xlink:href="#m2d49cde59f" x="582.035039" y="106.271541" style="fill: #2980b9; stroke: #2980b9"/>
    </g>
   </g>
   <g id="line2d_16">
    <path d="M 72.770419 223.069386 
L 157.647855 202.892596 
L 242.525292 173.046061 
L 412.280165 194.739417 
L 582.035039 150.272794 
" clip-path="url(#p2b5058f84e)" style="fill: none; stroke: #2980b9; stroke-width: 1.5; stroke-linecap: square"/>
    <defs>
     <path id="m2722dd1e9a" d="M 0 3 
C 0.795609 3 1.55874 2.683901 2.12132 2.12132 
C 2.683901 1.55874 3 0.795609 3 0 
C 3 -0.795609 2.683901 -1.55874 2.12132 -2.12132 
C 1.55874 -2.683901 0.795609 -3 0 -3 
C -0.795609 -3 -1.55874 -2.683901 -2.12132 -2.12132 
C -2.683901 -1.55874 -3 -0.795609 -3 0 
C -3 0.795609 -2.683901 1.55874 -2.12132 2.12132 
C -1.55874 2.683901 -0.795609 3 0 3 
z
" style="stroke: #2980b9"/>
    </defs>
    <g clip-path="url(#p2b5058f84e)">
     <use xlink:href="#m2722dd1e9a" x="72.770419" y="223.069386" style="fill: #2980b9; stroke: #2980b9"/>
     <use xlink:href="#m2722dd1e9a" x="157.647855" y="202.892596" style="fill: #2980b9; stroke: #2980b9"/>
     <use xlink:href="#m2722dd1e9a" x="242.525292" y="173.046061" style="fill: #2980b9; stroke: #2980b9"/>
     <use xlink:href="#m2722dd1e9a" x="412.280165" y="194.739417" style="fill: #2980b9; stroke: #2980b9"/>
     <use xlink:href="#m2722dd1e9a" x="582.035039" y="150.272794" style="fill: #2980b9; stroke: #2980b9"/>
    </g>
   </g>
   <g id="patch_3">
    <path d="M 47.307188 349.539832 
L 47.307188 23.837812 
" style="fill: none; stroke: #000000; stroke-width: 0.8; stroke-linejoin: miter; stroke-linecap: square"/>
   </g>
   <g id="patch_4">
    <path d="M 607.49827 349.539832 
L 607.49827 23.837812 
" style="fill: none; stroke: #000000; stroke-width: 0.8; stroke-linejoin: miter; stroke-linecap: square"/>
   </g>
   <g id="patch_5">
    <path d="M 47.307188 349.539832 
L 607.49827 349.539832 
" style="fill: none; stroke: #000000; stroke-width: 0.8; stroke-linejoin: miter; stroke-linecap: square"/>
   </g>
   <g id="patch_6">
    <path d="M 47.307188 23.837812 
L 607.49827 23.837812 
" style="fill: none; stroke: #000000; stroke-width: 0.8; stroke-linejoin: miter; stroke-linecap: square"/>
   </g>
   <g id="text_16">
    <!-- More players: same edge, fewer hands/hour -->
    <g transform="translate(172.804447 17.837812) scale(0.14 -0.14)">
     <defs>
      <path id="DejaVuSans-4d" d="M 628 4666 
L 1569 4666 
L 2759 1491 
L 3956 4666 
L 4897 4666 
L 4897 0 
L 4281 0 
L 4281 4097 
L 3078 897 
L 2444 897 
L 1241 4097 
L 1241 0 
L 628 0 
L 628 4666 
z
" transform="scale(0.015625)"/>
      <path id="DejaVuSans-3a" d="M 750 794 
L 1409 794 
L 1409 0 
L 750 0 
L 750 794 
z
M 750 3309 
L 1409 3309 
L 1409 2516 
L 750 2516 
L 750 3309 
z
" transform="scale(0.015625)"/>
      <path id="DejaVuSans-2c" d="M 750 794 
L 1409 794 
L 1409 256 
L 897 -744 
L 494 -744 
L 750 256 
L 750 794 
z
" transform="scale(0.015625)"/>
      <path id="DejaVuSans-77" d="M 269 3500 
L 844 3500 
L 1563 769 
L 2278 3500 
L 2956 3500 
L 3675 769 
L 4391 3500 
L 4966 3500 
L 4050 0 
L 3372 0 
L 2619 2869 
L 1863 0 
L 1184 0 
L 269 3500 
z
" transform="scale(0.015625)"/>
      <path id="DejaVuSans-2f" d="M 1625 4666 
L 2156 4666 
L 531 -594 
L 0 -594 
L 1625 4666 
z
" transform="scale(0.015625)"/>
     </defs>
     <use xlink:href="#DejaVuSans-4d"/>
     <use xlink:href="#DejaVuSans-6f" transform="translate(86.279297 0)"/>
     <use xlink:href="#DejaVuSans-72" transform="translate(147.460938 0)"/>
     <use xlink:href="#DejaVuSans-65" transform="translate(186.324219 0)"/>
     <use xlink:href="#DejaVuSans-20" transform="translate(247.847656 0)"/>
     <use xlink:href="#DejaVuSans-70" transform="translate(279.634766 0)"/>
     <use xlink:href="#DejaVuSans-6c" transform="translate(343.111328 0)"/>
     <use xlink:href="#DejaVuSans-61" transform="translate(370.894531 0)"/>
     <use xlink:href="#DejaVuSans-79" transform="translate(432.173828 0)"/>
     <use xlink:href="#DejaVuSans-65" transform="translate(491.353516 0)"/>
     <use xlink:href="#DejaVuSans-72" transform="translate(552.876953 0)"/>
     <use xlink:href="#DejaVuSans-73" transform="translate(593.990234 0)"/>
     <use xlink:href="#DejaVuSans-3a" transform="translate(646.089844 0)"/>
     <use xlink:href="#DejaVuSans-20" transform="translate(679.78125 0)"/>
     <use xlink:href="#DejaVuSans-73" transform="translate(711.568359 0)"/>
     <use xlink:href="#DejaVuSans-61" transform="translate(763.667969 0)"/>
     <use xlink:href="#DejaVuSans-6d" transform="translate(824.947266 0)"/>
     <use xlink:href="#DejaVuSans-65" transform="translate(922.359375 0)"/>
     <use xlink:href="#DejaVuSans-20" transform="translate(983.882812 0)"/>
     <use xlink:href="#DejaVuSans-65" transform="translate(1015.669922 0)"/>
     <use xlink:href="#DejaVuSans-64" transform="translate(1077.193359 0)"/>
     <use xlink:href="#DejaVuSans-67" transform="translate(1140.669922 0)"/>
     <use xlink:href="#DejaVuSans-65" transform="translate(1204.146484 0)"/>
     <use xlink:href="#DejaVuSans-2c" transform="translate(1265.669922 0)"/>
     <use xlink:href="#DejaVuSans-20" transform="translate(1297.457031 0)"/>
     <use xlink:href="#DejaVuSans-66" transform="translate(1329.244141 0)"/>
     <use xlink:href="#DejaVuSans-65" transform="translate(1364.449219 0)"/>
     <use xlink:href="#DejaVuSans-77" transform="translate(1425.972656 0)"/>
     <use xlink:href="#DejaVuSans-65" transform="translate(1507.759766 0)"/>
     <use xlink:href="#DejaVuSans-72" transform="translate(1569.283203 0)"/>
     <use xlink:href="#DejaVuSans-20" transform="translate(1610.396484 0)"/>
     <use xlink:href="#DejaVuSans-68" transform="translate(1642.183594 0)"/>
     <use xlink:href="#DejaVuSans-61" transform="translate(1705.5625 0)"/>
     <use xlink:href="#DejaVuSans-6e" transform="translate(1766.841797 0)"/>
     <use xlink:href="#DejaVuSans-64" transform="translate(1830.220703 0)"/>
     <use xlink:href="#DejaVuSans-73" transform="translate(1893.697266 0)"/>
     <use xlink:href="#DejaVuSans-2f" transform="translate(1945.796875 0)"/>
     <use xlink:href="#DejaVuSans-68" transform="translate(1979.488281 0)"/>
     <use xlink:href="#DejaVuSans-6f" transform="translate(2042.867188 0)"/>
     <use xlink:href="#DejaVuSans-75" transform="translate(2104.048828 0)"/>
     <use xlink:href="#DejaVuSans-72" transform="translate(2167.427734 0)"/>
    </g>
   </g>
   <g id="legend_1">
    <g id="patch_7">
     <path d="M 425.865926 204.48476 
L 599.79827 204.48476 
Q 601.99827 204.48476 601.99827 202.28476 
L 601.99827 171.092885 
Q 601.99827 168.892885 599.79827 168.892885 
L 425.865926 168.892885 
Q 423.665926 168.892885 423.665926 171.092885 
L 423.665926 202.28476 
Q 423.665926 204.48476 425.865926 204.48476 
z
" style="fill: #ffffff; opacity: 0.8; stroke: #cccccc; stroke-linejoin: miter"/>
    </g>
    <g id="LineCollection_2">
     <path d="M 439.065926 183.301166 
L 439.065926 172.301166 
" style="fill: none; stroke: #2980b9; stroke-width: 1.5"/>
    </g>
    <g id="line2d_17">
     <g>
      <use xlink:href="#m2d49cde59f" x="439.065926" y="183.301166" style="fill: #2980b9; stroke: #2980b9"/>
     </g>
    </g>
    <g id="line2d_18">
     <g>
      <use xlink:href="#m2d49cde59f" x="439.065926" y="172.301166" style="fill: #2980b9; stroke: #2980b9"/>
     </g>
    </g>
    <g id="line2d_19">
     <path d="M 428.065926 177.801166 
L 450.065926 177.801166 
" style="fill: none; stroke: #2980b9; stroke-width: 1.5; stroke-linecap: square"/>
    </g>
    <g id="line2d_20">
     <g>
      <use xlink:href="#m2722dd1e9a" x="439.065926" y="177.801166" style="fill: #2980b9; stroke: #2980b9"/>
     </g>
    </g>
    <g id="text_17">
     <!-- COUNT edge (%, 95% CI) -->
     <g transform="translate(458.865926 181.651166) scale(0.11 -0.11)">
      <defs>
       <path id="DejaVuSans-39" d="M 703 97 
L 703 672 
Q 941 559 1184 500 
Q 1428 441 1663 441 
Q 2288 441 2617 861 
Q 2947 1281 2994 2138 
Q 2813 1869 2534 1725 
Q 2256 1581 1919 1581 
Q 1219 1581 811 2004 
Q 403 2428 403 3163 
Q 403 3881 828 4315 
Q 1253 4750 1959 4750 
Q 2769 4750 3195 4129 
Q 3622 3509 3622 2328 
Q 3622 1225 3098 567 
Q 2575 -91 1691 -91 
Q 1453 -91 1209 -44 
Q 966 3 703 97 
z
M 1959 2075 
Q 2384 2075 2632 2365 
Q 2881 2656 2881 3163 
Q 2881 3666 2632 3958 
Q 2384 4250 1959 4250 
Q 1534 4250 1286 3958 
Q 1038 3666 1038 3163 
Q 1038 2656 1286 2365 
Q 1534 2075 1959 2075 
z
" transform="scale(0.015625)"/>
       <path id="DejaVuSans-49" d="M 628 4666 
L 1259 4666 
L 1259 0 
L 628 0 
L 628 4666 
z
" transform="scale(0.015625)"/>
      </defs>
      <use xlink:href="#DejaVuSans-43"/>
      <use xlink:href="#DejaVuSans-4f" transform="translate(69.824219 0)"/>
      <use xlink:href="#DejaVuSans-55" transform="translate(148.535156 0)"/>
      <use xlink:href="#DejaVuSans-4e" transform="translate(221.728516 0)"/>
      <use xlink:href="#DejaVuSans-54" transform="translate(296.533203 0)"/>
      <use xlink:href="#DejaVuSans-20" transform="translate(357.617188 0)"/>
      <use xlink:href="#DejaVuSans-65" transform="translate(389.404297 0)"/>
      <use xlink:href="#DejaVuSans-64" transform="translate(450.927734 0)"/>
      <use xlink:href="#DejaVuSans-67" transform="translate(514.404297 0)"/>
      <use xlink:href="#DejaVuSans-65" transform="translate(577.880859 0)"/>
      <use xlink:href="#DejaVuSans-20" transform="translate(639.404297 0)"/>
      <use xlink:href="#DejaVuSans-28" transform="translate(671.191406 0)"/>
      <use xlink:href="#DejaVuSans-25" transform="translate(710.205078 0)"/>
      <use xlink:href="#DejaVuSans-2c" transform="translate(805.224609 0)"/>
      <use xlink:href="#DejaVuSans-20" transform="translate(837.011719 0)"/>
      <use xlink:href="#DejaVuSans-39" transform="translate(868.798828 0)"/>
      <use xlink:href="#DejaVuSans-35" transform="translate(932.421875 0)"/>
      <use xlink:href="#DejaVuSans-25" transform="translate(996.044922 0)"/>
      <use xlink:href="#DejaVuSans-20" transform="translate(1091.064453 0)"/>
      <use xlink:href="#DejaVuSans-43" transform="translate(1122.851562 0)"/>
      <use xlink:href="#DejaVuSans-49" transform="translate(1192.675781 0)"/>
      <use xlink:href="#DejaVuSans-29" transform="translate(1222.167969 0)"/>
     </g>
    </g>
    <g id="line2d_21">
     <path d="M 428.065926 193.947104 
L 439.065926 193.947104 
L 450.065926 193.947104 
" style="fill: none; stroke-dasharray: 5.55,2.4; stroke-dashoffset: 0; stroke: #c0392b; stroke-width: 1.5"/>
     <defs>
      <path id="ma7e766e285" d="M -3 3 
L 3 3 
L 3 -3 
L -3 -3 
z
" style="stroke: #c0392b; stroke-linejoin: miter"/>
     </defs>
     <g>
      <use xlink:href="#ma7e766e285" x="439.065926" y="193.947104" style="fill: #c0392b; stroke: #c0392b; stroke-linejoin: miter"/>
     </g>
    </g>
    <g id="text_18">
     <!-- hands / hour -->
     <g transform="translate(458.865926 197.797104) scale(0.11 -0.11)">
      <use xlink:href="#DejaVuSans-68"/>
      <use xlink:href="#DejaVuSans-61" transform="translate(63.378906 0)"/>
      <use xlink:href="#DejaVuSans-6e" transform="translate(124.658203 0)"/>
      <use xlink:href="#DejaVuSans-64" transform="translate(188.037109 0)"/>
      <use xlink:href="#DejaVuSans-73" transform="translate(251.513672 0)"/>
      <use xlink:href="#DejaVuSans-20" transform="translate(303.613281 0)"/>
      <use xlink:href="#DejaVuSans-2f" transform="translate(335.400391 0)"/>
      <use xlink:href="#DejaVuSans-20" transform="translate(369.091797 0)"/>
      <use xlink:href="#DejaVuSans-68" transform="translate(400.878906 0)"/>
      <use xlink:href="#DejaVuSans-6f" transform="translate(464.257812 0)"/>
      <use xlink:href="#DejaVuSans-75" transform="translate(525.439453 0)"/>
      <use xlink:href="#DejaVuSans-72" transform="translate(588.818359 0)"/>
     </g>
    </g>
   </g>
  </g>
  <g id="axes_2">
   <g id="matplotlib.axis_3">
    <g id="ytick_7">
     <g id="line2d_22">
      <defs>
       <path id="m3af6584b6a" d="M 0 0 
L 3.5 0 
" style="stroke: #000000; stroke-width: 0.8"/>
      </defs>
      <g>
       <use xlink:href="#m3af6584b6a" x="607.49827" y="319.450305" style="stroke: #000000; stroke-width: 0.8"/>
      </g>
     </g>
     <g id="text_19">
      <!-- 60 -->
      <g transform="translate(614.49827 323.249524) scale(0.1 -0.1)">
       <use xlink:href="#DejaVuSans-36"/>
       <use xlink:href="#DejaVuSans-30" transform="translate(63.623047 0)"/>
      </g>
     </g>
    </g>
    <g id="ytick_8">
     <g id="line2d_23">
      <g>
       <use xlink:href="#m3af6584b6a" x="607.49827" y="281.8343" style="stroke: #000000; stroke-width: 0.8"/>
      </g>
     </g>
     <g id="text_20">
      <!-- 80 -->
      <g transform="translate(614.49827 285.633519) scale(0.1 -0.1)">
       <use xlink:href="#DejaVuSans-38"/>
       <use xlink:href="#DejaVuSans-30" transform="translate(63.623047 0)"/>
      </g>
     </g>
    </g>
    <g id="ytick_9">
     <g id="line2d_24">
      <g>
       <use xlink:href="#m3af6584b6a" x="607.49827" y="244.218294" style="stroke: #000000; stroke-width: 0.8"/>
      </g>
     </g>
     <g id="text_21">
      <!-- 100 -->
      <g transform="translate(614.49827 248.017513) scale(0.1 -0.1)">
       <use xlink:href="#DejaVuSans-31"/>
       <use xlink:href="#DejaVuSans-30" transform="translate(63.623047 0)"/>
       <use xlink:href="#DejaVuSans-30" transform="translate(127.246094 0)"/>
      </g>
     </g>
    </g>
    <g id="ytick_10">
     <g id="line2d_25">
      <g>
       <use xlink:href="#m3af6584b6a" x="607.49827" y="206.602289" style="stroke: #000000; stroke-width: 0.8"/>
      </g>
     </g>
     <g id="text_22">
      <!-- 120 -->
      <g transform="translate(614.49827 210.401507) scale(0.1 -0.1)">
       <use xlink:href="#DejaVuSans-31"/>
       <use xlink:href="#DejaVuSans-32" transform="translate(63.623047 0)"/>
       <use xlink:href="#DejaVuSans-30" transform="translate(127.246094 0)"/>
      </g>
     </g>
    </g>
    <g id="ytick_11">
     <g id="line2d_26">
      <g>
       <use xlink:href="#m3af6584b6a" x="607.49827" y="168.986283" style="stroke: #000000; stroke-width: 0.8"/>
      </g>
     </g>
     <g id="text_23">
      <!-- 140 -->
      <g transform="translate(614.49827 172.785502) scale(0.1 -0.1)">
       <use xlink:href="#DejaVuSans-31"/>
       <use xlink:href="#DejaVuSans-34" transform="translate(63.623047 0)"/>
       <use xlink:href="#DejaVuSans-30" transform="translate(127.246094 0)"/>
      </g>
     </g>
    </g>
    <g id="ytick_12">
     <g id="line2d_27">
      <g>
       <use xlink:href="#m3af6584b6a" x="607.49827" y="131.370277" style="stroke: #000000; stroke-width: 0.8"/>
      </g>
     </g>
     <g id="text_24">
      <!-- 160 -->
      <g transform="translate(614.49827 135.169496) scale(0.1 -0.1)">
       <use xlink:href="#DejaVuSans-31"/>
       <use xlink:href="#DejaVuSans-36" transform="translate(63.623047 0)"/>
       <use xlink:href="#DejaVuSans-30" transform="translate(127.246094 0)"/>
      </g>
     </g>
    </g>
    <g id="ytick_13">
     <g id="line2d_28">
      <g>
       <use xlink:href="#m3af6584b6a" x="607.49827" y="93.754272" style="stroke: #000000; stroke-width: 0.8"/>
      </g>
     </g>
     <g id="text_25">
      <!-- 180 -->
      <g transform="translate(614.49827 97.553491) scale(0.1 -0.1)">
       <use xlink:href="#DejaVuSans-31"/>
       <use xlink:href="#DejaVuSans-38" transform="translate(63.623047 0)"/>
       <use xlink:href="#DejaVuSans-30" transform="translate(127.246094 0)"/>
      </g>
     </g>
    </g>
    <g id="ytick_14">
     <g id="line2d_29">
      <g>
       <use xlink:href="#m3af6584b6a" x="607.49827" y="56.138266" style="stroke: #000000; stroke-width: 0.8"/>
      </g>
     </g>
     <g id="text_26">
      <!-- 200 -->
      <g transform="translate(614.49827 59.937485) scale(0.1 -0.1)">
       <use xlink:href="#DejaVuSans-32"/>
       <use xlink:href="#DejaVuSans-30" transform="translate(63.623047 0)"/>
       <use xlink:href="#DejaVuSans-30" transform="translate(127.246094 0)"/>
      </g>
     </g>
    </g>
    <g id="text_27">
     <!-- rounds dealt per hour -->
     <g transform="translate(646.703895 251.859135) rotate(-90) scale(0.12 -0.12)">
      <use xlink:href="#DejaVuSans-72"/>
      <use xlink:href="#DejaVuSans-6f" transform="translate(38.863281 0)"/>
      <use xlink:href="#DejaVuSans-75" transform="translate(100.044922 0)"/>
      <use xlink:href="#DejaVuSans-6e" transform="translate(163.423828 0)"/>
      <use xlink:href="#DejaVuSans-64" transform="translate(226.802734 0)"/>
      <use xlink:href="#DejaVuSans-73" transform="translate(290.279297 0)"/>
      <use xlink:href="#DejaVuSans-20" transform="translate(342.378906 0)"/>
      <use xlink:href="#DejaVuSans-64" transform="translate(374.166016 0)"/>
      <use xlink:href="#DejaVuSans-65" transform="translate(437.642578 0)"/>
      <use xlink:href="#DejaVuSans-61" transform="translate(499.166016 0)"/>
      <use xlink:href="#DejaVuSans-6c" transform="translate(560.445312 0)"/>
      <use xlink:href="#DejaVuSans-74" transform="translate(588.228516 0)"/>
      <use xlink:href="#DejaVuSans-20" transform="translate(627.4375 0)"/>
      <use xlink:href="#DejaVuSans-70" transform="translate(659.224609 0)"/>
      <use xlink:href="#DejaVuSans-65" transform="translate(722.701172 0)"/>
      <use xlink:href="#DejaVuSans-72" transform="translate(784.224609 0)"/>
      <use xlink:href="#DejaVuSans-20" transform="translate(825.337891 0)"/>
      <use xlink:href="#DejaVuSans-68" transform="translate(857.125 0)"/>
      <use xlink:href="#DejaVuSans-6f" transform="translate(920.503906 0)"/>
      <use xlink:href="#DejaVuSans-75" transform="translate(981.685547 0)"/>
      <use xlink:href="#DejaVuSans-72" transform="translate(1045.064453 0)"/>
     </g>
    </g>
   </g>
   <g id="line2d_30">
    <path d="M 72.770419 38.64245 
L 157.647855 170.874345 
L 242.525292 236.60812 
L 412.280165 302.089072 
L 582.035039 334.735195 
" clip-path="url(#p2b5058f84e)" style="fill: none; stroke-dasharray: 5.55,2.4; stroke-dashoffset: 0; stroke: #c0392b; stroke-width: 1.5"/>
    <g clip-path="url(#p2b5058f84e)">
     <use xlink:href="#ma7e766e285" x="72.770419" y="38.64245" style="fill: #c0392b; stroke: #c0392b; stroke-linejoin: miter"/>
     <use xlink:href="#ma7e766e285" x="157.647855" y="170.874345" style="fill: #c0392b; stroke: #c0392b; stroke-linejoin: miter"/>
     <use xlink:href="#ma7e766e285" x="242.525292" y="236.60812" style="fill: #c0392b; stroke: #c0392b; stroke-linejoin: miter"/>
     <use xlink:href="#ma7e766e285" x="412.280165" y="302.089072" style="fill: #c0392b; stroke: #c0392b; stroke-linejoin: miter"/>
     <use xlink:href="#ma7e766e285" x="582.035039" y="334.735195" style="fill: #c0392b; stroke: #c0392b; stroke-linejoin: miter"/>
    </g>
   </g>
   <g id="patch_8">
    <path d="M 47.307188 349.539832 
L 47.307188 23.837812 
" style="fill: none; stroke: #000000; stroke-width: 0.8; stroke-linejoin: miter; stroke-linecap: square"/>
   </g>
   <g id="patch_9">
    <path d="M 607.49827 349.539832 
L 607.49827 23.837812 
" style="fill: none; stroke: #000000; stroke-width: 0.8; stroke-linejoin: miter; stroke-linecap: square"/>
   </g>
   <g id="patch_10">
    <path d="M 47.307188 349.539832 
L 607.49827 349.539832 
" style="fill: none; stroke: #000000; stroke-width: 0.8; stroke-linejoin: miter; stroke-linecap: square"/>
   </g>
   <g id="patch_11">
    <path d="M 47.307188 23.837812 
L 607.49827 23.837812 
" style="fill: none; stroke: #000000; stroke-width: 0.8; stroke-linejoin: miter; stroke-linecap: square"/>
   </g>
  </g>
 </g>
 <defs>
  <clipPath id="p2b5058f84e">
   <rect x="47.307188" y="23.837812" width="560.191082" height="325.70202"/>
  </clipPath>
 </defs>
</svg>
