<?xml version="1.0" encoding="utf-8" standalone="no"?>
<!DOCTYPE svg PUBLIC "-//W3C//DTD SVG 1.1//EN"
  "http://www.w3.org/Graphics/SVG/1.1/DTD/svg11.dtd">
<svg xmlns:xlink="http://www.w3.org/1999/xlink" width="598.79952pt" height="526.79952pt" viewBox="0 0 598.79952 526.79952" xmlns="http://www.w3.org/2000/svg" version="1.1">
 <metadata>
  <rdf:RDF xmlns:dc="http://purl.org/dc/elements/1.1/" xmlns:cc="http://creativecommons.org/ns#" xmlns:rdf="http://www.w3.org/1999/02/22-rdf-syntax-ns#">
   <cc:Work>
    <dc:type rdf:resource="http://purl.org/dc/dcmitype/StillImage"/>
    <dc:date>2026-06-11T23:35:00.457043</dc:date>
    <dc:format>image/svg+xml</dc:format>
    <dc:creator>
     <cc:Agent>
      <dc:title>Matplotlib v3.10.1, https://matplotlib.org/</dc:title>
     </cc:Agent>
    </dc:creator>
   </cc:Work>
  </rdf:RDF>
 </metadata>
 <defs>
  <style type="text/css">*{stroke-linejoin: round; stroke-linecap: butt}</style>
 </defs>
 <g id="figure_1">
  <g id="patch_1">
   <path d="M 0 526.79952 
L 598.79952 526.79952 
L 598.79952 0 
L 0 0 
z
" style="fill: #ffffff"/>
  </g>
  <g id="axes_1">
   <g id="patch_2">
    <path d="M 67.979687 486.339832 
L 591.59952 486.339832 
L 591.59952 23.837812 
L 67.979687 23.837812 
z
" style="fill: #ffffff"/>
   </g>
   <g id="line2d_1">
    <path d="M 458.641275 44.860632 
L 475.339005 44.860632 
" clip-path="url(#p1fc2be8cf9)" style="fill: none; stroke: #bfbfbf; stroke-width: 1.4; stroke-linecap: square"/>
   </g>
   <g id="line2d_2">
    <path d="M 294.905261 69.59336 
L 302.488625 69.59336 
" clip-path="url(#p1fc2be8cf9)" style="fill: none; stroke: #bfbfbf; stroke-width: 1.4; stroke-linecap: square"/>
   </g>
   <g id="line2d_3">
    <path d="M 513.219947 94.326088 
L 509.992009 94.326088 
" clip-path="url(#p1fc2be8cf9)" style="fill: none; stroke: #bfbfbf; stroke-width: 1.4; stroke-linecap: square"/>
   </g>
   <g id="line2d_4">
    <path d="M 567.798619 119.058817 
L 562.58781 119.058817 
" clip-path="url(#p1fc2be8cf9)" style="fill: none; stroke: #bfbfbf; stroke-width: 1.4; stroke-linecap: square"/>
   </g>
   <g id="line2d_5">
    <path d="M 513.219947 143.791545 
L 503.779231 143.791545 
" clip-path="url(#p1fc2be8cf9)" style="fill: none; stroke: #bfbfbf; stroke-width: 1.4; stroke-linecap: square"/>
   </g>
   <g id="line2d_6">
    <path d="M 513.219947 168.524273 
L 493.583342 168.524273 
" clip-path="url(#p1fc2be8cf9)" style="fill: none; stroke: #bfbfbf; stroke-width: 1.4; stroke-linecap: square"/>
   </g>
   <g id="line2d_7">
    <path d="M 404.062604 193.257002 
L 342.257604 193.257002 
" clip-path="url(#p1fc2be8cf9)" style="fill: none; stroke: #bfbfbf; stroke-width: 1.4; stroke-linecap: square"/>
   </g>
   <g id="line2d_8">
    <path d="M 458.641275 217.98973 
L 432.133535 217.98973 
" clip-path="url(#p1fc2be8cf9)" style="fill: none; stroke: #bfbfbf; stroke-width: 1.4; stroke-linecap: square"/>
   </g>
   <g id="line2d_9">
    <path d="M 349.483932 242.722458 
L 296.430449 242.722458 
" clip-path="url(#p1fc2be8cf9)" style="fill: none; stroke: #bfbfbf; stroke-width: 1.4; stroke-linecap: square"/>
   </g>
   <g id="line2d_10">
    <path d="M 349.483932 267.455187 
L 347.546554 267.455187 
" clip-path="url(#p1fc2be8cf9)" style="fill: none; stroke: #bfbfbf; stroke-width: 1.4; stroke-linecap: square"/>
   </g>
   <g id="line2d_11">
    <path d="M 513.219947 292.187915 
L 453.852446 292.187915 
" clip-path="url(#p1fc2be8cf9)" style="fill: none; stroke: #bfbfbf; stroke-width: 1.4; stroke-linecap: square"/>
   </g>
   <g id="line2d_12">
    <path d="M 458.641275 316.920643 
L 484.502154 316.920643 
" clip-path="url(#p1fc2be8cf9)" style="fill: none; stroke: #bfbfbf; stroke-width: 1.4; stroke-linecap: square"/>
   </g>
   <g id="line2d_13">
    <path d="M 567.798619 341.653372 
L 523.593232 341.653372 
" clip-path="url(#p1fc2be8cf9)" style="fill: none; stroke: #bfbfbf; stroke-width: 1.4; stroke-linecap: square"/>
   </g>
   <g id="line2d_14">
    <path d="M 240.326589 366.3861 
L 212.653331 366.3861 
" clip-path="url(#p1fc2be8cf9)" style="fill: none; stroke: #bfbfbf; stroke-width: 1.4; stroke-linecap: square"/>
   </g>
   <g id="line2d_15">
    <path d="M 294.905261 391.118828 
L 263.148782 391.118828 
" clip-path="url(#p1fc2be8cf9)" style="fill: none; stroke: #bfbfbf; stroke-width: 1.4; stroke-linecap: square"/>
   </g>
   <g id="line2d_16">
    <path d="M 185.747917 415.851557 
L 194.132895 415.851557 
" clip-path="url(#p1fc2be8cf9)" style="fill: none; stroke: #bfbfbf; stroke-width: 1.4; stroke-linecap: square"/>
   </g>
   <g id="line2d_17">
    <path d="M 240.326589 440.584285 
L 91.780589 440.584285 
" clip-path="url(#p1fc2be8cf9)" style="fill: none; stroke: #bfbfbf; stroke-width: 1.4; stroke-linecap: square"/>
   </g>
   <g id="line2d_18">
    <path d="M 185.747917 465.317013 
L 138.946784 465.317013 
" clip-path="url(#p1fc2be8cf9)" style="fill: none; stroke: #bfbfbf; stroke-width: 1.4; stroke-linecap: square"/>
   </g>
   <g id="matplotlib.axis_1">
    <g id="xtick_1">
     <g id="line2d_19">
      <defs>
       <path id="mf515b51588" d="M 0 0 
L 0 3.5 
" style="stroke: #000000; stroke-width: 0.8"/>
      </defs>
      <g>
       <use xlink:href="#mf515b51588" x="76.590574" y="486.339832" style="stroke: #000000; stroke-width: 0.8"/>
      </g>
     </g>
     <g id="text_1">
      <!-- −4 -->
      <g transform="translate(68.482371 501.698114) scale(0.11 -0.11)">
       <defs>
        <path id="DejaVuSans-2212" d="M 678 2272 
L 4684 2272 
L 4684 1741 
L 678 1741 
L 678 2272 
z
" transform="scale(0.015625)"/>
        <path id="DejaVuSans-34" d="M 2419 4116 
L 825 1625 
L 2419 1625 
L 2419 4116 
z
M 2253 4666 
L 3047 4666 
L 3047 1625 
L 3713 1625 
L 3713 1100 
L 3047 1100 
L 3047 0 
L 2419 0 
L 2419 1100 
L 313 1100 
L 313 1709 
L 2253 4666 
z
" transform="scale(0.015625)"/>
       </defs>
       <use xlink:href="#DejaVuSans-2212"/>
       <use xlink:href="#DejaVuSans-34" transform="translate(83.789062 0)"/>
      </g>
     </g>
    </g>
    <g id="xtick_2">
     <g id="line2d_20">
      <g>
       <use xlink:href="#mf515b51588" x="185.747917" y="486.339832" style="stroke: #000000; stroke-width: 0.8"/>
      </g>
     </g>
     <g id="text_2">
      <!-- −2 -->
      <g transform="translate(177.639714 501.698114) scale(0.11 -0.11)">
       <defs>
        <path id="DejaVuSans-32" d="M 1228 531 
L 3431 531 
L 3431 0 
L 469 0 
L 469 531 
Q 828 903 1448 1529 
Q 2069 2156 2228 2338 
Q 2531 2678 2651 2914 
Q 2772 3150 2772 3378 
Q 2772 3750 2511 3984 
Q 2250 4219 1831 4219 
Q 1534 4219 1204 4116 
Q 875 4013 500 3803 
L 500 4441 
Q 881 4594 1212 4672 
Q 1544 4750 1819 4750 
Q 2544 4750 2975 4387 
Q 3406 4025 3406 3419 
Q 3406 3131 3298 2873 
Q 3191 2616 2906 2266 
Q 2828 2175 2409 1742 
Q 1991 1309 1228 531 
z
" transform="scale(0.015625)"/>
       </defs>
       <use xlink:href="#DejaVuSans-2212"/>
       <use xlink:href="#DejaVuSans-32" transform="translate(83.789062 0)"/>
      </g>
     </g>
    </g>
    <g id="xtick_3">
     <g id="line2d_21">
      <g>
       <use xlink:href="#mf515b51588" x="294.905261" y="486.339832" style="stroke: #000000; stroke-width: 0.8"/>
      </g>
     </g>
     <g id="text_3">
      <!-- 0 -->
      <g transform="translate(291.405886 501.698114) scale(0.11 -0.11)">
       <defs>
        <path id="DejaVuSans-30" d="M 2034 4250 
Q 1547 4250 1301 3770 
Q 1056 3291 1056 2328 
Q 1056 1369 1301 889 
Q 1547 409 2034 409 
Q 2525 409 2770 889 
Q 3016 1369 3016 2328 
Q 3016 3291 2770 3770 
Q 2525 4250 2034 4250 
z
M 2034 4750 
Q 2819 4750 3233 4129 
Q 3647 3509 3647 2328 
Q 3647 1150 3233 529 
Q 2819 -91 2034 -91 
Q 1250 -91 836 529 
Q 422 1150 422 2328 
Q 422 3509 836 4129 
Q 1250 4750 2034 4750 
z
" transform="scale(0.015625)"/>
       </defs>
       <use xlink:href="#DejaVuSans-30"/>
      </g>
     </g>
    </g>
    <g id="xtick_4">
     <g id="line2d_22">
      <g>
       <use xlink:href="#mf515b51588" x="404.062604" y="486.339832" style="stroke: #000000; stroke-width: 0.8"/>
      </g>
     </g>
     <g id="text_4">
      <!-- 2 -->
      <g transform="translate(400.563229 501.698114) scale(0.11 -0.11)">
       <use xlink:href="#DejaVuSans-32"/>
      </g>
     </g>
    </g>
    <g id="xtick_5">
     <g id="line2d_23">
      <g>
       <use xlink:href="#mf515b51588" x="513.219947" y="486.339832" style="stroke: #000000; stroke-width: 0.8"/>
      </g>
     </g>
     <g id="text_5">
      <!-- 4 -->
      <g transform="translate(509.720572 501.698114) scale(0.11 -0.11)">
       <use xlink:href="#DejaVuSans-34"/>
      </g>
     </g>
    </g>
    <g id="text_6">
     <!-- Hi-Lo true count index (deviate at/above; hit plays deviate below) -->
     <g transform="translate(132.286479 517.103895) scale(0.12 -0.12)">
      <defs>
       <path id="DejaVuSans-48" d="M 628 4666 
L 1259 4666 
L 1259 2753 
L 3553 2753 
L 3553 4666 
L 4184 4666 
L 4184 0 
L 3553 0 
L 3553 2222 
L 1259 2222 
L 1259 0 
L 628 0 
L 628 4666 
z
" transform="scale(0.015625)"/>
       <path id="DejaVuSans-69" d="M 603 3500 
L 1178 3500 
L 1178 0 
L 603 0 
L 603 3500 
z
M 603 4863 
L 1178 4863 
L 1178 4134 
L 603 4134 
L 603 4863 
z
" transform="scale(0.015625)"/>
       <path id="DejaVuSans-2d" d="M 313 2009 
L 1997 2009 
L 1997 1497 
L 313 1497 
L 313 2009 
z
" transform="scale(0.015625)"/>
       <path id="DejaVuSans-4c" d="M 628 4666 
L 1259 4666 
L 1259 531 
L 3531 531 
L 3531 0 
L 628 0 
L 628 4666 
z
" transform="scale(0.015625)"/>
       <path id="DejaVuSans-6f" d="M 1959 3097 
Q 1497 3097 1228 2736 
Q 959 2375 959 1747 
Q 959 1119 1226 758 
Q 1494 397 1959 397 
Q 2419 397 2687 759 
Q 2956 1122 2956 1747 
Q 2956 2369 2687 2733 
Q 2419 3097 1959 3097 
z
M 1959 3584 
Q 2709 3584 3137 3096 
Q 3566 2609 3566 1747 
Q 3566 888 3137 398 
Q 2709 -91 1959 -91 
Q 1206 -91 779 398 
Q 353 888 353 1747 
Q 353 2609 779 3096 
Q 1206 3584 1959 3584 
z
" transform="scale(0.015625)"/>
       <path id="DejaVuSans-20" transform="scale(0.015625)"/>
       <path id="DejaVuSans-74" d="M 1172 4494 
L 1172 3500 
L 2356 3500 
L 2356 3053 
L 1172 3053 
L 1172 1153 
Q 1172 725 1289 603 
Q 1406 481 1766 481 
L 2356 481 
L 2356 0 
L 1766 0 
Q 1100 0 847 248 
Q 594 497 594 1153 
L 594 3053 
L 172 3053 
L 172 3500 
L 594 3500 
L 594 4494 
L 1172 4494 
z
" transform="scale(0.015625)"/>
       <path id="DejaVuSans-72" d="M 2631 2963 
Q 2534 3019 2420 3045 
Q 2306 3072 2169 3072 
Q 1681 3072 1420 2755 
Q 1159 2438 1159 1844 
L 1159 0 
L 581 0 
L 581 3500 
L 1159 3500 
L 1159 2956 
Q 1341 3275 1631 3429 
Q 1922 3584 2338 3584 
Q 2397 3584 2469 3576 
Q 2541 3569 2628 3553 
L 2631 2963 
z
" transform="scale(0.015625)"/>
       <path id="DejaVuSans-75" d="M 544 1381 
L 544 3500 
L 1119 3500 
L 1119 1403 
Q 1119 906 1312 657 
Q 1506 409 1894 409 
Q 2359 409 2629 706 
Q 2900 1003 2900 1516 
L 2900 3500 
L 3475 3500 
L 3475 0 
L 2900 0 
L 2900 538 
Q 2691 219 2414 64 
Q 2138 -91 1772 -91 
Q 1169 -91 856 284 
Q 544 659 544 1381 
z
M 1991 3584 
L 1991 3584 
z
" transform="scale(0.015625)"/>
       <path id="DejaVuSans-65" d="M 3597 1894 
L 3597 1613 
L 953 1613 
Q 991 1019 1311 708 
Q 1631 397 2203 397 
Q 2534 397 2845 478 
Q 3156 559 3463 722 
L 3463 178 
Q 3153 47 2828 -22 
Q 2503 -91 2169 -91 
Q 1331 -91 842 396 
Q 353 884 353 1716 
Q 353 2575 817 3079 
Q 1281 3584 2069 3584 
Q 2775 3584 3186 3129 
Q 3597 2675 3597 1894 
z
M 3022 2063 
Q 3016 2534 2758 2815 
Q 2500 3097 2075 3097 
Q 1594 3097 1305 2825 
Q 1016 2553 972 2059 
L 3022 2063 
z
" transform="scale(0.015625)"/>
       <path id="DejaVuSans-63" d="M 3122 3366 
L 3122 2828 
Q 2878 2963 2633 3030 
Q 2388 3097 2138 3097 
Q 1578 3097 1268 2742 
Q 959 2388 959 1747 
Q 959 1106 1268 751 
Q 1578 397 2138 397 
Q 2388 397 2633 464 
Q 2878 531 3122 666 
L 3122 134 
Q 2881 22 2623 -34 
Q 2366 -91 2075 -91 
Q 1284 -91 818 406 
Q 353 903 353 1747 
Q 353 2603 823 3093 
Q 1294 3584 2113 3584 
Q 2378 3584 2631 3529 
Q 2884 3475 3122 3366 
z
" transform="scale(0.015625)"/>
       <path id="DejaVuSans-6e" d="M 3513 2113 
L 3513 0 
L 2938 0 
L 2938 2094 
Q 2938 2591 2744 2837 
Q 2550 3084 2163 3084 
Q 1697 3084 1428 2787 
Q 1159 2491 1159 1978 
L 1159 0 
L 581 0 
L 581 3500 
L 1159 3500 
L 1159 2956 
Q 1366 3272 1645 3428 
Q 1925 3584 2291 3584 
Q 2894 3584 3203 3211 
Q 3513 2838 3513 2113 
z
" transform="scale(0.015625)"/>
       <path id="DejaVuSans-64" d="M 2906 2969 
L 2906 4863 
L 3481 4863 
L 3481 0 
L 2906 0 
L 2906 525 
Q 2725 213 2448 61 
Q 2172 -91 1784 -91 
Q 1150 -91 751 415 
Q 353 922 353 1747 
Q 353 2572 751 3078 
Q 1150 3584 1784 3584 
Q 2172 3584 2448 3432 
Q 2725 3281 2906 2969 
z
M 947 1747 
Q 947 1113 1208 752 
Q 1469 391 1925 391 
Q 2381 391 2643 752 
Q 2906 1113 2906 1747 
Q 2906 2381 2643 2742 
Q 2381 3103 1925 3103 
Q 1469 3103 1208 2742 
Q 947 2381 947 1747 
z
" transform="scale(0.015625)"/>
       <path id="DejaVuSans-78" d="M 3513 3500 
L 2247 1797 
L 3578 0 
L 2900 0 
L 1881 1375 
L 863 0 
L 184 0 
L 1544 1831 
L 300 3500 
L 978 3500 
L 1906 2253 
L 2834 3500 
L 3513 3500 
z
" transform="scale(0.015625)"/>
       <path id="DejaVuSans-28" d="M 1984 4856 
Q 1566 4138 1362 3434 
Q 1159 2731 1159 2009 
Q 1159 1288 1364 580 
Q 1569 -128 1984 -844 
L 1484 -844 
Q 1016 -109 783 600 
Q 550 1309 550 2009 
Q 550 2706 781 3412 
Q 1013 4119 1484 4856 
L 1984 4856 
z
" transform="scale(0.015625)"/>
       <path id="DejaVuSans-76" d="M 191 3500 
L 800 3500 
L 1894 563 
L 2988 3500 
L 3597 3500 
L 2284 0 
L 1503 0 
L 191 3500 
z
" transform="scale(0.015625)"/>
       <path id="DejaVuSans-61" d="M 2194 1759 
Q 1497 1759 1228 1600 
Q 959 1441 959 1056 
Q 959 750 1161 570 
Q 1363 391 1709 391 
Q 2188 391 2477 730 
Q 2766 1069 2766 1631 
L 2766 1759 
L 2194 1759 
z
M 3341 1997 
L 3341 0 
L 2766 0 
L 2766 531 
Q 2569 213 2275 61 
Q 1981 -91 1556 -91 
Q 1019 -91 701 211 
Q 384 513 384 1019 
Q 384 1609 779 1909 
Q 1175 2209 1959 2209 
L 2766 2209 
L 2766 2266 
Q 2766 2663 2505 2880 
Q 2244 3097 1772 3097 
Q 1472 3097 1187 3025 
Q 903 2953 641 2809 
L 641 3341 
Q 956 3463 1253 3523 
Q 1550 3584 1831 3584 
Q 2591 3584 2966 3190 
Q 3341 2797 3341 1997 
z
" transform="scale(0.015625)"/>
       <path id="DejaVuSans-2f" d="M 1625 4666 
L 2156 4666 
L 531 -594 
L 0 -594 
L 1625 4666 
z
" transform="scale(0.015625)"/>
       <path id="DejaVuSans-62" d="M 3116 1747 
Q 3116 2381 2855 2742 
Q 2594 3103 2138 3103 
Q 1681 3103 1420 2742 
Q 1159 2381 1159 1747 
Q 1159 1113 1420 752 
Q 1681 391 2138 391 
Q 2594 391 2855 752 
Q 3116 1113 3116 1747 
z
M 1159 2969 
Q 1341 3281 1617 3432 
Q 1894 3584 2278 3584 
Q 2916 3584 3314 3078 
Q 3713 2572 3713 1747 
Q 3713 922 3314 415 
Q 2916 -91 2278 -91 
Q 1894 -91 1617 61 
Q 1341 213 1159 525 
L 1159 0 
L 581 0 
L 581 4863 
L 1159 4863 
L 1159 2969 
z
" transform="scale(0.015625)"/>
       <path id="DejaVuSans-3b" d="M 750 3309 
L 1409 3309 
L 1409 2516 
L 750 2516 
L 750 3309 
z
M 750 794 
L 1409 794 
L 1409 256 
L 897 -744 
L 494 -744 
L 750 256 
L 750 794 
z
" transform="scale(0.015625)"/>
       <path id="DejaVuSans-68" d="M 3513 2113 
L 3513 0 
L 2938 0 
L 2938 2094 
Q 2938 2591 2744 2837 
Q 2550 3084 2163 3084 
Q 1697 3084 1428 2787 
Q 1159 2491 1159 1978 
L 1159 0 
L 581 0 
L 581 4863 
L 1159 4863 
L 1159 2956 
Q 1366 3272 1645 3428 
Q 1925 3584 2291 3584 
Q 2894 3584 3203 3211 
Q 3513 2838 3513 2113 
z
" transform="scale(0.015625)"/>
       <path id="DejaVuSans-70" d="M 1159 525 
L 1159 -1331 
L 581 -1331 
L 581 3500 
L 1159 3500 
L 1159 2969 
Q 1341 3281 1617 3432 
Q 1894 3584 2278 3584 
Q 2916 3584 3314 3078 
Q 3713 2572 3713 1747 
Q 3713 922 3314 415 
Q 2916 -91 2278 -91 
Q 1894 -91 1617 61 
Q 1341 213 1159 525 
z
M 3116 1747 
Q 3116 2381 2855 2742 
Q 2594 3103 2138 3103 
Q 1681 3103 1420 2742 
Q 1159 2381 1159 1747 
Q 1159 1113 1420 752 
Q 1681 391 2138 391 
Q 2594 391 2855 752 
Q 3116 1113 3116 1747 
z
" transform="scale(0.015625)"/>
       <path id="DejaVuSans-6c" d="M 603 4863 
L 1178 4863 
L 1178 0 
L 603 0 
L 603 4863 
z
" transform="scale(0.015625)"/>
       <path id="DejaVuSans-79" d="M 2059 -325 
Q 1816 -950 1584 -1140 
Q 1353 -1331 966 -1331 
L 506 -1331 
L 506 -850 
L 844 -850 
Q 1081 -850 1212 -737 
Q 1344 -625 1503 -206 
L 1606 56 
L 191 3500 
L 800 3500 
L 1894 763 
L 2988 3500 
L 3597 3500 
L 2059 -325 
z
" transform="scale(0.015625)"/>
       <path id="DejaVuSans-73" d="M 2834 3397 
L 2834 2853 
Q 2591 2978 2328 3040 
Q 2066 3103 1784 3103 
Q 1356 3103 1142 2972 
Q 928 2841 928 2578 
Q 928 2378 1081 2264 
Q 1234 2150 1697 2047 
L 1894 2003 
Q 2506 1872 2764 1633 
Q 3022 1394 3022 966 
Q 3022 478 2636 193 
Q 2250 -91 1575 -91 
Q 1294 -91 989 -36 
Q 684 19 347 128 
L 347 722 
Q 666 556 975 473 
Q 1284 391 1588 391 
Q 1994 391 2212 530 
Q 2431 669 2431 922 
Q 2431 1156 2273 1281 
Q 2116 1406 1581 1522 
L 1381 1569 
Q 847 1681 609 1914 
Q 372 2147 372 2553 
Q 372 3047 722 3315 
Q 1072 3584 1716 3584 
Q 2034 3584 2315 3537 
Q 2597 3491 2834 3397 
z
" transform="scale(0.015625)"/>
       <path id="DejaVuSans-77" d="M 269 3500 
L 844 3500 
L 1563 769 
L 2278 3500 
L 2956 3500 
L 3675 769 
L 4391 3500 
L 4966 3500 
L 4050 0 
L 3372 0 
L 2619 2869 
L 1863 0 
L 1184 0 
L 269 3500 
z
" transform="scale(0.015625)"/>
       <path id="DejaVuSans-29" d="M 513 4856 
L 1013 4856 
Q 1481 4119 1714 3412 
Q 1947 2706 1947 2009 
Q 1947 1309 1714 600 
Q 1481 -109 1013 -844 
L 513 -844 
Q 928 -128 1133 580 
Q 1338 1288 1338 2009 
Q 1338 2731 1133 3434 
Q 928 4138 513 4856 
z
" transform="scale(0.015625)"/>
      </defs>
      <use xlink:href="#DejaVuSans-48"/>
      <use xlink:href="#DejaVuSans-69" transform="translate(75.195312 0)"/>
      <use xlink:href="#DejaVuSans-2d" transform="translate(102.978516 0)"/>
      <use xlink:href="#DejaVuSans-4c" transform="translate(139.0625 0)"/>
      <use xlink:href="#DejaVuSans-6f" transform="translate(193.025391 0)"/>
      <use xlink:href="#DejaVuSans-20" transform="translate(254.207031 0)"/>
      <use xlink:href="#DejaVuSans-74" transform="translate(285.994141 0)"/>
      <use xlink:href="#DejaVuSans-72" transform="translate(325.203125 0)"/>
      <use xlink:href="#DejaVuSans-75" transform="translate(366.316406 0)"/>
      <use xlink:href="#DejaVuSans-65" transform="translate(429.695312 0)"/>
      <use xlink:href="#DejaVuSans-20" transform="translate(491.21875 0)"/>
      <use xlink:href="#DejaVuSans-63" transform="translate(523.005859 0)"/>
      <use xlink:href="#DejaVuSans-6f" transform="translate(577.986328 0)"/>
      <use xlink:href="#DejaVuSans-75" transform="translate(639.167969 0)"/>
      <use xlink:href="#DejaVuSans-6e" transform="translate(702.546875 0)"/>
      <use xlink:href="#DejaVuSans-74" transform="translate(765.925781 0)"/>
      <use xlink:href="#DejaVuSans-20" transform="translate(805.134766 0)"/>
      <use xlink:href="#DejaVuSans-69" transform="translate(836.921875 0)"/>
      <use xlink:href="#DejaVuSans-6e" transform="translate(864.705078 0)"/>
      <use xlink:href="#DejaVuSans-64" transform="translate(928.083984 0)"/>
      <use xlink:href="#DejaVuSans-65" transform="translate(991.560547 0)"/>
      <use xlink:href="#DejaVuSans-78" transform="translate(1051.333984 0)"/>
      <use xlink:href="#DejaVuSans-20" transform="translate(1110.513672 0)"/>
      <use xlink:href="#DejaVuSans-28" transform="translate(1142.300781 0)"/>
      <use xlink:href="#DejaVuSans-64" transform="translate(1181.314453 0)"/>
      <use xlink:href="#DejaVuSans-65" transform="translate(1244.791016 0)"/>
      <use xlink:href="#DejaVuSans-76" transform="translate(1306.314453 0)"/>
      <use xlink:href="#DejaVuSans-69" transform="translate(1365.494141 0)"/>
      <use xlink:href="#DejaVuSans-61" transform="translate(1393.277344 0)"/>
      <use xlink:href="#DejaVuSans-74" transform="translate(1454.556641 0)"/>
      <use xlink:href="#DejaVuSans-65" transform="translate(1493.765625 0)"/>
      <use xlink:href="#DejaVuSans-20" transform="translate(1555.289062 0)"/>
      <use xlink:href="#DejaVuSans-61" transform="translate(1587.076172 0)"/>
      <use xlink:href="#DejaVuSans-74" transform="translate(1648.355469 0)"/>
      <use xlink:href="#DejaVuSans-2f" transform="translate(1687.564453 0)"/>
      <use xlink:href="#DejaVuSans-61" transform="translate(1721.255859 0)"/>
      <use xlink:href="#DejaVuSans-62" transform="translate(1782.535156 0)"/>
      <use xlink:href="#DejaVuSans-6f" transform="translate(1846.011719 0)"/>
      <use xlink:href="#DejaVuSans-76" transform="translate(1907.193359 0)"/>
      <use xlink:href="#DejaVuSans-65" transform="translate(1966.373047 0)"/>
      <use xlink:href="#DejaVuSans-3b" transform="translate(2027.896484 0)"/>
      <use xlink:href="#DejaVuSans-20" transform="translate(2061.587891 0)"/>
      <use xlink:href="#DejaVuSans-68" transform="translate(2093.375 0)"/>
      <use xlink:href="#DejaVuSans-69" transform="translate(2156.753906 0)"/>
      <use xlink:href="#DejaVuSans-74" transform="translate(2184.537109 0)"/>
      <use xlink:href="#DejaVuSans-20" transform="translate(2223.746094 0)"/>
      <use xlink:href="#DejaVuSans-70" transform="translate(2255.533203 0)"/>
      <use xlink:href="#DejaVuSans-6c" transform="translate(2319.009766 0)"/>
      <use xlink:href="#DejaVuSans-61" transform="translate(2346.792969 0)"/>
      <use xlink:href="#DejaVuSans-79" transform="translate(2408.072266 0)"/>
      <use xlink:href="#DejaVuSans-73" transform="translate(2467.251953 0)"/>
      <use xlink:href="#DejaVuSans-20" transform="translate(2519.351562 0)"/>
      <use xlink:href="#DejaVuSans-64" transform="translate(2551.138672 0)"/>
      <use xlink:href="#DejaVuSans-65" transform="translate(2614.615234 0)"/>
      <use xlink:href="#DejaVuSans-76" transform="translate(2676.138672 0)"/>
      <use xlink:href="#DejaVuSans-69" transform="translate(2735.318359 0)"/>
      <use xlink:href="#DejaVuSans-61" transform="translate(2763.101562 0)"/>
      <use xlink:href="#DejaVuSans-74" transform="translate(2824.380859 0)"/>
      <use xlink:href="#DejaVuSans-65" transform="translate(2863.589844 0)"/>
      <use xlink:href="#DejaVuSans-20" transform="translate(2925.113281 0)"/>
      <use xlink:href="#DejaVuSans-62" transform="translate(2956.900391 0)"/>
      <use xlink:href="#DejaVuSans-65" transform="translate(3020.376953 0)"/>
      <use xlink:href="#DejaVuSans-6c" transform="translate(3081.900391 0)"/>
      <use xlink:href="#DejaVuSans-6f" transform="translate(3109.683594 0)"/>
      <use xlink:href="#DejaVuSans-77" transform="translate(3170.865234 0)"/>
      <use xlink:href="#DejaVuSans-29" transform="translate(3252.652344 0)"/>
     </g>
    </g>
   </g>
   <g id="matplotlib.axis_2">
    <g id="ytick_1">
     <g id="line2d_24">
      <defs>
       <path id="m247d3429a8" d="M 0 0 
L -3.5 0 
" style="stroke: #000000; stroke-width: 0.8"/>
      </defs>
      <g>
       <use xlink:href="#m247d3429a8" x="67.979687" y="44.860632" style="stroke: #000000; stroke-width: 0.8"/>
      </g>
     </g>
     <g id="text_7">
      <!-- insurance -->
      <g transform="translate(7.2 49.039772) scale(0.11 -0.11)">
       <use xlink:href="#DejaVuSans-69"/>
       <use xlink:href="#DejaVuSans-6e" transform="translate(27.783203 0)"/>
       <use xlink:href="#DejaVuSans-73" transform="translate(91.162109 0)"/>
       <use xlink:href="#DejaVuSans-75" transform="translate(143.261719 0)"/>
       <use xlink:href="#DejaVuSans-72" transform="translate(206.640625 0)"/>
       <use xlink:href="#DejaVuSans-61" transform="translate(247.753906 0)"/>
       <use xlink:href="#DejaVuSans-6e" transform="translate(309.033203 0)"/>
       <use xlink:href="#DejaVuSans-63" transform="translate(372.412109 0)"/>
       <use xlink:href="#DejaVuSans-65" transform="translate(427.392578 0)"/>
      </g>
     </g>
    </g>
    <g id="ytick_2">
     <g id="line2d_25">
      <g>
       <use xlink:href="#m247d3429a8" x="67.979687" y="69.59336" style="stroke: #000000; stroke-width: 0.8"/>
      </g>
     </g>
     <g id="text_8">
      <!-- 16 v T -->
      <g transform="translate(26.761094 73.772501) scale(0.11 -0.11)">
       <defs>
        <path id="DejaVuSans-31" d="M 794 531 
L 1825 531 
L 1825 4091 
L 703 3866 
L 703 4441 
L 1819 4666 
L 2450 4666 
L 2450 531 
L 3481 531 
L 3481 0 
L 794 0 
L 794 531 
z
" transform="scale(0.015625)"/>
        <path id="DejaVuSans-36" d="M 2113 2584 
Q 1688 2584 1439 2293 
Q 1191 2003 1191 1497 
Q 1191 994 1439 701 
Q 1688 409 2113 409 
Q 2538 409 2786 701 
Q 3034 994 3034 1497 
Q 3034 2003 2786 2293 
Q 2538 2584 2113 2584 
z
M 3366 4563 
L 3366 3988 
Q 3128 4100 2886 4159 
Q 2644 4219 2406 4219 
Q 1781 4219 1451 3797 
Q 1122 3375 1075 2522 
Q 1259 2794 1537 2939 
Q 1816 3084 2150 3084 
Q 2853 3084 3261 2657 
Q 3669 2231 3669 1497 
Q 3669 778 3244 343 
Q 2819 -91 2113 -91 
Q 1303 -91 875 529 
Q 447 1150 447 2328 
Q 447 3434 972 4092 
Q 1497 4750 2381 4750 
Q 2619 4750 2861 4703 
Q 3103 4656 3366 4563 
z
" transform="scale(0.015625)"/>
        <path id="DejaVuSans-54" d="M -19 4666 
L 3928 4666 
L 3928 4134 
L 2272 4134 
L 2272 0 
L 1638 0 
L 1638 4134 
L -19 4134 
L -19 4666 
z
" transform="scale(0.015625)"/>
       </defs>
       <use xlink:href="#DejaVuSans-31"/>
       <use xlink:href="#DejaVuSans-36" transform="translate(63.623047 0)"/>
       <use xlink:href="#DejaVuSans-20" transform="translate(127.246094 0)"/>
       <use xlink:href="#DejaVuSans-76" transform="translate(159.033203 0)"/>
       <use xlink:href="#DejaVuSans-20" transform="translate(218.212891 0)"/>
       <use xlink:href="#DejaVuSans-54" transform="translate(250 0)"/>
      </g>
     </g>
    </g>
    <g id="ytick_3">
     <g id="line2d_26">
      <g>
       <use xlink:href="#m247d3429a8" x="67.979687" y="94.326088" style="stroke: #000000; stroke-width: 0.8"/>
      </g>
     </g>
     <g id="text_9">
      <!-- 15 v T -->
      <g transform="translate(26.761094 98.505229) scale(0.11 -0.11)">
       <defs>
        <path id="DejaVuSans-35" d="M 691 4666 
L 3169 4666 
L 3169 4134 
L 1269 4134 
L 1269 2991 
Q 1406 3038 1543 3061 
Q 1681 3084 1819 3084 
Q 2600 3084 3056 2656 
Q 3513 2228 3513 1497 
Q 3513 744 3044 326 
Q 2575 -91 1722 -91 
Q 1428 -91 1123 -41 
Q 819 9 494 109 
L 494 744 
Q 775 591 1075 516 
Q 1375 441 1709 441 
Q 2250 441 2565 725 
Q 2881 1009 2881 1497 
Q 2881 1984 2565 2268 
Q 2250 2553 1709 2553 
Q 1456 2553 1204 2497 
Q 953 2441 691 2322 
L 691 4666 
z
" transform="scale(0.015625)"/>
       </defs>
       <use xlink:href="#DejaVuSans-31"/>
       <use xlink:href="#DejaVuSans-35" transform="translate(63.623047 0)"/>
       <use xlink:href="#DejaVuSans-20" transform="translate(127.246094 0)"/>
       <use xlink:href="#DejaVuSans-76" transform="translate(159.033203 0)"/>
       <use xlink:href="#DejaVuSans-20" transform="translate(218.212891 0)"/>
       <use xlink:href="#DejaVuSans-54" transform="translate(250 0)"/>
      </g>
     </g>
    </g>
    <g id="ytick_4">
     <g id="line2d_27">
      <g>
       <use xlink:href="#m247d3429a8" x="67.979687" y="119.058817" style="stroke: #000000; stroke-width: 0.8"/>
      </g>
     </g>
     <g id="text_10">
      <!-- T,T v 5 -->
      <g transform="translate(23.545312 123.237957) scale(0.11 -0.11)">
       <defs>
        <path id="DejaVuSans-2c" d="M 750 794 
L 1409 794 
L 1409 256 
L 897 -744 
L 494 -744 
L 750 256 
L 750 794 
z
" transform="scale(0.015625)"/>
       </defs>
       <use xlink:href="#DejaVuSans-54"/>
       <use xlink:href="#DejaVuSans-2c" transform="translate(61.083984 0)"/>
       <use xlink:href="#DejaVuSans-54" transform="translate(92.871094 0)"/>
       <use xlink:href="#DejaVuSans-20" transform="translate(153.955078 0)"/>
       <use xlink:href="#DejaVuSans-76" transform="translate(185.742188 0)"/>
       <use xlink:href="#DejaVuSans-20" transform="translate(244.921875 0)"/>
       <use xlink:href="#DejaVuSans-35" transform="translate(276.708984 0)"/>
      </g>
     </g>
    </g>
    <g id="ytick_5">
     <g id="line2d_28">
      <g>
       <use xlink:href="#m247d3429a8" x="67.979687" y="143.791545" style="stroke: #000000; stroke-width: 0.8"/>
      </g>
     </g>
     <g id="text_11">
      <!-- T,T v 6 -->
      <g transform="translate(23.545312 147.970686) scale(0.11 -0.11)">
       <use xlink:href="#DejaVuSans-54"/>
       <use xlink:href="#DejaVuSans-2c" transform="translate(61.083984 0)"/>
       <use xlink:href="#DejaVuSans-54" transform="translate(92.871094 0)"/>
       <use xlink:href="#DejaVuSans-20" transform="translate(153.955078 0)"/>
       <use xlink:href="#DejaVuSans-76" transform="translate(185.742188 0)"/>
       <use xlink:href="#DejaVuSans-20" transform="translate(244.921875 0)"/>
       <use xlink:href="#DejaVuSans-36" transform="translate(276.708984 0)"/>
      </g>
     </g>
    </g>
    <g id="ytick_6">
     <g id="line2d_29">
      <g>
       <use xlink:href="#m247d3429a8" x="67.979687" y="168.524273" style="stroke: #000000; stroke-width: 0.8"/>
      </g>
     </g>
     <g id="text_12">
      <!-- 10 v T -->
      <g transform="translate(26.761094 172.703414) scale(0.11 -0.11)">
       <use xlink:href="#DejaVuSans-31"/>
       <use xlink:href="#DejaVuSans-30" transform="translate(63.623047 0)"/>
       <use xlink:href="#DejaVuSans-20" transform="translate(127.246094 0)"/>
       <use xlink:href="#DejaVuSans-76" transform="translate(159.033203 0)"/>
       <use xlink:href="#DejaVuSans-20" transform="translate(218.212891 0)"/>
       <use xlink:href="#DejaVuSans-54" transform="translate(250 0)"/>
      </g>
     </g>
    </g>
    <g id="ytick_7">
     <g id="line2d_30">
      <g>
       <use xlink:href="#m247d3429a8" x="67.979687" y="193.257002" style="stroke: #000000; stroke-width: 0.8"/>
      </g>
     </g>
     <g id="text_13">
      <!-- 12 v 3 -->
      <g transform="translate(26.480937 197.436142) scale(0.11 -0.11)">
       <defs>
        <path id="DejaVuSans-33" d="M 2597 2516 
Q 3050 2419 3304 2112 
Q 3559 1806 3559 1356 
Q 3559 666 3084 287 
Q 2609 -91 1734 -91 
Q 1441 -91 1130 -33 
Q 819 25 488 141 
L 488 750 
Q 750 597 1062 519 
Q 1375 441 1716 441 
Q 2309 441 2620 675 
Q 2931 909 2931 1356 
Q 2931 1769 2642 2001 
Q 2353 2234 1838 2234 
L 1294 2234 
L 1294 2753 
L 1863 2753 
Q 2328 2753 2575 2939 
Q 2822 3125 2822 3475 
Q 2822 3834 2567 4026 
Q 2313 4219 1838 4219 
Q 1578 4219 1281 4162 
Q 984 4106 628 3988 
L 628 4550 
Q 988 4650 1302 4700 
Q 1616 4750 1894 4750 
Q 2613 4750 3031 4423 
Q 3450 4097 3450 3541 
Q 3450 3153 3228 2886 
Q 3006 2619 2597 2516 
z
" transform="scale(0.015625)"/>
       </defs>
       <use xlink:href="#DejaVuSans-31"/>
       <use xlink:href="#DejaVuSans-32" transform="translate(63.623047 0)"/>
       <use xlink:href="#DejaVuSans-20" transform="translate(127.246094 0)"/>
       <use xlink:href="#DejaVuSans-76" transform="translate(159.033203 0)"/>
       <use xlink:href="#DejaVuSans-20" transform="translate(218.212891 0)"/>
       <use xlink:href="#DejaVuSans-33" transform="translate(250 0)"/>
      </g>
     </g>
    </g>
    <g id="ytick_8">
     <g id="line2d_31">
      <g>
       <use xlink:href="#m247d3429a8" x="67.979687" y="217.98973" style="stroke: #000000; stroke-width: 0.8"/>
      </g>
     </g>
     <g id="text_14">
      <!-- 12 v 2 -->
      <g transform="translate(26.480937 222.168871) scale(0.11 -0.11)">
       <use xlink:href="#DejaVuSans-31"/>
       <use xlink:href="#DejaVuSans-32" transform="translate(63.623047 0)"/>
       <use xlink:href="#DejaVuSans-20" transform="translate(127.246094 0)"/>
       <use xlink:href="#DejaVuSans-76" transform="translate(159.033203 0)"/>
       <use xlink:href="#DejaVuSans-20" transform="translate(218.212891 0)"/>
       <use xlink:href="#DejaVuSans-32" transform="translate(250 0)"/>
      </g>
     </g>
    </g>
    <g id="ytick_9">
     <g id="line2d_32">
      <g>
       <use xlink:href="#m247d3429a8" x="67.979687" y="242.722458" style="stroke: #000000; stroke-width: 0.8"/>
      </g>
     </g>
     <g id="text_15">
      <!-- 11 v A -->
      <g transform="translate(25.955 246.901599) scale(0.11 -0.11)">
       <defs>
        <path id="DejaVuSans-41" d="M 2188 4044 
L 1331 1722 
L 3047 1722 
L 2188 4044 
z
M 1831 4666 
L 2547 4666 
L 4325 0 
L 3669 0 
L 3244 1197 
L 1141 1197 
L 716 0 
L 50 0 
L 1831 4666 
z
" transform="scale(0.015625)"/>
       </defs>
       <use xlink:href="#DejaVuSans-31"/>
       <use xlink:href="#DejaVuSans-31" transform="translate(63.623047 0)"/>
       <use xlink:href="#DejaVuSans-20" transform="translate(127.246094 0)"/>
       <use xlink:href="#DejaVuSans-76" transform="translate(159.033203 0)"/>
       <use xlink:href="#DejaVuSans-20" transform="translate(218.212891 0)"/>
       <use xlink:href="#DejaVuSans-41" transform="translate(250 0)"/>
      </g>
     </g>
    </g>
    <g id="ytick_10">
     <g id="line2d_33">
      <g>
       <use xlink:href="#m247d3429a8" x="67.979687" y="267.455187" style="stroke: #000000; stroke-width: 0.8"/>
      </g>
     </g>
     <g id="text_16">
      <!-- 9 v 2 -->
      <g transform="translate(33.479687 271.634327) scale(0.11 -0.11)">
       <defs>
        <path id="DejaVuSans-39" d="M 703 97 
L 703 672 
Q 941 559 1184 500 
Q 1428 441 1663 441 
Q 2288 441 2617 861 
Q 2947 1281 2994 2138 
Q 2813 1869 2534 1725 
Q 2256 1581 1919 1581 
Q 1219 1581 811 2004 
Q 403 2428 403 3163 
Q 403 3881 828 4315 
Q 1253 4750 1959 4750 
Q 2769 4750 3195 4129 
Q 3622 3509 3622 2328 
Q 3622 1225 3098 567 
Q 2575 -91 1691 -91 
Q 1453 -91 1209 -44 
Q 966 3 703 97 
z
M 1959 2075 
Q 2384 2075 2632 2365 
Q 2881 2656 2881 3163 
Q 2881 3666 2632 3958 
Q 2384 4250 1959 4250 
Q 1534 4250 1286 3958 
Q 1038 3666 1038 3163 
Q 1038 2656 1286 2365 
Q 1534 2075 1959 2075 
z
" transform="scale(0.015625)"/>
       </defs>
       <use xlink:href="#DejaVuSans-39"/>
       <use xlink:href="#DejaVuSans-20" transform="translate(63.623047 0)"/>
       <use xlink:href="#DejaVuSans-76" transform="translate(95.410156 0)"/>
       <use xlink:href="#DejaVuSans-20" transform="translate(154.589844 0)"/>
       <use xlink:href="#DejaVuSans-32" transform="translate(186.376953 0)"/>
      </g>
     </g>
    </g>
    <g id="ytick_11">
     <g id="line2d_34">
      <g>
       <use xlink:href="#m247d3429a8" x="67.979687" y="292.187915" style="stroke: #000000; stroke-width: 0.8"/>
      </g>
     </g>
     <g id="text_17">
      <!-- 10 v A -->
      <g transform="translate(25.955 296.367056) scale(0.11 -0.11)">
       <use xlink:href="#DejaVuSans-31"/>
       <use xlink:href="#DejaVuSans-30" transform="translate(63.623047 0)"/>
       <use xlink:href="#DejaVuSans-20" transform="translate(127.246094 0)"/>
       <use xlink:href="#DejaVuSans-76" transform="translate(159.033203 0)"/>
       <use xlink:href="#DejaVuSans-20" transform="translate(218.212891 0)"/>
       <use xlink:href="#DejaVuSans-41" transform="translate(250 0)"/>
      </g>
     </g>
    </g>
    <g id="ytick_12">
     <g id="line2d_35">
      <g>
       <use xlink:href="#m247d3429a8" x="67.979687" y="316.920643" style="stroke: #000000; stroke-width: 0.8"/>
      </g>
     </g>
     <g id="text_18">
      <!-- 9 v 7 -->
      <g transform="translate(33.479687 321.099784) scale(0.11 -0.11)">
       <defs>
        <path id="DejaVuSans-37" d="M 525 4666 
L 3525 4666 
L 3525 4397 
L 1831 0 
L 1172 0 
L 2766 4134 
L 525 4134 
L 525 4666 
z
" transform="scale(0.015625)"/>
       </defs>
       <use xlink:href="#DejaVuSans-39"/>
       <use xlink:href="#DejaVuSans-20" transform="translate(63.623047 0)"/>
       <use xlink:href="#DejaVuSans-76" transform="translate(95.410156 0)"/>
       <use xlink:href="#DejaVuSans-20" transform="translate(154.589844 0)"/>
       <use xlink:href="#DejaVuSans-37" transform="translate(186.376953 0)"/>
      </g>
     </g>
    </g>
    <g id="ytick_13">
     <g id="line2d_36">
      <g>
       <use xlink:href="#m247d3429a8" x="67.979687" y="341.653372" style="stroke: #000000; stroke-width: 0.8"/>
      </g>
     </g>
     <g id="text_19">
      <!-- 16 v 9 -->
      <g transform="translate(26.480937 345.832512) scale(0.11 -0.11)">
       <use xlink:href="#DejaVuSans-31"/>
       <use xlink:href="#DejaVuSans-36" transform="translate(63.623047 0)"/>
       <use xlink:href="#DejaVuSans-20" transform="translate(127.246094 0)"/>
       <use xlink:href="#DejaVuSans-76" transform="translate(159.033203 0)"/>
       <use xlink:href="#DejaVuSans-20" transform="translate(218.212891 0)"/>
       <use xlink:href="#DejaVuSans-39" transform="translate(250 0)"/>
      </g>
     </g>
    </g>
    <g id="ytick_14">
     <g id="line2d_37">
      <g>
       <use xlink:href="#m247d3429a8" x="67.979687" y="366.3861" style="stroke: #000000; stroke-width: 0.8"/>
      </g>
     </g>
     <g id="text_20">
      <!-- 13 v 2 -->
      <g transform="translate(26.480937 370.565241) scale(0.11 -0.11)">
       <use xlink:href="#DejaVuSans-31"/>
       <use xlink:href="#DejaVuSans-33" transform="translate(63.623047 0)"/>
       <use xlink:href="#DejaVuSans-20" transform="translate(127.246094 0)"/>
       <use xlink:href="#DejaVuSans-76" transform="translate(159.033203 0)"/>
       <use xlink:href="#DejaVuSans-20" transform="translate(218.212891 0)"/>
       <use xlink:href="#DejaVuSans-32" transform="translate(250 0)"/>
      </g>
     </g>
    </g>
    <g id="ytick_15">
     <g id="line2d_38">
      <g>
       <use xlink:href="#m247d3429a8" x="67.979687" y="391.118828" style="stroke: #000000; stroke-width: 0.8"/>
      </g>
     </g>
     <g id="text_21">
      <!-- 12 v 4 -->
      <g transform="translate(26.480937 395.297969) scale(0.11 -0.11)">
       <use xlink:href="#DejaVuSans-31"/>
       <use xlink:href="#DejaVuSans-32" transform="translate(63.623047 0)"/>
       <use xlink:href="#DejaVuSans-20" transform="translate(127.246094 0)"/>
       <use xlink:href="#DejaVuSans-76" transform="translate(159.033203 0)"/>
       <use xlink:href="#DejaVuSans-20" transform="translate(218.212891 0)"/>
       <use xlink:href="#DejaVuSans-34" transform="translate(250 0)"/>
      </g>
     </g>
    </g>
    <g id="ytick_16">
     <g id="line2d_39">
      <g>
       <use xlink:href="#m247d3429a8" x="67.979687" y="415.851557" style="stroke: #000000; stroke-width: 0.8"/>
      </g>
     </g>
     <g id="text_22">
      <!-- 12 v 5 -->
      <g transform="translate(26.480937 420.030697) scale(0.11 -0.11)">
       <use xlink:href="#DejaVuSans-31"/>
       <use xlink:href="#DejaVuSans-32" transform="translate(63.623047 0)"/>
       <use xlink:href="#DejaVuSans-20" transform="translate(127.246094 0)"/>
       <use xlink:href="#DejaVuSans-76" transform="translate(159.033203 0)"/>
       <use xlink:href="#DejaVuSans-20" transform="translate(218.212891 0)"/>
       <use xlink:href="#DejaVuSans-35" transform="translate(250 0)"/>
      </g>
     </g>
    </g>
    <g id="ytick_17">
     <g id="line2d_40">
      <g>
       <use xlink:href="#m247d3429a8" x="67.979687" y="440.584285" style="stroke: #000000; stroke-width: 0.8"/>
      </g>
     </g>
     <g id="text_23">
      <!-- 12 v 6 -->
      <g transform="translate(26.480937 444.763426) scale(0.11 -0.11)">
       <use xlink:href="#DejaVuSans-31"/>
       <use xlink:href="#DejaVuSans-32" transform="translate(63.623047 0)"/>
       <use xlink:href="#DejaVuSans-20" transform="translate(127.246094 0)"/>
       <use xlink:href="#DejaVuSans-76" transform="translate(159.033203 0)"/>
       <use xlink:href="#DejaVuSans-20" transform="translate(218.212891 0)"/>
       <use xlink:href="#DejaVuSans-36" transform="translate(250 0)"/>
      </g>
     </g>
    </g>
    <g id="ytick_18">
     <g id="line2d_41">
      <g>
       <use xlink:href="#m247d3429a8" x="67.979687" y="465.317013" style="stroke: #000000; stroke-width: 0.8"/>
      </g>
     </g>
     <g id="text_24">
      <!-- 13 v 3 -->
      <g transform="translate(26.480937 469.496154) scale(0.11 -0.11)">
       <use xlink:href="#DejaVuSans-31"/>
       <use xlink:href="#DejaVuSans-33" transform="translate(63.623047 0)"/>
       <use xlink:href="#DejaVuSans-20" transform="translate(127.246094 0)"/>
       <use xlink:href="#DejaVuSans-76" transform="translate(159.033203 0)"/>
       <use xlink:href="#DejaVuSans-20" transform="translate(218.212891 0)"/>
       <use xlink:href="#DejaVuSans-33" transform="translate(250 0)"/>
      </g>
     </g>
    </g>
   </g>
   <g id="PathCollection_1">
    <defs>
     <path id="mb04a5e2a4c" d="M 0 3.708099 
C 0.983399 3.708099 1.926654 3.317391 2.622022 2.622022 
C 3.317391 1.926654 3.708099 0.983399 3.708099 0 
C 3.708099 -0.983399 3.317391 -1.926654 2.622022 -2.622022 
C 1.926654 -3.317391 0.983399 -3.708099 0 -3.708099 
C -0.983399 -3.708099 -1.926654 -3.317391 -2.622022 -2.622022 
C -3.317391 -1.926654 -3.708099 -0.983399 -3.708099 0 
C -3.708099 0.983399 -3.317391 1.926654 -2.622022 2.622022 
C -1.926654 3.317391 -0.983399 3.708099 0 3.708099 
z
" style="stroke: #7f8c8d"/>
    </defs>
    <g clip-path="url(#p1fc2be8cf9)">
     <use xlink:href="#mb04a5e2a4c" x="458.641275" y="44.860632" style="fill: #7f8c8d; stroke: #7f8c8d"/>
     <use xlink:href="#mb04a5e2a4c" x="294.905261" y="69.59336" style="fill: #7f8c8d; stroke: #7f8c8d"/>
     <use xlink:href="#mb04a5e2a4c" x="513.219947" y="94.326088" style="fill: #7f8c8d; stroke: #7f8c8d"/>
     <use xlink:href="#mb04a5e2a4c" x="567.798619" y="119.058817" style="fill: #7f8c8d; stroke: #7f8c8d"/>
     <use xlink:href="#mb04a5e2a4c" x="513.219947" y="143.791545" style="fill: #7f8c8d; stroke: #7f8c8d"/>
     <use xlink:href="#mb04a5e2a4c" x="513.219947" y="168.524273" style="fill: #7f8c8d; stroke: #7f8c8d"/>
     <use xlink:href="#mb04a5e2a4c" x="404.062604" y="193.257002" style="fill: #7f8c8d; stroke: #7f8c8d"/>
     <use xlink:href="#mb04a5e2a4c" x="458.641275" y="217.98973" style="fill: #7f8c8d; stroke: #7f8c8d"/>
     <use xlink:href="#mb04a5e2a4c" x="349.483932" y="242.722458" style="fill: #7f8c8d; stroke: #7f8c8d"/>
     <use xlink:href="#mb04a5e2a4c" x="349.483932" y="267.455187" style="fill: #7f8c8d; stroke: #7f8c8d"/>
     <use xlink:href="#mb04a5e2a4c" x="513.219947" y="292.187915" style="fill: #7f8c8d; stroke: #7f8c8d"/>
     <use xlink:href="#mb04a5e2a4c" x="458.641275" y="316.920643" style="fill: #7f8c8d; stroke: #7f8c8d"/>
     <use xlink:href="#mb04a5e2a4c" x="567.798619" y="341.653372" style="fill: #7f8c8d; stroke: #7f8c8d"/>
     <use xlink:href="#mb04a5e2a4c" x="240.326589" y="366.3861" style="fill: #7f8c8d; stroke: #7f8c8d"/>
     <use xlink:href="#mb04a5e2a4c" x="294.905261" y="391.118828" style="fill: #7f8c8d; stroke: #7f8c8d"/>
     <use xlink:href="#mb04a5e2a4c" x="185.747917" y="415.851557" style="fill: #7f8c8d; stroke: #7f8c8d"/>
     <use xlink:href="#mb04a5e2a4c" x="240.326589" y="440.584285" style="fill: #7f8c8d; stroke: #7f8c8d"/>
     <use xlink:href="#mb04a5e2a4c" x="185.747917" y="465.317013" style="fill: #7f8c8d; stroke: #7f8c8d"/>
    </g>
   </g>
   <g id="line2d_42">
    <path d="M 294.905261 486.339832 
L 294.905261 23.837812 
" clip-path="url(#p1fc2be8cf9)" style="fill: none; stroke: #999999; stroke-width: 0.8; stroke-linecap: square"/>
   </g>
   <g id="patch_3">
    <path d="M 67.979687 486.339832 
L 67.979687 23.837812 
" style="fill: none; stroke: #000000; stroke-width: 0.8; stroke-linejoin: miter; stroke-linecap: square"/>
   </g>
   <g id="patch_4">
    <path d="M 591.59952 486.339832 
L 591.59952 23.837812 
" style="fill: none; stroke: #000000; stroke-width: 0.8; stroke-linejoin: miter; stroke-linecap: square"/>
   </g>
   <g id="patch_5">
    <path d="M 67.979687 486.339832 
L 591.59952 486.339832 
" style="fill: none; stroke: #000000; stroke-width: 0.8; stroke-linejoin: miter; stroke-linecap: square"/>
   </g>
   <g id="patch_6">
    <path d="M 67.979687 23.837812 
L 591.59952 23.837812 
" style="fill: none; stroke: #000000; stroke-width: 0.8; stroke-linejoin: miter; stroke-linecap: square"/>
   </g>
   <g id="PathCollection_2">
    <defs>
     <path id="maf607c6625" d="M 0 3.708099 
C 0.983399 3.708099 1.926654 3.317391 2.622022 2.622022 
C 3.317391 1.926654 3.708099 0.983399 3.708099 0 
C 3.708099 -0.983399 3.317391 -1.926654 2.622022 -2.622022 
C 1.926654 -3.317391 0.983399 -3.708099 0 -3.708099 
C -0.983399 -3.708099 -1.926654 -3.317391 -2.622022 -2.622022 
C -3.317391 -1.926654 -3.708099 -0.983399 -3.708099 0 
C -3.708099 0.983399 -3.317391 1.926654 -2.622022 2.622022 
C -1.926654 3.317391 -0.983399 3.708099 0 3.708099 
z
" style="stroke: #2980b9"/>
    </defs>
    <g clip-path="url(#p1fc2be8cf9)">
     <use xlink:href="#maf607c6625" x="475.339005" y="44.860632" style="fill: #2980b9; stroke: #2980b9"/>
     <use xlink:href="#maf607c6625" x="302.488625" y="69.59336" style="fill: #2980b9; stroke: #2980b9"/>
     <use xlink:href="#maf607c6625" x="509.992009" y="94.326088" style="fill: #2980b9; stroke: #2980b9"/>
     <use xlink:href="#maf607c6625" x="562.58781" y="119.058817" style="fill: #2980b9; stroke: #2980b9"/>
     <use xlink:href="#maf607c6625" x="503.779231" y="143.791545" style="fill: #2980b9; stroke: #2980b9"/>
     <use xlink:href="#maf607c6625" x="493.583342" y="168.524273" style="fill: #2980b9; stroke: #2980b9"/>
     <use xlink:href="#maf607c6625" x="342.257604" y="193.257002" style="fill: #2980b9; stroke: #2980b9"/>
     <use xlink:href="#maf607c6625" x="432.133535" y="217.98973" style="fill: #2980b9; stroke: #2980b9"/>
     <use xlink:href="#maf607c6625" x="296.430449" y="242.722458" style="fill: #2980b9; stroke: #2980b9"/>
     <use xlink:href="#maf607c6625" x="347.546554" y="267.455187" style="fill: #2980b9; stroke: #2980b9"/>
     <use xlink:href="#maf607c6625" x="453.852446" y="292.187915" style="fill: #2980b9; stroke: #2980b9"/>
     <use xlink:href="#maf607c6625" x="484.502154" y="316.920643" style="fill: #2980b9; stroke: #2980b9"/>
     <use xlink:href="#maf607c6625" x="523.593232" y="341.653372" style="fill: #2980b9; stroke: #2980b9"/>
     <use xlink:href="#maf607c6625" x="212.653331" y="366.3861" style="fill: #2980b9; stroke: #2980b9"/>
     <use xlink:href="#maf607c6625" x="263.148782" y="391.118828" style="fill: #2980b9; stroke: #2980b9"/>
     <use xlink:href="#maf607c6625" x="194.132895" y="415.851557" style="fill: #2980b9; stroke: #2980b9"/>
     <use xlink:href="#maf607c6625" x="91.780589" y="440.584285" style="fill: #2980b9; stroke: #2980b9"/>
     <use xlink:href="#maf607c6625" x="138.946784" y="465.317013" style="fill: #2980b9; stroke: #2980b9"/>
    </g>
   </g>
   <g id="text_25">
    <!-- Index plays: textbook thresholds vs engine-derived (6 decks, H17) -->
    <g transform="translate(97.133666 17.837812) scale(0.14 -0.14)">
     <defs>
      <path id="DejaVuSans-49" d="M 628 4666 
L 1259 4666 
L 1259 0 
L 628 0 
L 628 4666 
z
" transform="scale(0.015625)"/>
      <path id="DejaVuSans-3a" d="M 750 794 
L 1409 794 
L 1409 0 
L 750 0 
L 750 794 
z
M 750 3309 
L 1409 3309 
L 1409 2516 
L 750 2516 
L 750 3309 
z
" transform="scale(0.015625)"/>
      <path id="DejaVuSans-6b" d="M 581 4863 
L 1159 4863 
L 1159 1991 
L 2875 3500 
L 3609 3500 
L 1753 1863 
L 3688 0 
L 2938 0 
L 1159 1709 
L 1159 0 
L 581 0 
L 581 4863 
z
" transform="scale(0.015625)"/>
      <path id="DejaVuSans-67" d="M 2906 1791 
Q 2906 2416 2648 2759 
Q 2391 3103 1925 3103 
Q 1463 3103 1205 2759 
Q 947 2416 947 1791 
Q 947 1169 1205 825 
Q 1463 481 1925 481 
Q 2391 481 2648 825 
Q 2906 1169 2906 1791 
z
M 3481 434 
Q 3481 -459 3084 -895 
Q 2688 -1331 1869 -1331 
Q 1566 -1331 1297 -1286 
Q 1028 -1241 775 -1147 
L 775 -588 
Q 1028 -725 1275 -790 
Q 1522 -856 1778 -856 
Q 2344 -856 2625 -561 
Q 2906 -266 2906 331 
L 2906 616 
Q 2728 306 2450 153 
Q 2172 0 1784 0 
Q 1141 0 747 490 
Q 353 981 353 1791 
Q 353 2603 747 3093 
Q 1141 3584 1784 3584 
Q 2172 3584 2450 3431 
Q 2728 3278 2906 2969 
L 2906 3500 
L 3481 3500 
L 3481 434 
z
" transform="scale(0.015625)"/>
     </defs>
     <use xlink:href="#DejaVuSans-49"/>
     <use xlink:href="#DejaVuSans-6e" transform="translate(29.492188 0)"/>
     <use xlink:href="#DejaVuSans-64" transform="translate(92.871094 0)"/>
     <use xlink:href="#DejaVuSans-65" transform="translate(156.347656 0)"/>
     <use xlink:href="#DejaVuSans-78" transform="translate(216.121094 0)"/>
     <use xlink:href="#DejaVuSans-20" transform="translate(275.300781 0)"/>
     <use xlink:href="#DejaVuSans-70" transform="translate(307.087891 0)"/>
     <use xlink:href="#DejaVuSans-6c" transform="translate(370.564453 0)"/>
     <use xlink:href="#DejaVuSans-61" transform="translate(398.347656 0)"/>
     <use xlink:href="#DejaVuSans-79" transform="translate(459.626953 0)"/>
     <use xlink:href="#DejaVuSans-73" transform="translate(518.806641 0)"/>
     <use xlink:href="#DejaVuSans-3a" transform="translate(570.90625 0)"/>
     <use xlink:href="#DejaVuSans-20" transform="translate(604.597656 0)"/>
     <use xlink:href="#DejaVuSans-74" transform="translate(636.384766 0)"/>
     <use xlink:href="#DejaVuSans-65" transform="translate(675.59375 0)"/>
     <use xlink:href="#DejaVuSans-78" transform="translate(735.367188 0)"/>
     <use xlink:href="#DejaVuSans-74" transform="translate(794.546875 0)"/>
     <use xlink:href="#DejaVuSans-62" transform="translate(833.755859 0)"/>
     <use xlink:href="#DejaVuSans-6f" transform="translate(897.232422 0)"/>
     <use xlink:href="#DejaVuSans-6f" transform="translate(958.414062 0)"/>
     <use xlink:href="#DejaVuSans-6b" transform="translate(1019.595703 0)"/>
     <use xlink:href="#DejaVuSans-20" transform="translate(1077.505859 0)"/>
     <use xlink:href="#DejaVuSans-74" transform="translate(1109.292969 0)"/>
     <use xlink:href="#DejaVuSans-68" transform="translate(1148.501953 0)"/>
     <use xlink:href="#DejaVuSans-72" transform="translate(1211.880859 0)"/>
     <use xlink:href="#DejaVuSans-65" transform="translate(1250.744141 0)"/>
     <use xlink:href="#DejaVuSans-73" transform="translate(1312.267578 0)"/>
     <use xlink:href="#DejaVuSans-68" transform="translate(1364.367188 0)"/>
     <use xlink:href="#DejaVuSans-6f" transform="translate(1427.746094 0)"/>
     <use xlink:href="#DejaVuSans-6c" transform="translate(1488.927734 0)"/>
     <use xlink:href="#DejaVuSans-64" transform="translate(1516.710938 0)"/>
     <use xlink:href="#DejaVuSans-73" transform="translate(1580.1875 0)"/>
     <use xlink:href="#DejaVuSans-20" transform="translate(1632.287109 0)"/>
     <use xlink:href="#DejaVuSans-76" transform="translate(1664.074219 0)"/>
     <use xlink:href="#DejaVuSans-73" transform="translate(1723.253906 0)"/>
     <use xlink:href="#DejaVuSans-20" transform="translate(1775.353516 0)"/>
     <use xlink:href="#DejaVuSans-65" transform="translate(1807.140625 0)"/>
     <use xlink:href="#DejaVuSans-6e" transform="translate(1868.664062 0)"/>
     <use xlink:href="#DejaVuSans-67" transform="translate(1932.042969 0)"/>
     <use xlink:href="#DejaVuSans-69" transform="translate(1995.519531 0)"/>
     <use xlink:href="#DejaVuSans-6e" transform="translate(2023.302734 0)"/>
     <use xlink:href="#DejaVuSans-65" transform="translate(2086.681641 0)"/>
     <use xlink:href="#DejaVuSans-2d" transform="translate(2148.205078 0)"/>
     <use xlink:href="#DejaVuSans-64" transform="translate(2184.289062 0)"/>
     <use xlink:href="#DejaVuSans-65" transform="translate(2247.765625 0)"/>
     <use xlink:href="#DejaVuSans-72" transform="translate(2309.289062 0)"/>
     <use xlink:href="#DejaVuSans-69" transform="translate(2350.402344 0)"/>
     <use xlink:href="#DejaVuSans-76" transform="translate(2378.185547 0)"/>
     <use xlink:href="#DejaVuSans-65" transform="translate(2437.365234 0)"/>
     <use xlink:href="#DejaVuSans-64" transform="translate(2498.888672 0)"/>
     <use xlink:href="#DejaVuSans-20" transform="translate(2562.365234 0)"/>
     <use xlink:href="#DejaVuSans-28" transform="translate(2594.152344 0)"/>
     <use xlink:href="#DejaVuSans-36" transform="translate(2633.166016 0)"/>
     <use xlink:href="#DejaVuSans-20" transform="translate(2696.789062 0)"/>
     <use xlink:href="#DejaVuSans-64" transform="translate(2728.576172 0)"/>
     <use xlink:href="#DejaVuSans-65" transform="translate(2792.052734 0)"/>
     <use xlink:href="#DejaVuSans-63" transform="translate(2853.576172 0)"/>
     <use xlink:href="#DejaVuSans-6b" transform="translate(2908.556641 0)"/>
     <use xlink:href="#DejaVuSans-73" transform="translate(2966.466797 0)"/>
     <use xlink:href="#DejaVuSans-2c" transform="translate(3018.566406 0)"/>
     <use xlink:href="#DejaVuSans-20" transform="translate(3050.353516 0)"/>
     <use xlink:href="#DejaVuSans-48" transform="translate(3082.140625 0)"/>
     <use xlink:href="#DejaVuSans-31" transform="translate(3157.335938 0)"/>
     <use xlink:href="#DejaVuSans-37" transform="translate(3220.958984 0)"/>
     <use xlink:href="#DejaVuSans-29" transform="translate(3284.582031 0)"/>
    </g>
   </g>
   <g id="legend_1">
    <g id="patch_7">
     <path d="M 416.297957 481.339832 
L 584.59952 481.339832 
Q 586.59952 481.339832 586.59952 479.339832 
L 586.59952 450.983582 
Q 586.59952 448.983582 584.59952 448.983582 
L 416.297957 448.983582 
Q 414.297957 448.983582 414.297957 450.983582 
L 414.297957 479.339832 
Q 414.297957 481.339832 416.297957 481.339832 
z
" style="fill: #ffffff; opacity: 0.8; stroke: #cccccc; stroke-linejoin: miter"/>
    </g>
    <g id="PathCollection_3">
     <g>
      <use xlink:href="#mb04a5e2a4c" x="428.297957" y="457.95702" style="fill: #7f8c8d; stroke: #7f8c8d"/>
     </g>
    </g>
    <g id="text_26">
     <!-- textbook Illustrious 18 -->
     <g transform="translate(446.297957 460.58202) scale(0.1 -0.1)">
      <defs>
       <path id="DejaVuSans-38" d="M 2034 2216 
Q 1584 2216 1326 1975 
Q 1069 1734 1069 1313 
Q 1069 891 1326 650 
Q 1584 409 2034 409 
Q 2484 409 2743 651 
Q 3003 894 3003 1313 
Q 3003 1734 2745 1975 
Q 2488 2216 2034 2216 
z
M 1403 2484 
Q 997 2584 770 2862 
Q 544 3141 544 3541 
Q 544 4100 942 4425 
Q 1341 4750 2034 4750 
Q 2731 4750 3128 4425 
Q 3525 4100 3525 3541 
Q 3525 3141 3298 2862 
Q 3072 2584 2669 2484 
Q 3125 2378 3379 2068 
Q 3634 1759 3634 1313 
Q 3634 634 3220 271 
Q 2806 -91 2034 -91 
Q 1263 -91 848 271 
Q 434 634 434 1313 
Q 434 1759 690 2068 
Q 947 2378 1403 2484 
z
M 1172 3481 
Q 1172 3119 1398 2916 
Q 1625 2713 2034 2713 
Q 2441 2713 2670 2916 
Q 2900 3119 2900 3481 
Q 2900 3844 2670 4047 
Q 2441 4250 2034 4250 
Q 1625 4250 1398 4047 
Q 1172 3844 1172 3481 
z
" transform="scale(0.015625)"/>
      </defs>
      <use xlink:href="#DejaVuSans-74"/>
      <use xlink:href="#DejaVuSans-65" transform="translate(39.208984 0)"/>
      <use xlink:href="#DejaVuSans-78" transform="translate(98.982422 0)"/>
      <use xlink:href="#DejaVuSans-74" transform="translate(158.162109 0)"/>
      <use xlink:href="#DejaVuSans-62" transform="translate(197.371094 0)"/>
      <use xlink:href="#DejaVuSans-6f" transform="translate(260.847656 0)"/>
      <use xlink:href="#DejaVuSans-6f" transform="translate(322.029297 0)"/>
      <use xlink:href="#DejaVuSans-6b" transform="translate(383.210938 0)"/>
      <use xlink:href="#DejaVuSans-20" transform="translate(441.121094 0)"/>
      <use xlink:href="#DejaVuSans-49" transform="translate(472.908203 0)"/>
      <use xlink:href="#DejaVuSans-6c" transform="translate(502.400391 0)"/>
      <use xlink:href="#DejaVuSans-6c" transform="translate(530.183594 0)"/>
      <use xlink:href="#DejaVuSans-75" transform="translate(557.966797 0)"/>
      <use xlink:href="#DejaVuSans-73" transform="translate(621.345703 0)"/>
      <use xlink:href="#DejaVuSans-74" transform="translate(673.445312 0)"/>
      <use xlink:href="#DejaVuSans-72" transform="translate(712.654297 0)"/>
      <use xlink:href="#DejaVuSans-69" transform="translate(753.767578 0)"/>
      <use xlink:href="#DejaVuSans-6f" transform="translate(781.550781 0)"/>
      <use xlink:href="#DejaVuSans-75" transform="translate(842.732422 0)"/>
      <use xlink:href="#DejaVuSans-73" transform="translate(906.111328 0)"/>
      <use xlink:href="#DejaVuSans-20" transform="translate(958.210938 0)"/>
      <use xlink:href="#DejaVuSans-31" transform="translate(989.998047 0)"/>
      <use xlink:href="#DejaVuSans-38" transform="translate(1053.621094 0)"/>
     </g>
    </g>
    <g id="PathCollection_4">
     <g>
      <use xlink:href="#maf607c6625" x="428.297957" y="472.635145" style="fill: #2980b9; stroke: #2980b9"/>
     </g>
    </g>
    <g id="text_27">
     <!-- engine-derived (this game) -->
     <g transform="translate(446.297957 475.260145) scale(0.1 -0.1)">
      <defs>
       <path id="DejaVuSans-6d" d="M 3328 2828 
Q 3544 3216 3844 3400 
Q 4144 3584 4550 3584 
Q 5097 3584 5394 3201 
Q 5691 2819 5691 2113 
L 5691 0 
L 5113 0 
L 5113 2094 
Q 5113 2597 4934 2840 
Q 4756 3084 4391 3084 
Q 3944 3084 3684 2787 
Q 3425 2491 3425 1978 
L 3425 0 
L 2847 0 
L 2847 2094 
Q 2847 2600 2669 2842 
Q 2491 3084 2119 3084 
Q 1678 3084 1418 2786 
Q 1159 2488 1159 1978 
L 1159 0 
L 581 0 
L 581 3500 
L 1159 3500 
L 1159 2956 
Q 1356 3278 1631 3431 
Q 1906 3584 2284 3584 
Q 2666 3584 2933 3390 
Q 3200 3197 3328 2828 
z
" transform="scale(0.015625)"/>
      </defs>
      <use xlink:href="#DejaVuSans-65"/>
      <use xlink:href="#DejaVuSans-6e" transform="translate(61.523438 0)"/>
      <use xlink:href="#DejaVuSans-67" transform="translate(124.902344 0)"/>
      <use xlink:href="#DejaVuSans-69" transform="translate(188.378906 0)"/>
      <use xlink:href="#DejaVuSans-6e" transform="translate(216.162109 0)"/>
      <use xlink:href="#DejaVuSans-65" transform="translate(279.541016 0)"/>
      <use xlink:href="#DejaVuSans-2d" transform="translate(341.064453 0)"/>
      <use xlink:href="#DejaVuSans-64" transform="translate(377.148438 0)"/>
      <use xlink:href="#DejaVuSans-65" transform="translate(440.625 0)"/>
      <use xlink:href="#DejaVuSans-72" transform="translate(502.148438 0)"/>
      <use xlink:href="#DejaVuSans-69" transform="translate(543.261719 0)"/>
      <use xlink:href="#DejaVuSans-76" transform="translate(571.044922 0)"/>
      <use xlink:href="#DejaVuSans-65" transform="translate(630.224609 0)"/>
      <use xlink:href="#DejaVuSans-64" transform="translate(691.748047 0)"/>
      <use xlink:href="#DejaVuSans-20" transform="translate(755.224609 0)"/>
      <use xlink:href="#DejaVuSans-28" transform="translate(787.011719 0)"/>
      <use xlink:href="#DejaVuSans-74" transform="translate(826.025391 0)"/>
      <use xlink:href="#DejaVuSans-68" transform="translate(865.234375 0)"/>
      <use xlink:href="#DejaVuSans-69" transform="translate(928.613281 0)"/>
      <use xlink:href="#DejaVuSans-73" transform="translate(956.396484 0)"/>
      <use xlink:href="#DejaVuSans-20" transform="translate(1008.496094 0)"/>
      <use xlink:href="#DejaVuSans-67" transform="translate(1040.283203 0)"/>
      <use xlink:href="#DejaVuSans-61" transform="translate(1103.759766 0)"/>
      <use xlink:href="#DejaVuSans-6d" transform="translate(1165.039062 0)"/>
      <use xlink:href="#DejaVuSans-65" transform="translate(1262.451172 0)"/>
      <use xlink:href="#DejaVuSans-29" transform="translate(1323.974609 0)"/>
     </g>
    </g>
   </g>
  </g>
 </g>
 <defs>
  <clipPath id="p1fc2be8cf9">
   <rect x="67.979687" y="23.837812" width="523.619832" height="462.50202"/>
  </clipPath>
 </defs>
</svg>
