<?xml version="1.0" encoding="utf-8" standalone="no"?>
<!DOCTYPE svg PUBLIC "-//W3C//DTD SVG 1.1//EN"
  "http://www.w3.org/Graphics/SVG/1.1/DTD/svg11.dtd">
<svg xmlns:xlink="http://www.w3.org/1999/xlink" width="656.39952pt" height="389.99952pt" viewBox="0 0 656.39952 389.99952" xmlns="http://www.w3.org/2000/svg" version="1.1">
 <metadata>
  <rdf:RDF xmlns:dc="http://purl.org/dc/elements/1.1/" xmlns:cc="http://creativecommons.org/ns#" xmlns:rdf="http://www.w3.org/1999/02/22-rdf-syntax-ns#">
   <cc:Work>
    <dc:type rdf:resource="http://purl.org/dc/dcmitype/StillImage"/>
    <dc:date>2026-06-07T00:18:55.898193</dc:date>
    <dc:format>image/svg+xml</dc:format>
    <dc:creator>
     <cc:Agent>
      <dc:title>Matplotlib v3.10.1, https://matplotlib.org/</dc:title>
     </cc:Agent>
    </dc:creator>
   </cc:Work>
  </rdf:RDF>
 </metadata>
 <defs>
  <style type="text/css">*{stroke-linejoin: round; stroke-linecap: butt}</style>
 </defs>
 <g id="figure_1">
  <g id="patch_1">
   <path d="M 0 389.99952 
L 656.39952 389.99952 
L 656.39952 0 
L 0 0 
z
" style="fill: #ffffff"/>
  </g>
  <g id="axes_1">
   <g id="patch_2">
    <path d="M 46.030156 349.539832 
L 649.19952 349.539832 
L 649.19952 23.837812 
L 46.030156 23.837812 
z
" style="fill: #ffffff"/>
   </g>
   <g id="matplotlib.axis_1">
    <g id="xtick_1">
     <g id="line2d_1">
      <defs>
       <path id="m41b9ba13fe" d="M 0 0 
L 0 3.5 
" style="stroke: #000000; stroke-width: 0.8"/>
      </defs>
      <g>
       <use xlink:href="#m41b9ba13fe" x="73.446946" y="349.539832" style="stroke: #000000; stroke-width: 0.8"/>
      </g>
     </g>
     <g id="text_1">
      <!-- −4 -->
      <g transform="translate(65.338742 364.898114) scale(0.11 -0.11)">
       <defs>
        <path id="DejaVuSans-2212" d="M 678 2272 
L 4684 2272 
L 4684 1741 
L 678 1741 
L 678 2272 
z
" transform="scale(0.015625)"/>
        <path id="DejaVuSans-34" d="M 2419 4116 
L 825 1625 
L 2419 1625 
L 2419 4116 
z
M 2253 4666 
L 3047 4666 
L 3047 1625 
L 3713 1625 
L 3713 1100 
L 3047 1100 
L 3047 0 
L 2419 0 
L 2419 1100 
L 313 1100 
L 313 1709 
L 2253 4666 
z
" transform="scale(0.015625)"/>
       </defs>
       <use xlink:href="#DejaVuSans-2212"/>
       <use xlink:href="#DejaVuSans-34" transform="translate(83.789062 0)"/>
      </g>
     </g>
    </g>
    <g id="xtick_2">
     <g id="line2d_2">
      <g>
       <use xlink:href="#m41b9ba13fe" x="183.114103" y="349.539832" style="stroke: #000000; stroke-width: 0.8"/>
      </g>
     </g>
     <g id="text_2">
      <!-- −2 -->
      <g transform="translate(175.005899 364.898114) scale(0.11 -0.11)">
       <defs>
        <path id="DejaVuSans-32" d="M 1228 531 
L 3431 531 
L 3431 0 
L 469 0 
L 469 531 
Q 828 903 1448 1529 
Q 2069 2156 2228 2338 
Q 2531 2678 2651 2914 
Q 2772 3150 2772 3378 
Q 2772 3750 2511 3984 
Q 2250 4219 1831 4219 
Q 1534 4219 1204 4116 
Q 875 4013 500 3803 
L 500 4441 
Q 881 4594 1212 4672 
Q 1544 4750 1819 4750 
Q 2544 4750 2975 4387 
Q 3406 4025 3406 3419 
Q 3406 3131 3298 2873 
Q 3191 2616 2906 2266 
Q 2828 2175 2409 1742 
Q 1991 1309 1228 531 
z
" transform="scale(0.015625)"/>
       </defs>
       <use xlink:href="#DejaVuSans-2212"/>
       <use xlink:href="#DejaVuSans-32" transform="translate(83.789062 0)"/>
      </g>
     </g>
    </g>
    <g id="xtick_3">
     <g id="line2d_3">
      <g>
       <use xlink:href="#m41b9ba13fe" x="292.78126" y="349.539832" style="stroke: #000000; stroke-width: 0.8"/>
      </g>
     </g>
     <g id="text_3">
      <!-- 0 -->
      <g transform="translate(289.281885 364.898114) scale(0.11 -0.11)">
       <defs>
        <path id="DejaVuSans-30" d="M 2034 4250 
Q 1547 4250 1301 3770 
Q 1056 3291 1056 2328 
Q 1056 1369 1301 889 
Q 1547 409 2034 409 
Q 2525 409 2770 889 
Q 3016 1369 3016 2328 
Q 3016 3291 2770 3770 
Q 2525 4250 2034 4250 
z
M 2034 4750 
Q 2819 4750 3233 4129 
Q 3647 3509 3647 2328 
Q 3647 1150 3233 529 
Q 2819 -91 2034 -91 
Q 1250 -91 836 529 
Q 422 1150 422 2328 
Q 422 3509 836 4129 
Q 1250 4750 2034 4750 
z
" transform="scale(0.015625)"/>
       </defs>
       <use xlink:href="#DejaVuSans-30"/>
      </g>
     </g>
    </g>
    <g id="xtick_4">
     <g id="line2d_4">
      <g>
       <use xlink:href="#m41b9ba13fe" x="402.448417" y="349.539832" style="stroke: #000000; stroke-width: 0.8"/>
      </g>
     </g>
     <g id="text_4">
      <!-- 2 -->
      <g transform="translate(398.949042 364.898114) scale(0.11 -0.11)">
       <use xlink:href="#DejaVuSans-32"/>
      </g>
     </g>
    </g>
    <g id="xtick_5">
     <g id="line2d_5">
      <g>
       <use xlink:href="#m41b9ba13fe" x="512.115574" y="349.539832" style="stroke: #000000; stroke-width: 0.8"/>
      </g>
     </g>
     <g id="text_5">
      <!-- 4 -->
      <g transform="translate(508.616199 364.898114) scale(0.11 -0.11)">
       <use xlink:href="#DejaVuSans-34"/>
      </g>
     </g>
    </g>
    <g id="xtick_6">
     <g id="line2d_6">
      <g>
       <use xlink:href="#m41b9ba13fe" x="621.782731" y="349.539832" style="stroke: #000000; stroke-width: 0.8"/>
      </g>
     </g>
     <g id="text_6">
      <!-- 6 -->
      <g transform="translate(618.283356 364.898114) scale(0.11 -0.11)">
       <defs>
        <path id="DejaVuSans-36" d="M 2113 2584 
Q 1688 2584 1439 2293 
Q 1191 2003 1191 1497 
Q 1191 994 1439 701 
Q 1688 409 2113 409 
Q 2538 409 2786 701 
Q 3034 994 3034 1497 
Q 3034 2003 2786 2293 
Q 2538 2584 2113 2584 
z
M 3366 4563 
L 3366 3988 
Q 3128 4100 2886 4159 
Q 2644 4219 2406 4219 
Q 1781 4219 1451 3797 
Q 1122 3375 1075 2522 
Q 1259 2794 1537 2939 
Q 1816 3084 2150 3084 
Q 2853 3084 3261 2657 
Q 3669 2231 3669 1497 
Q 3669 778 3244 343 
Q 2819 -91 2113 -91 
Q 1303 -91 875 529 
Q 447 1150 447 2328 
Q 447 3434 972 4092 
Q 1497 4750 2381 4750 
Q 2619 4750 2861 4703 
Q 3103 4656 3366 4563 
z
" transform="scale(0.015625)"/>
       </defs>
       <use xlink:href="#DejaVuSans-36"/>
      </g>
     </g>
    </g>
    <g id="text_7">
     <!-- true count (bucket) -->
     <g transform="translate(289.667026 380.303895) scale(0.12 -0.12)">
      <defs>
       <path id="DejaVuSans-74" d="M 1172 4494 
L 1172 3500 
L 2356 3500 
L 2356 3053 
L 1172 3053 
L 1172 1153 
Q 1172 725 1289 603 
Q 1406 481 1766 481 
L 2356 481 
L 2356 0 
L 1766 0 
Q 1100 0 847 248 
Q 594 497 594 1153 
L 594 3053 
L 172 3053 
L 172 3500 
L 594 3500 
L 594 4494 
L 1172 4494 
z
" transform="scale(0.015625)"/>
       <path id="DejaVuSans-72" d="M 2631 2963 
Q 2534 3019 2420 3045 
Q 2306 3072 2169 3072 
Q 1681 3072 1420 2755 
Q 1159 2438 1159 1844 
L 1159 0 
L 581 0 
L 581 3500 
L 1159 3500 
L 1159 2956 
Q 1341 3275 1631 3429 
Q 1922 3584 2338 3584 
Q 2397 3584 2469 3576 
Q 2541 3569 2628 3553 
L 2631 2963 
z
" transform="scale(0.015625)"/>
       <path id="DejaVuSans-75" d="M 544 1381 
L 544 3500 
L 1119 3500 
L 1119 1403 
Q 1119 906 1312 657 
Q 1506 409 1894 409 
Q 2359 409 2629 706 
Q 2900 1003 2900 1516 
L 2900 3500 
L 3475 3500 
L 3475 0 
L 2900 0 
L 2900 538 
Q 2691 219 2414 64 
Q 2138 -91 1772 -91 
Q 1169 -91 856 284 
Q 544 659 544 1381 
z
M 1991 3584 
L 1991 3584 
z
" transform="scale(0.015625)"/>
       <path id="DejaVuSans-65" d="M 3597 1894 
L 3597 1613 
L 953 1613 
Q 991 1019 1311 708 
Q 1631 397 2203 397 
Q 2534 397 2845 478 
Q 3156 559 3463 722 
L 3463 178 
Q 3153 47 2828 -22 
Q 2503 -91 2169 -91 
Q 1331 -91 842 396 
Q 353 884 353 1716 
Q 353 2575 817 3079 
Q 1281 3584 2069 3584 
Q 2775 3584 3186 3129 
Q 3597 2675 3597 1894 
z
M 3022 2063 
Q 3016 2534 2758 2815 
Q 2500 3097 2075 3097 
Q 1594 3097 1305 2825 
Q 1016 2553 972 2059 
L 3022 2063 
z
" transform="scale(0.015625)"/>
       <path id="DejaVuSans-20" transform="scale(0.015625)"/>
       <path id="DejaVuSans-63" d="M 3122 3366 
L 3122 2828 
Q 2878 2963 2633 3030 
Q 2388 3097 2138 3097 
Q 1578 3097 1268 2742 
Q 959 2388 959 1747 
Q 959 1106 1268 751 
Q 1578 397 2138 397 
Q 2388 397 2633 464 
Q 2878 531 3122 666 
L 3122 134 
Q 2881 22 2623 -34 
Q 2366 -91 2075 -91 
Q 1284 -91 818 406 
Q 353 903 353 1747 
Q 353 2603 823 3093 
Q 1294 3584 2113 3584 
Q 2378 3584 2631 3529 
Q 2884 3475 3122 3366 
z
" transform="scale(0.015625)"/>
       <path id="DejaVuSans-6f" d="M 1959 3097 
Q 1497 3097 1228 2736 
Q 959 2375 959 1747 
Q 959 1119 1226 758 
Q 1494 397 1959 397 
Q 2419 397 2687 759 
Q 2956 1122 2956 1747 
Q 2956 2369 2687 2733 
Q 2419 3097 1959 3097 
z
M 1959 3584 
Q 2709 3584 3137 3096 
Q 3566 2609 3566 1747 
Q 3566 888 3137 398 
Q 2709 -91 1959 -91 
Q 1206 -91 779 398 
Q 353 888 353 1747 
Q 353 2609 779 3096 
Q 1206 3584 1959 3584 
z
" transform="scale(0.015625)"/>
       <path id="DejaVuSans-6e" d="M 3513 2113 
L 3513 0 
L 2938 0 
L 2938 2094 
Q 2938 2591 2744 2837 
Q 2550 3084 2163 3084 
Q 1697 3084 1428 2787 
Q 1159 2491 1159 1978 
L 1159 0 
L 581 0 
L 581 3500 
L 1159 3500 
L 1159 2956 
Q 1366 3272 1645 3428 
Q 1925 3584 2291 3584 
Q 2894 3584 3203 3211 
Q 3513 2838 3513 2113 
z
" transform="scale(0.015625)"/>
       <path id="DejaVuSans-28" d="M 1984 4856 
Q 1566 4138 1362 3434 
Q 1159 2731 1159 2009 
Q 1159 1288 1364 580 
Q 1569 -128 1984 -844 
L 1484 -844 
Q 1016 -109 783 600 
Q 550 1309 550 2009 
Q 550 2706 781 3412 
Q 1013 4119 1484 4856 
L 1984 4856 
z
" transform="scale(0.015625)"/>
       <path id="DejaVuSans-62" d="M 3116 1747 
Q 3116 2381 2855 2742 
Q 2594 3103 2138 3103 
Q 1681 3103 1420 2742 
Q 1159 2381 1159 1747 
Q 1159 1113 1420 752 
Q 1681 391 2138 391 
Q 2594 391 2855 752 
Q 3116 1113 3116 1747 
z
M 1159 2969 
Q 1341 3281 1617 3432 
Q 1894 3584 2278 3584 
Q 2916 3584 3314 3078 
Q 3713 2572 3713 1747 
Q 3713 922 3314 415 
Q 2916 -91 2278 -91 
Q 1894 -91 1617 61 
Q 1341 213 1159 525 
L 1159 0 
L 581 0 
L 581 4863 
L 1159 4863 
L 1159 2969 
z
" transform="scale(0.015625)"/>
       <path id="DejaVuSans-6b" d="M 581 4863 
L 1159 4863 
L 1159 1991 
L 2875 3500 
L 3609 3500 
L 1753 1863 
L 3688 0 
L 2938 0 
L 1159 1709 
L 1159 0 
L 581 0 
L 581 4863 
z
" transform="scale(0.015625)"/>
       <path id="DejaVuSans-29" d="M 513 4856 
L 1013 4856 
Q 1481 4119 1714 3412 
Q 1947 2706 1947 2009 
Q 1947 1309 1714 600 
Q 1481 -109 1013 -844 
L 513 -844 
Q 928 -128 1133 580 
Q 1338 1288 1338 2009 
Q 1338 2731 1133 3434 
Q 928 4138 513 4856 
z
" transform="scale(0.015625)"/>
      </defs>
      <use xlink:href="#DejaVuSans-74"/>
      <use xlink:href="#DejaVuSans-72" transform="translate(39.208984 0)"/>
      <use xlink:href="#DejaVuSans-75" transform="translate(80.322266 0)"/>
      <use xlink:href="#DejaVuSans-65" transform="translate(143.701172 0)"/>
      <use xlink:href="#DejaVuSans-20" transform="translate(205.224609 0)"/>
      <use xlink:href="#DejaVuSans-63" transform="translate(237.011719 0)"/>
      <use xlink:href="#DejaVuSans-6f" transform="translate(291.992188 0)"/>
      <use xlink:href="#DejaVuSans-75" transform="translate(353.173828 0)"/>
      <use xlink:href="#DejaVuSans-6e" transform="translate(416.552734 0)"/>
      <use xlink:href="#DejaVuSans-74" transform="translate(479.931641 0)"/>
      <use xlink:href="#DejaVuSans-20" transform="translate(519.140625 0)"/>
      <use xlink:href="#DejaVuSans-28" transform="translate(550.927734 0)"/>
      <use xlink:href="#DejaVuSans-62" transform="translate(589.941406 0)"/>
      <use xlink:href="#DejaVuSans-75" transform="translate(653.417969 0)"/>
      <use xlink:href="#DejaVuSans-63" transform="translate(716.796875 0)"/>
      <use xlink:href="#DejaVuSans-6b" transform="translate(771.777344 0)"/>
      <use xlink:href="#DejaVuSans-65" transform="translate(826.0625 0)"/>
      <use xlink:href="#DejaVuSans-74" transform="translate(887.585938 0)"/>
      <use xlink:href="#DejaVuSans-29" transform="translate(926.794922 0)"/>
     </g>
    </g>
   </g>
   <g id="matplotlib.axis_2">
    <g id="ytick_1">
     <g id="line2d_7">
      <defs>
       <path id="mb5289a7fde" d="M 0 0 
L -3.5 0 
" style="stroke: #000000; stroke-width: 0.8"/>
      </defs>
      <g>
       <use xlink:href="#mb5289a7fde" x="46.030156" y="341.96405" style="stroke: #000000; stroke-width: 0.8"/>
      </g>
     </g>
     <g id="text_8">
      <!-- −4 -->
      <g transform="translate(22.81375 346.143191) scale(0.11 -0.11)">
       <use xlink:href="#DejaVuSans-2212"/>
       <use xlink:href="#DejaVuSans-34" transform="translate(83.789062 0)"/>
      </g>
     </g>
    </g>
    <g id="ytick_2">
     <g id="line2d_8">
      <g>
       <use xlink:href="#mb5289a7fde" x="46.030156" y="273.602583" style="stroke: #000000; stroke-width: 0.8"/>
      </g>
     </g>
     <g id="text_9">
      <!-- −2 -->
      <g transform="translate(22.81375 277.781723) scale(0.11 -0.11)">
       <use xlink:href="#DejaVuSans-2212"/>
       <use xlink:href="#DejaVuSans-32" transform="translate(83.789062 0)"/>
      </g>
     </g>
    </g>
    <g id="ytick_3">
     <g id="line2d_9">
      <g>
       <use xlink:href="#mb5289a7fde" x="46.030156" y="205.241115" style="stroke: #000000; stroke-width: 0.8"/>
      </g>
     </g>
     <g id="text_10">
      <!-- 0 -->
      <g transform="translate(32.031406 209.420256) scale(0.11 -0.11)">
       <use xlink:href="#DejaVuSans-30"/>
      </g>
     </g>
    </g>
    <g id="ytick_4">
     <g id="line2d_10">
      <g>
       <use xlink:href="#mb5289a7fde" x="46.030156" y="136.879647" style="stroke: #000000; stroke-width: 0.8"/>
      </g>
     </g>
     <g id="text_11">
      <!-- 2 -->
      <g transform="translate(32.031406 141.058788) scale(0.11 -0.11)">
       <use xlink:href="#DejaVuSans-32"/>
      </g>
     </g>
    </g>
    <g id="ytick_5">
     <g id="line2d_11">
      <g>
       <use xlink:href="#mb5289a7fde" x="46.030156" y="68.518179" style="stroke: #000000; stroke-width: 0.8"/>
      </g>
     </g>
     <g id="text_12">
      <!-- 4 -->
      <g transform="translate(32.031406 72.69732) scale(0.11 -0.11)">
       <use xlink:href="#DejaVuSans-34"/>
      </g>
     </g>
    </g>
    <g id="text_13">
     <!-- flat-bet edge per hand (%) -->
     <g transform="translate(16.318125 266.585385) rotate(-90) scale(0.12 -0.12)">
      <defs>
       <path id="DejaVuSans-66" d="M 2375 4863 
L 2375 4384 
L 1825 4384 
Q 1516 4384 1395 4259 
Q 1275 4134 1275 3809 
L 1275 3500 
L 2222 3500 
L 2222 3053 
L 1275 3053 
L 1275 0 
L 697 0 
L 697 3053 
L 147 3053 
L 147 3500 
L 697 3500 
L 697 3744 
Q 697 4328 969 4595 
Q 1241 4863 1831 4863 
L 2375 4863 
z
" transform="scale(0.015625)"/>
       <path id="DejaVuSans-6c" d="M 603 4863 
L 1178 4863 
L 1178 0 
L 603 0 
L 603 4863 
z
" transform="scale(0.015625)"/>
       <path id="DejaVuSans-61" d="M 2194 1759 
Q 1497 1759 1228 1600 
Q 959 1441 959 1056 
Q 959 750 1161 570 
Q 1363 391 1709 391 
Q 2188 391 2477 730 
Q 2766 1069 2766 1631 
L 2766 1759 
L 2194 1759 
z
M 3341 1997 
L 3341 0 
L 2766 0 
L 2766 531 
Q 2569 213 2275 61 
Q 1981 -91 1556 -91 
Q 1019 -91 701 211 
Q 384 513 384 1019 
Q 384 1609 779 1909 
Q 1175 2209 1959 2209 
L 2766 2209 
L 2766 2266 
Q 2766 2663 2505 2880 
Q 2244 3097 1772 3097 
Q 1472 3097 1187 3025 
Q 903 2953 641 2809 
L 641 3341 
Q 956 3463 1253 3523 
Q 1550 3584 1831 3584 
Q 2591 3584 2966 3190 
Q 3341 2797 3341 1997 
z
" transform="scale(0.015625)"/>
       <path id="DejaVuSans-2d" d="M 313 2009 
L 1997 2009 
L 1997 1497 
L 313 1497 
L 313 2009 
z
" transform="scale(0.015625)"/>
       <path id="DejaVuSans-64" d="M 2906 2969 
L 2906 4863 
L 3481 4863 
L 3481 0 
L 2906 0 
L 2906 525 
Q 2725 213 2448 61 
Q 2172 -91 1784 -91 
Q 1150 -91 751 415 
Q 353 922 353 1747 
Q 353 2572 751 3078 
Q 1150 3584 1784 3584 
Q 2172 3584 2448 3432 
Q 2725 3281 2906 2969 
z
M 947 1747 
Q 947 1113 1208 752 
Q 1469 391 1925 391 
Q 2381 391 2643 752 
Q 2906 1113 2906 1747 
Q 2906 2381 2643 2742 
Q 2381 3103 1925 3103 
Q 1469 3103 1208 2742 
Q 947 2381 947 1747 
z
" transform="scale(0.015625)"/>
       <path id="DejaVuSans-67" d="M 2906 1791 
Q 2906 2416 2648 2759 
Q 2391 3103 1925 3103 
Q 1463 3103 1205 2759 
Q 947 2416 947 1791 
Q 947 1169 1205 825 
Q 1463 481 1925 481 
Q 2391 481 2648 825 
Q 2906 1169 2906 1791 
z
M 3481 434 
Q 3481 -459 3084 -895 
Q 2688 -1331 1869 -1331 
Q 1566 -1331 1297 -1286 
Q 1028 -1241 775 -1147 
L 775 -588 
Q 1028 -725 1275 -790 
Q 1522 -856 1778 -856 
Q 2344 -856 2625 -561 
Q 2906 -266 2906 331 
L 2906 616 
Q 2728 306 2450 153 
Q 2172 0 1784 0 
Q 1141 0 747 490 
Q 353 981 353 1791 
Q 353 2603 747 3093 
Q 1141 3584 1784 3584 
Q 2172 3584 2450 3431 
Q 2728 3278 2906 2969 
L 2906 3500 
L 3481 3500 
L 3481 434 
z
" transform="scale(0.015625)"/>
       <path id="DejaVuSans-70" d="M 1159 525 
L 1159 -1331 
L 581 -1331 
L 581 3500 
L 1159 3500 
L 1159 2969 
Q 1341 3281 1617 3432 
Q 1894 3584 2278 3584 
Q 2916 3584 3314 3078 
Q 3713 2572 3713 1747 
Q 3713 922 3314 415 
Q 2916 -91 2278 -91 
Q 1894 -91 1617 61 
Q 1341 213 1159 525 
z
M 3116 1747 
Q 3116 2381 2855 2742 
Q 2594 3103 2138 3103 
Q 1681 3103 1420 2742 
Q 1159 2381 1159 1747 
Q 1159 1113 1420 752 
Q 1681 391 2138 391 
Q 2594 391 2855 752 
Q 3116 1113 3116 1747 
z
" transform="scale(0.015625)"/>
       <path id="DejaVuSans-68" d="M 3513 2113 
L 3513 0 
L 2938 0 
L 2938 2094 
Q 2938 2591 2744 2837 
Q 2550 3084 2163 3084 
Q 1697 3084 1428 2787 
Q 1159 2491 1159 1978 
L 1159 0 
L 581 0 
L 581 4863 
L 1159 4863 
L 1159 2956 
Q 1366 3272 1645 3428 
Q 1925 3584 2291 3584 
Q 2894 3584 3203 3211 
Q 3513 2838 3513 2113 
z
" transform="scale(0.015625)"/>
       <path id="DejaVuSans-25" d="M 4653 2053 
Q 4381 2053 4226 1822 
Q 4072 1591 4072 1178 
Q 4072 772 4226 539 
Q 4381 306 4653 306 
Q 4919 306 5073 539 
Q 5228 772 5228 1178 
Q 5228 1588 5073 1820 
Q 4919 2053 4653 2053 
z
M 4653 2450 
Q 5147 2450 5437 2106 
Q 5728 1763 5728 1178 
Q 5728 594 5436 251 
Q 5144 -91 4653 -91 
Q 4153 -91 3862 251 
Q 3572 594 3572 1178 
Q 3572 1766 3864 2108 
Q 4156 2450 4653 2450 
z
M 1428 4353 
Q 1159 4353 1004 4120 
Q 850 3888 850 3481 
Q 850 3069 1003 2837 
Q 1156 2606 1428 2606 
Q 1700 2606 1854 2837 
Q 2009 3069 2009 3481 
Q 2009 3884 1853 4118 
Q 1697 4353 1428 4353 
z
M 4250 4750 
L 4750 4750 
L 1831 -91 
L 1331 -91 
L 4250 4750 
z
M 1428 4750 
Q 1922 4750 2215 4408 
Q 2509 4066 2509 3481 
Q 2509 2891 2217 2550 
Q 1925 2209 1428 2209 
Q 931 2209 642 2551 
Q 353 2894 353 3481 
Q 353 4063 643 4406 
Q 934 4750 1428 4750 
z
" transform="scale(0.015625)"/>
      </defs>
      <use xlink:href="#DejaVuSans-66"/>
      <use xlink:href="#DejaVuSans-6c" transform="translate(35.205078 0)"/>
      <use xlink:href="#DejaVuSans-61" transform="translate(62.988281 0)"/>
      <use xlink:href="#DejaVuSans-74" transform="translate(124.267578 0)"/>
      <use xlink:href="#DejaVuSans-2d" transform="translate(163.476562 0)"/>
      <use xlink:href="#DejaVuSans-62" transform="translate(199.560547 0)"/>
      <use xlink:href="#DejaVuSans-65" transform="translate(263.037109 0)"/>
      <use xlink:href="#DejaVuSans-74" transform="translate(324.560547 0)"/>
      <use xlink:href="#DejaVuSans-20" transform="translate(363.769531 0)"/>
      <use xlink:href="#DejaVuSans-65" transform="translate(395.556641 0)"/>
      <use xlink:href="#DejaVuSans-64" transform="translate(457.080078 0)"/>
      <use xlink:href="#DejaVuSans-67" transform="translate(520.556641 0)"/>
      <use xlink:href="#DejaVuSans-65" transform="translate(584.033203 0)"/>
      <use xlink:href="#DejaVuSans-20" transform="translate(645.556641 0)"/>
      <use xlink:href="#DejaVuSans-70" transform="translate(677.34375 0)"/>
      <use xlink:href="#DejaVuSans-65" transform="translate(740.820312 0)"/>
      <use xlink:href="#DejaVuSans-72" transform="translate(802.34375 0)"/>
      <use xlink:href="#DejaVuSans-20" transform="translate(843.457031 0)"/>
      <use xlink:href="#DejaVuSans-68" transform="translate(875.244141 0)"/>
      <use xlink:href="#DejaVuSans-61" transform="translate(938.623047 0)"/>
      <use xlink:href="#DejaVuSans-6e" transform="translate(999.902344 0)"/>
      <use xlink:href="#DejaVuSans-64" transform="translate(1063.28125 0)"/>
      <use xlink:href="#DejaVuSans-20" transform="translate(1126.757812 0)"/>
      <use xlink:href="#DejaVuSans-28" transform="translate(1158.544922 0)"/>
      <use xlink:href="#DejaVuSans-25" transform="translate(1197.558594 0)"/>
      <use xlink:href="#DejaVuSans-29" transform="translate(1292.578125 0)"/>
     </g>
    </g>
   </g>
   <g id="line2d_12">
    <path d="M 46.030156 205.241115 
L 649.19952 205.241115 
" clip-path="url(#pf43d96dc30)" style="fill: none; stroke: #808080; stroke-width: 0.8; stroke-linecap: square"/>
   </g>
   <g id="LineCollection_1">
    <path d="M 73.446946 334.735195 
L 73.446946 297.476761 
" clip-path="url(#pf43d96dc30)" style="fill: none; stroke: #2980b9; stroke-width: 1.5"/>
    <path d="M 128.280524 272.305915 
L 128.280524 228.424636 
" clip-path="url(#pf43d96dc30)" style="fill: none; stroke: #2980b9; stroke-width: 1.5"/>
    <path d="M 183.114103 240.432565 
L 183.114103 207.473258 
" clip-path="url(#pf43d96dc30)" style="fill: none; stroke: #2980b9; stroke-width: 1.5"/>
    <path d="M 237.947681 240.971436 
L 237.947681 214.166909 
" clip-path="url(#pf43d96dc30)" style="fill: none; stroke: #2980b9; stroke-width: 1.5"/>
    <path d="M 292.78126 229.527147 
L 292.78126 206.519292 
" clip-path="url(#pf43d96dc30)" style="fill: none; stroke: #2980b9; stroke-width: 1.5"/>
    <path d="M 347.614838 206.943063 
L 347.614838 171.632569 
" clip-path="url(#pf43d96dc30)" style="fill: none; stroke: #2980b9; stroke-width: 1.5"/>
    <path d="M 402.448417 201.172728 
L 402.448417 152.623186 
" clip-path="url(#pf43d96dc30)" style="fill: none; stroke: #2980b9; stroke-width: 1.5"/>
    <path d="M 457.281995 179.108331 
L 457.281995 113.675612 
" clip-path="url(#pf43d96dc30)" style="fill: none; stroke: #2980b9; stroke-width: 1.5"/>
    <path d="M 512.115574 169.437269 
L 512.115574 81.539546 
" clip-path="url(#pf43d96dc30)" style="fill: none; stroke: #2980b9; stroke-width: 1.5"/>
    <path d="M 566.949152 215.293252 
L 566.949152 99.590625 
" clip-path="url(#pf43d96dc30)" style="fill: none; stroke: #2980b9; stroke-width: 1.5"/>
    <path d="M 621.782731 148.757557 
L 621.782731 38.64245 
" clip-path="url(#pf43d96dc30)" style="fill: none; stroke: #2980b9; stroke-width: 1.5"/>
   </g>
   <g id="line2d_13">
    <defs>
     <path id="m92fe47e288" d="M 3 0 
L -3 -0 
" style="stroke: #2980b9"/>
    </defs>
    <g clip-path="url(#pf43d96dc30)">
     <use xlink:href="#m92fe47e288" x="73.446946" y="334.735195" style="fill: #2980b9; stroke: #2980b9"/>
     <use xlink:href="#m92fe47e288" x="128.280524" y="272.305915" style="fill: #2980b9; stroke: #2980b9"/>
     <use xlink:href="#m92fe47e288" x="183.114103" y="240.432565" style="fill: #2980b9; stroke: #2980b9"/>
     <use xlink:href="#m92fe47e288" x="237.947681" y="240.971436" style="fill: #2980b9; stroke: #2980b9"/>
     <use xlink:href="#m92fe47e288" x="292.78126" y="229.527147" style="fill: #2980b9; stroke: #2980b9"/>
     <use xlink:href="#m92fe47e288" x="347.614838" y="206.943063" style="fill: #2980b9; stroke: #2980b9"/>
     <use xlink:href="#m92fe47e288" x="402.448417" y="201.172728" style="fill: #2980b9; stroke: #2980b9"/>
     <use xlink:href="#m92fe47e288" x="457.281995" y="179.108331" style="fill: #2980b9; stroke: #2980b9"/>
     <use xlink:href="#m92fe47e288" x="512.115574" y="169.437269" style="fill: #2980b9; stroke: #2980b9"/>
     <use xlink:href="#m92fe47e288" x="566.949152" y="215.293252" style="fill: #2980b9; stroke: #2980b9"/>
     <use xlink:href="#m92fe47e288" x="621.782731" y="148.757557" style="fill: #2980b9; stroke: #2980b9"/>
    </g>
   </g>
   <g id="line2d_14">
    <g clip-path="url(#pf43d96dc30)">
     <use xlink:href="#m92fe47e288" x="73.446946" y="297.476761" style="fill: #2980b9; stroke: #2980b9"/>
     <use xlink:href="#m92fe47e288" x="128.280524" y="228.424636" style="fill: #2980b9; stroke: #2980b9"/>
     <use xlink:href="#m92fe47e288" x="183.114103" y="207.473258" style="fill: #2980b9; stroke: #2980b9"/>
     <use xlink:href="#m92fe47e288" x="237.947681" y="214.166909" style="fill: #2980b9; stroke: #2980b9"/>
     <use xlink:href="#m92fe47e288" x="292.78126" y="206.519292" style="fill: #2980b9; stroke: #2980b9"/>
     <use xlink:href="#m92fe47e288" x="347.614838" y="171.632569" style="fill: #2980b9; stroke: #2980b9"/>
     <use xlink:href="#m92fe47e288" x="402.448417" y="152.623186" style="fill: #2980b9; stroke: #2980b9"/>
     <use xlink:href="#m92fe47e288" x="457.281995" y="113.675612" style="fill: #2980b9; stroke: #2980b9"/>
     <use xlink:href="#m92fe47e288" x="512.115574" y="81.539546" style="fill: #2980b9; stroke: #2980b9"/>
     <use xlink:href="#m92fe47e288" x="566.949152" y="99.590625" style="fill: #2980b9; stroke: #2980b9"/>
     <use xlink:href="#m92fe47e288" x="621.782731" y="38.64245" style="fill: #2980b9; stroke: #2980b9"/>
    </g>
   </g>
   <g id="LineCollection_2">
    <path d="M 73.446946 315.822444 
L 73.446946 282.187579 
" clip-path="url(#pf43d96dc30)" style="fill: none; stroke: #8e44ad; stroke-width: 1.5"/>
    <path d="M 128.280524 285.032523 
L 128.280524 242.205239 
" clip-path="url(#pf43d96dc30)" style="fill: none; stroke: #8e44ad; stroke-width: 1.5"/>
    <path d="M 183.114103 242.203143 
L 183.114103 208.672888 
" clip-path="url(#pf43d96dc30)" style="fill: none; stroke: #8e44ad; stroke-width: 1.5"/>
    <path d="M 237.947681 238.757152 
L 237.947681 212.660455 
" clip-path="url(#pf43d96dc30)" style="fill: none; stroke: #8e44ad; stroke-width: 1.5"/>
    <path d="M 292.78126 224.667764 
L 292.78126 199.027826 
" clip-path="url(#pf43d96dc30)" style="fill: none; stroke: #8e44ad; stroke-width: 1.5"/>
    <path d="M 347.614838 217.023634 
L 347.614838 181.317551 
" clip-path="url(#pf43d96dc30)" style="fill: none; stroke: #8e44ad; stroke-width: 1.5"/>
    <path d="M 402.448417 208.186362 
L 402.448417 161.025225 
" clip-path="url(#pf43d96dc30)" style="fill: none; stroke: #8e44ad; stroke-width: 1.5"/>
    <path d="M 457.281995 205.696534 
L 457.281995 144.027906 
" clip-path="url(#pf43d96dc30)" style="fill: none; stroke: #8e44ad; stroke-width: 1.5"/>
    <path d="M 512.115574 147.577368 
L 512.115574 67.546608 
" clip-path="url(#pf43d96dc30)" style="fill: none; stroke: #8e44ad; stroke-width: 1.5"/>
    <path d="M 566.949152 187.49751 
L 566.949152 84.440473 
" clip-path="url(#pf43d96dc30)" style="fill: none; stroke: #8e44ad; stroke-width: 1.5"/>
    <path d="M 621.782731 138.159211 
L 621.782731 51.230881 
" clip-path="url(#pf43d96dc30)" style="fill: none; stroke: #8e44ad; stroke-width: 1.5"/>
   </g>
   <g id="line2d_15">
    <defs>
     <path id="mf201abc2ef" d="M 3 0 
L -3 -0 
" style="stroke: #8e44ad"/>
    </defs>
    <g clip-path="url(#pf43d96dc30)">
     <use xlink:href="#mf201abc2ef" x="73.446946" y="315.822444" style="fill: #8e44ad; stroke: #8e44ad"/>
     <use xlink:href="#mf201abc2ef" x="128.280524" y="285.032523" style="fill: #8e44ad; stroke: #8e44ad"/>
     <use xlink:href="#mf201abc2ef" x="183.114103" y="242.203143" style="fill: #8e44ad; stroke: #8e44ad"/>
     <use xlink:href="#mf201abc2ef" x="237.947681" y="238.757152" style="fill: #8e44ad; stroke: #8e44ad"/>
     <use xlink:href="#mf201abc2ef" x="292.78126" y="224.667764" style="fill: #8e44ad; stroke: #8e44ad"/>
     <use xlink:href="#mf201abc2ef" x="347.614838" y="217.023634" style="fill: #8e44ad; stroke: #8e44ad"/>
     <use xlink:href="#mf201abc2ef" x="402.448417" y="208.186362" style="fill: #8e44ad; stroke: #8e44ad"/>
     <use xlink:href="#mf201abc2ef" x="457.281995" y="205.696534" style="fill: #8e44ad; stroke: #8e44ad"/>
     <use xlink:href="#mf201abc2ef" x="512.115574" y="147.577368" style="fill: #8e44ad; stroke: #8e44ad"/>
     <use xlink:href="#mf201abc2ef" x="566.949152" y="187.49751" style="fill: #8e44ad; stroke: #8e44ad"/>
     <use xlink:href="#mf201abc2ef" x="621.782731" y="138.159211" style="fill: #8e44ad; stroke: #8e44ad"/>
    </g>
   </g>
   <g id="line2d_16">
    <g clip-path="url(#pf43d96dc30)">
     <use xlink:href="#mf201abc2ef" x="73.446946" y="282.187579" style="fill: #8e44ad; stroke: #8e44ad"/>
     <use xlink:href="#mf201abc2ef" x="128.280524" y="242.205239" style="fill: #8e44ad; stroke: #8e44ad"/>
     <use xlink:href="#mf201abc2ef" x="183.114103" y="208.672888" style="fill: #8e44ad; stroke: #8e44ad"/>
     <use xlink:href="#mf201abc2ef" x="237.947681" y="212.660455" style="fill: #8e44ad; stroke: #8e44ad"/>
     <use xlink:href="#mf201abc2ef" x="292.78126" y="199.027826" style="fill: #8e44ad; stroke: #8e44ad"/>
     <use xlink:href="#mf201abc2ef" x="347.614838" y="181.317551" style="fill: #8e44ad; stroke: #8e44ad"/>
     <use xlink:href="#mf201abc2ef" x="402.448417" y="161.025225" style="fill: #8e44ad; stroke: #8e44ad"/>
     <use xlink:href="#mf201abc2ef" x="457.281995" y="144.027906" style="fill: #8e44ad; stroke: #8e44ad"/>
     <use xlink:href="#mf201abc2ef" x="512.115574" y="67.546608" style="fill: #8e44ad; stroke: #8e44ad"/>
     <use xlink:href="#mf201abc2ef" x="566.949152" y="84.440473" style="fill: #8e44ad; stroke: #8e44ad"/>
     <use xlink:href="#mf201abc2ef" x="621.782731" y="51.230881" style="fill: #8e44ad; stroke: #8e44ad"/>
    </g>
   </g>
   <g id="line2d_17">
    <path d="M 73.446946 316.105978 
L 128.280524 250.365276 
L 183.114103 223.952912 
L 237.947681 227.569172 
L 292.78126 218.02322 
L 347.614838 189.287816 
L 402.448417 176.897957 
L 457.281995 146.391971 
L 512.115574 125.488407 
L 566.949152 157.441939 
L 621.782731 93.700003 
" clip-path="url(#pf43d96dc30)" style="fill: none; stroke: #2980b9; stroke-width: 1.5; stroke-linecap: square"/>
    <defs>
     <path id="mc22b9ddf75" d="M 0 3 
C 0.795609 3 1.55874 2.683901 2.12132 2.12132 
C 2.683901 1.55874 3 0.795609 3 0 
C 3 -0.795609 2.683901 -1.55874 2.12132 -2.12132 
C 1.55874 -2.683901 0.795609 -3 0 -3 
C -0.795609 -3 -1.55874 -2.683901 -2.12132 -2.12132 
C -2.683901 -1.55874 -3 -0.795609 -3 0 
C -3 0.795609 -2.683901 1.55874 -2.12132 2.12132 
C -1.55874 2.683901 -0.795609 3 0 3 
z
" style="stroke: #2980b9"/>
    </defs>
    <g clip-path="url(#pf43d96dc30)">
     <use xlink:href="#mc22b9ddf75" x="73.446946" y="316.105978" style="fill: #2980b9; stroke: #2980b9"/>
     <use xlink:href="#mc22b9ddf75" x="128.280524" y="250.365276" style="fill: #2980b9; stroke: #2980b9"/>
     <use xlink:href="#mc22b9ddf75" x="183.114103" y="223.952912" style="fill: #2980b9; stroke: #2980b9"/>
     <use xlink:href="#mc22b9ddf75" x="237.947681" y="227.569172" style="fill: #2980b9; stroke: #2980b9"/>
     <use xlink:href="#mc22b9ddf75" x="292.78126" y="218.02322" style="fill: #2980b9; stroke: #2980b9"/>
     <use xlink:href="#mc22b9ddf75" x="347.614838" y="189.287816" style="fill: #2980b9; stroke: #2980b9"/>
     <use xlink:href="#mc22b9ddf75" x="402.448417" y="176.897957" style="fill: #2980b9; stroke: #2980b9"/>
     <use xlink:href="#mc22b9ddf75" x="457.281995" y="146.391971" style="fill: #2980b9; stroke: #2980b9"/>
     <use xlink:href="#mc22b9ddf75" x="512.115574" y="125.488407" style="fill: #2980b9; stroke: #2980b9"/>
     <use xlink:href="#mc22b9ddf75" x="566.949152" y="157.441939" style="fill: #2980b9; stroke: #2980b9"/>
     <use xlink:href="#mc22b9ddf75" x="621.782731" y="93.700003" style="fill: #2980b9; stroke: #2980b9"/>
    </g>
   </g>
   <g id="line2d_18">
    <path d="M 73.446946 299.005011 
L 128.280524 263.618881 
L 183.114103 225.438015 
L 237.947681 225.708804 
L 292.78126 211.847795 
L 347.614838 199.170593 
L 402.448417 184.605794 
L 457.281995 174.86222 
L 512.115574 107.561988 
L 566.949152 135.968991 
L 621.782731 94.695046 
" clip-path="url(#pf43d96dc30)" style="fill: none; stroke-dasharray: 5.55,2.4; stroke-dashoffset: 0; stroke: #8e44ad; stroke-width: 1.5"/>
    <defs>
     <path id="m5df6c55e75" d="M -3 3 
L 3 3 
L 3 -3 
L -3 -3 
z
" style="stroke: #8e44ad; stroke-linejoin: miter"/>
    </defs>
    <g clip-path="url(#pf43d96dc30)">
     <use xlink:href="#m5df6c55e75" x="73.446946" y="299.005011" style="fill: #8e44ad; stroke: #8e44ad; stroke-linejoin: miter"/>
     <use xlink:href="#m5df6c55e75" x="128.280524" y="263.618881" style="fill: #8e44ad; stroke: #8e44ad; stroke-linejoin: miter"/>
     <use xlink:href="#m5df6c55e75" x="183.114103" y="225.438015" style="fill: #8e44ad; stroke: #8e44ad; stroke-linejoin: miter"/>
     <use xlink:href="#m5df6c55e75" x="237.947681" y="225.708804" style="fill: #8e44ad; stroke: #8e44ad; stroke-linejoin: miter"/>
     <use xlink:href="#m5df6c55e75" x="292.78126" y="211.847795" style="fill: #8e44ad; stroke: #8e44ad; stroke-linejoin: miter"/>
     <use xlink:href="#m5df6c55e75" x="347.614838" y="199.170593" style="fill: #8e44ad; stroke: #8e44ad; stroke-linejoin: miter"/>
     <use xlink:href="#m5df6c55e75" x="402.448417" y="184.605794" style="fill: #8e44ad; stroke: #8e44ad; stroke-linejoin: miter"/>
     <use xlink:href="#m5df6c55e75" x="457.281995" y="174.86222" style="fill: #8e44ad; stroke: #8e44ad; stroke-linejoin: miter"/>
     <use xlink:href="#m5df6c55e75" x="512.115574" y="107.561988" style="fill: #8e44ad; stroke: #8e44ad; stroke-linejoin: miter"/>
     <use xlink:href="#m5df6c55e75" x="566.949152" y="135.968991" style="fill: #8e44ad; stroke: #8e44ad; stroke-linejoin: miter"/>
     <use xlink:href="#m5df6c55e75" x="621.782731" y="94.695046" style="fill: #8e44ad; stroke: #8e44ad; stroke-linejoin: miter"/>
    </g>
   </g>
   <g id="patch_3">
    <path d="M 46.030156 349.539832 
L 46.030156 23.837812 
" style="fill: none; stroke: #000000; stroke-width: 0.8; stroke-linejoin: miter; stroke-linecap: square"/>
   </g>
   <g id="patch_4">
    <path d="M 649.19952 349.539832 
L 649.19952 23.837812 
" style="fill: none; stroke: #000000; stroke-width: 0.8; stroke-linejoin: miter; stroke-linecap: square"/>
   </g>
   <g id="patch_5">
    <path d="M 46.030156 349.539832 
L 649.19952 349.539832 
" style="fill: none; stroke: #000000; stroke-width: 0.8; stroke-linejoin: miter; stroke-linecap: square"/>
   </g>
   <g id="patch_6">
    <path d="M 46.030156 23.837812 
L 649.19952 23.837812 
" style="fill: none; stroke: #000000; stroke-width: 0.8; stroke-linejoin: miter; stroke-linecap: square"/>
   </g>
   <g id="text_14">
    <!-- Two betting counts sort edge identically: Hi-Lo is at the linear ceiling -->
    <g transform="translate(108.080307 17.837812) scale(0.14 -0.14)">
     <defs>
      <path id="DejaVuSans-54" d="M -19 4666 
L 3928 4666 
L 3928 4134 
L 2272 4134 
L 2272 0 
L 1638 0 
L 1638 4134 
L -19 4134 
L -19 4666 
z
" transform="scale(0.015625)"/>
      <path id="DejaVuSans-77" d="M 269 3500 
L 844 3500 
L 1563 769 
L 2278 3500 
L 2956 3500 
L 3675 769 
L 4391 3500 
L 4966 3500 
L 4050 0 
L 3372 0 
L 2619 2869 
L 1863 0 
L 1184 0 
L 269 3500 
z
" transform="scale(0.015625)"/>
      <path id="DejaVuSans-69" d="M 603 3500 
L 1178 3500 
L 1178 0 
L 603 0 
L 603 3500 
z
M 603 4863 
L 1178 4863 
L 1178 4134 
L 603 4134 
L 603 4863 
z
" transform="scale(0.015625)"/>
      <path id="DejaVuSans-73" d="M 2834 3397 
L 2834 2853 
Q 2591 2978 2328 3040 
Q 2066 3103 1784 3103 
Q 1356 3103 1142 2972 
Q 928 2841 928 2578 
Q 928 2378 1081 2264 
Q 1234 2150 1697 2047 
L 1894 2003 
Q 2506 1872 2764 1633 
Q 3022 1394 3022 966 
Q 3022 478 2636 193 
Q 2250 -91 1575 -91 
Q 1294 -91 989 -36 
Q 684 19 347 128 
L 347 722 
Q 666 556 975 473 
Q 1284 391 1588 391 
Q 1994 391 2212 530 
Q 2431 669 2431 922 
Q 2431 1156 2273 1281 
Q 2116 1406 1581 1522 
L 1381 1569 
Q 847 1681 609 1914 
Q 372 2147 372 2553 
Q 372 3047 722 3315 
Q 1072 3584 1716 3584 
Q 2034 3584 2315 3537 
Q 2597 3491 2834 3397 
z
" transform="scale(0.015625)"/>
      <path id="DejaVuSans-79" d="M 2059 -325 
Q 1816 -950 1584 -1140 
Q 1353 -1331 966 -1331 
L 506 -1331 
L 506 -850 
L 844 -850 
Q 1081 -850 1212 -737 
Q 1344 -625 1503 -206 
L 1606 56 
L 191 3500 
L 800 3500 
L 1894 763 
L 2988 3500 
L 3597 3500 
L 2059 -325 
z
" transform="scale(0.015625)"/>
      <path id="DejaVuSans-3a" d="M 750 794 
L 1409 794 
L 1409 0 
L 750 0 
L 750 794 
z
M 750 3309 
L 1409 3309 
L 1409 2516 
L 750 2516 
L 750 3309 
z
" transform="scale(0.015625)"/>
      <path id="DejaVuSans-48" d="M 628 4666 
L 1259 4666 
L 1259 2753 
L 3553 2753 
L 3553 4666 
L 4184 4666 
L 4184 0 
L 3553 0 
L 3553 2222 
L 1259 2222 
L 1259 0 
L 628 0 
L 628 4666 
z
" transform="scale(0.015625)"/>
      <path id="DejaVuSans-4c" d="M 628 4666 
L 1259 4666 
L 1259 531 
L 3531 531 
L 3531 0 
L 628 0 
L 628 4666 
z
" transform="scale(0.015625)"/>
     </defs>
     <use xlink:href="#DejaVuSans-54"/>
     <use xlink:href="#DejaVuSans-77" transform="translate(44.583984 0)"/>
     <use xlink:href="#DejaVuSans-6f" transform="translate(126.371094 0)"/>
     <use xlink:href="#DejaVuSans-20" transform="translate(187.552734 0)"/>
     <use xlink:href="#DejaVuSans-62" transform="translate(219.339844 0)"/>
     <use xlink:href="#DejaVuSans-65" transform="translate(282.816406 0)"/>
     <use xlink:href="#DejaVuSans-74" transform="translate(344.339844 0)"/>
     <use xlink:href="#DejaVuSans-74" transform="translate(383.548828 0)"/>
     <use xlink:href="#DejaVuSans-69" transform="translate(422.757812 0)"/>
     <use xlink:href="#DejaVuSans-6e" transform="translate(450.541016 0)"/>
     <use xlink:href="#DejaVuSans-67" transform="translate(513.919922 0)"/>
     <use xlink:href="#DejaVuSans-20" transform="translate(577.396484 0)"/>
     <use xlink:href="#DejaVuSans-63" transform="translate(609.183594 0)"/>
     <use xlink:href="#DejaVuSans-6f" transform="translate(664.164062 0)"/>
     <use xlink:href="#DejaVuSans-75" transform="translate(725.345703 0)"/>
     <use xlink:href="#DejaVuSans-6e" transform="translate(788.724609 0)"/>
     <use xlink:href="#DejaVuSans-74" transform="translate(852.103516 0)"/>
     <use xlink:href="#DejaVuSans-73" transform="translate(891.3125 0)"/>
     <use xlink:href="#DejaVuSans-20" transform="translate(943.412109 0)"/>
     <use xlink:href="#DejaVuSans-73" transform="translate(975.199219 0)"/>
     <use xlink:href="#DejaVuSans-6f" transform="translate(1027.298828 0)"/>
     <use xlink:href="#DejaVuSans-72" transform="translate(1088.480469 0)"/>
     <use xlink:href="#DejaVuSans-74" transform="translate(1129.59375 0)"/>
     <use xlink:href="#DejaVuSans-20" transform="translate(1168.802734 0)"/>
     <use xlink:href="#DejaVuSans-65" transform="translate(1200.589844 0)"/>
     <use xlink:href="#DejaVuSans-64" transform="translate(1262.113281 0)"/>
     <use xlink:href="#DejaVuSans-67" transform="translate(1325.589844 0)"/>
     <use xlink:href="#DejaVuSans-65" transform="translate(1389.066406 0)"/>
     <use xlink:href="#DejaVuSans-20" transform="translate(1450.589844 0)"/>
     <use xlink:href="#DejaVuSans-69" transform="translate(1482.376953 0)"/>
     <use xlink:href="#DejaVuSans-64" transform="translate(1510.160156 0)"/>
     <use xlink:href="#DejaVuSans-65" transform="translate(1573.636719 0)"/>
     <use xlink:href="#DejaVuSans-6e" transform="translate(1635.160156 0)"/>
     <use xlink:href="#DejaVuSans-74" transform="translate(1698.539062 0)"/>
     <use xlink:href="#DejaVuSans-69" transform="translate(1737.748047 0)"/>
     <use xlink:href="#DejaVuSans-63" transform="translate(1765.53125 0)"/>
     <use xlink:href="#DejaVuSans-61" transform="translate(1820.511719 0)"/>
     <use xlink:href="#DejaVuSans-6c" transform="translate(1881.791016 0)"/>
     <use xlink:href="#DejaVuSans-6c" transform="translate(1909.574219 0)"/>
     <use xlink:href="#DejaVuSans-79" transform="translate(1937.357422 0)"/>
     <use xlink:href="#DejaVuSans-3a" transform="translate(1989.287109 0)"/>
     <use xlink:href="#DejaVuSans-20" transform="translate(2022.978516 0)"/>
     <use xlink:href="#DejaVuSans-48" transform="translate(2054.765625 0)"/>
     <use xlink:href="#DejaVuSans-69" transform="translate(2129.960938 0)"/>
     <use xlink:href="#DejaVuSans-2d" transform="translate(2157.744141 0)"/>
     <use xlink:href="#DejaVuSans-4c" transform="translate(2193.828125 0)"/>
     <use xlink:href="#DejaVuSans-6f" transform="translate(2247.791016 0)"/>
     <use xlink:href="#DejaVuSans-20" transform="translate(2308.972656 0)"/>
     <use xlink:href="#DejaVuSans-69" transform="translate(2340.759766 0)"/>
     <use xlink:href="#DejaVuSans-73" transform="translate(2368.542969 0)"/>
     <use xlink:href="#DejaVuSans-20" transform="translate(2420.642578 0)"/>
     <use xlink:href="#DejaVuSans-61" transform="translate(2452.429688 0)"/>
     <use xlink:href="#DejaVuSans-74" transform="translate(2513.708984 0)"/>
     <use xlink:href="#DejaVuSans-20" transform="translate(2552.917969 0)"/>
     <use xlink:href="#DejaVuSans-74" transform="translate(2584.705078 0)"/>
     <use xlink:href="#DejaVuSans-68" transform="translate(2623.914062 0)"/>
     <use xlink:href="#DejaVuSans-65" transform="translate(2687.292969 0)"/>
     <use xlink:href="#DejaVuSans-20" transform="translate(2748.816406 0)"/>
     <use xlink:href="#DejaVuSans-6c" transform="translate(2780.603516 0)"/>
     <use xlink:href="#DejaVuSans-69" transform="translate(2808.386719 0)"/>
     <use xlink:href="#DejaVuSans-6e" transform="translate(2836.169922 0)"/>
     <use xlink:href="#DejaVuSans-65" transform="translate(2899.548828 0)"/>
     <use xlink:href="#DejaVuSans-61" transform="translate(2961.072266 0)"/>
     <use xlink:href="#DejaVuSans-72" transform="translate(3022.351562 0)"/>
     <use xlink:href="#DejaVuSans-20" transform="translate(3063.464844 0)"/>
     <use xlink:href="#DejaVuSans-63" transform="translate(3095.251953 0)"/>
     <use xlink:href="#DejaVuSans-65" transform="translate(3150.232422 0)"/>
     <use xlink:href="#DejaVuSans-69" transform="translate(3211.755859 0)"/>
     <use xlink:href="#DejaVuSans-6c" transform="translate(3239.539062 0)"/>
     <use xlink:href="#DejaVuSans-69" transform="translate(3267.322266 0)"/>
     <use xlink:href="#DejaVuSans-6e" transform="translate(3295.105469 0)"/>
     <use xlink:href="#DejaVuSans-67" transform="translate(3358.484375 0)"/>
    </g>
   </g>
   <g id="legend_1">
    <g id="patch_7">
     <path d="M 53.730156 64.929687 
L 305.188438 64.929687 
Q 307.388438 64.929687 307.388438 62.729687 
L 307.388438 31.537812 
Q 307.388438 29.337812 305.188438 29.337812 
L 53.730156 29.337812 
Q 51.530156 29.337812 51.530156 31.537812 
L 51.530156 62.729687 
Q 51.530156 64.929687 53.730156 64.929687 
z
" style="fill: #ffffff; opacity: 0.8; stroke: #cccccc; stroke-linejoin: miter"/>
    </g>
    <g id="LineCollection_3">
     <path d="M 66.930156 43.746094 
L 66.930156 32.746094 
" style="fill: none; stroke: #2980b9; stroke-width: 1.5"/>
    </g>
    <g id="line2d_19">
     <g>
      <use xlink:href="#m92fe47e288" x="66.930156" y="43.746094" style="fill: #2980b9; stroke: #2980b9"/>
     </g>
    </g>
    <g id="line2d_20">
     <g>
      <use xlink:href="#m92fe47e288" x="66.930156" y="32.746094" style="fill: #2980b9; stroke: #2980b9"/>
     </g>
    </g>
    <g id="line2d_21">
     <path d="M 55.930156 38.246094 
L 77.930156 38.246094 
" style="fill: none; stroke: #2980b9; stroke-width: 1.5; stroke-linecap: square"/>
    </g>
    <g id="line2d_22">
     <g>
      <use xlink:href="#mc22b9ddf75" x="66.930156" y="38.246094" style="fill: #2980b9; stroke: #2980b9"/>
     </g>
    </g>
    <g id="text_15">
     <!-- Hi-Lo count  (betting corr 0.013) -->
     <g transform="translate(86.730156 42.096094) scale(0.11 -0.11)">
      <defs>
       <path id="DejaVuSans-2e" d="M 684 794 
L 1344 794 
L 1344 0 
L 684 0 
L 684 794 
z
" transform="scale(0.015625)"/>
       <path id="DejaVuSans-31" d="M 794 531 
L 1825 531 
L 1825 4091 
L 703 3866 
L 703 4441 
L 1819 4666 
L 2450 4666 
L 2450 531 
L 3481 531 
L 3481 0 
L 794 0 
L 794 531 
z
" transform="scale(0.015625)"/>
       <path id="DejaVuSans-33" d="M 2597 2516 
Q 3050 2419 3304 2112 
Q 3559 1806 3559 1356 
Q 3559 666 3084 287 
Q 2609 -91 1734 -91 
Q 1441 -91 1130 -33 
Q 819 25 488 141 
L 488 750 
Q 750 597 1062 519 
Q 1375 441 1716 441 
Q 2309 441 2620 675 
Q 2931 909 2931 1356 
Q 2931 1769 2642 2001 
Q 2353 2234 1838 2234 
L 1294 2234 
L 1294 2753 
L 1863 2753 
Q 2328 2753 2575 2939 
Q 2822 3125 2822 3475 
Q 2822 3834 2567 4026 
Q 2313 4219 1838 4219 
Q 1578 4219 1281 4162 
Q 984 4106 628 3988 
L 628 4550 
Q 988 4650 1302 4700 
Q 1616 4750 1894 4750 
Q 2613 4750 3031 4423 
Q 3450 4097 3450 3541 
Q 3450 3153 3228 2886 
Q 3006 2619 2597 2516 
z
" transform="scale(0.015625)"/>
      </defs>
      <use xlink:href="#DejaVuSans-48"/>
      <use xlink:href="#DejaVuSans-69" transform="translate(75.195312 0)"/>
      <use xlink:href="#DejaVuSans-2d" transform="translate(102.978516 0)"/>
      <use xlink:href="#DejaVuSans-4c" transform="translate(139.0625 0)"/>
      <use xlink:href="#DejaVuSans-6f" transform="translate(193.025391 0)"/>
      <use xlink:href="#DejaVuSans-20" transform="translate(254.207031 0)"/>
      <use xlink:href="#DejaVuSans-63" transform="translate(285.994141 0)"/>
      <use xlink:href="#DejaVuSans-6f" transform="translate(340.974609 0)"/>
      <use xlink:href="#DejaVuSans-75" transform="translate(402.15625 0)"/>
      <use xlink:href="#DejaVuSans-6e" transform="translate(465.535156 0)"/>
      <use xlink:href="#DejaVuSans-74" transform="translate(528.914062 0)"/>
      <use xlink:href="#DejaVuSans-20" transform="translate(568.123047 0)"/>
      <use xlink:href="#DejaVuSans-20" transform="translate(599.910156 0)"/>
      <use xlink:href="#DejaVuSans-28" transform="translate(631.697266 0)"/>
      <use xlink:href="#DejaVuSans-62" transform="translate(670.710938 0)"/>
      <use xlink:href="#DejaVuSans-65" transform="translate(734.1875 0)"/>
      <use xlink:href="#DejaVuSans-74" transform="translate(795.710938 0)"/>
      <use xlink:href="#DejaVuSans-74" transform="translate(834.919922 0)"/>
      <use xlink:href="#DejaVuSans-69" transform="translate(874.128906 0)"/>
      <use xlink:href="#DejaVuSans-6e" transform="translate(901.912109 0)"/>
      <use xlink:href="#DejaVuSans-67" transform="translate(965.291016 0)"/>
      <use xlink:href="#DejaVuSans-20" transform="translate(1028.767578 0)"/>
      <use xlink:href="#DejaVuSans-63" transform="translate(1060.554688 0)"/>
      <use xlink:href="#DejaVuSans-6f" transform="translate(1115.535156 0)"/>
      <use xlink:href="#DejaVuSans-72" transform="translate(1176.716797 0)"/>
      <use xlink:href="#DejaVuSans-72" transform="translate(1216.080078 0)"/>
      <use xlink:href="#DejaVuSans-20" transform="translate(1257.193359 0)"/>
      <use xlink:href="#DejaVuSans-30" transform="translate(1288.980469 0)"/>
      <use xlink:href="#DejaVuSans-2e" transform="translate(1352.603516 0)"/>
      <use xlink:href="#DejaVuSans-30" transform="translate(1384.390625 0)"/>
      <use xlink:href="#DejaVuSans-31" transform="translate(1448.013672 0)"/>
      <use xlink:href="#DejaVuSans-33" transform="translate(1511.636719 0)"/>
      <use xlink:href="#DejaVuSans-29" transform="translate(1575.259766 0)"/>
     </g>
    </g>
    <g id="LineCollection_4">
     <path d="M 66.930156 59.892031 
L 66.930156 48.892031 
" style="fill: none; stroke: #8e44ad; stroke-width: 1.5"/>
    </g>
    <g id="line2d_23">
     <g>
      <use xlink:href="#mf201abc2ef" x="66.930156" y="59.892031" style="fill: #8e44ad; stroke: #8e44ad"/>
     </g>
    </g>
    <g id="line2d_24">
     <g>
      <use xlink:href="#mf201abc2ef" x="66.930156" y="48.892031" style="fill: #8e44ad; stroke: #8e44ad"/>
     </g>
    </g>
    <g id="line2d_25">
     <path d="M 55.930156 54.392031 
L 77.930156 54.392031 
" style="fill: none; stroke-dasharray: 5.55,2.4; stroke-dashoffset: 0; stroke: #8e44ad; stroke-width: 1.5"/>
    </g>
    <g id="line2d_26">
     <g>
      <use xlink:href="#m5df6c55e75" x="66.930156" y="54.392031" style="fill: #8e44ad; stroke: #8e44ad; stroke-linejoin: miter"/>
     </g>
    </g>
    <g id="text_16">
     <!-- EoR-optimal count  (betting corr 0.013) -->
     <g transform="translate(86.730156 58.242031) scale(0.11 -0.11)">
      <defs>
       <path id="DejaVuSans-45" d="M 628 4666 
L 3578 4666 
L 3578 4134 
L 1259 4134 
L 1259 2753 
L 3481 2753 
L 3481 2222 
L 1259 2222 
L 1259 531 
L 3634 531 
L 3634 0 
L 628 0 
L 628 4666 
z
" transform="scale(0.015625)"/>
       <path id="DejaVuSans-52" d="M 2841 2188 
Q 3044 2119 3236 1894 
Q 3428 1669 3622 1275 
L 4263 0 
L 3584 0 
L 2988 1197 
Q 2756 1666 2539 1819 
Q 2322 1972 1947 1972 
L 1259 1972 
L 1259 0 
L 628 0 
L 628 4666 
L 2053 4666 
Q 2853 4666 3247 4331 
Q 3641 3997 3641 3322 
Q 3641 2881 3436 2590 
Q 3231 2300 2841 2188 
z
M 1259 4147 
L 1259 2491 
L 2053 2491 
Q 2509 2491 2742 2702 
Q 2975 2913 2975 3322 
Q 2975 3731 2742 3939 
Q 2509 4147 2053 4147 
L 1259 4147 
z
" transform="scale(0.015625)"/>
       <path id="DejaVuSans-6d" d="M 3328 2828 
Q 3544 3216 3844 3400 
Q 4144 3584 4550 3584 
Q 5097 3584 5394 3201 
Q 5691 2819 5691 2113 
L 5691 0 
L 5113 0 
L 5113 2094 
Q 5113 2597 4934 2840 
Q 4756 3084 4391 3084 
Q 3944 3084 3684 2787 
Q 3425 2491 3425 1978 
L 3425 0 
L 2847 0 
L 2847 2094 
Q 2847 2600 2669 2842 
Q 2491 3084 2119 3084 
Q 1678 3084 1418 2786 
Q 1159 2488 1159 1978 
L 1159 0 
L 581 0 
L 581 3500 
L 1159 3500 
L 1159 2956 
Q 1356 3278 1631 3431 
Q 1906 3584 2284 3584 
Q 2666 3584 2933 3390 
Q 3200 3197 3328 2828 
z
" transform="scale(0.015625)"/>
      </defs>
      <use xlink:href="#DejaVuSans-45"/>
      <use xlink:href="#DejaVuSans-6f" transform="translate(63.183594 0)"/>
      <use xlink:href="#DejaVuSans-52" transform="translate(124.365234 0)"/>
      <use xlink:href="#DejaVuSans-2d" transform="translate(189.847656 0)"/>
      <use xlink:href="#DejaVuSans-6f" transform="translate(227.806641 0)"/>
      <use xlink:href="#DejaVuSans-70" transform="translate(288.988281 0)"/>
      <use xlink:href="#DejaVuSans-74" transform="translate(352.464844 0)"/>
      <use xlink:href="#DejaVuSans-69" transform="translate(391.673828 0)"/>
      <use xlink:href="#DejaVuSans-6d" transform="translate(419.457031 0)"/>
      <use xlink:href="#DejaVuSans-61" transform="translate(516.869141 0)"/>
      <use xlink:href="#DejaVuSans-6c" transform="translate(578.148438 0)"/>
      <use xlink:href="#DejaVuSans-20" transform="translate(605.931641 0)"/>
      <use xlink:href="#DejaVuSans-63" transform="translate(637.71875 0)"/>
      <use xlink:href="#DejaVuSans-6f" transform="translate(692.699219 0)"/>
      <use xlink:href="#DejaVuSans-75" transform="translate(753.880859 0)"/>
      <use xlink:href="#DejaVuSans-6e" transform="translate(817.259766 0)"/>
      <use xlink:href="#DejaVuSans-74" transform="translate(880.638672 0)"/>
      <use xlink:href="#DejaVuSans-20" transform="translate(919.847656 0)"/>
      <use xlink:href="#DejaVuSans-20" transform="translate(951.634766 0)"/>
      <use xlink:href="#DejaVuSans-28" transform="translate(983.421875 0)"/>
      <use xlink:href="#DejaVuSans-62" transform="translate(1022.435547 0)"/>
      <use xlink:href="#DejaVuSans-65" transform="translate(1085.912109 0)"/>
      <use xlink:href="#DejaVuSans-74" transform="translate(1147.435547 0)"/>
      <use xlink:href="#DejaVuSans-74" transform="translate(1186.644531 0)"/>
      <use xlink:href="#DejaVuSans-69" transform="translate(1225.853516 0)"/>
      <use xlink:href="#DejaVuSans-6e" transform="translate(1253.636719 0)"/>
      <use xlink:href="#DejaVuSans-67" transform="translate(1317.015625 0)"/>
      <use xlink:href="#DejaVuSans-20" transform="translate(1380.492188 0)"/>
      <use xlink:href="#DejaVuSans-63" transform="translate(1412.279297 0)"/>
      <use xlink:href="#DejaVuSans-6f" transform="translate(1467.259766 0)"/>
      <use xlink:href="#DejaVuSans-72" transform="translate(1528.441406 0)"/>
      <use xlink:href="#DejaVuSans-72" transform="translate(1567.804688 0)"/>
      <use xlink:href="#DejaVuSans-20" transform="translate(1608.917969 0)"/>
      <use xlink:href="#DejaVuSans-30" transform="translate(1640.705078 0)"/>
      <use xlink:href="#DejaVuSans-2e" transform="translate(1704.328125 0)"/>
      <use xlink:href="#DejaVuSans-30" transform="translate(1736.115234 0)"/>
      <use xlink:href="#DejaVuSans-31" transform="translate(1799.738281 0)"/>
      <use xlink:href="#DejaVuSans-33" transform="translate(1863.361328 0)"/>
      <use xlink:href="#DejaVuSans-29" transform="translate(1926.984375 0)"/>
     </g>
    </g>
   </g>
  </g>
 </g>
 <defs>
  <clipPath id="pf43d96dc30">
   <rect x="46.030156" y="23.837812" width="603.169364" height="325.70202"/>
  </clipPath>
 </defs>
</svg>
