<?xml version="1.0" encoding="utf-8" standalone="no"?>
<!DOCTYPE svg PUBLIC "-//W3C//DTD SVG 1.1//EN"
  "http://www.w3.org/Graphics/SVG/1.1/DTD/svg11.dtd">
<svg xmlns:xlink="http://www.w3.org/1999/xlink" width="627.59952pt" height="382.79952pt" viewBox="0 0 627.59952 382.79952" xmlns="http://www.w3.org/2000/svg" version="1.1">
 <metadata>
  <rdf:RDF xmlns:dc="http://purl.org/dc/elements/1.1/" xmlns:cc="http://creativecommons.org/ns#" xmlns:rdf="http://www.w3.org/1999/02/22-rdf-syntax-ns#">
   <cc:Work>
    <dc:type rdf:resource="http://purl.org/dc/dcmitype/StillImage"/>
    <dc:date>2026-06-12T22:48:13.429177</dc:date>
    <dc:format>image/svg+xml</dc:format>
    <dc:creator>
     <cc:Agent>
      <dc:title>Matplotlib v3.10.1, https://matplotlib.org/</dc:title>
     </cc:Agent>
    </dc:creator>
   </cc:Work>
  </rdf:RDF>
 </metadata>
 <defs>
  <style type="text/css">*{stroke-linejoin: round; stroke-linecap: butt}</style>
 </defs>
 <g id="figure_1">
  <g id="patch_1">
   <path d="M 0 382.79952 
L 627.59952 382.79952 
L 627.59952 0 
L 0 0 
z
" style="fill: #ffffff"/>
  </g>
  <g id="axes_1">
   <g id="patch_2">
    <path d="M 53.028906 342.339832 
L 585.06077 342.339832 
L 585.06077 23.837812 
L 53.028906 23.837812 
z
" style="fill: #ffffff"/>
   </g>
   <g id="patch_3">
    <path d="M 77.212173 255.729301 
L 110.003043 255.729301 
L 110.003043 327.862468 
L 77.212173 327.862468 
z
" clip-path="url(#p7b15de5efa)" style="fill: #c0392b"/>
   </g>
   <g id="patch_4">
    <path d="M 118.20076 255.729301 
L 150.99163 255.729301 
L 150.99163 292.150752 
L 118.20076 292.150752 
z
" clip-path="url(#p7b15de5efa)" style="fill: #c0392b"/>
   </g>
   <g id="patch_5">
    <path d="M 159.189347 255.729301 
L 191.980217 255.729301 
L 191.980217 295.499507 
L 159.189347 295.499507 
z
" clip-path="url(#p7b15de5efa)" style="fill: #c0392b"/>
   </g>
   <g id="patch_6">
    <path d="M 200.177935 255.729301 
L 232.968805 255.729301 
L 232.968805 305.255877 
L 200.177935 305.255877 
z
" clip-path="url(#p7b15de5efa)" style="fill: #c0392b"/>
   </g>
   <g id="patch_7">
    <path d="M 241.166522 255.729301 
L 273.957392 255.729301 
L 273.957392 325.188463 
L 241.166522 325.188463 
z
" clip-path="url(#p7b15de5efa)" style="fill: #c0392b"/>
   </g>
   <g id="patch_8">
    <path d="M 282.15511 255.729301 
L 314.945979 255.729301 
L 314.945979 287.307554 
L 282.15511 287.307554 
z
" clip-path="url(#p7b15de5efa)" style="fill: #c0392b"/>
   </g>
   <g id="patch_9">
    <path d="M 323.143697 255.729301 
L 355.934567 255.729301 
L 355.934567 239.510334 
L 323.143697 239.510334 
z
" clip-path="url(#p7b15de5efa)" style="fill: #1a9850"/>
   </g>
   <g id="patch_10">
    <path d="M 364.132284 255.729301 
L 396.923154 255.729301 
L 396.923154 192.447841 
L 364.132284 192.447841 
z
" clip-path="url(#p7b15de5efa)" style="fill: #1a9850"/>
   </g>
   <g id="patch_11">
    <path d="M 405.120872 255.729301 
L 437.911741 255.729301 
L 437.911741 153.357382 
L 405.120872 153.357382 
z
" clip-path="url(#p7b15de5efa)" style="fill: #1a9850"/>
   </g>
   <g id="patch_12">
    <path d="M 446.109459 255.729301 
L 478.900329 255.729301 
L 478.900329 130.750792 
L 446.109459 130.750792 
z
" clip-path="url(#p7b15de5efa)" style="fill: #1a9850"/>
   </g>
   <g id="patch_13">
    <path d="M 487.098046 255.729301 
L 519.888916 255.729301 
L 519.888916 152.452719 
L 487.098046 152.452719 
z
" clip-path="url(#p7b15de5efa)" style="fill: #1a9850"/>
   </g>
   <g id="patch_14">
    <path d="M 528.086634 255.729301 
L 560.877503 255.729301 
L 560.877503 38.315177 
L 528.086634 38.315177 
z
" clip-path="url(#p7b15de5efa)" style="fill: #1a9850"/>
   </g>
   <g id="matplotlib.axis_1">
    <g id="xtick_1">
     <g id="line2d_1">
      <defs>
       <path id="m981d3ecc1c" d="M 0 0 
L 0 3.5 
" style="stroke: #000000; stroke-width: 0.8"/>
      </defs>
      <g>
       <use xlink:href="#m981d3ecc1c" x="93.607608" y="342.339832" style="stroke: #000000; stroke-width: 0.8"/>
      </g>
     </g>
     <g id="text_1">
      <!-- −5 -->
      <g transform="translate(85.499405 357.698114) scale(0.11 -0.11)">
       <defs>
        <path id="DejaVuSans-2212" d="M 678 2272 
L 4684 2272 
L 4684 1741 
L 678 1741 
L 678 2272 
z
" transform="scale(0.015625)"/>
        <path id="DejaVuSans-35" d="M 691 4666 
L 3169 4666 
L 3169 4134 
L 1269 4134 
L 1269 2991 
Q 1406 3038 1543 3061 
Q 1681 3084 1819 3084 
Q 2600 3084 3056 2656 
Q 3513 2228 3513 1497 
Q 3513 744 3044 326 
Q 2575 -91 1722 -91 
Q 1428 -91 1123 -41 
Q 819 9 494 109 
L 494 744 
Q 775 591 1075 516 
Q 1375 441 1709 441 
Q 2250 441 2565 725 
Q 2881 1009 2881 1497 
Q 2881 1984 2565 2268 
Q 2250 2553 1709 2553 
Q 1456 2553 1204 2497 
Q 953 2441 691 2322 
L 691 4666 
z
" transform="scale(0.015625)"/>
       </defs>
       <use xlink:href="#DejaVuSans-2212"/>
       <use xlink:href="#DejaVuSans-35" transform="translate(83.789062 0)"/>
      </g>
     </g>
    </g>
    <g id="xtick_2">
     <g id="line2d_2">
      <g>
       <use xlink:href="#m981d3ecc1c" x="134.596195" y="342.339832" style="stroke: #000000; stroke-width: 0.8"/>
      </g>
     </g>
     <g id="text_2">
      <!-- −4 -->
      <g transform="translate(126.487992 357.698114) scale(0.11 -0.11)">
       <defs>
        <path id="DejaVuSans-34" d="M 2419 4116 
L 825 1625 
L 2419 1625 
L 2419 4116 
z
M 2253 4666 
L 3047 4666 
L 3047 1625 
L 3713 1625 
L 3713 1100 
L 3047 1100 
L 3047 0 
L 2419 0 
L 2419 1100 
L 313 1100 
L 313 1709 
L 2253 4666 
z
" transform="scale(0.015625)"/>
       </defs>
       <use xlink:href="#DejaVuSans-2212"/>
       <use xlink:href="#DejaVuSans-34" transform="translate(83.789062 0)"/>
      </g>
     </g>
    </g>
    <g id="xtick_3">
     <g id="line2d_3">
      <g>
       <use xlink:href="#m981d3ecc1c" x="175.584782" y="342.339832" style="stroke: #000000; stroke-width: 0.8"/>
      </g>
     </g>
     <g id="text_3">
      <!-- −3 -->
      <g transform="translate(167.476579 357.698114) scale(0.11 -0.11)">
       <defs>
        <path id="DejaVuSans-33" d="M 2597 2516 
Q 3050 2419 3304 2112 
Q 3559 1806 3559 1356 
Q 3559 666 3084 287 
Q 2609 -91 1734 -91 
Q 1441 -91 1130 -33 
Q 819 25 488 141 
L 488 750 
Q 750 597 1062 519 
Q 1375 441 1716 441 
Q 2309 441 2620 675 
Q 2931 909 2931 1356 
Q 2931 1769 2642 2001 
Q 2353 2234 1838 2234 
L 1294 2234 
L 1294 2753 
L 1863 2753 
Q 2328 2753 2575 2939 
Q 2822 3125 2822 3475 
Q 2822 3834 2567 4026 
Q 2313 4219 1838 4219 
Q 1578 4219 1281 4162 
Q 984 4106 628 3988 
L 628 4550 
Q 988 4650 1302 4700 
Q 1616 4750 1894 4750 
Q 2613 4750 3031 4423 
Q 3450 4097 3450 3541 
Q 3450 3153 3228 2886 
Q 3006 2619 2597 2516 
z
" transform="scale(0.015625)"/>
       </defs>
       <use xlink:href="#DejaVuSans-2212"/>
       <use xlink:href="#DejaVuSans-33" transform="translate(83.789062 0)"/>
      </g>
     </g>
    </g>
    <g id="xtick_4">
     <g id="line2d_4">
      <g>
       <use xlink:href="#m981d3ecc1c" x="216.57337" y="342.339832" style="stroke: #000000; stroke-width: 0.8"/>
      </g>
     </g>
     <g id="text_4">
      <!-- −2 -->
      <g transform="translate(208.465167 357.698114) scale(0.11 -0.11)">
       <defs>
        <path id="DejaVuSans-32" d="M 1228 531 
L 3431 531 
L 3431 0 
L 469 0 
L 469 531 
Q 828 903 1448 1529 
Q 2069 2156 2228 2338 
Q 2531 2678 2651 2914 
Q 2772 3150 2772 3378 
Q 2772 3750 2511 3984 
Q 2250 4219 1831 4219 
Q 1534 4219 1204 4116 
Q 875 4013 500 3803 
L 500 4441 
Q 881 4594 1212 4672 
Q 1544 4750 1819 4750 
Q 2544 4750 2975 4387 
Q 3406 4025 3406 3419 
Q 3406 3131 3298 2873 
Q 3191 2616 2906 2266 
Q 2828 2175 2409 1742 
Q 1991 1309 1228 531 
z
" transform="scale(0.015625)"/>
       </defs>
       <use xlink:href="#DejaVuSans-2212"/>
       <use xlink:href="#DejaVuSans-32" transform="translate(83.789062 0)"/>
      </g>
     </g>
    </g>
    <g id="xtick_5">
     <g id="line2d_5">
      <g>
       <use xlink:href="#m981d3ecc1c" x="257.561957" y="342.339832" style="stroke: #000000; stroke-width: 0.8"/>
      </g>
     </g>
     <g id="text_5">
      <!-- −1 -->
      <g transform="translate(249.453754 357.698114) scale(0.11 -0.11)">
       <defs>
        <path id="DejaVuSans-31" d="M 794 531 
L 1825 531 
L 1825 4091 
L 703 3866 
L 703 4441 
L 1819 4666 
L 2450 4666 
L 2450 531 
L 3481 531 
L 3481 0 
L 794 0 
L 794 531 
z
" transform="scale(0.015625)"/>
       </defs>
       <use xlink:href="#DejaVuSans-2212"/>
       <use xlink:href="#DejaVuSans-31" transform="translate(83.789062 0)"/>
      </g>
     </g>
    </g>
    <g id="xtick_6">
     <g id="line2d_6">
      <g>
       <use xlink:href="#m981d3ecc1c" x="298.550544" y="342.339832" style="stroke: #000000; stroke-width: 0.8"/>
      </g>
     </g>
     <g id="text_6">
      <!-- 0 -->
      <g transform="translate(295.051169 357.698114) scale(0.11 -0.11)">
       <defs>
        <path id="DejaVuSans-30" d="M 2034 4250 
Q 1547 4250 1301 3770 
Q 1056 3291 1056 2328 
Q 1056 1369 1301 889 
Q 1547 409 2034 409 
Q 2525 409 2770 889 
Q 3016 1369 3016 2328 
Q 3016 3291 2770 3770 
Q 2525 4250 2034 4250 
z
M 2034 4750 
Q 2819 4750 3233 4129 
Q 3647 3509 3647 2328 
Q 3647 1150 3233 529 
Q 2819 -91 2034 -91 
Q 1250 -91 836 529 
Q 422 1150 422 2328 
Q 422 3509 836 4129 
Q 1250 4750 2034 4750 
z
" transform="scale(0.015625)"/>
       </defs>
       <use xlink:href="#DejaVuSans-30"/>
      </g>
     </g>
    </g>
    <g id="xtick_7">
     <g id="line2d_7">
      <g>
       <use xlink:href="#m981d3ecc1c" x="339.539132" y="342.339832" style="stroke: #000000; stroke-width: 0.8"/>
      </g>
     </g>
     <g id="text_7">
      <!-- 1 -->
      <g transform="translate(336.039757 357.698114) scale(0.11 -0.11)">
       <use xlink:href="#DejaVuSans-31"/>
      </g>
     </g>
    </g>
    <g id="xtick_8">
     <g id="line2d_8">
      <g>
       <use xlink:href="#m981d3ecc1c" x="380.527719" y="342.339832" style="stroke: #000000; stroke-width: 0.8"/>
      </g>
     </g>
     <g id="text_8">
      <!-- 2 -->
      <g transform="translate(377.028344 357.698114) scale(0.11 -0.11)">
       <use xlink:href="#DejaVuSans-32"/>
      </g>
     </g>
    </g>
    <g id="xtick_9">
     <g id="line2d_9">
      <g>
       <use xlink:href="#m981d3ecc1c" x="421.516306" y="342.339832" style="stroke: #000000; stroke-width: 0.8"/>
      </g>
     </g>
     <g id="text_9">
      <!-- 3 -->
      <g transform="translate(418.016931 357.698114) scale(0.11 -0.11)">
       <use xlink:href="#DejaVuSans-33"/>
      </g>
     </g>
    </g>
    <g id="xtick_10">
     <g id="line2d_10">
      <g>
       <use xlink:href="#m981d3ecc1c" x="462.504894" y="342.339832" style="stroke: #000000; stroke-width: 0.8"/>
      </g>
     </g>
     <g id="text_10">
      <!-- 4 -->
      <g transform="translate(459.005519 357.698114) scale(0.11 -0.11)">
       <use xlink:href="#DejaVuSans-34"/>
      </g>
     </g>
    </g>
    <g id="xtick_11">
     <g id="line2d_11">
      <g>
       <use xlink:href="#m981d3ecc1c" x="503.493481" y="342.339832" style="stroke: #000000; stroke-width: 0.8"/>
      </g>
     </g>
     <g id="text_11">
      <!-- 5 -->
      <g transform="translate(499.994106 357.698114) scale(0.11 -0.11)">
       <use xlink:href="#DejaVuSans-35"/>
      </g>
     </g>
    </g>
    <g id="xtick_12">
     <g id="line2d_12">
      <g>
       <use xlink:href="#m981d3ecc1c" x="544.482069" y="342.339832" style="stroke: #000000; stroke-width: 0.8"/>
      </g>
     </g>
     <g id="text_12">
      <!-- 6 -->
      <g transform="translate(540.982694 357.698114) scale(0.11 -0.11)">
       <defs>
        <path id="DejaVuSans-36" d="M 2113 2584 
Q 1688 2584 1439 2293 
Q 1191 2003 1191 1497 
Q 1191 994 1439 701 
Q 1688 409 2113 409 
Q 2538 409 2786 701 
Q 3034 994 3034 1497 
Q 3034 2003 2786 2293 
Q 2538 2584 2113 2584 
z
M 3366 4563 
L 3366 3988 
Q 3128 4100 2886 4159 
Q 2644 4219 2406 4219 
Q 1781 4219 1451 3797 
Q 1122 3375 1075 2522 
Q 1259 2794 1537 2939 
Q 1816 3084 2150 3084 
Q 2853 3084 3261 2657 
Q 3669 2231 3669 1497 
Q 3669 778 3244 343 
Q 2819 -91 2113 -91 
Q 1303 -91 875 529 
Q 447 1150 447 2328 
Q 447 3434 972 4092 
Q 1497 4750 2381 4750 
Q 2619 4750 2861 4703 
Q 3103 4656 3366 4563 
z
" transform="scale(0.015625)"/>
       </defs>
       <use xlink:href="#DejaVuSans-36"/>
      </g>
     </g>
    </g>
    <g id="text_13">
     <!-- true count bin (floor) -->
     <g transform="translate(256.535151 373.103895) scale(0.12 -0.12)">
      <defs>
       <path id="DejaVuSans-74" d="M 1172 4494 
L 1172 3500 
L 2356 3500 
L 2356 3053 
L 1172 3053 
L 1172 1153 
Q 1172 725 1289 603 
Q 1406 481 1766 481 
L 2356 481 
L 2356 0 
L 1766 0 
Q 1100 0 847 248 
Q 594 497 594 1153 
L 594 3053 
L 172 3053 
L 172 3500 
L 594 3500 
L 594 4494 
L 1172 4494 
z
" transform="scale(0.015625)"/>
       <path id="DejaVuSans-72" d="M 2631 2963 
Q 2534 3019 2420 3045 
Q 2306 3072 2169 3072 
Q 1681 3072 1420 2755 
Q 1159 2438 1159 1844 
L 1159 0 
L 581 0 
L 581 3500 
L 1159 3500 
L 1159 2956 
Q 1341 3275 1631 3429 
Q 1922 3584 2338 3584 
Q 2397 3584 2469 3576 
Q 2541 3569 2628 3553 
L 2631 2963 
z
" transform="scale(0.015625)"/>
       <path id="DejaVuSans-75" d="M 544 1381 
L 544 3500 
L 1119 3500 
L 1119 1403 
Q 1119 906 1312 657 
Q 1506 409 1894 409 
Q 2359 409 2629 706 
Q 2900 1003 2900 1516 
L 2900 3500 
L 3475 3500 
L 3475 0 
L 2900 0 
L 2900 538 
Q 2691 219 2414 64 
Q 2138 -91 1772 -91 
Q 1169 -91 856 284 
Q 544 659 544 1381 
z
M 1991 3584 
L 1991 3584 
z
" transform="scale(0.015625)"/>
       <path id="DejaVuSans-65" d="M 3597 1894 
L 3597 1613 
L 953 1613 
Q 991 1019 1311 708 
Q 1631 397 2203 397 
Q 2534 397 2845 478 
Q 3156 559 3463 722 
L 3463 178 
Q 3153 47 2828 -22 
Q 2503 -91 2169 -91 
Q 1331 -91 842 396 
Q 353 884 353 1716 
Q 353 2575 817 3079 
Q 1281 3584 2069 3584 
Q 2775 3584 3186 3129 
Q 3597 2675 3597 1894 
z
M 3022 2063 
Q 3016 2534 2758 2815 
Q 2500 3097 2075 3097 
Q 1594 3097 1305 2825 
Q 1016 2553 972 2059 
L 3022 2063 
z
" transform="scale(0.015625)"/>
       <path id="DejaVuSans-20" transform="scale(0.015625)"/>
       <path id="DejaVuSans-63" d="M 3122 3366 
L 3122 2828 
Q 2878 2963 2633 3030 
Q 2388 3097 2138 3097 
Q 1578 3097 1268 2742 
Q 959 2388 959 1747 
Q 959 1106 1268 751 
Q 1578 397 2138 397 
Q 2388 397 2633 464 
Q 2878 531 3122 666 
L 3122 134 
Q 2881 22 2623 -34 
Q 2366 -91 2075 -91 
Q 1284 -91 818 406 
Q 353 903 353 1747 
Q 353 2603 823 3093 
Q 1294 3584 2113 3584 
Q 2378 3584 2631 3529 
Q 2884 3475 3122 3366 
z
" transform="scale(0.015625)"/>
       <path id="DejaVuSans-6f" d="M 1959 3097 
Q 1497 3097 1228 2736 
Q 959 2375 959 1747 
Q 959 1119 1226 758 
Q 1494 397 1959 397 
Q 2419 397 2687 759 
Q 2956 1122 2956 1747 
Q 2956 2369 2687 2733 
Q 2419 3097 1959 3097 
z
M 1959 3584 
Q 2709 3584 3137 3096 
Q 3566 2609 3566 1747 
Q 3566 888 3137 398 
Q 2709 -91 1959 -91 
Q 1206 -91 779 398 
Q 353 888 353 1747 
Q 353 2609 779 3096 
Q 1206 3584 1959 3584 
z
" transform="scale(0.015625)"/>
       <path id="DejaVuSans-6e" d="M 3513 2113 
L 3513 0 
L 2938 0 
L 2938 2094 
Q 2938 2591 2744 2837 
Q 2550 3084 2163 3084 
Q 1697 3084 1428 2787 
Q 1159 2491 1159 1978 
L 1159 0 
L 581 0 
L 581 3500 
L 1159 3500 
L 1159 2956 
Q 1366 3272 1645 3428 
Q 1925 3584 2291 3584 
Q 2894 3584 3203 3211 
Q 3513 2838 3513 2113 
z
" transform="scale(0.015625)"/>
       <path id="DejaVuSans-62" d="M 3116 1747 
Q 3116 2381 2855 2742 
Q 2594 3103 2138 3103 
Q 1681 3103 1420 2742 
Q 1159 2381 1159 1747 
Q 1159 1113 1420 752 
Q 1681 391 2138 391 
Q 2594 391 2855 752 
Q 3116 1113 3116 1747 
z
M 1159 2969 
Q 1341 3281 1617 3432 
Q 1894 3584 2278 3584 
Q 2916 3584 3314 3078 
Q 3713 2572 3713 1747 
Q 3713 922 3314 415 
Q 2916 -91 2278 -91 
Q 1894 -91 1617 61 
Q 1341 213 1159 525 
L 1159 0 
L 581 0 
L 581 4863 
L 1159 4863 
L 1159 2969 
z
" transform="scale(0.015625)"/>
       <path id="DejaVuSans-69" d="M 603 3500 
L 1178 3500 
L 1178 0 
L 603 0 
L 603 3500 
z
M 603 4863 
L 1178 4863 
L 1178 4134 
L 603 4134 
L 603 4863 
z
" transform="scale(0.015625)"/>
       <path id="DejaVuSans-28" d="M 1984 4856 
Q 1566 4138 1362 3434 
Q 1159 2731 1159 2009 
Q 1159 1288 1364 580 
Q 1569 -128 1984 -844 
L 1484 -844 
Q 1016 -109 783 600 
Q 550 1309 550 2009 
Q 550 2706 781 3412 
Q 1013 4119 1484 4856 
L 1984 4856 
z
" transform="scale(0.015625)"/>
       <path id="DejaVuSans-66" d="M 2375 4863 
L 2375 4384 
L 1825 4384 
Q 1516 4384 1395 4259 
Q 1275 4134 1275 3809 
L 1275 3500 
L 2222 3500 
L 2222 3053 
L 1275 3053 
L 1275 0 
L 697 0 
L 697 3053 
L 147 3053 
L 147 3500 
L 697 3500 
L 697 3744 
Q 697 4328 969 4595 
Q 1241 4863 1831 4863 
L 2375 4863 
z
" transform="scale(0.015625)"/>
       <path id="DejaVuSans-6c" d="M 603 4863 
L 1178 4863 
L 1178 0 
L 603 0 
L 603 4863 
z
" transform="scale(0.015625)"/>
       <path id="DejaVuSans-29" d="M 513 4856 
L 1013 4856 
Q 1481 4119 1714 3412 
Q 1947 2706 1947 2009 
Q 1947 1309 1714 600 
Q 1481 -109 1013 -844 
L 513 -844 
Q 928 -128 1133 580 
Q 1338 1288 1338 2009 
Q 1338 2731 1133 3434 
Q 928 4138 513 4856 
z
" transform="scale(0.015625)"/>
      </defs>
      <use xlink:href="#DejaVuSans-74"/>
      <use xlink:href="#DejaVuSans-72" transform="translate(39.208984 0)"/>
      <use xlink:href="#DejaVuSans-75" transform="translate(80.322266 0)"/>
      <use xlink:href="#DejaVuSans-65" transform="translate(143.701172 0)"/>
      <use xlink:href="#DejaVuSans-20" transform="translate(205.224609 0)"/>
      <use xlink:href="#DejaVuSans-63" transform="translate(237.011719 0)"/>
      <use xlink:href="#DejaVuSans-6f" transform="translate(291.992188 0)"/>
      <use xlink:href="#DejaVuSans-75" transform="translate(353.173828 0)"/>
      <use xlink:href="#DejaVuSans-6e" transform="translate(416.552734 0)"/>
      <use xlink:href="#DejaVuSans-74" transform="translate(479.931641 0)"/>
      <use xlink:href="#DejaVuSans-20" transform="translate(519.140625 0)"/>
      <use xlink:href="#DejaVuSans-62" transform="translate(550.927734 0)"/>
      <use xlink:href="#DejaVuSans-69" transform="translate(614.404297 0)"/>
      <use xlink:href="#DejaVuSans-6e" transform="translate(642.1875 0)"/>
      <use xlink:href="#DejaVuSans-20" transform="translate(705.566406 0)"/>
      <use xlink:href="#DejaVuSans-28" transform="translate(737.353516 0)"/>
      <use xlink:href="#DejaVuSans-66" transform="translate(776.367188 0)"/>
      <use xlink:href="#DejaVuSans-6c" transform="translate(811.572266 0)"/>
      <use xlink:href="#DejaVuSans-6f" transform="translate(839.355469 0)"/>
      <use xlink:href="#DejaVuSans-6f" transform="translate(900.537109 0)"/>
      <use xlink:href="#DejaVuSans-72" transform="translate(961.71875 0)"/>
      <use xlink:href="#DejaVuSans-29" transform="translate(1002.832031 0)"/>
     </g>
    </g>
   </g>
   <g id="matplotlib.axis_2">
    <g id="ytick_1">
     <g id="line2d_13">
      <defs>
       <path id="m66d2f0bf6f" d="M 0 0 
L -3.5 0 
" style="stroke: #000000; stroke-width: 0.8"/>
      </defs>
      <g>
       <use xlink:href="#m66d2f0bf6f" x="53.028906" y="321.45985" style="stroke: #000000; stroke-width: 0.8"/>
      </g>
     </g>
     <g id="text_14">
      <!-- −20 -->
      <g transform="translate(22.81375 325.63899) scale(0.11 -0.11)">
       <use xlink:href="#DejaVuSans-2212"/>
       <use xlink:href="#DejaVuSans-32" transform="translate(83.789062 0)"/>
       <use xlink:href="#DejaVuSans-30" transform="translate(147.412109 0)"/>
      </g>
     </g>
    </g>
    <g id="ytick_2">
     <g id="line2d_14">
      <g>
       <use xlink:href="#m66d2f0bf6f" x="53.028906" y="255.729301" style="stroke: #000000; stroke-width: 0.8"/>
      </g>
     </g>
     <g id="text_15">
      <!-- 0 -->
      <g transform="translate(39.030156 259.908441) scale(0.11 -0.11)">
       <use xlink:href="#DejaVuSans-30"/>
      </g>
     </g>
    </g>
    <g id="ytick_3">
     <g id="line2d_15">
      <g>
       <use xlink:href="#m66d2f0bf6f" x="53.028906" y="189.998752" style="stroke: #000000; stroke-width: 0.8"/>
      </g>
     </g>
     <g id="text_16">
      <!-- 20 -->
      <g transform="translate(32.031406 194.177893) scale(0.11 -0.11)">
       <use xlink:href="#DejaVuSans-32"/>
       <use xlink:href="#DejaVuSans-30" transform="translate(63.623047 0)"/>
      </g>
     </g>
    </g>
    <g id="ytick_4">
     <g id="line2d_16">
      <g>
       <use xlink:href="#m66d2f0bf6f" x="53.028906" y="124.268203" style="stroke: #000000; stroke-width: 0.8"/>
      </g>
     </g>
     <g id="text_17">
      <!-- 40 -->
      <g transform="translate(32.031406 128.447344) scale(0.11 -0.11)">
       <use xlink:href="#DejaVuSans-34"/>
       <use xlink:href="#DejaVuSans-30" transform="translate(63.623047 0)"/>
      </g>
     </g>
    </g>
    <g id="ytick_5">
     <g id="line2d_17">
      <g>
       <use xlink:href="#m66d2f0bf6f" x="53.028906" y="58.537654" style="stroke: #000000; stroke-width: 0.8"/>
      </g>
     </g>
     <g id="text_18">
      <!-- 60 -->
      <g transform="translate(32.031406 62.716795) scale(0.11 -0.11)">
       <use xlink:href="#DejaVuSans-36"/>
       <use xlink:href="#DejaVuSans-30" transform="translate(63.623047 0)"/>
      </g>
     </g>
    </g>
    <g id="text_19">
     <!-- share of total net profit (%) -->
     <g transform="translate(16.318125 264.926947) rotate(-90) scale(0.12 -0.12)">
      <defs>
       <path id="DejaVuSans-73" d="M 2834 3397 
L 2834 2853 
Q 2591 2978 2328 3040 
Q 2066 3103 1784 3103 
Q 1356 3103 1142 2972 
Q 928 2841 928 2578 
Q 928 2378 1081 2264 
Q 1234 2150 1697 2047 
L 1894 2003 
Q 2506 1872 2764 1633 
Q 3022 1394 3022 966 
Q 3022 478 2636 193 
Q 2250 -91 1575 -91 
Q 1294 -91 989 -36 
Q 684 19 347 128 
L 347 722 
Q 666 556 975 473 
Q 1284 391 1588 391 
Q 1994 391 2212 530 
Q 2431 669 2431 922 
Q 2431 1156 2273 1281 
Q 2116 1406 1581 1522 
L 1381 1569 
Q 847 1681 609 1914 
Q 372 2147 372 2553 
Q 372 3047 722 3315 
Q 1072 3584 1716 3584 
Q 2034 3584 2315 3537 
Q 2597 3491 2834 3397 
z
" transform="scale(0.015625)"/>
       <path id="DejaVuSans-68" d="M 3513 2113 
L 3513 0 
L 2938 0 
L 2938 2094 
Q 2938 2591 2744 2837 
Q 2550 3084 2163 3084 
Q 1697 3084 1428 2787 
Q 1159 2491 1159 1978 
L 1159 0 
L 581 0 
L 581 4863 
L 1159 4863 
L 1159 2956 
Q 1366 3272 1645 3428 
Q 1925 3584 2291 3584 
Q 2894 3584 3203 3211 
Q 3513 2838 3513 2113 
z
" transform="scale(0.015625)"/>
       <path id="DejaVuSans-61" d="M 2194 1759 
Q 1497 1759 1228 1600 
Q 959 1441 959 1056 
Q 959 750 1161 570 
Q 1363 391 1709 391 
Q 2188 391 2477 730 
Q 2766 1069 2766 1631 
L 2766 1759 
L 2194 1759 
z
M 3341 1997 
L 3341 0 
L 2766 0 
L 2766 531 
Q 2569 213 2275 61 
Q 1981 -91 1556 -91 
Q 1019 -91 701 211 
Q 384 513 384 1019 
Q 384 1609 779 1909 
Q 1175 2209 1959 2209 
L 2766 2209 
L 2766 2266 
Q 2766 2663 2505 2880 
Q 2244 3097 1772 3097 
Q 1472 3097 1187 3025 
Q 903 2953 641 2809 
L 641 3341 
Q 956 3463 1253 3523 
Q 1550 3584 1831 3584 
Q 2591 3584 2966 3190 
Q 3341 2797 3341 1997 
z
" transform="scale(0.015625)"/>
       <path id="DejaVuSans-70" d="M 1159 525 
L 1159 -1331 
L 581 -1331 
L 581 3500 
L 1159 3500 
L 1159 2969 
Q 1341 3281 1617 3432 
Q 1894 3584 2278 3584 
Q 2916 3584 3314 3078 
Q 3713 2572 3713 1747 
Q 3713 922 3314 415 
Q 2916 -91 2278 -91 
Q 1894 -91 1617 61 
Q 1341 213 1159 525 
z
M 3116 1747 
Q 3116 2381 2855 2742 
Q 2594 3103 2138 3103 
Q 1681 3103 1420 2742 
Q 1159 2381 1159 1747 
Q 1159 1113 1420 752 
Q 1681 391 2138 391 
Q 2594 391 2855 752 
Q 3116 1113 3116 1747 
z
" transform="scale(0.015625)"/>
       <path id="DejaVuSans-25" d="M 4653 2053 
Q 4381 2053 4226 1822 
Q 4072 1591 4072 1178 
Q 4072 772 4226 539 
Q 4381 306 4653 306 
Q 4919 306 5073 539 
Q 5228 772 5228 1178 
Q 5228 1588 5073 1820 
Q 4919 2053 4653 2053 
z
M 4653 2450 
Q 5147 2450 5437 2106 
Q 5728 1763 5728 1178 
Q 5728 594 5436 251 
Q 5144 -91 4653 -91 
Q 4153 -91 3862 251 
Q 3572 594 3572 1178 
Q 3572 1766 3864 2108 
Q 4156 2450 4653 2450 
z
M 1428 4353 
Q 1159 4353 1004 4120 
Q 850 3888 850 3481 
Q 850 3069 1003 2837 
Q 1156 2606 1428 2606 
Q 1700 2606 1854 2837 
Q 2009 3069 2009 3481 
Q 2009 3884 1853 4118 
Q 1697 4353 1428 4353 
z
M 4250 4750 
L 4750 4750 
L 1831 -91 
L 1331 -91 
L 4250 4750 
z
M 1428 4750 
Q 1922 4750 2215 4408 
Q 2509 4066 2509 3481 
Q 2509 2891 2217 2550 
Q 1925 2209 1428 2209 
Q 931 2209 642 2551 
Q 353 2894 353 3481 
Q 353 4063 643 4406 
Q 934 4750 1428 4750 
z
" transform="scale(0.015625)"/>
      </defs>
      <use xlink:href="#DejaVuSans-73"/>
      <use xlink:href="#DejaVuSans-68" transform="translate(52.099609 0)"/>
      <use xlink:href="#DejaVuSans-61" transform="translate(115.478516 0)"/>
      <use xlink:href="#DejaVuSans-72" transform="translate(176.757812 0)"/>
      <use xlink:href="#DejaVuSans-65" transform="translate(215.621094 0)"/>
      <use xlink:href="#DejaVuSans-20" transform="translate(277.144531 0)"/>
      <use xlink:href="#DejaVuSans-6f" transform="translate(308.931641 0)"/>
      <use xlink:href="#DejaVuSans-66" transform="translate(370.113281 0)"/>
      <use xlink:href="#DejaVuSans-20" transform="translate(405.318359 0)"/>
      <use xlink:href="#DejaVuSans-74" transform="translate(437.105469 0)"/>
      <use xlink:href="#DejaVuSans-6f" transform="translate(476.314453 0)"/>
      <use xlink:href="#DejaVuSans-74" transform="translate(537.496094 0)"/>
      <use xlink:href="#DejaVuSans-61" transform="translate(576.705078 0)"/>
      <use xlink:href="#DejaVuSans-6c" transform="translate(637.984375 0)"/>
      <use xlink:href="#DejaVuSans-20" transform="translate(665.767578 0)"/>
      <use xlink:href="#DejaVuSans-6e" transform="translate(697.554688 0)"/>
      <use xlink:href="#DejaVuSans-65" transform="translate(760.933594 0)"/>
      <use xlink:href="#DejaVuSans-74" transform="translate(822.457031 0)"/>
      <use xlink:href="#DejaVuSans-20" transform="translate(861.666016 0)"/>
      <use xlink:href="#DejaVuSans-70" transform="translate(893.453125 0)"/>
      <use xlink:href="#DejaVuSans-72" transform="translate(956.929688 0)"/>
      <use xlink:href="#DejaVuSans-6f" transform="translate(995.792969 0)"/>
      <use xlink:href="#DejaVuSans-66" transform="translate(1056.974609 0)"/>
      <use xlink:href="#DejaVuSans-69" transform="translate(1092.179688 0)"/>
      <use xlink:href="#DejaVuSans-74" transform="translate(1119.962891 0)"/>
      <use xlink:href="#DejaVuSans-20" transform="translate(1159.171875 0)"/>
      <use xlink:href="#DejaVuSans-28" transform="translate(1190.958984 0)"/>
      <use xlink:href="#DejaVuSans-25" transform="translate(1229.972656 0)"/>
      <use xlink:href="#DejaVuSans-29" transform="translate(1324.992188 0)"/>
     </g>
    </g>
   </g>
   <g id="line2d_18">
    <path d="M 53.028906 255.729301 
L 585.06077 255.729301 
" clip-path="url(#p7b15de5efa)" style="fill: none; stroke: #808080; stroke-width: 0.8; stroke-linecap: square"/>
   </g>
   <g id="patch_15">
    <path d="M 53.028906 342.339832 
L 53.028906 23.837812 
" style="fill: none; stroke: #000000; stroke-width: 0.8; stroke-linejoin: miter; stroke-linecap: square"/>
   </g>
   <g id="patch_16">
    <path d="M 585.06077 342.339832 
L 585.06077 23.837812 
" style="fill: none; stroke: #000000; stroke-width: 0.8; stroke-linejoin: miter; stroke-linecap: square"/>
   </g>
   <g id="patch_17">
    <path d="M 53.028906 342.339832 
L 585.06077 342.339832 
" style="fill: none; stroke: #000000; stroke-width: 0.8; stroke-linejoin: miter; stroke-linecap: square"/>
   </g>
   <g id="patch_18">
    <path d="M 53.028906 23.837812 
L 585.06077 23.837812 
" style="fill: none; stroke: #000000; stroke-width: 0.8; stroke-linejoin: miter; stroke-linecap: square"/>
   </g>
   <g id="text_20">
    <!-- Where the money comes from: profit share by true count (Hi-Lo, 6 decks) -->
    <g transform="translate(61.695307 17.837812) scale(0.14 -0.14)">
     <defs>
      <path id="DejaVuSans-57" d="M 213 4666 
L 850 4666 
L 1831 722 
L 2809 4666 
L 3519 4666 
L 4500 722 
L 5478 4666 
L 6119 4666 
L 4947 0 
L 4153 0 
L 3169 4050 
L 2175 0 
L 1381 0 
L 213 4666 
z
" transform="scale(0.015625)"/>
      <path id="DejaVuSans-6d" d="M 3328 2828 
Q 3544 3216 3844 3400 
Q 4144 3584 4550 3584 
Q 5097 3584 5394 3201 
Q 5691 2819 5691 2113 
L 5691 0 
L 5113 0 
L 5113 2094 
Q 5113 2597 4934 2840 
Q 4756 3084 4391 3084 
Q 3944 3084 3684 2787 
Q 3425 2491 3425 1978 
L 3425 0 
L 2847 0 
L 2847 2094 
Q 2847 2600 2669 2842 
Q 2491 3084 2119 3084 
Q 1678 3084 1418 2786 
Q 1159 2488 1159 1978 
L 1159 0 
L 581 0 
L 581 3500 
L 1159 3500 
L 1159 2956 
Q 1356 3278 1631 3431 
Q 1906 3584 2284 3584 
Q 2666 3584 2933 3390 
Q 3200 3197 3328 2828 
z
" transform="scale(0.015625)"/>
      <path id="DejaVuSans-79" d="M 2059 -325 
Q 1816 -950 1584 -1140 
Q 1353 -1331 966 -1331 
L 506 -1331 
L 506 -850 
L 844 -850 
Q 1081 -850 1212 -737 
Q 1344 -625 1503 -206 
L 1606 56 
L 191 3500 
L 800 3500 
L 1894 763 
L 2988 3500 
L 3597 3500 
L 2059 -325 
z
" transform="scale(0.015625)"/>
      <path id="DejaVuSans-3a" d="M 750 794 
L 1409 794 
L 1409 0 
L 750 0 
L 750 794 
z
M 750 3309 
L 1409 3309 
L 1409 2516 
L 750 2516 
L 750 3309 
z
" transform="scale(0.015625)"/>
      <path id="DejaVuSans-48" d="M 628 4666 
L 1259 4666 
L 1259 2753 
L 3553 2753 
L 3553 4666 
L 4184 4666 
L 4184 0 
L 3553 0 
L 3553 2222 
L 1259 2222 
L 1259 0 
L 628 0 
L 628 4666 
z
" transform="scale(0.015625)"/>
      <path id="DejaVuSans-2d" d="M 313 2009 
L 1997 2009 
L 1997 1497 
L 313 1497 
L 313 2009 
z
" transform="scale(0.015625)"/>
      <path id="DejaVuSans-4c" d="M 628 4666 
L 1259 4666 
L 1259 531 
L 3531 531 
L 3531 0 
L 628 0 
L 628 4666 
z
" transform="scale(0.015625)"/>
      <path id="DejaVuSans-2c" d="M 750 794 
L 1409 794 
L 1409 256 
L 897 -744 
L 494 -744 
L 750 256 
L 750 794 
z
" transform="scale(0.015625)"/>
      <path id="DejaVuSans-64" d="M 2906 2969 
L 2906 4863 
L 3481 4863 
L 3481 0 
L 2906 0 
L 2906 525 
Q 2725 213 2448 61 
Q 2172 -91 1784 -91 
Q 1150 -91 751 415 
Q 353 922 353 1747 
Q 353 2572 751 3078 
Q 1150 3584 1784 3584 
Q 2172 3584 2448 3432 
Q 2725 3281 2906 2969 
z
M 947 1747 
Q 947 1113 1208 752 
Q 1469 391 1925 391 
Q 2381 391 2643 752 
Q 2906 1113 2906 1747 
Q 2906 2381 2643 2742 
Q 2381 3103 1925 3103 
Q 1469 3103 1208 2742 
Q 947 2381 947 1747 
z
" transform="scale(0.015625)"/>
      <path id="DejaVuSans-6b" d="M 581 4863 
L 1159 4863 
L 1159 1991 
L 2875 3500 
L 3609 3500 
L 1753 1863 
L 3688 0 
L 2938 0 
L 1159 1709 
L 1159 0 
L 581 0 
L 581 4863 
z
" transform="scale(0.015625)"/>
     </defs>
     <use xlink:href="#DejaVuSans-57"/>
     <use xlink:href="#DejaVuSans-68" transform="translate(98.876953 0)"/>
     <use xlink:href="#DejaVuSans-65" transform="translate(162.255859 0)"/>
     <use xlink:href="#DejaVuSans-72" transform="translate(223.779297 0)"/>
     <use xlink:href="#DejaVuSans-65" transform="translate(262.642578 0)"/>
     <use xlink:href="#DejaVuSans-20" transform="translate(324.166016 0)"/>
     <use xlink:href="#DejaVuSans-74" transform="translate(355.953125 0)"/>
     <use xlink:href="#DejaVuSans-68" transform="translate(395.162109 0)"/>
     <use xlink:href="#DejaVuSans-65" transform="translate(458.541016 0)"/>
     <use xlink:href="#DejaVuSans-20" transform="translate(520.064453 0)"/>
     <use xlink:href="#DejaVuSans-6d" transform="translate(551.851562 0)"/>
     <use xlink:href="#DejaVuSans-6f" transform="translate(649.263672 0)"/>
     <use xlink:href="#DejaVuSans-6e" transform="translate(710.445312 0)"/>
     <use xlink:href="#DejaVuSans-65" transform="translate(773.824219 0)"/>
     <use xlink:href="#DejaVuSans-79" transform="translate(835.347656 0)"/>
     <use xlink:href="#DejaVuSans-20" transform="translate(894.527344 0)"/>
     <use xlink:href="#DejaVuSans-63" transform="translate(926.314453 0)"/>
     <use xlink:href="#DejaVuSans-6f" transform="translate(981.294922 0)"/>
     <use xlink:href="#DejaVuSans-6d" transform="translate(1042.476562 0)"/>
     <use xlink:href="#DejaVuSans-65" transform="translate(1139.888672 0)"/>
     <use xlink:href="#DejaVuSans-73" transform="translate(1201.412109 0)"/>
     <use xlink:href="#DejaVuSans-20" transform="translate(1253.511719 0)"/>
     <use xlink:href="#DejaVuSans-66" transform="translate(1285.298828 0)"/>
     <use xlink:href="#DejaVuSans-72" transform="translate(1320.503906 0)"/>
     <use xlink:href="#DejaVuSans-6f" transform="translate(1359.367188 0)"/>
     <use xlink:href="#DejaVuSans-6d" transform="translate(1420.548828 0)"/>
     <use xlink:href="#DejaVuSans-3a" transform="translate(1517.960938 0)"/>
     <use xlink:href="#DejaVuSans-20" transform="translate(1551.652344 0)"/>
     <use xlink:href="#DejaVuSans-70" transform="translate(1583.439453 0)"/>
     <use xlink:href="#DejaVuSans-72" transform="translate(1646.916016 0)"/>
     <use xlink:href="#DejaVuSans-6f" transform="translate(1685.779297 0)"/>
     <use xlink:href="#DejaVuSans-66" transform="translate(1746.960938 0)"/>
     <use xlink:href="#DejaVuSans-69" transform="translate(1782.166016 0)"/>
     <use xlink:href="#DejaVuSans-74" transform="translate(1809.949219 0)"/>
     <use xlink:href="#DejaVuSans-20" transform="translate(1849.158203 0)"/>
     <use xlink:href="#DejaVuSans-73" transform="translate(1880.945312 0)"/>
     <use xlink:href="#DejaVuSans-68" transform="translate(1933.044922 0)"/>
     <use xlink:href="#DejaVuSans-61" transform="translate(1996.423828 0)"/>
     <use xlink:href="#DejaVuSans-72" transform="translate(2057.703125 0)"/>
     <use xlink:href="#DejaVuSans-65" transform="translate(2096.566406 0)"/>
     <use xlink:href="#DejaVuSans-20" transform="translate(2158.089844 0)"/>
     <use xlink:href="#DejaVuSans-62" transform="translate(2189.876953 0)"/>
     <use xlink:href="#DejaVuSans-79" transform="translate(2253.353516 0)"/>
     <use xlink:href="#DejaVuSans-20" transform="translate(2312.533203 0)"/>
     <use xlink:href="#DejaVuSans-74" transform="translate(2344.320312 0)"/>
     <use xlink:href="#DejaVuSans-72" transform="translate(2383.529297 0)"/>
     <use xlink:href="#DejaVuSans-75" transform="translate(2424.642578 0)"/>
     <use xlink:href="#DejaVuSans-65" transform="translate(2488.021484 0)"/>
     <use xlink:href="#DejaVuSans-20" transform="translate(2549.544922 0)"/>
     <use xlink:href="#DejaVuSans-63" transform="translate(2581.332031 0)"/>
     <use xlink:href="#DejaVuSans-6f" transform="translate(2636.3125 0)"/>
     <use xlink:href="#DejaVuSans-75" transform="translate(2697.494141 0)"/>
     <use xlink:href="#DejaVuSans-6e" transform="translate(2760.873047 0)"/>
     <use xlink:href="#DejaVuSans-74" transform="translate(2824.251953 0)"/>
     <use xlink:href="#DejaVuSans-20" transform="translate(2863.460938 0)"/>
     <use xlink:href="#DejaVuSans-28" transform="translate(2895.248047 0)"/>
     <use xlink:href="#DejaVuSans-48" transform="translate(2934.261719 0)"/>
     <use xlink:href="#DejaVuSans-69" transform="translate(3009.457031 0)"/>
     <use xlink:href="#DejaVuSans-2d" transform="translate(3037.240234 0)"/>
     <use xlink:href="#DejaVuSans-4c" transform="translate(3073.324219 0)"/>
     <use xlink:href="#DejaVuSans-6f" transform="translate(3127.287109 0)"/>
     <use xlink:href="#DejaVuSans-2c" transform="translate(3188.46875 0)"/>
     <use xlink:href="#DejaVuSans-20" transform="translate(3220.255859 0)"/>
     <use xlink:href="#DejaVuSans-36" transform="translate(3252.042969 0)"/>
     <use xlink:href="#DejaVuSans-20" transform="translate(3315.666016 0)"/>
     <use xlink:href="#DejaVuSans-64" transform="translate(3347.453125 0)"/>
     <use xlink:href="#DejaVuSans-65" transform="translate(3410.929688 0)"/>
     <use xlink:href="#DejaVuSans-63" transform="translate(3472.453125 0)"/>
     <use xlink:href="#DejaVuSans-6b" transform="translate(3527.433594 0)"/>
     <use xlink:href="#DejaVuSans-73" transform="translate(3585.34375 0)"/>
     <use xlink:href="#DejaVuSans-29" transform="translate(3637.443359 0)"/>
    </g>
   </g>
  </g>
  <g id="axes_2">
   <g id="matplotlib.axis_3">
    <g id="ytick_6">
     <g id="line2d_19">
      <defs>
       <path id="mc65ae52d64" d="M 0 0 
L 3.5 0 
" style="stroke: #2980b9; stroke-width: 0.8"/>
      </defs>
      <g>
       <use xlink:href="#mc65ae52d64" x="585.06077" y="340.236037" style="fill: #2980b9; stroke: #2980b9; stroke-width: 0.8"/>
      </g>
     </g>
     <g id="text_21">
      <!-- 0 -->
      <g style="fill: #2980b9" transform="translate(592.06077 344.035256) scale(0.1 -0.1)">
       <use xlink:href="#DejaVuSans-30"/>
      </g>
     </g>
    </g>
    <g id="ytick_7">
     <g id="line2d_20">
      <g>
       <use xlink:href="#mc65ae52d64" x="585.06077" y="283.144823" style="fill: #2980b9; stroke: #2980b9; stroke-width: 0.8"/>
      </g>
     </g>
     <g id="text_22">
      <!-- 5 -->
      <g style="fill: #2980b9" transform="translate(592.06077 286.944042) scale(0.1 -0.1)">
       <use xlink:href="#DejaVuSans-35"/>
      </g>
     </g>
    </g>
    <g id="ytick_8">
     <g id="line2d_21">
      <g>
       <use xlink:href="#mc65ae52d64" x="585.06077" y="226.053609" style="fill: #2980b9; stroke: #2980b9; stroke-width: 0.8"/>
      </g>
     </g>
     <g id="text_23">
      <!-- 10 -->
      <g style="fill: #2980b9" transform="translate(592.06077 229.852827) scale(0.1 -0.1)">
       <use xlink:href="#DejaVuSans-31"/>
       <use xlink:href="#DejaVuSans-30" transform="translate(63.623047 0)"/>
      </g>
     </g>
    </g>
    <g id="ytick_9">
     <g id="line2d_22">
      <g>
       <use xlink:href="#mc65ae52d64" x="585.06077" y="168.962394" style="fill: #2980b9; stroke: #2980b9; stroke-width: 0.8"/>
      </g>
     </g>
     <g id="text_24">
      <!-- 15 -->
      <g style="fill: #2980b9" transform="translate(592.06077 172.761613) scale(0.1 -0.1)">
       <use xlink:href="#DejaVuSans-31"/>
       <use xlink:href="#DejaVuSans-35" transform="translate(63.623047 0)"/>
      </g>
     </g>
    </g>
    <g id="ytick_10">
     <g id="line2d_23">
      <g>
       <use xlink:href="#mc65ae52d64" x="585.06077" y="111.87118" style="fill: #2980b9; stroke: #2980b9; stroke-width: 0.8"/>
      </g>
     </g>
     <g id="text_25">
      <!-- 20 -->
      <g style="fill: #2980b9" transform="translate(592.06077 115.670399) scale(0.1 -0.1)">
       <use xlink:href="#DejaVuSans-32"/>
       <use xlink:href="#DejaVuSans-30" transform="translate(63.623047 0)"/>
      </g>
     </g>
    </g>
    <g id="ytick_11">
     <g id="line2d_24">
      <g>
       <use xlink:href="#mc65ae52d64" x="585.06077" y="54.779966" style="fill: #2980b9; stroke: #2980b9; stroke-width: 0.8"/>
      </g>
     </g>
     <g id="text_26">
      <!-- 25 -->
      <g style="fill: #2980b9" transform="translate(592.06077 58.579185) scale(0.1 -0.1)">
       <use xlink:href="#DejaVuSans-32"/>
       <use xlink:href="#DejaVuSans-35" transform="translate(63.623047 0)"/>
      </g>
     </g>
    </g>
    <g id="text_27">
     <!-- % of hands dealt at this count -->
     <g style="fill: #2980b9" transform="translate(617.903895 273.331635) rotate(-90) scale(0.12 -0.12)">
      <use xlink:href="#DejaVuSans-25"/>
      <use xlink:href="#DejaVuSans-20" transform="translate(95.019531 0)"/>
      <use xlink:href="#DejaVuSans-6f" transform="translate(126.806641 0)"/>
      <use xlink:href="#DejaVuSans-66" transform="translate(187.988281 0)"/>
      <use xlink:href="#DejaVuSans-20" transform="translate(223.193359 0)"/>
      <use xlink:href="#DejaVuSans-68" transform="translate(254.980469 0)"/>
      <use xlink:href="#DejaVuSans-61" transform="translate(318.359375 0)"/>
      <use xlink:href="#DejaVuSans-6e" transform="translate(379.638672 0)"/>
      <use xlink:href="#DejaVuSans-64" transform="translate(443.017578 0)"/>
      <use xlink:href="#DejaVuSans-73" transform="translate(506.494141 0)"/>
      <use xlink:href="#DejaVuSans-20" transform="translate(558.59375 0)"/>
      <use xlink:href="#DejaVuSans-64" transform="translate(590.380859 0)"/>
      <use xlink:href="#DejaVuSans-65" transform="translate(653.857422 0)"/>
      <use xlink:href="#DejaVuSans-61" transform="translate(715.380859 0)"/>
      <use xlink:href="#DejaVuSans-6c" transform="translate(776.660156 0)"/>
      <use xlink:href="#DejaVuSans-74" transform="translate(804.443359 0)"/>
      <use xlink:href="#DejaVuSans-20" transform="translate(843.652344 0)"/>
      <use xlink:href="#DejaVuSans-61" transform="translate(875.439453 0)"/>
      <use xlink:href="#DejaVuSans-74" transform="translate(936.71875 0)"/>
      <use xlink:href="#DejaVuSans-20" transform="translate(975.927734 0)"/>
      <use xlink:href="#DejaVuSans-74" transform="translate(1007.714844 0)"/>
      <use xlink:href="#DejaVuSans-68" transform="translate(1046.923828 0)"/>
      <use xlink:href="#DejaVuSans-69" transform="translate(1110.302734 0)"/>
      <use xlink:href="#DejaVuSans-73" transform="translate(1138.085938 0)"/>
      <use xlink:href="#DejaVuSans-20" transform="translate(1190.185547 0)"/>
      <use xlink:href="#DejaVuSans-63" transform="translate(1221.972656 0)"/>
      <use xlink:href="#DejaVuSans-6f" transform="translate(1276.953125 0)"/>
      <use xlink:href="#DejaVuSans-75" transform="translate(1338.134766 0)"/>
      <use xlink:href="#DejaVuSans-6e" transform="translate(1401.513672 0)"/>
      <use xlink:href="#DejaVuSans-74" transform="translate(1464.892578 0)"/>
     </g>
    </g>
   </g>
   <g id="line2d_25">
    <path d="M 93.607608 278.650793 
L 134.596195 293.09709 
L 175.584782 260.634074 
L 216.57337 196.465453 
L 257.561957 122.070526 
L 298.550544 38.315177 
L 339.539132 209.631321 
L 380.527719 269.481944 
L 421.516306 300.883063 
L 462.504894 317.985371 
L 503.493481 327.862468 
L 544.482069 325.930882 
" clip-path="url(#p7b15de5efa)" style="fill: none; stroke-dasharray: 5.18,2.24; stroke-dashoffset: 0; stroke: #2980b9; stroke-width: 1.4"/>
    <defs>
     <path id="m8a6afd3cf3" d="M 0 2 
C 0.530406 2 1.03916 1.789267 1.414214 1.414214 
C 1.789267 1.03916 2 0.530406 2 0 
C 2 -0.530406 1.789267 -1.03916 1.414214 -1.414214 
C 1.03916 -1.789267 0.530406 -2 0 -2 
C -0.530406 -2 -1.03916 -1.789267 -1.414214 -1.414214 
C -1.789267 -1.03916 -2 -0.530406 -2 0 
C -2 0.530406 -1.789267 1.03916 -1.414214 1.414214 
C -1.03916 1.789267 -0.530406 2 0 2 
z
" style="stroke: #2980b9"/>
    </defs>
    <g clip-path="url(#p7b15de5efa)">
     <use xlink:href="#m8a6afd3cf3" x="93.607608" y="278.650793" style="fill: #2980b9; stroke: #2980b9"/>
     <use xlink:href="#m8a6afd3cf3" x="134.596195" y="293.09709" style="fill: #2980b9; stroke: #2980b9"/>
     <use xlink:href="#m8a6afd3cf3" x="175.584782" y="260.634074" style="fill: #2980b9; stroke: #2980b9"/>
     <use xlink:href="#m8a6afd3cf3" x="216.57337" y="196.465453" style="fill: #2980b9; stroke: #2980b9"/>
     <use xlink:href="#m8a6afd3cf3" x="257.561957" y="122.070526" style="fill: #2980b9; stroke: #2980b9"/>
     <use xlink:href="#m8a6afd3cf3" x="298.550544" y="38.315177" style="fill: #2980b9; stroke: #2980b9"/>
     <use xlink:href="#m8a6afd3cf3" x="339.539132" y="209.631321" style="fill: #2980b9; stroke: #2980b9"/>
     <use xlink:href="#m8a6afd3cf3" x="380.527719" y="269.481944" style="fill: #2980b9; stroke: #2980b9"/>
     <use xlink:href="#m8a6afd3cf3" x="421.516306" y="300.883063" style="fill: #2980b9; stroke: #2980b9"/>
     <use xlink:href="#m8a6afd3cf3" x="462.504894" y="317.985371" style="fill: #2980b9; stroke: #2980b9"/>
     <use xlink:href="#m8a6afd3cf3" x="503.493481" y="327.862468" style="fill: #2980b9; stroke: #2980b9"/>
     <use xlink:href="#m8a6afd3cf3" x="544.482069" y="325.930882" style="fill: #2980b9; stroke: #2980b9"/>
    </g>
   </g>
   <g id="patch_19">
    <path d="M 53.028906 342.339832 
L 53.028906 23.837812 
" style="fill: none; stroke: #000000; stroke-width: 0.8; stroke-linejoin: miter; stroke-linecap: square"/>
   </g>
   <g id="patch_20">
    <path d="M 585.06077 342.339832 
L 585.06077 23.837812 
" style="fill: none; stroke: #000000; stroke-width: 0.8; stroke-linejoin: miter; stroke-linecap: square"/>
   </g>
   <g id="patch_21">
    <path d="M 53.028906 342.339832 
L 585.06077 342.339832 
" style="fill: none; stroke: #000000; stroke-width: 0.8; stroke-linejoin: miter; stroke-linecap: square"/>
   </g>
   <g id="patch_22">
    <path d="M 53.028906 23.837812 
L 585.06077 23.837812 
" style="fill: none; stroke: #000000; stroke-width: 0.8; stroke-linejoin: miter; stroke-linecap: square"/>
   </g>
  </g>
 </g>
 <defs>
  <clipPath id="p7b15de5efa">
   <rect x="53.028906" y="23.837812" width="532.031864" height="318.50202"/>
  </clipPath>
 </defs>
</svg>
