<?xml version="1.0" encoding="utf-8" standalone="no"?>
<!DOCTYPE svg PUBLIC "-//W3C//DTD SVG 1.1//EN"
  "http://www.w3.org/Graphics/SVG/1.1/DTD/svg11.dtd">
<svg xmlns:xlink="http://www.w3.org/1999/xlink" width="613.19952pt" height="382.79952pt" viewBox="0 0 613.19952 382.79952" xmlns="http://www.w3.org/2000/svg" version="1.1">
 <metadata>
  <rdf:RDF xmlns:dc="http://purl.org/dc/elements/1.1/" xmlns:cc="http://creativecommons.org/ns#" xmlns:rdf="http://www.w3.org/1999/02/22-rdf-syntax-ns#">
   <cc:Work>
    <dc:type rdf:resource="http://purl.org/dc/dcmitype/StillImage"/>
    <dc:date>2026-06-12T22:38:00.052844</dc:date>
    <dc:format>image/svg+xml</dc:format>
    <dc:creator>
     <cc:Agent>
      <dc:title>Matplotlib v3.10.1, https://matplotlib.org/</dc:title>
     </cc:Agent>
    </dc:creator>
   </cc:Work>
  </rdf:RDF>
 </metadata>
 <defs>
  <style type="text/css">*{stroke-linejoin: round; stroke-linecap: butt}</style>
 </defs>
 <g id="figure_1">
  <g id="patch_1">
   <path d="M 0 382.79952 
L 613.19952 382.79952 
L 613.19952 0 
L 0 0 
z
" style="fill: #ffffff"/>
  </g>
  <g id="axes_1">
   <g id="patch_2">
    <path d="M 54.305938 345.635989 
L 605.99952 345.635989 
L 605.99952 23.837812 
L 54.305938 23.837812 
z
" style="fill: #ffffff"/>
   </g>
   <g id="patch_3">
    <path d="M 79.382919 318.338653 
L 162.972855 318.338653 
L 162.972855 307.165402 
L 79.382919 307.165402 
z
" clip-path="url(#p49458ae90f)" style="fill: #999999"/>
   </g>
   <g id="patch_4">
    <path d="M 183.870339 318.338653 
L 267.460276 318.338653 
L 267.460276 290.413678 
L 183.870339 290.413678 
z
" clip-path="url(#p49458ae90f)" style="fill: #7f8c8d"/>
   </g>
   <g id="patch_5">
    <path d="M 288.35776 318.338653 
L 371.947697 318.338653 
L 371.947697 221.821931 
L 288.35776 221.821931 
z
" clip-path="url(#p49458ae90f)" style="fill: #27ae60"/>
   </g>
   <g id="patch_6">
    <path d="M 392.845181 318.338653 
L 476.435118 318.338653 
L 476.435118 175.747879 
L 392.845181 175.747879 
z
" clip-path="url(#p49458ae90f)" style="fill: #e67e22"/>
   </g>
   <g id="patch_7">
    <path d="M 497.332602 318.338653 
L 580.922539 318.338653 
L 580.922539 73.367105 
L 497.332602 73.367105 
z
" clip-path="url(#p49458ae90f)" style="fill: #c0392b"/>
   </g>
   <g id="matplotlib.axis_1">
    <g id="xtick_1">
     <g id="line2d_1">
      <defs>
       <path id="m08113dbec7" d="M 0 0 
L 0 3.5 
" style="stroke: #000000; stroke-width: 0.8"/>
      </defs>
      <g>
       <use xlink:href="#m08113dbec7" x="121.177887" y="345.635989" style="stroke: #000000; stroke-width: 0.8"/>
      </g>
     </g>
     <g id="text_1">
      <!-- random -->
      <g transform="translate(99.846481 360.99427) scale(0.11 -0.11)">
       <defs>
        <path id="DejaVuSans-72" d="M 2631 2963 
Q 2534 3019 2420 3045 
Q 2306 3072 2169 3072 
Q 1681 3072 1420 2755 
Q 1159 2438 1159 1844 
L 1159 0 
L 581 0 
L 581 3500 
L 1159 3500 
L 1159 2956 
Q 1341 3275 1631 3429 
Q 1922 3584 2338 3584 
Q 2397 3584 2469 3576 
Q 2541 3569 2628 3553 
L 2631 2963 
z
" transform="scale(0.015625)"/>
        <path id="DejaVuSans-61" d="M 2194 1759 
Q 1497 1759 1228 1600 
Q 959 1441 959 1056 
Q 959 750 1161 570 
Q 1363 391 1709 391 
Q 2188 391 2477 730 
Q 2766 1069 2766 1631 
L 2766 1759 
L 2194 1759 
z
M 3341 1997 
L 3341 0 
L 2766 0 
L 2766 531 
Q 2569 213 2275 61 
Q 1981 -91 1556 -91 
Q 1019 -91 701 211 
Q 384 513 384 1019 
Q 384 1609 779 1909 
Q 1175 2209 1959 2209 
L 2766 2209 
L 2766 2266 
Q 2766 2663 2505 2880 
Q 2244 3097 1772 3097 
Q 1472 3097 1187 3025 
Q 903 2953 641 2809 
L 641 3341 
Q 956 3463 1253 3523 
Q 1550 3584 1831 3584 
Q 2591 3584 2966 3190 
Q 3341 2797 3341 1997 
z
" transform="scale(0.015625)"/>
        <path id="DejaVuSans-6e" d="M 3513 2113 
L 3513 0 
L 2938 0 
L 2938 2094 
Q 2938 2591 2744 2837 
Q 2550 3084 2163 3084 
Q 1697 3084 1428 2787 
Q 1159 2491 1159 1978 
L 1159 0 
L 581 0 
L 581 3500 
L 1159 3500 
L 1159 2956 
Q 1366 3272 1645 3428 
Q 1925 3584 2291 3584 
Q 2894 3584 3203 3211 
Q 3513 2838 3513 2113 
z
" transform="scale(0.015625)"/>
        <path id="DejaVuSans-64" d="M 2906 2969 
L 2906 4863 
L 3481 4863 
L 3481 0 
L 2906 0 
L 2906 525 
Q 2725 213 2448 61 
Q 2172 -91 1784 -91 
Q 1150 -91 751 415 
Q 353 922 353 1747 
Q 353 2572 751 3078 
Q 1150 3584 1784 3584 
Q 2172 3584 2448 3432 
Q 2725 3281 2906 2969 
z
M 947 1747 
Q 947 1113 1208 752 
Q 1469 391 1925 391 
Q 2381 391 2643 752 
Q 2906 1113 2906 1747 
Q 2906 2381 2643 2742 
Q 2381 3103 1925 3103 
Q 1469 3103 1208 2742 
Q 947 2381 947 1747 
z
" transform="scale(0.015625)"/>
        <path id="DejaVuSans-6f" d="M 1959 3097 
Q 1497 3097 1228 2736 
Q 959 2375 959 1747 
Q 959 1119 1226 758 
Q 1494 397 1959 397 
Q 2419 397 2687 759 
Q 2956 1122 2956 1747 
Q 2956 2369 2687 2733 
Q 2419 3097 1959 3097 
z
M 1959 3584 
Q 2709 3584 3137 3096 
Q 3566 2609 3566 1747 
Q 3566 888 3137 398 
Q 2709 -91 1959 -91 
Q 1206 -91 779 398 
Q 353 888 353 1747 
Q 353 2609 779 3096 
Q 1206 3584 1959 3584 
z
" transform="scale(0.015625)"/>
        <path id="DejaVuSans-6d" d="M 3328 2828 
Q 3544 3216 3844 3400 
Q 4144 3584 4550 3584 
Q 5097 3584 5394 3201 
Q 5691 2819 5691 2113 
L 5691 0 
L 5113 0 
L 5113 2094 
Q 5113 2597 4934 2840 
Q 4756 3084 4391 3084 
Q 3944 3084 3684 2787 
Q 3425 2491 3425 1978 
L 3425 0 
L 2847 0 
L 2847 2094 
Q 2847 2600 2669 2842 
Q 2491 3084 2119 3084 
Q 1678 3084 1418 2786 
Q 1159 2488 1159 1978 
L 1159 0 
L 581 0 
L 581 3500 
L 1159 3500 
L 1159 2956 
Q 1356 3278 1631 3431 
Q 1906 3584 2284 3584 
Q 2666 3584 2933 3390 
Q 3200 3197 3328 2828 
z
" transform="scale(0.015625)"/>
       </defs>
       <use xlink:href="#DejaVuSans-72"/>
       <use xlink:href="#DejaVuSans-61" transform="translate(41.113281 0)"/>
       <use xlink:href="#DejaVuSans-6e" transform="translate(102.392578 0)"/>
       <use xlink:href="#DejaVuSans-64" transform="translate(165.771484 0)"/>
       <use xlink:href="#DejaVuSans-6f" transform="translate(229.248047 0)"/>
       <use xlink:href="#DejaVuSans-6d" transform="translate(290.429688 0)"/>
      </g>
      <!-- (control) -->
      <g transform="translate(97.824371 373.311864) scale(0.11 -0.11)">
       <defs>
        <path id="DejaVuSans-28" d="M 1984 4856 
Q 1566 4138 1362 3434 
Q 1159 2731 1159 2009 
Q 1159 1288 1364 580 
Q 1569 -128 1984 -844 
L 1484 -844 
Q 1016 -109 783 600 
Q 550 1309 550 2009 
Q 550 2706 781 3412 
Q 1013 4119 1484 4856 
L 1984 4856 
z
" transform="scale(0.015625)"/>
        <path id="DejaVuSans-63" d="M 3122 3366 
L 3122 2828 
Q 2878 2963 2633 3030 
Q 2388 3097 2138 3097 
Q 1578 3097 1268 2742 
Q 959 2388 959 1747 
Q 959 1106 1268 751 
Q 1578 397 2138 397 
Q 2388 397 2633 464 
Q 2878 531 3122 666 
L 3122 134 
Q 2881 22 2623 -34 
Q 2366 -91 2075 -91 
Q 1284 -91 818 406 
Q 353 903 353 1747 
Q 353 2603 823 3093 
Q 1294 3584 2113 3584 
Q 2378 3584 2631 3529 
Q 2884 3475 3122 3366 
z
" transform="scale(0.015625)"/>
        <path id="DejaVuSans-74" d="M 1172 4494 
L 1172 3500 
L 2356 3500 
L 2356 3053 
L 1172 3053 
L 1172 1153 
Q 1172 725 1289 603 
Q 1406 481 1766 481 
L 2356 481 
L 2356 0 
L 1766 0 
Q 1100 0 847 248 
Q 594 497 594 1153 
L 594 3053 
L 172 3053 
L 172 3500 
L 594 3500 
L 594 4494 
L 1172 4494 
z
" transform="scale(0.015625)"/>
        <path id="DejaVuSans-6c" d="M 603 4863 
L 1178 4863 
L 1178 0 
L 603 0 
L 603 4863 
z
" transform="scale(0.015625)"/>
        <path id="DejaVuSans-29" d="M 513 4856 
L 1013 4856 
Q 1481 4119 1714 3412 
Q 1947 2706 1947 2009 
Q 1947 1309 1714 600 
Q 1481 -109 1013 -844 
L 513 -844 
Q 928 -128 1133 580 
Q 1338 1288 1338 2009 
Q 1338 2731 1133 3434 
Q 928 4138 513 4856 
z
" transform="scale(0.015625)"/>
       </defs>
       <use xlink:href="#DejaVuSans-28"/>
       <use xlink:href="#DejaVuSans-63" transform="translate(39.013672 0)"/>
       <use xlink:href="#DejaVuSans-6f" transform="translate(93.994141 0)"/>
       <use xlink:href="#DejaVuSans-6e" transform="translate(155.175781 0)"/>
       <use xlink:href="#DejaVuSans-74" transform="translate(218.554688 0)"/>
       <use xlink:href="#DejaVuSans-72" transform="translate(257.763672 0)"/>
       <use xlink:href="#DejaVuSans-6f" transform="translate(296.626953 0)"/>
       <use xlink:href="#DejaVuSans-6c" transform="translate(357.808594 0)"/>
       <use xlink:href="#DejaVuSans-29" transform="translate(385.591797 0)"/>
      </g>
     </g>
    </g>
    <g id="xtick_2">
     <g id="line2d_2">
      <g>
       <use xlink:href="#m08113dbec7" x="225.665308" y="345.635989" style="stroke: #000000; stroke-width: 0.8"/>
      </g>
     </g>
     <g id="text_2">
      <!-- CSM -->
      <g transform="translate(213.587652 360.99427) scale(0.11 -0.11)">
       <defs>
        <path id="DejaVuSans-43" d="M 4122 4306 
L 4122 3641 
Q 3803 3938 3442 4084 
Q 3081 4231 2675 4231 
Q 1875 4231 1450 3742 
Q 1025 3253 1025 2328 
Q 1025 1406 1450 917 
Q 1875 428 2675 428 
Q 3081 428 3442 575 
Q 3803 722 4122 1019 
L 4122 359 
Q 3791 134 3420 21 
Q 3050 -91 2638 -91 
Q 1578 -91 968 557 
Q 359 1206 359 2328 
Q 359 3453 968 4101 
Q 1578 4750 2638 4750 
Q 3056 4750 3426 4639 
Q 3797 4528 4122 4306 
z
" transform="scale(0.015625)"/>
        <path id="DejaVuSans-53" d="M 3425 4513 
L 3425 3897 
Q 3066 4069 2747 4153 
Q 2428 4238 2131 4238 
Q 1616 4238 1336 4038 
Q 1056 3838 1056 3469 
Q 1056 3159 1242 3001 
Q 1428 2844 1947 2747 
L 2328 2669 
Q 3034 2534 3370 2195 
Q 3706 1856 3706 1288 
Q 3706 609 3251 259 
Q 2797 -91 1919 -91 
Q 1588 -91 1214 -16 
Q 841 59 441 206 
L 441 856 
Q 825 641 1194 531 
Q 1563 422 1919 422 
Q 2459 422 2753 634 
Q 3047 847 3047 1241 
Q 3047 1584 2836 1778 
Q 2625 1972 2144 2069 
L 1759 2144 
Q 1053 2284 737 2584 
Q 422 2884 422 3419 
Q 422 4038 858 4394 
Q 1294 4750 2059 4750 
Q 2388 4750 2728 4690 
Q 3069 4631 3425 4513 
z
" transform="scale(0.015625)"/>
        <path id="DejaVuSans-4d" d="M 628 4666 
L 1569 4666 
L 2759 1491 
L 3956 4666 
L 4897 4666 
L 4897 0 
L 4281 0 
L 4281 4097 
L 3078 897 
L 2444 897 
L 1241 4097 
L 1241 0 
L 628 0 
L 628 4666 
z
" transform="scale(0.015625)"/>
       </defs>
       <use xlink:href="#DejaVuSans-43"/>
       <use xlink:href="#DejaVuSans-53" transform="translate(69.824219 0)"/>
       <use xlink:href="#DejaVuSans-4d" transform="translate(133.300781 0)"/>
      </g>
      <!-- (continuous) -->
      <g transform="translate(191.127027 373.311864) scale(0.11 -0.11)">
       <defs>
        <path id="DejaVuSans-69" d="M 603 3500 
L 1178 3500 
L 1178 0 
L 603 0 
L 603 3500 
z
M 603 4863 
L 1178 4863 
L 1178 4134 
L 603 4134 
L 603 4863 
z
" transform="scale(0.015625)"/>
        <path id="DejaVuSans-75" d="M 544 1381 
L 544 3500 
L 1119 3500 
L 1119 1403 
Q 1119 906 1312 657 
Q 1506 409 1894 409 
Q 2359 409 2629 706 
Q 2900 1003 2900 1516 
L 2900 3500 
L 3475 3500 
L 3475 0 
L 2900 0 
L 2900 538 
Q 2691 219 2414 64 
Q 2138 -91 1772 -91 
Q 1169 -91 856 284 
Q 544 659 544 1381 
z
M 1991 3584 
L 1991 3584 
z
" transform="scale(0.015625)"/>
        <path id="DejaVuSans-73" d="M 2834 3397 
L 2834 2853 
Q 2591 2978 2328 3040 
Q 2066 3103 1784 3103 
Q 1356 3103 1142 2972 
Q 928 2841 928 2578 
Q 928 2378 1081 2264 
Q 1234 2150 1697 2047 
L 1894 2003 
Q 2506 1872 2764 1633 
Q 3022 1394 3022 966 
Q 3022 478 2636 193 
Q 2250 -91 1575 -91 
Q 1294 -91 989 -36 
Q 684 19 347 128 
L 347 722 
Q 666 556 975 473 
Q 1284 391 1588 391 
Q 1994 391 2212 530 
Q 2431 669 2431 922 
Q 2431 1156 2273 1281 
Q 2116 1406 1581 1522 
L 1381 1569 
Q 847 1681 609 1914 
Q 372 2147 372 2553 
Q 372 3047 722 3315 
Q 1072 3584 1716 3584 
Q 2034 3584 2315 3537 
Q 2597 3491 2834 3397 
z
" transform="scale(0.015625)"/>
       </defs>
       <use xlink:href="#DejaVuSans-28"/>
       <use xlink:href="#DejaVuSans-63" transform="translate(39.013672 0)"/>
       <use xlink:href="#DejaVuSans-6f" transform="translate(93.994141 0)"/>
       <use xlink:href="#DejaVuSans-6e" transform="translate(155.175781 0)"/>
       <use xlink:href="#DejaVuSans-74" transform="translate(218.554688 0)"/>
       <use xlink:href="#DejaVuSans-69" transform="translate(257.763672 0)"/>
       <use xlink:href="#DejaVuSans-6e" transform="translate(285.546875 0)"/>
       <use xlink:href="#DejaVuSans-75" transform="translate(348.925781 0)"/>
       <use xlink:href="#DejaVuSans-6f" transform="translate(412.304688 0)"/>
       <use xlink:href="#DejaVuSans-75" transform="translate(473.486328 0)"/>
       <use xlink:href="#DejaVuSans-73" transform="translate(536.865234 0)"/>
       <use xlink:href="#DejaVuSans-29" transform="translate(588.964844 0)"/>
      </g>
     </g>
    </g>
    <g id="xtick_3">
     <g id="line2d_3">
      <g>
       <use xlink:href="#m08113dbec7" x="330.152729" y="345.635989" style="stroke: #000000; stroke-width: 0.8"/>
      </g>
     </g>
     <g id="text_3">
      <!-- casino -->
      <g transform="translate(312.514057 360.99427) scale(0.11 -0.11)">
       <use xlink:href="#DejaVuSans-63"/>
       <use xlink:href="#DejaVuSans-61" transform="translate(54.980469 0)"/>
       <use xlink:href="#DejaVuSans-73" transform="translate(116.259766 0)"/>
       <use xlink:href="#DejaVuSans-69" transform="translate(168.359375 0)"/>
       <use xlink:href="#DejaVuSans-6e" transform="translate(196.142578 0)"/>
       <use xlink:href="#DejaVuSans-6f" transform="translate(259.521484 0)"/>
      </g>
      <!-- 3 riffle + cut -->
      <g transform="translate(295.561166 373.311864) scale(0.11 -0.11)">
       <defs>
        <path id="DejaVuSans-33" d="M 2597 2516 
Q 3050 2419 3304 2112 
Q 3559 1806 3559 1356 
Q 3559 666 3084 287 
Q 2609 -91 1734 -91 
Q 1441 -91 1130 -33 
Q 819 25 488 141 
L 488 750 
Q 750 597 1062 519 
Q 1375 441 1716 441 
Q 2309 441 2620 675 
Q 2931 909 2931 1356 
Q 2931 1769 2642 2001 
Q 2353 2234 1838 2234 
L 1294 2234 
L 1294 2753 
L 1863 2753 
Q 2328 2753 2575 2939 
Q 2822 3125 2822 3475 
Q 2822 3834 2567 4026 
Q 2313 4219 1838 4219 
Q 1578 4219 1281 4162 
Q 984 4106 628 3988 
L 628 4550 
Q 988 4650 1302 4700 
Q 1616 4750 1894 4750 
Q 2613 4750 3031 4423 
Q 3450 4097 3450 3541 
Q 3450 3153 3228 2886 
Q 3006 2619 2597 2516 
z
" transform="scale(0.015625)"/>
        <path id="DejaVuSans-20" transform="scale(0.015625)"/>
        <path id="DejaVuSans-66" d="M 2375 4863 
L 2375 4384 
L 1825 4384 
Q 1516 4384 1395 4259 
Q 1275 4134 1275 3809 
L 1275 3500 
L 2222 3500 
L 2222 3053 
L 1275 3053 
L 1275 0 
L 697 0 
L 697 3053 
L 147 3053 
L 147 3500 
L 697 3500 
L 697 3744 
Q 697 4328 969 4595 
Q 1241 4863 1831 4863 
L 2375 4863 
z
" transform="scale(0.015625)"/>
        <path id="DejaVuSans-65" d="M 3597 1894 
L 3597 1613 
L 953 1613 
Q 991 1019 1311 708 
Q 1631 397 2203 397 
Q 2534 397 2845 478 
Q 3156 559 3463 722 
L 3463 178 
Q 3153 47 2828 -22 
Q 2503 -91 2169 -91 
Q 1331 -91 842 396 
Q 353 884 353 1716 
Q 353 2575 817 3079 
Q 1281 3584 2069 3584 
Q 2775 3584 3186 3129 
Q 3597 2675 3597 1894 
z
M 3022 2063 
Q 3016 2534 2758 2815 
Q 2500 3097 2075 3097 
Q 1594 3097 1305 2825 
Q 1016 2553 972 2059 
L 3022 2063 
z
" transform="scale(0.015625)"/>
        <path id="DejaVuSans-2b" d="M 2944 4013 
L 2944 2272 
L 4684 2272 
L 4684 1741 
L 2944 1741 
L 2944 0 
L 2419 0 
L 2419 1741 
L 678 1741 
L 678 2272 
L 2419 2272 
L 2419 4013 
L 2944 4013 
z
" transform="scale(0.015625)"/>
       </defs>
       <use xlink:href="#DejaVuSans-33"/>
       <use xlink:href="#DejaVuSans-20" transform="translate(63.623047 0)"/>
       <use xlink:href="#DejaVuSans-72" transform="translate(95.410156 0)"/>
       <use xlink:href="#DejaVuSans-69" transform="translate(136.523438 0)"/>
       <use xlink:href="#DejaVuSans-66" transform="translate(164.306641 0)"/>
       <use xlink:href="#DejaVuSans-66" transform="translate(199.511719 0)"/>
       <use xlink:href="#DejaVuSans-6c" transform="translate(234.716797 0)"/>
       <use xlink:href="#DejaVuSans-65" transform="translate(262.5 0)"/>
       <use xlink:href="#DejaVuSans-20" transform="translate(324.023438 0)"/>
       <use xlink:href="#DejaVuSans-2b" transform="translate(355.810547 0)"/>
       <use xlink:href="#DejaVuSans-20" transform="translate(439.599609 0)"/>
       <use xlink:href="#DejaVuSans-63" transform="translate(471.386719 0)"/>
       <use xlink:href="#DejaVuSans-75" transform="translate(526.367188 0)"/>
       <use xlink:href="#DejaVuSans-74" transform="translate(589.746094 0)"/>
      </g>
     </g>
    </g>
    <g id="xtick_4">
     <g id="line2d_4">
      <g>
       <use xlink:href="#m08113dbec7" x="434.64015" y="345.635989" style="stroke: #000000; stroke-width: 0.8"/>
      </g>
     </g>
     <g id="text_4">
      <!-- casino -->
      <g transform="translate(417.001478 360.99427) scale(0.11 -0.11)">
       <use xlink:href="#DejaVuSans-63"/>
       <use xlink:href="#DejaVuSans-61" transform="translate(54.980469 0)"/>
       <use xlink:href="#DejaVuSans-73" transform="translate(116.259766 0)"/>
       <use xlink:href="#DejaVuSans-69" transform="translate(168.359375 0)"/>
       <use xlink:href="#DejaVuSans-6e" transform="translate(196.142578 0)"/>
       <use xlink:href="#DejaVuSans-6f" transform="translate(259.521484 0)"/>
      </g>
      <!-- 3 riffle, no cut -->
      <g transform="translate(396.058509 373.311864) scale(0.11 -0.11)">
       <defs>
        <path id="DejaVuSans-2c" d="M 750 794 
L 1409 794 
L 1409 256 
L 897 -744 
L 494 -744 
L 750 256 
L 750 794 
z
" transform="scale(0.015625)"/>
       </defs>
       <use xlink:href="#DejaVuSans-33"/>
       <use xlink:href="#DejaVuSans-20" transform="translate(63.623047 0)"/>
       <use xlink:href="#DejaVuSans-72" transform="translate(95.410156 0)"/>
       <use xlink:href="#DejaVuSans-69" transform="translate(136.523438 0)"/>
       <use xlink:href="#DejaVuSans-66" transform="translate(164.306641 0)"/>
       <use xlink:href="#DejaVuSans-66" transform="translate(199.511719 0)"/>
       <use xlink:href="#DejaVuSans-6c" transform="translate(234.716797 0)"/>
       <use xlink:href="#DejaVuSans-65" transform="translate(262.5 0)"/>
       <use xlink:href="#DejaVuSans-2c" transform="translate(324.023438 0)"/>
       <use xlink:href="#DejaVuSans-20" transform="translate(355.810547 0)"/>
       <use xlink:href="#DejaVuSans-6e" transform="translate(387.597656 0)"/>
       <use xlink:href="#DejaVuSans-6f" transform="translate(450.976562 0)"/>
       <use xlink:href="#DejaVuSans-20" transform="translate(512.158203 0)"/>
       <use xlink:href="#DejaVuSans-63" transform="translate(543.945312 0)"/>
       <use xlink:href="#DejaVuSans-75" transform="translate(598.925781 0)"/>
       <use xlink:href="#DejaVuSans-74" transform="translate(662.304688 0)"/>
      </g>
     </g>
    </g>
    <g id="xtick_5">
     <g id="line2d_5">
      <g>
       <use xlink:href="#m08113dbec7" x="539.127571" y="345.635989" style="stroke: #000000; stroke-width: 0.8"/>
      </g>
     </g>
     <g id="text_5">
      <!-- casino -->
      <g transform="translate(521.488899 360.99427) scale(0.11 -0.11)">
       <use xlink:href="#DejaVuSans-63"/>
       <use xlink:href="#DejaVuSans-61" transform="translate(54.980469 0)"/>
       <use xlink:href="#DejaVuSans-73" transform="translate(116.259766 0)"/>
       <use xlink:href="#DejaVuSans-69" transform="translate(168.359375 0)"/>
       <use xlink:href="#DejaVuSans-6e" transform="translate(196.142578 0)"/>
       <use xlink:href="#DejaVuSans-6f" transform="translate(259.521484 0)"/>
      </g>
      <!-- 2 riffle, no cut -->
      <g transform="translate(500.54593 373.311864) scale(0.11 -0.11)">
       <defs>
        <path id="DejaVuSans-32" d="M 1228 531 
L 3431 531 
L 3431 0 
L 469 0 
L 469 531 
Q 828 903 1448 1529 
Q 2069 2156 2228 2338 
Q 2531 2678 2651 2914 
Q 2772 3150 2772 3378 
Q 2772 3750 2511 3984 
Q 2250 4219 1831 4219 
Q 1534 4219 1204 4116 
Q 875 4013 500 3803 
L 500 4441 
Q 881 4594 1212 4672 
Q 1544 4750 1819 4750 
Q 2544 4750 2975 4387 
Q 3406 4025 3406 3419 
Q 3406 3131 3298 2873 
Q 3191 2616 2906 2266 
Q 2828 2175 2409 1742 
Q 1991 1309 1228 531 
z
" transform="scale(0.015625)"/>
       </defs>
       <use xlink:href="#DejaVuSans-32"/>
       <use xlink:href="#DejaVuSans-20" transform="translate(63.623047 0)"/>
       <use xlink:href="#DejaVuSans-72" transform="translate(95.410156 0)"/>
       <use xlink:href="#DejaVuSans-69" transform="translate(136.523438 0)"/>
       <use xlink:href="#DejaVuSans-66" transform="translate(164.306641 0)"/>
       <use xlink:href="#DejaVuSans-66" transform="translate(199.511719 0)"/>
       <use xlink:href="#DejaVuSans-6c" transform="translate(234.716797 0)"/>
       <use xlink:href="#DejaVuSans-65" transform="translate(262.5 0)"/>
       <use xlink:href="#DejaVuSans-2c" transform="translate(324.023438 0)"/>
       <use xlink:href="#DejaVuSans-20" transform="translate(355.810547 0)"/>
       <use xlink:href="#DejaVuSans-6e" transform="translate(387.597656 0)"/>
       <use xlink:href="#DejaVuSans-6f" transform="translate(450.976562 0)"/>
       <use xlink:href="#DejaVuSans-20" transform="translate(512.158203 0)"/>
       <use xlink:href="#DejaVuSans-63" transform="translate(543.945312 0)"/>
       <use xlink:href="#DejaVuSans-75" transform="translate(598.925781 0)"/>
       <use xlink:href="#DejaVuSans-74" transform="translate(662.304688 0)"/>
      </g>
     </g>
    </g>
   </g>
   <g id="matplotlib.axis_2">
    <g id="ytick_1">
     <g id="line2d_6">
      <defs>
       <path id="m44e9b3fb97" d="M 0 0 
L -3.5 0 
" style="stroke: #000000; stroke-width: 0.8"/>
      </defs>
      <g>
       <use xlink:href="#m44e9b3fb97" x="54.305938" y="318.338653" style="stroke: #000000; stroke-width: 0.8"/>
      </g>
     </g>
     <g id="text_6">
      <!-- 0.00 -->
      <g transform="translate(22.81375 322.517794) scale(0.11 -0.11)">
       <defs>
        <path id="DejaVuSans-30" d="M 2034 4250 
Q 1547 4250 1301 3770 
Q 1056 3291 1056 2328 
Q 1056 1369 1301 889 
Q 1547 409 2034 409 
Q 2525 409 2770 889 
Q 3016 1369 3016 2328 
Q 3016 3291 2770 3770 
Q 2525 4250 2034 4250 
z
M 2034 4750 
Q 2819 4750 3233 4129 
Q 3647 3509 3647 2328 
Q 3647 1150 3233 529 
Q 2819 -91 2034 -91 
Q 1250 -91 836 529 
Q 422 1150 422 2328 
Q 422 3509 836 4129 
Q 1250 4750 2034 4750 
z
" transform="scale(0.015625)"/>
        <path id="DejaVuSans-2e" d="M 684 794 
L 1344 794 
L 1344 0 
L 684 0 
L 684 794 
z
" transform="scale(0.015625)"/>
       </defs>
       <use xlink:href="#DejaVuSans-30"/>
       <use xlink:href="#DejaVuSans-2e" transform="translate(63.623047 0)"/>
       <use xlink:href="#DejaVuSans-30" transform="translate(95.410156 0)"/>
       <use xlink:href="#DejaVuSans-30" transform="translate(159.033203 0)"/>
      </g>
     </g>
    </g>
    <g id="ytick_2">
     <g id="line2d_7">
      <g>
       <use xlink:href="#m44e9b3fb97" x="54.305938" y="277.368212" style="stroke: #000000; stroke-width: 0.8"/>
      </g>
     </g>
     <g id="text_7">
      <!-- 0.25 -->
      <g transform="translate(22.81375 281.547353) scale(0.11 -0.11)">
       <defs>
        <path id="DejaVuSans-35" d="M 691 4666 
L 3169 4666 
L 3169 4134 
L 1269 4134 
L 1269 2991 
Q 1406 3038 1543 3061 
Q 1681 3084 1819 3084 
Q 2600 3084 3056 2656 
Q 3513 2228 3513 1497 
Q 3513 744 3044 326 
Q 2575 -91 1722 -91 
Q 1428 -91 1123 -41 
Q 819 9 494 109 
L 494 744 
Q 775 591 1075 516 
Q 1375 441 1709 441 
Q 2250 441 2565 725 
Q 2881 1009 2881 1497 
Q 2881 1984 2565 2268 
Q 2250 2553 1709 2553 
Q 1456 2553 1204 2497 
Q 953 2441 691 2322 
L 691 4666 
z
" transform="scale(0.015625)"/>
       </defs>
       <use xlink:href="#DejaVuSans-30"/>
       <use xlink:href="#DejaVuSans-2e" transform="translate(63.623047 0)"/>
       <use xlink:href="#DejaVuSans-32" transform="translate(95.410156 0)"/>
       <use xlink:href="#DejaVuSans-35" transform="translate(159.033203 0)"/>
      </g>
     </g>
    </g>
    <g id="ytick_3">
     <g id="line2d_8">
      <g>
       <use xlink:href="#m44e9b3fb97" x="54.305938" y="236.397772" style="stroke: #000000; stroke-width: 0.8"/>
      </g>
     </g>
     <g id="text_8">
      <!-- 0.50 -->
      <g transform="translate(22.81375 240.576912) scale(0.11 -0.11)">
       <use xlink:href="#DejaVuSans-30"/>
       <use xlink:href="#DejaVuSans-2e" transform="translate(63.623047 0)"/>
       <use xlink:href="#DejaVuSans-35" transform="translate(95.410156 0)"/>
       <use xlink:href="#DejaVuSans-30" transform="translate(159.033203 0)"/>
      </g>
     </g>
    </g>
    <g id="ytick_4">
     <g id="line2d_9">
      <g>
       <use xlink:href="#m44e9b3fb97" x="54.305938" y="195.427331" style="stroke: #000000; stroke-width: 0.8"/>
      </g>
     </g>
     <g id="text_9">
      <!-- 0.75 -->
      <g transform="translate(22.81375 199.606472) scale(0.11 -0.11)">
       <defs>
        <path id="DejaVuSans-37" d="M 525 4666 
L 3525 4666 
L 3525 4397 
L 1831 0 
L 1172 0 
L 2766 4134 
L 525 4134 
L 525 4666 
z
" transform="scale(0.015625)"/>
       </defs>
       <use xlink:href="#DejaVuSans-30"/>
       <use xlink:href="#DejaVuSans-2e" transform="translate(63.623047 0)"/>
       <use xlink:href="#DejaVuSans-37" transform="translate(95.410156 0)"/>
       <use xlink:href="#DejaVuSans-35" transform="translate(159.033203 0)"/>
      </g>
     </g>
    </g>
    <g id="ytick_5">
     <g id="line2d_10">
      <g>
       <use xlink:href="#m44e9b3fb97" x="54.305938" y="154.45689" style="stroke: #000000; stroke-width: 0.8"/>
      </g>
     </g>
     <g id="text_10">
      <!-- 1.00 -->
      <g transform="translate(22.81375 158.636031) scale(0.11 -0.11)">
       <defs>
        <path id="DejaVuSans-31" d="M 794 531 
L 1825 531 
L 1825 4091 
L 703 3866 
L 703 4441 
L 1819 4666 
L 2450 4666 
L 2450 531 
L 3481 531 
L 3481 0 
L 794 0 
L 794 531 
z
" transform="scale(0.015625)"/>
       </defs>
       <use xlink:href="#DejaVuSans-31"/>
       <use xlink:href="#DejaVuSans-2e" transform="translate(63.623047 0)"/>
       <use xlink:href="#DejaVuSans-30" transform="translate(95.410156 0)"/>
       <use xlink:href="#DejaVuSans-30" transform="translate(159.033203 0)"/>
      </g>
     </g>
    </g>
    <g id="ytick_6">
     <g id="line2d_11">
      <g>
       <use xlink:href="#m44e9b3fb97" x="54.305938" y="113.48645" style="stroke: #000000; stroke-width: 0.8"/>
      </g>
     </g>
     <g id="text_11">
      <!-- 1.25 -->
      <g transform="translate(22.81375 117.66559) scale(0.11 -0.11)">
       <use xlink:href="#DejaVuSans-31"/>
       <use xlink:href="#DejaVuSans-2e" transform="translate(63.623047 0)"/>
       <use xlink:href="#DejaVuSans-32" transform="translate(95.410156 0)"/>
       <use xlink:href="#DejaVuSans-35" transform="translate(159.033203 0)"/>
      </g>
     </g>
    </g>
    <g id="ytick_7">
     <g id="line2d_12">
      <g>
       <use xlink:href="#m44e9b3fb97" x="54.305938" y="72.516009" style="stroke: #000000; stroke-width: 0.8"/>
      </g>
     </g>
     <g id="text_12">
      <!-- 1.50 -->
      <g transform="translate(22.81375 76.69515) scale(0.11 -0.11)">
       <use xlink:href="#DejaVuSans-31"/>
       <use xlink:href="#DejaVuSans-2e" transform="translate(63.623047 0)"/>
       <use xlink:href="#DejaVuSans-35" transform="translate(95.410156 0)"/>
       <use xlink:href="#DejaVuSans-30" transform="translate(159.033203 0)"/>
      </g>
     </g>
    </g>
    <g id="ytick_8">
     <g id="line2d_13">
      <g>
       <use xlink:href="#m44e9b3fb97" x="54.305938" y="31.545568" style="stroke: #000000; stroke-width: 0.8"/>
      </g>
     </g>
     <g id="text_13">
      <!-- 1.75 -->
      <g transform="translate(22.81375 35.724709) scale(0.11 -0.11)">
       <use xlink:href="#DejaVuSans-31"/>
       <use xlink:href="#DejaVuSans-2e" transform="translate(63.623047 0)"/>
       <use xlink:href="#DejaVuSans-37" transform="translate(95.410156 0)"/>
       <use xlink:href="#DejaVuSans-35" transform="translate(159.033203 0)"/>
      </g>
     </g>
    </g>
    <g id="text_14">
     <!-- TRACK − BASIC edge  (% per hand, 95% CI) -->
     <g transform="translate(16.318125 316.279401) rotate(-90) scale(0.12 -0.12)">
      <defs>
       <path id="DejaVuSans-54" d="M -19 4666 
L 3928 4666 
L 3928 4134 
L 2272 4134 
L 2272 0 
L 1638 0 
L 1638 4134 
L -19 4134 
L -19 4666 
z
" transform="scale(0.015625)"/>
       <path id="DejaVuSans-52" d="M 2841 2188 
Q 3044 2119 3236 1894 
Q 3428 1669 3622 1275 
L 4263 0 
L 3584 0 
L 2988 1197 
Q 2756 1666 2539 1819 
Q 2322 1972 1947 1972 
L 1259 1972 
L 1259 0 
L 628 0 
L 628 4666 
L 2053 4666 
Q 2853 4666 3247 4331 
Q 3641 3997 3641 3322 
Q 3641 2881 3436 2590 
Q 3231 2300 2841 2188 
z
M 1259 4147 
L 1259 2491 
L 2053 2491 
Q 2509 2491 2742 2702 
Q 2975 2913 2975 3322 
Q 2975 3731 2742 3939 
Q 2509 4147 2053 4147 
L 1259 4147 
z
" transform="scale(0.015625)"/>
       <path id="DejaVuSans-41" d="M 2188 4044 
L 1331 1722 
L 3047 1722 
L 2188 4044 
z
M 1831 4666 
L 2547 4666 
L 4325 0 
L 3669 0 
L 3244 1197 
L 1141 1197 
L 716 0 
L 50 0 
L 1831 4666 
z
" transform="scale(0.015625)"/>
       <path id="DejaVuSans-4b" d="M 628 4666 
L 1259 4666 
L 1259 2694 
L 3353 4666 
L 4166 4666 
L 1850 2491 
L 4331 0 
L 3500 0 
L 1259 2247 
L 1259 0 
L 628 0 
L 628 4666 
z
" transform="scale(0.015625)"/>
       <path id="DejaVuSans-2212" d="M 678 2272 
L 4684 2272 
L 4684 1741 
L 678 1741 
L 678 2272 
z
" transform="scale(0.015625)"/>
       <path id="DejaVuSans-42" d="M 1259 2228 
L 1259 519 
L 2272 519 
Q 2781 519 3026 730 
Q 3272 941 3272 1375 
Q 3272 1813 3026 2020 
Q 2781 2228 2272 2228 
L 1259 2228 
z
M 1259 4147 
L 1259 2741 
L 2194 2741 
Q 2656 2741 2882 2914 
Q 3109 3088 3109 3444 
Q 3109 3797 2882 3972 
Q 2656 4147 2194 4147 
L 1259 4147 
z
M 628 4666 
L 2241 4666 
Q 2963 4666 3353 4366 
Q 3744 4066 3744 3513 
Q 3744 3084 3544 2831 
Q 3344 2578 2956 2516 
Q 3422 2416 3680 2098 
Q 3938 1781 3938 1306 
Q 3938 681 3513 340 
Q 3088 0 2303 0 
L 628 0 
L 628 4666 
z
" transform="scale(0.015625)"/>
       <path id="DejaVuSans-49" d="M 628 4666 
L 1259 4666 
L 1259 0 
L 628 0 
L 628 4666 
z
" transform="scale(0.015625)"/>
       <path id="DejaVuSans-67" d="M 2906 1791 
Q 2906 2416 2648 2759 
Q 2391 3103 1925 3103 
Q 1463 3103 1205 2759 
Q 947 2416 947 1791 
Q 947 1169 1205 825 
Q 1463 481 1925 481 
Q 2391 481 2648 825 
Q 2906 1169 2906 1791 
z
M 3481 434 
Q 3481 -459 3084 -895 
Q 2688 -1331 1869 -1331 
Q 1566 -1331 1297 -1286 
Q 1028 -1241 775 -1147 
L 775 -588 
Q 1028 -725 1275 -790 
Q 1522 -856 1778 -856 
Q 2344 -856 2625 -561 
Q 2906 -266 2906 331 
L 2906 616 
Q 2728 306 2450 153 
Q 2172 0 1784 0 
Q 1141 0 747 490 
Q 353 981 353 1791 
Q 353 2603 747 3093 
Q 1141 3584 1784 3584 
Q 2172 3584 2450 3431 
Q 2728 3278 2906 2969 
L 2906 3500 
L 3481 3500 
L 3481 434 
z
" transform="scale(0.015625)"/>
       <path id="DejaVuSans-25" d="M 4653 2053 
Q 4381 2053 4226 1822 
Q 4072 1591 4072 1178 
Q 4072 772 4226 539 
Q 4381 306 4653 306 
Q 4919 306 5073 539 
Q 5228 772 5228 1178 
Q 5228 1588 5073 1820 
Q 4919 2053 4653 2053 
z
M 4653 2450 
Q 5147 2450 5437 2106 
Q 5728 1763 5728 1178 
Q 5728 594 5436 251 
Q 5144 -91 4653 -91 
Q 4153 -91 3862 251 
Q 3572 594 3572 1178 
Q 3572 1766 3864 2108 
Q 4156 2450 4653 2450 
z
M 1428 4353 
Q 1159 4353 1004 4120 
Q 850 3888 850 3481 
Q 850 3069 1003 2837 
Q 1156 2606 1428 2606 
Q 1700 2606 1854 2837 
Q 2009 3069 2009 3481 
Q 2009 3884 1853 4118 
Q 1697 4353 1428 4353 
z
M 4250 4750 
L 4750 4750 
L 1831 -91 
L 1331 -91 
L 4250 4750 
z
M 1428 4750 
Q 1922 4750 2215 4408 
Q 2509 4066 2509 3481 
Q 2509 2891 2217 2550 
Q 1925 2209 1428 2209 
Q 931 2209 642 2551 
Q 353 2894 353 3481 
Q 353 4063 643 4406 
Q 934 4750 1428 4750 
z
" transform="scale(0.015625)"/>
       <path id="DejaVuSans-70" d="M 1159 525 
L 1159 -1331 
L 581 -1331 
L 581 3500 
L 1159 3500 
L 1159 2969 
Q 1341 3281 1617 3432 
Q 1894 3584 2278 3584 
Q 2916 3584 3314 3078 
Q 3713 2572 3713 1747 
Q 3713 922 3314 415 
Q 2916 -91 2278 -91 
Q 1894 -91 1617 61 
Q 1341 213 1159 525 
z
M 3116 1747 
Q 3116 2381 2855 2742 
Q 2594 3103 2138 3103 
Q 1681 3103 1420 2742 
Q 1159 2381 1159 1747 
Q 1159 1113 1420 752 
Q 1681 391 2138 391 
Q 2594 391 2855 752 
Q 3116 1113 3116 1747 
z
" transform="scale(0.015625)"/>
       <path id="DejaVuSans-68" d="M 3513 2113 
L 3513 0 
L 2938 0 
L 2938 2094 
Q 2938 2591 2744 2837 
Q 2550 3084 2163 3084 
Q 1697 3084 1428 2787 
Q 1159 2491 1159 1978 
L 1159 0 
L 581 0 
L 581 4863 
L 1159 4863 
L 1159 2956 
Q 1366 3272 1645 3428 
Q 1925 3584 2291 3584 
Q 2894 3584 3203 3211 
Q 3513 2838 3513 2113 
z
" transform="scale(0.015625)"/>
       <path id="DejaVuSans-39" d="M 703 97 
L 703 672 
Q 941 559 1184 500 
Q 1428 441 1663 441 
Q 2288 441 2617 861 
Q 2947 1281 2994 2138 
Q 2813 1869 2534 1725 
Q 2256 1581 1919 1581 
Q 1219 1581 811 2004 
Q 403 2428 403 3163 
Q 403 3881 828 4315 
Q 1253 4750 1959 4750 
Q 2769 4750 3195 4129 
Q 3622 3509 3622 2328 
Q 3622 1225 3098 567 
Q 2575 -91 1691 -91 
Q 1453 -91 1209 -44 
Q 966 3 703 97 
z
M 1959 2075 
Q 2384 2075 2632 2365 
Q 2881 2656 2881 3163 
Q 2881 3666 2632 3958 
Q 2384 4250 1959 4250 
Q 1534 4250 1286 3958 
Q 1038 3666 1038 3163 
Q 1038 2656 1286 2365 
Q 1534 2075 1959 2075 
z
" transform="scale(0.015625)"/>
      </defs>
      <use xlink:href="#DejaVuSans-54"/>
      <use xlink:href="#DejaVuSans-52" transform="translate(61.083984 0)"/>
      <use xlink:href="#DejaVuSans-41" transform="translate(126.566406 0)"/>
      <use xlink:href="#DejaVuSans-43" transform="translate(193.224609 0)"/>
      <use xlink:href="#DejaVuSans-4b" transform="translate(263.048828 0)"/>
      <use xlink:href="#DejaVuSans-20" transform="translate(328.625 0)"/>
      <use xlink:href="#DejaVuSans-2212" transform="translate(360.412109 0)"/>
      <use xlink:href="#DejaVuSans-20" transform="translate(444.201172 0)"/>
      <use xlink:href="#DejaVuSans-42" transform="translate(475.988281 0)"/>
      <use xlink:href="#DejaVuSans-41" transform="translate(544.591797 0)"/>
      <use xlink:href="#DejaVuSans-53" transform="translate(613 0)"/>
      <use xlink:href="#DejaVuSans-49" transform="translate(676.476562 0)"/>
      <use xlink:href="#DejaVuSans-43" transform="translate(705.96875 0)"/>
      <use xlink:href="#DejaVuSans-20" transform="translate(775.792969 0)"/>
      <use xlink:href="#DejaVuSans-65" transform="translate(807.580078 0)"/>
      <use xlink:href="#DejaVuSans-64" transform="translate(869.103516 0)"/>
      <use xlink:href="#DejaVuSans-67" transform="translate(932.580078 0)"/>
      <use xlink:href="#DejaVuSans-65" transform="translate(996.056641 0)"/>
      <use xlink:href="#DejaVuSans-20" transform="translate(1057.580078 0)"/>
      <use xlink:href="#DejaVuSans-20" transform="translate(1089.367188 0)"/>
      <use xlink:href="#DejaVuSans-28" transform="translate(1121.154297 0)"/>
      <use xlink:href="#DejaVuSans-25" transform="translate(1160.167969 0)"/>
      <use xlink:href="#DejaVuSans-20" transform="translate(1255.1875 0)"/>
      <use xlink:href="#DejaVuSans-70" transform="translate(1286.974609 0)"/>
      <use xlink:href="#DejaVuSans-65" transform="translate(1350.451172 0)"/>
      <use xlink:href="#DejaVuSans-72" transform="translate(1411.974609 0)"/>
      <use xlink:href="#DejaVuSans-20" transform="translate(1453.087891 0)"/>
      <use xlink:href="#DejaVuSans-68" transform="translate(1484.875 0)"/>
      <use xlink:href="#DejaVuSans-61" transform="translate(1548.253906 0)"/>
      <use xlink:href="#DejaVuSans-6e" transform="translate(1609.533203 0)"/>
      <use xlink:href="#DejaVuSans-64" transform="translate(1672.912109 0)"/>
      <use xlink:href="#DejaVuSans-2c" transform="translate(1736.388672 0)"/>
      <use xlink:href="#DejaVuSans-20" transform="translate(1768.175781 0)"/>
      <use xlink:href="#DejaVuSans-39" transform="translate(1799.962891 0)"/>
      <use xlink:href="#DejaVuSans-35" transform="translate(1863.585938 0)"/>
      <use xlink:href="#DejaVuSans-25" transform="translate(1927.208984 0)"/>
      <use xlink:href="#DejaVuSans-20" transform="translate(2022.228516 0)"/>
      <use xlink:href="#DejaVuSans-43" transform="translate(2054.015625 0)"/>
      <use xlink:href="#DejaVuSans-49" transform="translate(2123.839844 0)"/>
      <use xlink:href="#DejaVuSans-29" transform="translate(2153.332031 0)"/>
     </g>
    </g>
   </g>
   <g id="line2d_14">
    <path d="M 54.305938 318.338653 
L 605.99952 318.338653 
" clip-path="url(#p49458ae90f)" style="fill: none; stroke: #808080; stroke-width: 0.8; stroke-linecap: square"/>
   </g>
   <g id="LineCollection_1">
    <path d="M 121.177887 331.008799 
L 121.177887 283.322006 
" clip-path="url(#p49458ae90f)" style="fill: none; stroke: #404040; stroke-width: 1.5"/>
    <path d="M 225.665308 313.473724 
L 225.665308 267.353632 
" clip-path="url(#p49458ae90f)" style="fill: none; stroke: #404040; stroke-width: 1.5"/>
    <path d="M 330.152729 250.728107 
L 330.152729 192.915755 
" clip-path="url(#p49458ae90f)" style="fill: none; stroke: #404040; stroke-width: 1.5"/>
    <path d="M 434.64015 207.865909 
L 434.64015 143.629849 
" clip-path="url(#p49458ae90f)" style="fill: none; stroke: #404040; stroke-width: 1.5"/>
    <path d="M 539.127571 108.269207 
L 539.127571 38.465002 
" clip-path="url(#p49458ae90f)" style="fill: none; stroke: #404040; stroke-width: 1.5"/>
   </g>
   <g id="line2d_15">
    <defs>
     <path id="mfebb348efb" d="M 5 0 
L -5 -0 
" style="stroke: #404040"/>
    </defs>
    <g clip-path="url(#p49458ae90f)">
     <use xlink:href="#mfebb348efb" x="121.177887" y="331.008799" style="fill: #404040; stroke: #404040"/>
     <use xlink:href="#mfebb348efb" x="225.665308" y="313.473724" style="fill: #404040; stroke: #404040"/>
     <use xlink:href="#mfebb348efb" x="330.152729" y="250.728107" style="fill: #404040; stroke: #404040"/>
     <use xlink:href="#mfebb348efb" x="434.64015" y="207.865909" style="fill: #404040; stroke: #404040"/>
     <use xlink:href="#mfebb348efb" x="539.127571" y="108.269207" style="fill: #404040; stroke: #404040"/>
    </g>
   </g>
   <g id="line2d_16">
    <g clip-path="url(#p49458ae90f)">
     <use xlink:href="#mfebb348efb" x="121.177887" y="283.322006" style="fill: #404040; stroke: #404040"/>
     <use xlink:href="#mfebb348efb" x="225.665308" y="267.353632" style="fill: #404040; stroke: #404040"/>
     <use xlink:href="#mfebb348efb" x="330.152729" y="192.915755" style="fill: #404040; stroke: #404040"/>
     <use xlink:href="#mfebb348efb" x="434.64015" y="143.629849" style="fill: #404040; stroke: #404040"/>
     <use xlink:href="#mfebb348efb" x="539.127571" y="38.465002" style="fill: #404040; stroke: #404040"/>
    </g>
   </g>
   <g id="patch_8">
    <path d="M 54.305938 345.635989 
L 54.305938 23.837812 
" style="fill: none; stroke: #000000; stroke-width: 0.8; stroke-linejoin: miter; stroke-linecap: square"/>
   </g>
   <g id="patch_9">
    <path d="M 605.99952 345.635989 
L 605.99952 23.837812 
" style="fill: none; stroke: #000000; stroke-width: 0.8; stroke-linejoin: miter; stroke-linecap: square"/>
   </g>
   <g id="patch_10">
    <path d="M 54.305938 345.635989 
L 605.99952 345.635989 
" style="fill: none; stroke: #000000; stroke-width: 0.8; stroke-linejoin: miter; stroke-linecap: square"/>
   </g>
   <g id="patch_11">
    <path d="M 54.305938 23.837812 
L 605.99952 23.837812 
" style="fill: none; stroke: #000000; stroke-width: 0.8; stroke-linejoin: miter; stroke-linecap: square"/>
   </g>
   <g id="text_15">
    <!-- Shuffle tracking: edge gained over basic strategy -->
    <g transform="translate(156.961791 17.837812) scale(0.14 -0.14)">
     <defs>
      <path id="DejaVuSans-6b" d="M 581 4863 
L 1159 4863 
L 1159 1991 
L 2875 3500 
L 3609 3500 
L 1753 1863 
L 3688 0 
L 2938 0 
L 1159 1709 
L 1159 0 
L 581 0 
L 581 4863 
z
" transform="scale(0.015625)"/>
      <path id="DejaVuSans-3a" d="M 750 794 
L 1409 794 
L 1409 0 
L 750 0 
L 750 794 
z
M 750 3309 
L 1409 3309 
L 1409 2516 
L 750 2516 
L 750 3309 
z
" transform="scale(0.015625)"/>
      <path id="DejaVuSans-76" d="M 191 3500 
L 800 3500 
L 1894 563 
L 2988 3500 
L 3597 3500 
L 2284 0 
L 1503 0 
L 191 3500 
z
" transform="scale(0.015625)"/>
      <path id="DejaVuSans-62" d="M 3116 1747 
Q 3116 2381 2855 2742 
Q 2594 3103 2138 3103 
Q 1681 3103 1420 2742 
Q 1159 2381 1159 1747 
Q 1159 1113 1420 752 
Q 1681 391 2138 391 
Q 2594 391 2855 752 
Q 3116 1113 3116 1747 
z
M 1159 2969 
Q 1341 3281 1617 3432 
Q 1894 3584 2278 3584 
Q 2916 3584 3314 3078 
Q 3713 2572 3713 1747 
Q 3713 922 3314 415 
Q 2916 -91 2278 -91 
Q 1894 -91 1617 61 
Q 1341 213 1159 525 
L 1159 0 
L 581 0 
L 581 4863 
L 1159 4863 
L 1159 2969 
z
" transform="scale(0.015625)"/>
      <path id="DejaVuSans-79" d="M 2059 -325 
Q 1816 -950 1584 -1140 
Q 1353 -1331 966 -1331 
L 506 -1331 
L 506 -850 
L 844 -850 
Q 1081 -850 1212 -737 
Q 1344 -625 1503 -206 
L 1606 56 
L 191 3500 
L 800 3500 
L 1894 763 
L 2988 3500 
L 3597 3500 
L 2059 -325 
z
" transform="scale(0.015625)"/>
     </defs>
     <use xlink:href="#DejaVuSans-53"/>
     <use xlink:href="#DejaVuSans-68" transform="translate(63.476562 0)"/>
     <use xlink:href="#DejaVuSans-75" transform="translate(126.855469 0)"/>
     <use xlink:href="#DejaVuSans-66" transform="translate(190.234375 0)"/>
     <use xlink:href="#DejaVuSans-66" transform="translate(225.439453 0)"/>
     <use xlink:href="#DejaVuSans-6c" transform="translate(260.644531 0)"/>
     <use xlink:href="#DejaVuSans-65" transform="translate(288.427734 0)"/>
     <use xlink:href="#DejaVuSans-20" transform="translate(349.951172 0)"/>
     <use xlink:href="#DejaVuSans-74" transform="translate(381.738281 0)"/>
     <use xlink:href="#DejaVuSans-72" transform="translate(420.947266 0)"/>
     <use xlink:href="#DejaVuSans-61" transform="translate(462.060547 0)"/>
     <use xlink:href="#DejaVuSans-63" transform="translate(523.339844 0)"/>
     <use xlink:href="#DejaVuSans-6b" transform="translate(578.320312 0)"/>
     <use xlink:href="#DejaVuSans-69" transform="translate(636.230469 0)"/>
     <use xlink:href="#DejaVuSans-6e" transform="translate(664.013672 0)"/>
     <use xlink:href="#DejaVuSans-67" transform="translate(727.392578 0)"/>
     <use xlink:href="#DejaVuSans-3a" transform="translate(790.869141 0)"/>
     <use xlink:href="#DejaVuSans-20" transform="translate(824.560547 0)"/>
     <use xlink:href="#DejaVuSans-65" transform="translate(856.347656 0)"/>
     <use xlink:href="#DejaVuSans-64" transform="translate(917.871094 0)"/>
     <use xlink:href="#DejaVuSans-67" transform="translate(981.347656 0)"/>
     <use xlink:href="#DejaVuSans-65" transform="translate(1044.824219 0)"/>
     <use xlink:href="#DejaVuSans-20" transform="translate(1106.347656 0)"/>
     <use xlink:href="#DejaVuSans-67" transform="translate(1138.134766 0)"/>
     <use xlink:href="#DejaVuSans-61" transform="translate(1201.611328 0)"/>
     <use xlink:href="#DejaVuSans-69" transform="translate(1262.890625 0)"/>
     <use xlink:href="#DejaVuSans-6e" transform="translate(1290.673828 0)"/>
     <use xlink:href="#DejaVuSans-65" transform="translate(1354.052734 0)"/>
     <use xlink:href="#DejaVuSans-64" transform="translate(1415.576172 0)"/>
     <use xlink:href="#DejaVuSans-20" transform="translate(1479.052734 0)"/>
     <use xlink:href="#DejaVuSans-6f" transform="translate(1510.839844 0)"/>
     <use xlink:href="#DejaVuSans-76" transform="translate(1572.021484 0)"/>
     <use xlink:href="#DejaVuSans-65" transform="translate(1631.201172 0)"/>
     <use xlink:href="#DejaVuSans-72" transform="translate(1692.724609 0)"/>
     <use xlink:href="#DejaVuSans-20" transform="translate(1733.837891 0)"/>
     <use xlink:href="#DejaVuSans-62" transform="translate(1765.625 0)"/>
     <use xlink:href="#DejaVuSans-61" transform="translate(1829.101562 0)"/>
     <use xlink:href="#DejaVuSans-73" transform="translate(1890.380859 0)"/>
     <use xlink:href="#DejaVuSans-69" transform="translate(1942.480469 0)"/>
     <use xlink:href="#DejaVuSans-63" transform="translate(1970.263672 0)"/>
     <use xlink:href="#DejaVuSans-20" transform="translate(2025.244141 0)"/>
     <use xlink:href="#DejaVuSans-73" transform="translate(2057.03125 0)"/>
     <use xlink:href="#DejaVuSans-74" transform="translate(2109.130859 0)"/>
     <use xlink:href="#DejaVuSans-72" transform="translate(2148.339844 0)"/>
     <use xlink:href="#DejaVuSans-61" transform="translate(2189.453125 0)"/>
     <use xlink:href="#DejaVuSans-74" transform="translate(2250.732422 0)"/>
     <use xlink:href="#DejaVuSans-65" transform="translate(2289.941406 0)"/>
     <use xlink:href="#DejaVuSans-67" transform="translate(2351.464844 0)"/>
     <use xlink:href="#DejaVuSans-79" transform="translate(2414.941406 0)"/>
    </g>
   </g>
  </g>
 </g>
 <defs>
  <clipPath id="p49458ae90f">
   <rect x="54.305938" y="23.837812" width="551.693582" height="321.798176"/>
  </clipPath>
 </defs>
</svg>
