<?xml version="1.0" encoding="utf-8" standalone="no"?>
<!DOCTYPE svg PUBLIC "-//W3C//DTD SVG 1.1//EN"
  "http://www.w3.org/Graphics/SVG/1.1/DTD/svg11.dtd">
<svg xmlns:xlink="http://www.w3.org/1999/xlink" width="627.59952pt" height="382.79952pt" viewBox="0 0 627.59952 382.79952" xmlns="http://www.w3.org/2000/svg" version="1.1">
 <metadata>
  <rdf:RDF xmlns:dc="http://purl.org/dc/elements/1.1/" xmlns:cc="http://creativecommons.org/ns#" xmlns:rdf="http://www.w3.org/1999/02/22-rdf-syntax-ns#">
   <cc:Work>
    <dc:type rdf:resource="http://purl.org/dc/dcmitype/StillImage"/>
    <dc:date>2026-06-12T22:44:04.261064</dc:date>
    <dc:format>image/svg+xml</dc:format>
    <dc:creator>
     <cc:Agent>
      <dc:title>Matplotlib v3.10.1, https://matplotlib.org/</dc:title>
     </cc:Agent>
    </dc:creator>
   </cc:Work>
  </rdf:RDF>
 </metadata>
 <defs>
  <style type="text/css">*{stroke-linejoin: round; stroke-linecap: butt}</style>
 </defs>
 <g id="figure_1">
  <g id="patch_1">
   <path d="M 0 382.79952 
L 627.59952 382.79952 
L 627.59952 0 
L 0 0 
z
" style="fill: #ffffff"/>
  </g>
  <g id="axes_1">
   <g id="patch_2">
    <path d="M 47.307188 342.339832 
L 620.39952 342.339832 
L 620.39952 23.837812 
L 47.307188 23.837812 
z
" style="fill: #ffffff"/>
   </g>
   <g id="FillBetweenPolyCollection_1">
    <defs>
     <path id="m17f245f064" d="M 73.356839 -79.436833 
L 73.356839 -79.070358 
L 105.918903 -61.678924 
L 138.480968 -63.610151 
L 171.043032 -64.878543 
L 203.605096 -67.534482 
L 236.167161 -72.301079 
L 268.729225 -74.457768 
L 301.291289 -72.091231 
L 333.853354 -129.311524 
L 366.415418 -69.524718 
L 398.977482 -70.275511 
L 431.539547 -71.245553 
L 464.101611 -64.598251 
L 496.663675 -64.081886 
L 529.22574 -60.515307 
L 561.787804 -62.181586 
L 594.349869 -73.90169 
L 594.349869 -74.404026 
L 594.349869 -74.404026 
L 561.787804 -62.276291 
L 529.22574 -60.675029 
L 496.663675 -64.320349 
L 464.101611 -64.77252 
L 431.539547 -71.545011 
L 398.977482 -70.459991 
L 366.415418 -69.72975 
L 333.853354 -129.769195 
L 301.291289 -72.370021 
L 268.729225 -74.867878 
L 236.167161 -72.619105 
L 203.605096 -67.754635 
L 171.043032 -65.13647 
L 138.480968 -63.793146 
L 105.918903 -61.765537 
L 73.356839 -79.436833 
z
" style="stroke: #c0392b; stroke-opacity: 0.18"/>
    </defs>
    <g clip-path="url(#pd472322051)">
     <use xlink:href="#m17f245f064" x="0" y="382.79952" style="fill: #c0392b; fill-opacity: 0.18; stroke: #c0392b; stroke-opacity: 0.18"/>
    </g>
   </g>
   <g id="FillBetweenPolyCollection_2">
    <defs>
     <path id="mfbd440a61e" d="M 73.356839 -67.713137 
L 73.356839 -67.080855 
L 105.918903 -59.375132 
L 138.480968 -61.716508 
L 171.043032 -63.924052 
L 203.605096 -67.358585 
L 236.167161 -72.363635 
L 268.729225 -80.636161 
L 301.291289 -93.020367 
L 333.853354 -103.632196 
L 366.415418 -89.569171 
L 398.977482 -77.637181 
L 431.539547 -70.870409 
L 464.101611 -65.92893 
L 496.663675 -62.840113 
L 529.22574 -60.177148 
L 561.787804 -59.406428 
L 594.349869 -64.506321 
L 594.349869 -65.026596 
L 594.349869 -65.026596 
L 561.787804 -59.75201 
L 529.22574 -60.411653 
L 496.663675 -63.125582 
L 464.101611 -66.256241 
L 431.539547 -71.147064 
L 398.977482 -78.149713 
L 366.415418 -90.286342 
L 333.853354 -104.138571 
L 301.291289 -93.486047 
L 268.729225 -81.083557 
L 236.167161 -72.80194 
L 203.605096 -67.75029 
L 171.043032 -64.181397 
L 138.480968 -62.029807 
L 105.918903 -59.571212 
L 73.356839 -67.713137 
z
" style="stroke: #e67e22; stroke-opacity: 0.18"/>
    </defs>
    <g clip-path="url(#pd472322051)">
     <use xlink:href="#mfbd440a61e" x="0" y="382.79952" style="fill: #e67e22; fill-opacity: 0.18; stroke: #e67e22; stroke-opacity: 0.18"/>
    </g>
   </g>
   <g id="FillBetweenPolyCollection_3">
    <defs>
     <path id="m8795d4ca44" d="M 73.356839 -57.111772 
L 73.356839 -56.897791 
L 105.918903 -56.477985 
L 138.480968 -57.901286 
L 171.043032 -59.759469 
L 203.605096 -63.615012 
L 236.167161 -70.155985 
L 268.729225 -81.696695 
L 301.291289 -104.380812 
L 333.853354 -130.634787 
L 366.415418 -100.400825 
L 398.977482 -78.755394 
L 431.539547 -67.92309 
L 464.101611 -62.297522 
L 496.663675 -58.988059 
L 529.22574 -57.071596 
L 561.787804 -56.128753 
L 594.349869 -56.309211 
L 594.349869 -56.427068 
L 594.349869 -56.427068 
L 561.787804 -56.312188 
L 529.22574 -57.333923 
L 496.663675 -59.236589 
L 464.101611 -62.758994 
L 431.539547 -68.632073 
L 398.977482 -79.554904 
L 366.415418 -101.174354 
L 333.853354 -131.77283 
L 301.291289 -105.380593 
L 268.729225 -82.398035 
L 236.167161 -70.504234 
L 203.605096 -64.014855 
L 171.043032 -60.150344 
L 138.480968 -58.177092 
L 105.918903 -56.620228 
L 73.356839 -57.111772 
z
" style="stroke: #2980b9; stroke-opacity: 0.18"/>
    </defs>
    <g clip-path="url(#pd472322051)">
     <use xlink:href="#m8795d4ca44" x="0" y="382.79952" style="fill: #2980b9; fill-opacity: 0.18; stroke: #2980b9; stroke-opacity: 0.18"/>
    </g>
   </g>
   <g id="FillBetweenPolyCollection_4">
    <defs>
     <path id="mf12d5b746b" d="M 73.356839 -56.054289 
L 73.356839 -55.884287 
L 105.918903 -55.892388 
L 138.480968 -57.006594 
L 171.043032 -58.824168 
L 203.605096 -62.293452 
L 236.167161 -68.730662 
L 268.729225 -80.945432 
L 301.291289 -105.950536 
L 333.853354 -141.00212 
L 366.415418 -101.800816 
L 398.977482 -77.893088 
L 431.539547 -66.632357 
L 464.101611 -60.958264 
L 496.663675 -57.9008 
L 529.22574 -56.32069 
L 561.787804 -55.617921 
L 594.349869 -55.547842 
L 594.349869 -55.658903 
L 594.349869 -55.658903 
L 561.787804 -55.758933 
L 529.22574 -56.477842 
L 496.663675 -58.087819 
L 464.101611 -61.233182 
L 431.539547 -67.209748 
L 398.977482 -78.878267 
L 366.415418 -103.295258 
L 333.853354 -142.398399 
L 301.291289 -106.882966 
L 268.729225 -81.687084 
L 236.167161 -69.049286 
L 203.605096 -62.621186 
L 171.043032 -59.187663 
L 138.480968 -57.189727 
L 105.918903 -56.082382 
L 73.356839 -56.054289 
z
" style="stroke: #34495e; stroke-opacity: 0.18"/>
    </defs>
    <g clip-path="url(#pd472322051)">
     <use xlink:href="#mf12d5b746b" x="0" y="382.79952" style="fill: #34495e; fill-opacity: 0.18; stroke: #34495e; stroke-opacity: 0.18"/>
    </g>
   </g>
   <g id="FillBetweenPolyCollection_5">
    <defs>
     <path id="mb4df8cab6b" d="M 73.356839 -54.937052 
L 73.356839 -54.937052 
L 105.918903 -54.937052 
L 138.480968 -54.937052 
L 171.043032 -54.937052 
L 203.605096 -54.937052 
L 236.167161 -54.937052 
L 268.729225 -54.937052 
L 301.291289 -54.937052 
L 333.853354 -344.484343 
L 366.415418 -54.937052 
L 398.977482 -54.937052 
L 431.539547 -54.937052 
L 464.101611 -54.937052 
L 496.663675 -54.937052 
L 529.22574 -54.937052 
L 561.787804 -54.937052 
L 594.349869 -54.937052 
L 594.349869 -54.937052 
L 594.349869 -54.937052 
L 561.787804 -54.937052 
L 529.22574 -54.937052 
L 496.663675 -54.937052 
L 464.101611 -54.937052 
L 431.539547 -54.937052 
L 398.977482 -54.937052 
L 366.415418 -54.937052 
L 333.853354 -344.484343 
L 301.291289 -54.937052 
L 268.729225 -54.937052 
L 236.167161 -54.937052 
L 203.605096 -54.937052 
L 171.043032 -54.937052 
L 138.480968 -54.937052 
L 105.918903 -54.937052 
L 73.356839 -54.937052 
z
" style="stroke: #7f8c8d; stroke-opacity: 0.18"/>
    </defs>
    <g clip-path="url(#pd472322051)">
     <use xlink:href="#mb4df8cab6b" x="0" y="382.79952" style="fill: #7f8c8d; fill-opacity: 0.18; stroke: #7f8c8d; stroke-opacity: 0.18"/>
    </g>
   </g>
   <g id="matplotlib.axis_1">
    <g id="xtick_1">
     <g id="line2d_1">
      <defs>
       <path id="m24e073554d" d="M 0 0 
L 0 3.5 
" style="stroke: #000000; stroke-width: 0.8"/>
      </defs>
      <g>
       <use xlink:href="#m24e073554d" x="73.356839" y="342.339832" style="stroke: #000000; stroke-width: 0.8"/>
      </g>
     </g>
     <g id="text_1">
      <!-- −8 -->
      <g transform="translate(65.248636 357.698114) scale(0.11 -0.11)">
       <defs>
        <path id="DejaVuSans-2212" d="M 678 2272 
L 4684 2272 
L 4684 1741 
L 678 1741 
L 678 2272 
z
" transform="scale(0.015625)"/>
        <path id="DejaVuSans-38" d="M 2034 2216 
Q 1584 2216 1326 1975 
Q 1069 1734 1069 1313 
Q 1069 891 1326 650 
Q 1584 409 2034 409 
Q 2484 409 2743 651 
Q 3003 894 3003 1313 
Q 3003 1734 2745 1975 
Q 2488 2216 2034 2216 
z
M 1403 2484 
Q 997 2584 770 2862 
Q 544 3141 544 3541 
Q 544 4100 942 4425 
Q 1341 4750 2034 4750 
Q 2731 4750 3128 4425 
Q 3525 4100 3525 3541 
Q 3525 3141 3298 2862 
Q 3072 2584 2669 2484 
Q 3125 2378 3379 2068 
Q 3634 1759 3634 1313 
Q 3634 634 3220 271 
Q 2806 -91 2034 -91 
Q 1263 -91 848 271 
Q 434 634 434 1313 
Q 434 1759 690 2068 
Q 947 2378 1403 2484 
z
M 1172 3481 
Q 1172 3119 1398 2916 
Q 1625 2713 2034 2713 
Q 2441 2713 2670 2916 
Q 2900 3119 2900 3481 
Q 2900 3844 2670 4047 
Q 2441 4250 2034 4250 
Q 1625 4250 1398 4047 
Q 1172 3844 1172 3481 
z
" transform="scale(0.015625)"/>
       </defs>
       <use xlink:href="#DejaVuSans-2212"/>
       <use xlink:href="#DejaVuSans-38" transform="translate(83.789062 0)"/>
      </g>
     </g>
    </g>
    <g id="xtick_2">
     <g id="line2d_2">
      <g>
       <use xlink:href="#m24e073554d" x="105.918903" y="342.339832" style="stroke: #000000; stroke-width: 0.8"/>
      </g>
     </g>
     <g id="text_2">
      <!-- −7 -->
      <g transform="translate(97.8107 357.698114) scale(0.11 -0.11)">
       <defs>
        <path id="DejaVuSans-37" d="M 525 4666 
L 3525 4666 
L 3525 4397 
L 1831 0 
L 1172 0 
L 2766 4134 
L 525 4134 
L 525 4666 
z
" transform="scale(0.015625)"/>
       </defs>
       <use xlink:href="#DejaVuSans-2212"/>
       <use xlink:href="#DejaVuSans-37" transform="translate(83.789062 0)"/>
      </g>
     </g>
    </g>
    <g id="xtick_3">
     <g id="line2d_3">
      <g>
       <use xlink:href="#m24e073554d" x="138.480968" y="342.339832" style="stroke: #000000; stroke-width: 0.8"/>
      </g>
     </g>
     <g id="text_3">
      <!-- −6 -->
      <g transform="translate(130.372765 357.698114) scale(0.11 -0.11)">
       <defs>
        <path id="DejaVuSans-36" d="M 2113 2584 
Q 1688 2584 1439 2293 
Q 1191 2003 1191 1497 
Q 1191 994 1439 701 
Q 1688 409 2113 409 
Q 2538 409 2786 701 
Q 3034 994 3034 1497 
Q 3034 2003 2786 2293 
Q 2538 2584 2113 2584 
z
M 3366 4563 
L 3366 3988 
Q 3128 4100 2886 4159 
Q 2644 4219 2406 4219 
Q 1781 4219 1451 3797 
Q 1122 3375 1075 2522 
Q 1259 2794 1537 2939 
Q 1816 3084 2150 3084 
Q 2853 3084 3261 2657 
Q 3669 2231 3669 1497 
Q 3669 778 3244 343 
Q 2819 -91 2113 -91 
Q 1303 -91 875 529 
Q 447 1150 447 2328 
Q 447 3434 972 4092 
Q 1497 4750 2381 4750 
Q 2619 4750 2861 4703 
Q 3103 4656 3366 4563 
z
" transform="scale(0.015625)"/>
       </defs>
       <use xlink:href="#DejaVuSans-2212"/>
       <use xlink:href="#DejaVuSans-36" transform="translate(83.789062 0)"/>
      </g>
     </g>
    </g>
    <g id="xtick_4">
     <g id="line2d_4">
      <g>
       <use xlink:href="#m24e073554d" x="171.043032" y="342.339832" style="stroke: #000000; stroke-width: 0.8"/>
      </g>
     </g>
     <g id="text_4">
      <!-- −5 -->
      <g transform="translate(162.934829 357.698114) scale(0.11 -0.11)">
       <defs>
        <path id="DejaVuSans-35" d="M 691 4666 
L 3169 4666 
L 3169 4134 
L 1269 4134 
L 1269 2991 
Q 1406 3038 1543 3061 
Q 1681 3084 1819 3084 
Q 2600 3084 3056 2656 
Q 3513 2228 3513 1497 
Q 3513 744 3044 326 
Q 2575 -91 1722 -91 
Q 1428 -91 1123 -41 
Q 819 9 494 109 
L 494 744 
Q 775 591 1075 516 
Q 1375 441 1709 441 
Q 2250 441 2565 725 
Q 2881 1009 2881 1497 
Q 2881 1984 2565 2268 
Q 2250 2553 1709 2553 
Q 1456 2553 1204 2497 
Q 953 2441 691 2322 
L 691 4666 
z
" transform="scale(0.015625)"/>
       </defs>
       <use xlink:href="#DejaVuSans-2212"/>
       <use xlink:href="#DejaVuSans-35" transform="translate(83.789062 0)"/>
      </g>
     </g>
    </g>
    <g id="xtick_5">
     <g id="line2d_5">
      <g>
       <use xlink:href="#m24e073554d" x="203.605096" y="342.339832" style="stroke: #000000; stroke-width: 0.8"/>
      </g>
     </g>
     <g id="text_5">
      <!-- −4 -->
      <g transform="translate(195.496893 357.698114) scale(0.11 -0.11)">
       <defs>
        <path id="DejaVuSans-34" d="M 2419 4116 
L 825 1625 
L 2419 1625 
L 2419 4116 
z
M 2253 4666 
L 3047 4666 
L 3047 1625 
L 3713 1625 
L 3713 1100 
L 3047 1100 
L 3047 0 
L 2419 0 
L 2419 1100 
L 313 1100 
L 313 1709 
L 2253 4666 
z
" transform="scale(0.015625)"/>
       </defs>
       <use xlink:href="#DejaVuSans-2212"/>
       <use xlink:href="#DejaVuSans-34" transform="translate(83.789062 0)"/>
      </g>
     </g>
    </g>
    <g id="xtick_6">
     <g id="line2d_6">
      <g>
       <use xlink:href="#m24e073554d" x="236.167161" y="342.339832" style="stroke: #000000; stroke-width: 0.8"/>
      </g>
     </g>
     <g id="text_6">
      <!-- −3 -->
      <g transform="translate(228.058958 357.698114) scale(0.11 -0.11)">
       <defs>
        <path id="DejaVuSans-33" d="M 2597 2516 
Q 3050 2419 3304 2112 
Q 3559 1806 3559 1356 
Q 3559 666 3084 287 
Q 2609 -91 1734 -91 
Q 1441 -91 1130 -33 
Q 819 25 488 141 
L 488 750 
Q 750 597 1062 519 
Q 1375 441 1716 441 
Q 2309 441 2620 675 
Q 2931 909 2931 1356 
Q 2931 1769 2642 2001 
Q 2353 2234 1838 2234 
L 1294 2234 
L 1294 2753 
L 1863 2753 
Q 2328 2753 2575 2939 
Q 2822 3125 2822 3475 
Q 2822 3834 2567 4026 
Q 2313 4219 1838 4219 
Q 1578 4219 1281 4162 
Q 984 4106 628 3988 
L 628 4550 
Q 988 4650 1302 4700 
Q 1616 4750 1894 4750 
Q 2613 4750 3031 4423 
Q 3450 4097 3450 3541 
Q 3450 3153 3228 2886 
Q 3006 2619 2597 2516 
z
" transform="scale(0.015625)"/>
       </defs>
       <use xlink:href="#DejaVuSans-2212"/>
       <use xlink:href="#DejaVuSans-33" transform="translate(83.789062 0)"/>
      </g>
     </g>
    </g>
    <g id="xtick_7">
     <g id="line2d_7">
      <g>
       <use xlink:href="#m24e073554d" x="268.729225" y="342.339832" style="stroke: #000000; stroke-width: 0.8"/>
      </g>
     </g>
     <g id="text_7">
      <!-- −2 -->
      <g transform="translate(260.621022 357.698114) scale(0.11 -0.11)">
       <defs>
        <path id="DejaVuSans-32" d="M 1228 531 
L 3431 531 
L 3431 0 
L 469 0 
L 469 531 
Q 828 903 1448 1529 
Q 2069 2156 2228 2338 
Q 2531 2678 2651 2914 
Q 2772 3150 2772 3378 
Q 2772 3750 2511 3984 
Q 2250 4219 1831 4219 
Q 1534 4219 1204 4116 
Q 875 4013 500 3803 
L 500 4441 
Q 881 4594 1212 4672 
Q 1544 4750 1819 4750 
Q 2544 4750 2975 4387 
Q 3406 4025 3406 3419 
Q 3406 3131 3298 2873 
Q 3191 2616 2906 2266 
Q 2828 2175 2409 1742 
Q 1991 1309 1228 531 
z
" transform="scale(0.015625)"/>
       </defs>
       <use xlink:href="#DejaVuSans-2212"/>
       <use xlink:href="#DejaVuSans-32" transform="translate(83.789062 0)"/>
      </g>
     </g>
    </g>
    <g id="xtick_8">
     <g id="line2d_8">
      <g>
       <use xlink:href="#m24e073554d" x="301.291289" y="342.339832" style="stroke: #000000; stroke-width: 0.8"/>
      </g>
     </g>
     <g id="text_8">
      <!-- −1 -->
      <g transform="translate(293.183086 357.698114) scale(0.11 -0.11)">
       <defs>
        <path id="DejaVuSans-31" d="M 794 531 
L 1825 531 
L 1825 4091 
L 703 3866 
L 703 4441 
L 1819 4666 
L 2450 4666 
L 2450 531 
L 3481 531 
L 3481 0 
L 794 0 
L 794 531 
z
" transform="scale(0.015625)"/>
       </defs>
       <use xlink:href="#DejaVuSans-2212"/>
       <use xlink:href="#DejaVuSans-31" transform="translate(83.789062 0)"/>
      </g>
     </g>
    </g>
    <g id="xtick_9">
     <g id="line2d_9">
      <g>
       <use xlink:href="#m24e073554d" x="333.853354" y="342.339832" style="stroke: #000000; stroke-width: 0.8"/>
      </g>
     </g>
     <g id="text_9">
      <!-- 0 -->
      <g transform="translate(330.353979 357.698114) scale(0.11 -0.11)">
       <defs>
        <path id="DejaVuSans-30" d="M 2034 4250 
Q 1547 4250 1301 3770 
Q 1056 3291 1056 2328 
Q 1056 1369 1301 889 
Q 1547 409 2034 409 
Q 2525 409 2770 889 
Q 3016 1369 3016 2328 
Q 3016 3291 2770 3770 
Q 2525 4250 2034 4250 
z
M 2034 4750 
Q 2819 4750 3233 4129 
Q 3647 3509 3647 2328 
Q 3647 1150 3233 529 
Q 2819 -91 2034 -91 
Q 1250 -91 836 529 
Q 422 1150 422 2328 
Q 422 3509 836 4129 
Q 1250 4750 2034 4750 
z
" transform="scale(0.015625)"/>
       </defs>
       <use xlink:href="#DejaVuSans-30"/>
      </g>
     </g>
    </g>
    <g id="xtick_10">
     <g id="line2d_10">
      <g>
       <use xlink:href="#m24e073554d" x="366.415418" y="342.339832" style="stroke: #000000; stroke-width: 0.8"/>
      </g>
     </g>
     <g id="text_10">
      <!-- 1 -->
      <g transform="translate(362.916043 357.698114) scale(0.11 -0.11)">
       <use xlink:href="#DejaVuSans-31"/>
      </g>
     </g>
    </g>
    <g id="xtick_11">
     <g id="line2d_11">
      <g>
       <use xlink:href="#m24e073554d" x="398.977482" y="342.339832" style="stroke: #000000; stroke-width: 0.8"/>
      </g>
     </g>
     <g id="text_11">
      <!-- 2 -->
      <g transform="translate(395.478107 357.698114) scale(0.11 -0.11)">
       <use xlink:href="#DejaVuSans-32"/>
      </g>
     </g>
    </g>
    <g id="xtick_12">
     <g id="line2d_12">
      <g>
       <use xlink:href="#m24e073554d" x="431.539547" y="342.339832" style="stroke: #000000; stroke-width: 0.8"/>
      </g>
     </g>
     <g id="text_12">
      <!-- 3 -->
      <g transform="translate(428.040172 357.698114) scale(0.11 -0.11)">
       <use xlink:href="#DejaVuSans-33"/>
      </g>
     </g>
    </g>
    <g id="xtick_13">
     <g id="line2d_13">
      <g>
       <use xlink:href="#m24e073554d" x="464.101611" y="342.339832" style="stroke: #000000; stroke-width: 0.8"/>
      </g>
     </g>
     <g id="text_13">
      <!-- 4 -->
      <g transform="translate(460.602236 357.698114) scale(0.11 -0.11)">
       <use xlink:href="#DejaVuSans-34"/>
      </g>
     </g>
    </g>
    <g id="xtick_14">
     <g id="line2d_14">
      <g>
       <use xlink:href="#m24e073554d" x="496.663675" y="342.339832" style="stroke: #000000; stroke-width: 0.8"/>
      </g>
     </g>
     <g id="text_14">
      <!-- 5 -->
      <g transform="translate(493.1643 357.698114) scale(0.11 -0.11)">
       <use xlink:href="#DejaVuSans-35"/>
      </g>
     </g>
    </g>
    <g id="xtick_15">
     <g id="line2d_15">
      <g>
       <use xlink:href="#m24e073554d" x="529.22574" y="342.339832" style="stroke: #000000; stroke-width: 0.8"/>
      </g>
     </g>
     <g id="text_15">
      <!-- 6 -->
      <g transform="translate(525.726365 357.698114) scale(0.11 -0.11)">
       <use xlink:href="#DejaVuSans-36"/>
      </g>
     </g>
    </g>
    <g id="xtick_16">
     <g id="line2d_16">
      <g>
       <use xlink:href="#m24e073554d" x="561.787804" y="342.339832" style="stroke: #000000; stroke-width: 0.8"/>
      </g>
     </g>
     <g id="text_16">
      <!-- 7 -->
      <g transform="translate(558.288429 357.698114) scale(0.11 -0.11)">
       <use xlink:href="#DejaVuSans-37"/>
      </g>
     </g>
    </g>
    <g id="xtick_17">
     <g id="line2d_17">
      <g>
       <use xlink:href="#m24e073554d" x="594.349869" y="342.339832" style="stroke: #000000; stroke-width: 0.8"/>
      </g>
     </g>
     <g id="text_17">
      <!-- 8 -->
      <g transform="translate(590.850494 357.698114) scale(0.11 -0.11)">
       <use xlink:href="#DejaVuSans-38"/>
      </g>
     </g>
    </g>
    <g id="text_18">
     <!-- true count at bet time (75% penetration; ends clipped to +/-8) -->
     <g transform="translate(145.848041 373.103895) scale(0.12 -0.12)">
      <defs>
       <path id="DejaVuSans-74" d="M 1172 4494 
L 1172 3500 
L 2356 3500 
L 2356 3053 
L 1172 3053 
L 1172 1153 
Q 1172 725 1289 603 
Q 1406 481 1766 481 
L 2356 481 
L 2356 0 
L 1766 0 
Q 1100 0 847 248 
Q 594 497 594 1153 
L 594 3053 
L 172 3053 
L 172 3500 
L 594 3500 
L 594 4494 
L 1172 4494 
z
" transform="scale(0.015625)"/>
       <path id="DejaVuSans-72" d="M 2631 2963 
Q 2534 3019 2420 3045 
Q 2306 3072 2169 3072 
Q 1681 3072 1420 2755 
Q 1159 2438 1159 1844 
L 1159 0 
L 581 0 
L 581 3500 
L 1159 3500 
L 1159 2956 
Q 1341 3275 1631 3429 
Q 1922 3584 2338 3584 
Q 2397 3584 2469 3576 
Q 2541 3569 2628 3553 
L 2631 2963 
z
" transform="scale(0.015625)"/>
       <path id="DejaVuSans-75" d="M 544 1381 
L 544 3500 
L 1119 3500 
L 1119 1403 
Q 1119 906 1312 657 
Q 1506 409 1894 409 
Q 2359 409 2629 706 
Q 2900 1003 2900 1516 
L 2900 3500 
L 3475 3500 
L 3475 0 
L 2900 0 
L 2900 538 
Q 2691 219 2414 64 
Q 2138 -91 1772 -91 
Q 1169 -91 856 284 
Q 544 659 544 1381 
z
M 1991 3584 
L 1991 3584 
z
" transform="scale(0.015625)"/>
       <path id="DejaVuSans-65" d="M 3597 1894 
L 3597 1613 
L 953 1613 
Q 991 1019 1311 708 
Q 1631 397 2203 397 
Q 2534 397 2845 478 
Q 3156 559 3463 722 
L 3463 178 
Q 3153 47 2828 -22 
Q 2503 -91 2169 -91 
Q 1331 -91 842 396 
Q 353 884 353 1716 
Q 353 2575 817 3079 
Q 1281 3584 2069 3584 
Q 2775 3584 3186 3129 
Q 3597 2675 3597 1894 
z
M 3022 2063 
Q 3016 2534 2758 2815 
Q 2500 3097 2075 3097 
Q 1594 3097 1305 2825 
Q 1016 2553 972 2059 
L 3022 2063 
z
" transform="scale(0.015625)"/>
       <path id="DejaVuSans-20" transform="scale(0.015625)"/>
       <path id="DejaVuSans-63" d="M 3122 3366 
L 3122 2828 
Q 2878 2963 2633 3030 
Q 2388 3097 2138 3097 
Q 1578 3097 1268 2742 
Q 959 2388 959 1747 
Q 959 1106 1268 751 
Q 1578 397 2138 397 
Q 2388 397 2633 464 
Q 2878 531 3122 666 
L 3122 134 
Q 2881 22 2623 -34 
Q 2366 -91 2075 -91 
Q 1284 -91 818 406 
Q 353 903 353 1747 
Q 353 2603 823 3093 
Q 1294 3584 2113 3584 
Q 2378 3584 2631 3529 
Q 2884 3475 3122 3366 
z
" transform="scale(0.015625)"/>
       <path id="DejaVuSans-6f" d="M 1959 3097 
Q 1497 3097 1228 2736 
Q 959 2375 959 1747 
Q 959 1119 1226 758 
Q 1494 397 1959 397 
Q 2419 397 2687 759 
Q 2956 1122 2956 1747 
Q 2956 2369 2687 2733 
Q 2419 3097 1959 3097 
z
M 1959 3584 
Q 2709 3584 3137 3096 
Q 3566 2609 3566 1747 
Q 3566 888 3137 398 
Q 2709 -91 1959 -91 
Q 1206 -91 779 398 
Q 353 888 353 1747 
Q 353 2609 779 3096 
Q 1206 3584 1959 3584 
z
" transform="scale(0.015625)"/>
       <path id="DejaVuSans-6e" d="M 3513 2113 
L 3513 0 
L 2938 0 
L 2938 2094 
Q 2938 2591 2744 2837 
Q 2550 3084 2163 3084 
Q 1697 3084 1428 2787 
Q 1159 2491 1159 1978 
L 1159 0 
L 581 0 
L 581 3500 
L 1159 3500 
L 1159 2956 
Q 1366 3272 1645 3428 
Q 1925 3584 2291 3584 
Q 2894 3584 3203 3211 
Q 3513 2838 3513 2113 
z
" transform="scale(0.015625)"/>
       <path id="DejaVuSans-61" d="M 2194 1759 
Q 1497 1759 1228 1600 
Q 959 1441 959 1056 
Q 959 750 1161 570 
Q 1363 391 1709 391 
Q 2188 391 2477 730 
Q 2766 1069 2766 1631 
L 2766 1759 
L 2194 1759 
z
M 3341 1997 
L 3341 0 
L 2766 0 
L 2766 531 
Q 2569 213 2275 61 
Q 1981 -91 1556 -91 
Q 1019 -91 701 211 
Q 384 513 384 1019 
Q 384 1609 779 1909 
Q 1175 2209 1959 2209 
L 2766 2209 
L 2766 2266 
Q 2766 2663 2505 2880 
Q 2244 3097 1772 3097 
Q 1472 3097 1187 3025 
Q 903 2953 641 2809 
L 641 3341 
Q 956 3463 1253 3523 
Q 1550 3584 1831 3584 
Q 2591 3584 2966 3190 
Q 3341 2797 3341 1997 
z
" transform="scale(0.015625)"/>
       <path id="DejaVuSans-62" d="M 3116 1747 
Q 3116 2381 2855 2742 
Q 2594 3103 2138 3103 
Q 1681 3103 1420 2742 
Q 1159 2381 1159 1747 
Q 1159 1113 1420 752 
Q 1681 391 2138 391 
Q 2594 391 2855 752 
Q 3116 1113 3116 1747 
z
M 1159 2969 
Q 1341 3281 1617 3432 
Q 1894 3584 2278 3584 
Q 2916 3584 3314 3078 
Q 3713 2572 3713 1747 
Q 3713 922 3314 415 
Q 2916 -91 2278 -91 
Q 1894 -91 1617 61 
Q 1341 213 1159 525 
L 1159 0 
L 581 0 
L 581 4863 
L 1159 4863 
L 1159 2969 
z
" transform="scale(0.015625)"/>
       <path id="DejaVuSans-69" d="M 603 3500 
L 1178 3500 
L 1178 0 
L 603 0 
L 603 3500 
z
M 603 4863 
L 1178 4863 
L 1178 4134 
L 603 4134 
L 603 4863 
z
" transform="scale(0.015625)"/>
       <path id="DejaVuSans-6d" d="M 3328 2828 
Q 3544 3216 3844 3400 
Q 4144 3584 4550 3584 
Q 5097 3584 5394 3201 
Q 5691 2819 5691 2113 
L 5691 0 
L 5113 0 
L 5113 2094 
Q 5113 2597 4934 2840 
Q 4756 3084 4391 3084 
Q 3944 3084 3684 2787 
Q 3425 2491 3425 1978 
L 3425 0 
L 2847 0 
L 2847 2094 
Q 2847 2600 2669 2842 
Q 2491 3084 2119 3084 
Q 1678 3084 1418 2786 
Q 1159 2488 1159 1978 
L 1159 0 
L 581 0 
L 581 3500 
L 1159 3500 
L 1159 2956 
Q 1356 3278 1631 3431 
Q 1906 3584 2284 3584 
Q 2666 3584 2933 3390 
Q 3200 3197 3328 2828 
z
" transform="scale(0.015625)"/>
       <path id="DejaVuSans-28" d="M 1984 4856 
Q 1566 4138 1362 3434 
Q 1159 2731 1159 2009 
Q 1159 1288 1364 580 
Q 1569 -128 1984 -844 
L 1484 -844 
Q 1016 -109 783 600 
Q 550 1309 550 2009 
Q 550 2706 781 3412 
Q 1013 4119 1484 4856 
L 1984 4856 
z
" transform="scale(0.015625)"/>
       <path id="DejaVuSans-25" d="M 4653 2053 
Q 4381 2053 4226 1822 
Q 4072 1591 4072 1178 
Q 4072 772 4226 539 
Q 4381 306 4653 306 
Q 4919 306 5073 539 
Q 5228 772 5228 1178 
Q 5228 1588 5073 1820 
Q 4919 2053 4653 2053 
z
M 4653 2450 
Q 5147 2450 5437 2106 
Q 5728 1763 5728 1178 
Q 5728 594 5436 251 
Q 5144 -91 4653 -91 
Q 4153 -91 3862 251 
Q 3572 594 3572 1178 
Q 3572 1766 3864 2108 
Q 4156 2450 4653 2450 
z
M 1428 4353 
Q 1159 4353 1004 4120 
Q 850 3888 850 3481 
Q 850 3069 1003 2837 
Q 1156 2606 1428 2606 
Q 1700 2606 1854 2837 
Q 2009 3069 2009 3481 
Q 2009 3884 1853 4118 
Q 1697 4353 1428 4353 
z
M 4250 4750 
L 4750 4750 
L 1831 -91 
L 1331 -91 
L 4250 4750 
z
M 1428 4750 
Q 1922 4750 2215 4408 
Q 2509 4066 2509 3481 
Q 2509 2891 2217 2550 
Q 1925 2209 1428 2209 
Q 931 2209 642 2551 
Q 353 2894 353 3481 
Q 353 4063 643 4406 
Q 934 4750 1428 4750 
z
" transform="scale(0.015625)"/>
       <path id="DejaVuSans-70" d="M 1159 525 
L 1159 -1331 
L 581 -1331 
L 581 3500 
L 1159 3500 
L 1159 2969 
Q 1341 3281 1617 3432 
Q 1894 3584 2278 3584 
Q 2916 3584 3314 3078 
Q 3713 2572 3713 1747 
Q 3713 922 3314 415 
Q 2916 -91 2278 -91 
Q 1894 -91 1617 61 
Q 1341 213 1159 525 
z
M 3116 1747 
Q 3116 2381 2855 2742 
Q 2594 3103 2138 3103 
Q 1681 3103 1420 2742 
Q 1159 2381 1159 1747 
Q 1159 1113 1420 752 
Q 1681 391 2138 391 
Q 2594 391 2855 752 
Q 3116 1113 3116 1747 
z
" transform="scale(0.015625)"/>
       <path id="DejaVuSans-3b" d="M 750 3309 
L 1409 3309 
L 1409 2516 
L 750 2516 
L 750 3309 
z
M 750 794 
L 1409 794 
L 1409 256 
L 897 -744 
L 494 -744 
L 750 256 
L 750 794 
z
" transform="scale(0.015625)"/>
       <path id="DejaVuSans-64" d="M 2906 2969 
L 2906 4863 
L 3481 4863 
L 3481 0 
L 2906 0 
L 2906 525 
Q 2725 213 2448 61 
Q 2172 -91 1784 -91 
Q 1150 -91 751 415 
Q 353 922 353 1747 
Q 353 2572 751 3078 
Q 1150 3584 1784 3584 
Q 2172 3584 2448 3432 
Q 2725 3281 2906 2969 
z
M 947 1747 
Q 947 1113 1208 752 
Q 1469 391 1925 391 
Q 2381 391 2643 752 
Q 2906 1113 2906 1747 
Q 2906 2381 2643 2742 
Q 2381 3103 1925 3103 
Q 1469 3103 1208 2742 
Q 947 2381 947 1747 
z
" transform="scale(0.015625)"/>
       <path id="DejaVuSans-73" d="M 2834 3397 
L 2834 2853 
Q 2591 2978 2328 3040 
Q 2066 3103 1784 3103 
Q 1356 3103 1142 2972 
Q 928 2841 928 2578 
Q 928 2378 1081 2264 
Q 1234 2150 1697 2047 
L 1894 2003 
Q 2506 1872 2764 1633 
Q 3022 1394 3022 966 
Q 3022 478 2636 193 
Q 2250 -91 1575 -91 
Q 1294 -91 989 -36 
Q 684 19 347 128 
L 347 722 
Q 666 556 975 473 
Q 1284 391 1588 391 
Q 1994 391 2212 530 
Q 2431 669 2431 922 
Q 2431 1156 2273 1281 
Q 2116 1406 1581 1522 
L 1381 1569 
Q 847 1681 609 1914 
Q 372 2147 372 2553 
Q 372 3047 722 3315 
Q 1072 3584 1716 3584 
Q 2034 3584 2315 3537 
Q 2597 3491 2834 3397 
z
" transform="scale(0.015625)"/>
       <path id="DejaVuSans-6c" d="M 603 4863 
L 1178 4863 
L 1178 0 
L 603 0 
L 603 4863 
z
" transform="scale(0.015625)"/>
       <path id="DejaVuSans-2b" d="M 2944 4013 
L 2944 2272 
L 4684 2272 
L 4684 1741 
L 2944 1741 
L 2944 0 
L 2419 0 
L 2419 1741 
L 678 1741 
L 678 2272 
L 2419 2272 
L 2419 4013 
L 2944 4013 
z
" transform="scale(0.015625)"/>
       <path id="DejaVuSans-2f" d="M 1625 4666 
L 2156 4666 
L 531 -594 
L 0 -594 
L 1625 4666 
z
" transform="scale(0.015625)"/>
       <path id="DejaVuSans-2d" d="M 313 2009 
L 1997 2009 
L 1997 1497 
L 313 1497 
L 313 2009 
z
" transform="scale(0.015625)"/>
       <path id="DejaVuSans-29" d="M 513 4856 
L 1013 4856 
Q 1481 4119 1714 3412 
Q 1947 2706 1947 2009 
Q 1947 1309 1714 600 
Q 1481 -109 1013 -844 
L 513 -844 
Q 928 -128 1133 580 
Q 1338 1288 1338 2009 
Q 1338 2731 1133 3434 
Q 928 4138 513 4856 
z
" transform="scale(0.015625)"/>
      </defs>
      <use xlink:href="#DejaVuSans-74"/>
      <use xlink:href="#DejaVuSans-72" transform="translate(39.208984 0)"/>
      <use xlink:href="#DejaVuSans-75" transform="translate(80.322266 0)"/>
      <use xlink:href="#DejaVuSans-65" transform="translate(143.701172 0)"/>
      <use xlink:href="#DejaVuSans-20" transform="translate(205.224609 0)"/>
      <use xlink:href="#DejaVuSans-63" transform="translate(237.011719 0)"/>
      <use xlink:href="#DejaVuSans-6f" transform="translate(291.992188 0)"/>
      <use xlink:href="#DejaVuSans-75" transform="translate(353.173828 0)"/>
      <use xlink:href="#DejaVuSans-6e" transform="translate(416.552734 0)"/>
      <use xlink:href="#DejaVuSans-74" transform="translate(479.931641 0)"/>
      <use xlink:href="#DejaVuSans-20" transform="translate(519.140625 0)"/>
      <use xlink:href="#DejaVuSans-61" transform="translate(550.927734 0)"/>
      <use xlink:href="#DejaVuSans-74" transform="translate(612.207031 0)"/>
      <use xlink:href="#DejaVuSans-20" transform="translate(651.416016 0)"/>
      <use xlink:href="#DejaVuSans-62" transform="translate(683.203125 0)"/>
      <use xlink:href="#DejaVuSans-65" transform="translate(746.679688 0)"/>
      <use xlink:href="#DejaVuSans-74" transform="translate(808.203125 0)"/>
      <use xlink:href="#DejaVuSans-20" transform="translate(847.412109 0)"/>
      <use xlink:href="#DejaVuSans-74" transform="translate(879.199219 0)"/>
      <use xlink:href="#DejaVuSans-69" transform="translate(918.408203 0)"/>
      <use xlink:href="#DejaVuSans-6d" transform="translate(946.191406 0)"/>
      <use xlink:href="#DejaVuSans-65" transform="translate(1043.603516 0)"/>
      <use xlink:href="#DejaVuSans-20" transform="translate(1105.126953 0)"/>
      <use xlink:href="#DejaVuSans-28" transform="translate(1136.914062 0)"/>
      <use xlink:href="#DejaVuSans-37" transform="translate(1175.927734 0)"/>
      <use xlink:href="#DejaVuSans-35" transform="translate(1239.550781 0)"/>
      <use xlink:href="#DejaVuSans-25" transform="translate(1303.173828 0)"/>
      <use xlink:href="#DejaVuSans-20" transform="translate(1398.193359 0)"/>
      <use xlink:href="#DejaVuSans-70" transform="translate(1429.980469 0)"/>
      <use xlink:href="#DejaVuSans-65" transform="translate(1493.457031 0)"/>
      <use xlink:href="#DejaVuSans-6e" transform="translate(1554.980469 0)"/>
      <use xlink:href="#DejaVuSans-65" transform="translate(1618.359375 0)"/>
      <use xlink:href="#DejaVuSans-74" transform="translate(1679.882812 0)"/>
      <use xlink:href="#DejaVuSans-72" transform="translate(1719.091797 0)"/>
      <use xlink:href="#DejaVuSans-61" transform="translate(1760.205078 0)"/>
      <use xlink:href="#DejaVuSans-74" transform="translate(1821.484375 0)"/>
      <use xlink:href="#DejaVuSans-69" transform="translate(1860.693359 0)"/>
      <use xlink:href="#DejaVuSans-6f" transform="translate(1888.476562 0)"/>
      <use xlink:href="#DejaVuSans-6e" transform="translate(1949.658203 0)"/>
      <use xlink:href="#DejaVuSans-3b" transform="translate(2013.037109 0)"/>
      <use xlink:href="#DejaVuSans-20" transform="translate(2046.728516 0)"/>
      <use xlink:href="#DejaVuSans-65" transform="translate(2078.515625 0)"/>
      <use xlink:href="#DejaVuSans-6e" transform="translate(2140.039062 0)"/>
      <use xlink:href="#DejaVuSans-64" transform="translate(2203.417969 0)"/>
      <use xlink:href="#DejaVuSans-73" transform="translate(2266.894531 0)"/>
      <use xlink:href="#DejaVuSans-20" transform="translate(2318.994141 0)"/>
      <use xlink:href="#DejaVuSans-63" transform="translate(2350.78125 0)"/>
      <use xlink:href="#DejaVuSans-6c" transform="translate(2405.761719 0)"/>
      <use xlink:href="#DejaVuSans-69" transform="translate(2433.544922 0)"/>
      <use xlink:href="#DejaVuSans-70" transform="translate(2461.328125 0)"/>
      <use xlink:href="#DejaVuSans-70" transform="translate(2524.804688 0)"/>
      <use xlink:href="#DejaVuSans-65" transform="translate(2588.28125 0)"/>
      <use xlink:href="#DejaVuSans-64" transform="translate(2649.804688 0)"/>
      <use xlink:href="#DejaVuSans-20" transform="translate(2713.28125 0)"/>
      <use xlink:href="#DejaVuSans-74" transform="translate(2745.068359 0)"/>
      <use xlink:href="#DejaVuSans-6f" transform="translate(2784.277344 0)"/>
      <use xlink:href="#DejaVuSans-20" transform="translate(2845.458984 0)"/>
      <use xlink:href="#DejaVuSans-2b" transform="translate(2877.246094 0)"/>
      <use xlink:href="#DejaVuSans-2f" transform="translate(2961.035156 0)"/>
      <use xlink:href="#DejaVuSans-2d" transform="translate(2994.726562 0)"/>
      <use xlink:href="#DejaVuSans-38" transform="translate(3030.810547 0)"/>
      <use xlink:href="#DejaVuSans-29" transform="translate(3094.433594 0)"/>
     </g>
    </g>
   </g>
   <g id="matplotlib.axis_2">
    <g id="ytick_1">
     <g id="line2d_18">
      <defs>
       <path id="m485eecd8fe" d="M 0 0 
L -3.5 0 
" style="stroke: #000000; stroke-width: 0.8"/>
      </defs>
      <g>
       <use xlink:href="#m485eecd8fe" x="47.307188" y="327.862468" style="stroke: #000000; stroke-width: 0.8"/>
      </g>
     </g>
     <g id="text_19">
      <!-- 0.0 -->
      <g transform="translate(22.81375 332.041609) scale(0.11 -0.11)">
       <defs>
        <path id="DejaVuSans-2e" d="M 684 794 
L 1344 794 
L 1344 0 
L 684 0 
L 684 794 
z
" transform="scale(0.015625)"/>
       </defs>
       <use xlink:href="#DejaVuSans-30"/>
       <use xlink:href="#DejaVuSans-2e" transform="translate(63.623047 0)"/>
       <use xlink:href="#DejaVuSans-30" transform="translate(95.410156 0)"/>
      </g>
     </g>
    </g>
    <g id="ytick_2">
     <g id="line2d_19">
      <g>
       <use xlink:href="#m485eecd8fe" x="47.307188" y="269.95301" style="stroke: #000000; stroke-width: 0.8"/>
      </g>
     </g>
     <g id="text_20">
      <!-- 0.2 -->
      <g transform="translate(22.81375 274.13215) scale(0.11 -0.11)">
       <use xlink:href="#DejaVuSans-30"/>
       <use xlink:href="#DejaVuSans-2e" transform="translate(63.623047 0)"/>
       <use xlink:href="#DejaVuSans-32" transform="translate(95.410156 0)"/>
      </g>
     </g>
    </g>
    <g id="ytick_3">
     <g id="line2d_20">
      <g>
       <use xlink:href="#m485eecd8fe" x="47.307188" y="212.043552" style="stroke: #000000; stroke-width: 0.8"/>
      </g>
     </g>
     <g id="text_21">
      <!-- 0.4 -->
      <g transform="translate(22.81375 216.222692) scale(0.11 -0.11)">
       <use xlink:href="#DejaVuSans-30"/>
       <use xlink:href="#DejaVuSans-2e" transform="translate(63.623047 0)"/>
       <use xlink:href="#DejaVuSans-34" transform="translate(95.410156 0)"/>
      </g>
     </g>
    </g>
    <g id="ytick_4">
     <g id="line2d_21">
      <g>
       <use xlink:href="#m485eecd8fe" x="47.307188" y="154.134093" style="stroke: #000000; stroke-width: 0.8"/>
      </g>
     </g>
     <g id="text_22">
      <!-- 0.6 -->
      <g transform="translate(22.81375 158.313234) scale(0.11 -0.11)">
       <use xlink:href="#DejaVuSans-30"/>
       <use xlink:href="#DejaVuSans-2e" transform="translate(63.623047 0)"/>
       <use xlink:href="#DejaVuSans-36" transform="translate(95.410156 0)"/>
      </g>
     </g>
    </g>
    <g id="ytick_5">
     <g id="line2d_22">
      <g>
       <use xlink:href="#m485eecd8fe" x="47.307188" y="96.224635" style="stroke: #000000; stroke-width: 0.8"/>
      </g>
     </g>
     <g id="text_23">
      <!-- 0.8 -->
      <g transform="translate(22.81375 100.403776) scale(0.11 -0.11)">
       <use xlink:href="#DejaVuSans-30"/>
       <use xlink:href="#DejaVuSans-2e" transform="translate(63.623047 0)"/>
       <use xlink:href="#DejaVuSans-38" transform="translate(95.410156 0)"/>
      </g>
     </g>
    </g>
    <g id="ytick_6">
     <g id="line2d_23">
      <g>
       <use xlink:href="#m485eecd8fe" x="47.307188" y="38.315177" style="stroke: #000000; stroke-width: 0.8"/>
      </g>
     </g>
     <g id="text_24">
      <!-- 1.0 -->
      <g transform="translate(22.81375 42.494318) scale(0.11 -0.11)">
       <use xlink:href="#DejaVuSans-31"/>
       <use xlink:href="#DejaVuSans-2e" transform="translate(63.623047 0)"/>
       <use xlink:href="#DejaVuSans-30" transform="translate(95.410156 0)"/>
      </g>
     </g>
    </g>
    <g id="text_25">
     <!-- fraction of hands -->
     <g transform="translate(16.318125 233.950072) rotate(-90) scale(0.12 -0.12)">
      <defs>
       <path id="DejaVuSans-66" d="M 2375 4863 
L 2375 4384 
L 1825 4384 
Q 1516 4384 1395 4259 
Q 1275 4134 1275 3809 
L 1275 3500 
L 2222 3500 
L 2222 3053 
L 1275 3053 
L 1275 0 
L 697 0 
L 697 3053 
L 147 3053 
L 147 3500 
L 697 3500 
L 697 3744 
Q 697 4328 969 4595 
Q 1241 4863 1831 4863 
L 2375 4863 
z
" transform="scale(0.015625)"/>
       <path id="DejaVuSans-68" d="M 3513 2113 
L 3513 0 
L 2938 0 
L 2938 2094 
Q 2938 2591 2744 2837 
Q 2550 3084 2163 3084 
Q 1697 3084 1428 2787 
Q 1159 2491 1159 1978 
L 1159 0 
L 581 0 
L 581 4863 
L 1159 4863 
L 1159 2956 
Q 1366 3272 1645 3428 
Q 1925 3584 2291 3584 
Q 2894 3584 3203 3211 
Q 3513 2838 3513 2113 
z
" transform="scale(0.015625)"/>
      </defs>
      <use xlink:href="#DejaVuSans-66"/>
      <use xlink:href="#DejaVuSans-72" transform="translate(35.205078 0)"/>
      <use xlink:href="#DejaVuSans-61" transform="translate(76.318359 0)"/>
      <use xlink:href="#DejaVuSans-63" transform="translate(137.597656 0)"/>
      <use xlink:href="#DejaVuSans-74" transform="translate(192.578125 0)"/>
      <use xlink:href="#DejaVuSans-69" transform="translate(231.787109 0)"/>
      <use xlink:href="#DejaVuSans-6f" transform="translate(259.570312 0)"/>
      <use xlink:href="#DejaVuSans-6e" transform="translate(320.751953 0)"/>
      <use xlink:href="#DejaVuSans-20" transform="translate(384.130859 0)"/>
      <use xlink:href="#DejaVuSans-6f" transform="translate(415.917969 0)"/>
      <use xlink:href="#DejaVuSans-66" transform="translate(477.099609 0)"/>
      <use xlink:href="#DejaVuSans-20" transform="translate(512.304688 0)"/>
      <use xlink:href="#DejaVuSans-68" transform="translate(544.091797 0)"/>
      <use xlink:href="#DejaVuSans-61" transform="translate(607.470703 0)"/>
      <use xlink:href="#DejaVuSans-6e" transform="translate(668.75 0)"/>
      <use xlink:href="#DejaVuSans-64" transform="translate(732.128906 0)"/>
      <use xlink:href="#DejaVuSans-73" transform="translate(795.605469 0)"/>
     </g>
    </g>
   </g>
   <g id="line2d_24">
    <path d="M 73.356839 303.545925 
L 105.918903 321.077289 
L 138.480968 319.097871 
L 171.043032 317.792013 
L 203.605096 315.154961 
L 236.167161 310.339428 
L 268.729225 308.136697 
L 301.291289 310.568894 
L 333.853354 253.259161 
L 366.415418 313.172286 
L 398.977482 312.431769 
L 431.539547 311.404238 
L 464.101611 318.114135 
L 496.663675 318.598402 
L 529.22574 322.204352 
L 561.787804 320.570581 
L 594.349869 308.646662 
" clip-path="url(#pd472322051)" style="fill: none; stroke: #c0392b; stroke-width: 1.7; stroke-linecap: square"/>
    <defs>
     <path id="m1f5c02a673" d="M 0 1.75 
C 0.464105 1.75 0.909265 1.565609 1.237437 1.237437 
C 1.565609 0.909265 1.75 0.464105 1.75 0 
C 1.75 -0.464105 1.565609 -0.909265 1.237437 -1.237437 
C 0.909265 -1.565609 0.464105 -1.75 0 -1.75 
C -0.464105 -1.75 -0.909265 -1.565609 -1.237437 -1.237437 
C -1.565609 -0.909265 -1.75 -0.464105 -1.75 0 
C -1.75 0.464105 -1.565609 0.909265 -1.237437 1.237437 
C -0.909265 1.565609 -0.464105 1.75 0 1.75 
z
" style="stroke: #c0392b"/>
    </defs>
    <g clip-path="url(#pd472322051)">
     <use xlink:href="#m1f5c02a673" x="73.356839" y="303.545925" style="fill: #c0392b; stroke: #c0392b"/>
     <use xlink:href="#m1f5c02a673" x="105.918903" y="321.077289" style="fill: #c0392b; stroke: #c0392b"/>
     <use xlink:href="#m1f5c02a673" x="138.480968" y="319.097871" style="fill: #c0392b; stroke: #c0392b"/>
     <use xlink:href="#m1f5c02a673" x="171.043032" y="317.792013" style="fill: #c0392b; stroke: #c0392b"/>
     <use xlink:href="#m1f5c02a673" x="203.605096" y="315.154961" style="fill: #c0392b; stroke: #c0392b"/>
     <use xlink:href="#m1f5c02a673" x="236.167161" y="310.339428" style="fill: #c0392b; stroke: #c0392b"/>
     <use xlink:href="#m1f5c02a673" x="268.729225" y="308.136697" style="fill: #c0392b; stroke: #c0392b"/>
     <use xlink:href="#m1f5c02a673" x="301.291289" y="310.568894" style="fill: #c0392b; stroke: #c0392b"/>
     <use xlink:href="#m1f5c02a673" x="333.853354" y="253.259161" style="fill: #c0392b; stroke: #c0392b"/>
     <use xlink:href="#m1f5c02a673" x="366.415418" y="313.172286" style="fill: #c0392b; stroke: #c0392b"/>
     <use xlink:href="#m1f5c02a673" x="398.977482" y="312.431769" style="fill: #c0392b; stroke: #c0392b"/>
     <use xlink:href="#m1f5c02a673" x="431.539547" y="311.404238" style="fill: #c0392b; stroke: #c0392b"/>
     <use xlink:href="#m1f5c02a673" x="464.101611" y="318.114135" style="fill: #c0392b; stroke: #c0392b"/>
     <use xlink:href="#m1f5c02a673" x="496.663675" y="318.598402" style="fill: #c0392b; stroke: #c0392b"/>
     <use xlink:href="#m1f5c02a673" x="529.22574" y="322.204352" style="fill: #c0392b; stroke: #c0392b"/>
     <use xlink:href="#m1f5c02a673" x="561.787804" y="320.570581" style="fill: #c0392b; stroke: #c0392b"/>
     <use xlink:href="#m1f5c02a673" x="594.349869" y="308.646662" style="fill: #c0392b; stroke: #c0392b"/>
    </g>
   </g>
   <g id="line2d_25">
    <path d="M 73.356839 315.402524 
L 105.918903 323.326348 
L 138.480968 320.926363 
L 171.043032 318.746795 
L 203.605096 315.245083 
L 236.167161 310.216732 
L 268.729225 301.939661 
L 301.291289 289.546313 
L 333.853354 278.914136 
L 366.415418 292.871764 
L 398.977482 304.906073 
L 431.539547 311.790784 
L 464.101611 316.706935 
L 496.663675 319.816673 
L 529.22574 322.505119 
L 561.787804 323.220301 
L 594.349869 318.033061 
" clip-path="url(#pd472322051)" style="fill: none; stroke: #e67e22; stroke-width: 1.7; stroke-linecap: square"/>
    <defs>
     <path id="m6e4aa79361" d="M 0 1.75 
C 0.464105 1.75 0.909265 1.565609 1.237437 1.237437 
C 1.565609 0.909265 1.75 0.464105 1.75 0 
C 1.75 -0.464105 1.565609 -0.909265 1.237437 -1.237437 
C 0.909265 -1.565609 0.464105 -1.75 0 -1.75 
C -0.464105 -1.75 -0.909265 -1.565609 -1.237437 -1.237437 
C -1.565609 -0.909265 -1.75 -0.464105 -1.75 0 
C -1.75 0.464105 -1.565609 0.909265 -1.237437 1.237437 
C -0.909265 1.565609 -0.464105 1.75 0 1.75 
z
" style="stroke: #e67e22"/>
    </defs>
    <g clip-path="url(#pd472322051)">
     <use xlink:href="#m6e4aa79361" x="73.356839" y="315.402524" style="fill: #e67e22; stroke: #e67e22"/>
     <use xlink:href="#m6e4aa79361" x="105.918903" y="323.326348" style="fill: #e67e22; stroke: #e67e22"/>
     <use xlink:href="#m6e4aa79361" x="138.480968" y="320.926363" style="fill: #e67e22; stroke: #e67e22"/>
     <use xlink:href="#m6e4aa79361" x="171.043032" y="318.746795" style="fill: #e67e22; stroke: #e67e22"/>
     <use xlink:href="#m6e4aa79361" x="203.605096" y="315.245083" style="fill: #e67e22; stroke: #e67e22"/>
     <use xlink:href="#m6e4aa79361" x="236.167161" y="310.216732" style="fill: #e67e22; stroke: #e67e22"/>
     <use xlink:href="#m6e4aa79361" x="268.729225" y="301.939661" style="fill: #e67e22; stroke: #e67e22"/>
     <use xlink:href="#m6e4aa79361" x="301.291289" y="289.546313" style="fill: #e67e22; stroke: #e67e22"/>
     <use xlink:href="#m6e4aa79361" x="333.853354" y="278.914136" style="fill: #e67e22; stroke: #e67e22"/>
     <use xlink:href="#m6e4aa79361" x="366.415418" y="292.871764" style="fill: #e67e22; stroke: #e67e22"/>
     <use xlink:href="#m6e4aa79361" x="398.977482" y="304.906073" style="fill: #e67e22; stroke: #e67e22"/>
     <use xlink:href="#m6e4aa79361" x="431.539547" y="311.790784" style="fill: #e67e22; stroke: #e67e22"/>
     <use xlink:href="#m6e4aa79361" x="464.101611" y="316.706935" style="fill: #e67e22; stroke: #e67e22"/>
     <use xlink:href="#m6e4aa79361" x="496.663675" y="319.816673" style="fill: #e67e22; stroke: #e67e22"/>
     <use xlink:href="#m6e4aa79361" x="529.22574" y="322.505119" style="fill: #e67e22; stroke: #e67e22"/>
     <use xlink:href="#m6e4aa79361" x="561.787804" y="323.220301" style="fill: #e67e22; stroke: #e67e22"/>
     <use xlink:href="#m6e4aa79361" x="594.349869" y="318.033061" style="fill: #e67e22; stroke: #e67e22"/>
    </g>
   </g>
   <g id="line2d_26">
    <path d="M 73.356839 325.794738 
L 105.918903 326.250413 
L 138.480968 324.760331 
L 171.043032 322.844613 
L 203.605096 318.984586 
L 236.167161 312.46941 
L 268.729225 300.752155 
L 301.291289 277.918818 
L 333.853354 251.595712 
L 366.415418 282.011931 
L 398.977482 303.644371 
L 431.539547 314.521938 
L 464.101611 320.271262 
L 496.663675 323.687196 
L 529.22574 325.59676 
L 561.787804 326.57905 
L 594.349869 326.43138 
" clip-path="url(#pd472322051)" style="fill: none; stroke: #2980b9; stroke-width: 1.7; stroke-linecap: square"/>
    <defs>
     <path id="m586e4a0ff8" d="M 0 1.75 
C 0.464105 1.75 0.909265 1.565609 1.237437 1.237437 
C 1.565609 0.909265 1.75 0.464105 1.75 0 
C 1.75 -0.464105 1.565609 -0.909265 1.237437 -1.237437 
C 0.909265 -1.565609 0.464105 -1.75 0 -1.75 
C -0.464105 -1.75 -0.909265 -1.565609 -1.237437 -1.237437 
C -1.565609 -0.909265 -1.75 -0.464105 -1.75 0 
C -1.75 0.464105 -1.565609 0.909265 -1.237437 1.237437 
C -0.909265 1.565609 -0.464105 1.75 0 1.75 
z
" style="stroke: #2980b9"/>
    </defs>
    <g clip-path="url(#pd472322051)">
     <use xlink:href="#m586e4a0ff8" x="73.356839" y="325.794738" style="fill: #2980b9; stroke: #2980b9"/>
     <use xlink:href="#m586e4a0ff8" x="105.918903" y="326.250413" style="fill: #2980b9; stroke: #2980b9"/>
     <use xlink:href="#m586e4a0ff8" x="138.480968" y="324.760331" style="fill: #2980b9; stroke: #2980b9"/>
     <use xlink:href="#m586e4a0ff8" x="171.043032" y="322.844613" style="fill: #2980b9; stroke: #2980b9"/>
     <use xlink:href="#m586e4a0ff8" x="203.605096" y="318.984586" style="fill: #2980b9; stroke: #2980b9"/>
     <use xlink:href="#m586e4a0ff8" x="236.167161" y="312.46941" style="fill: #2980b9; stroke: #2980b9"/>
     <use xlink:href="#m586e4a0ff8" x="268.729225" y="300.752155" style="fill: #2980b9; stroke: #2980b9"/>
     <use xlink:href="#m586e4a0ff8" x="301.291289" y="277.918818" style="fill: #2980b9; stroke: #2980b9"/>
     <use xlink:href="#m586e4a0ff8" x="333.853354" y="251.595712" style="fill: #2980b9; stroke: #2980b9"/>
     <use xlink:href="#m586e4a0ff8" x="366.415418" y="282.011931" style="fill: #2980b9; stroke: #2980b9"/>
     <use xlink:href="#m586e4a0ff8" x="398.977482" y="303.644371" style="fill: #2980b9; stroke: #2980b9"/>
     <use xlink:href="#m586e4a0ff8" x="431.539547" y="314.521938" style="fill: #2980b9; stroke: #2980b9"/>
     <use xlink:href="#m586e4a0ff8" x="464.101611" y="320.271262" style="fill: #2980b9; stroke: #2980b9"/>
     <use xlink:href="#m586e4a0ff8" x="496.663675" y="323.687196" style="fill: #2980b9; stroke: #2980b9"/>
     <use xlink:href="#m586e4a0ff8" x="529.22574" y="325.59676" style="fill: #2980b9; stroke: #2980b9"/>
     <use xlink:href="#m586e4a0ff8" x="561.787804" y="326.57905" style="fill: #2980b9; stroke: #2980b9"/>
     <use xlink:href="#m586e4a0ff8" x="594.349869" y="326.43138" style="fill: #2980b9; stroke: #2980b9"/>
    </g>
   </g>
   <g id="line2d_27">
    <path d="M 73.356839 326.830232 
L 105.918903 326.812135 
L 138.480968 325.701359 
L 171.043032 323.793605 
L 203.605096 320.342201 
L 236.167161 313.909546 
L 268.729225 301.483262 
L 301.291289 276.382769 
L 333.853354 241.09926 
L 366.415418 280.251483 
L 398.977482 304.413843 
L 431.539547 315.878468 
L 464.101611 321.703797 
L 496.663675 324.80521 
L 529.22574 326.400254 
L 561.787804 327.111093 
L 594.349869 327.196147 
" clip-path="url(#pd472322051)" style="fill: none; stroke: #34495e; stroke-width: 1.7; stroke-linecap: square"/>
    <defs>
     <path id="mc9b01b4591" d="M 0 1.75 
C 0.464105 1.75 0.909265 1.565609 1.237437 1.237437 
C 1.565609 0.909265 1.75 0.464105 1.75 0 
C 1.75 -0.464105 1.565609 -0.909265 1.237437 -1.237437 
C 0.909265 -1.565609 0.464105 -1.75 0 -1.75 
C -0.464105 -1.75 -0.909265 -1.565609 -1.237437 -1.237437 
C -1.565609 -0.909265 -1.75 -0.464105 -1.75 0 
C -1.75 0.464105 -1.565609 0.909265 -1.237437 1.237437 
C -0.909265 1.565609 -0.464105 1.75 0 1.75 
z
" style="stroke: #34495e"/>
    </defs>
    <g clip-path="url(#pd472322051)">
     <use xlink:href="#mc9b01b4591" x="73.356839" y="326.830232" style="fill: #34495e; stroke: #34495e"/>
     <use xlink:href="#mc9b01b4591" x="105.918903" y="326.812135" style="fill: #34495e; stroke: #34495e"/>
     <use xlink:href="#mc9b01b4591" x="138.480968" y="325.701359" style="fill: #34495e; stroke: #34495e"/>
     <use xlink:href="#mc9b01b4591" x="171.043032" y="323.793605" style="fill: #34495e; stroke: #34495e"/>
     <use xlink:href="#mc9b01b4591" x="203.605096" y="320.342201" style="fill: #34495e; stroke: #34495e"/>
     <use xlink:href="#mc9b01b4591" x="236.167161" y="313.909546" style="fill: #34495e; stroke: #34495e"/>
     <use xlink:href="#mc9b01b4591" x="268.729225" y="301.483262" style="fill: #34495e; stroke: #34495e"/>
     <use xlink:href="#mc9b01b4591" x="301.291289" y="276.382769" style="fill: #34495e; stroke: #34495e"/>
     <use xlink:href="#mc9b01b4591" x="333.853354" y="241.09926" style="fill: #34495e; stroke: #34495e"/>
     <use xlink:href="#mc9b01b4591" x="366.415418" y="280.251483" style="fill: #34495e; stroke: #34495e"/>
     <use xlink:href="#mc9b01b4591" x="398.977482" y="304.413843" style="fill: #34495e; stroke: #34495e"/>
     <use xlink:href="#mc9b01b4591" x="431.539547" y="315.878468" style="fill: #34495e; stroke: #34495e"/>
     <use xlink:href="#mc9b01b4591" x="464.101611" y="321.703797" style="fill: #34495e; stroke: #34495e"/>
     <use xlink:href="#mc9b01b4591" x="496.663675" y="324.80521" style="fill: #34495e; stroke: #34495e"/>
     <use xlink:href="#mc9b01b4591" x="529.22574" y="326.400254" style="fill: #34495e; stroke: #34495e"/>
     <use xlink:href="#mc9b01b4591" x="561.787804" y="327.111093" style="fill: #34495e; stroke: #34495e"/>
     <use xlink:href="#mc9b01b4591" x="594.349869" y="327.196147" style="fill: #34495e; stroke: #34495e"/>
    </g>
   </g>
   <g id="line2d_28">
    <path d="M 73.356839 327.862468 
L 105.918903 327.862468 
L 138.480968 327.862468 
L 171.043032 327.862468 
L 203.605096 327.862468 
L 236.167161 327.862468 
L 268.729225 327.862468 
L 301.291289 327.862468 
L 333.853354 38.315177 
L 366.415418 327.862468 
L 398.977482 327.862468 
L 431.539547 327.862468 
L 464.101611 327.862468 
L 496.663675 327.862468 
L 529.22574 327.862468 
L 561.787804 327.862468 
L 594.349869 327.862468 
" clip-path="url(#pd472322051)" style="fill: none; stroke-dasharray: 6.29,2.72; stroke-dashoffset: 0; stroke: #7f8c8d; stroke-width: 1.7"/>
    <defs>
     <path id="m990c7a6781" d="M 0 1.75 
C 0.464105 1.75 0.909265 1.565609 1.237437 1.237437 
C 1.565609 0.909265 1.75 0.464105 1.75 0 
C 1.75 -0.464105 1.565609 -0.909265 1.237437 -1.237437 
C 0.909265 -1.565609 0.464105 -1.75 0 -1.75 
C -0.464105 -1.75 -0.909265 -1.565609 -1.237437 -1.237437 
C -1.565609 -0.909265 -1.75 -0.464105 -1.75 0 
C -1.75 0.464105 -1.565609 0.909265 -1.237437 1.237437 
C -0.909265 1.565609 -0.464105 1.75 0 1.75 
z
" style="stroke: #7f8c8d"/>
    </defs>
    <g clip-path="url(#pd472322051)">
     <use xlink:href="#m990c7a6781" x="73.356839" y="327.862468" style="fill: #7f8c8d; stroke: #7f8c8d"/>
     <use xlink:href="#m990c7a6781" x="105.918903" y="327.862468" style="fill: #7f8c8d; stroke: #7f8c8d"/>
     <use xlink:href="#m990c7a6781" x="138.480968" y="327.862468" style="fill: #7f8c8d; stroke: #7f8c8d"/>
     <use xlink:href="#m990c7a6781" x="171.043032" y="327.862468" style="fill: #7f8c8d; stroke: #7f8c8d"/>
     <use xlink:href="#m990c7a6781" x="203.605096" y="327.862468" style="fill: #7f8c8d; stroke: #7f8c8d"/>
     <use xlink:href="#m990c7a6781" x="236.167161" y="327.862468" style="fill: #7f8c8d; stroke: #7f8c8d"/>
     <use xlink:href="#m990c7a6781" x="268.729225" y="327.862468" style="fill: #7f8c8d; stroke: #7f8c8d"/>
     <use xlink:href="#m990c7a6781" x="301.291289" y="327.862468" style="fill: #7f8c8d; stroke: #7f8c8d"/>
     <use xlink:href="#m990c7a6781" x="333.853354" y="38.315177" style="fill: #7f8c8d; stroke: #7f8c8d"/>
     <use xlink:href="#m990c7a6781" x="366.415418" y="327.862468" style="fill: #7f8c8d; stroke: #7f8c8d"/>
     <use xlink:href="#m990c7a6781" x="398.977482" y="327.862468" style="fill: #7f8c8d; stroke: #7f8c8d"/>
     <use xlink:href="#m990c7a6781" x="431.539547" y="327.862468" style="fill: #7f8c8d; stroke: #7f8c8d"/>
     <use xlink:href="#m990c7a6781" x="464.101611" y="327.862468" style="fill: #7f8c8d; stroke: #7f8c8d"/>
     <use xlink:href="#m990c7a6781" x="496.663675" y="327.862468" style="fill: #7f8c8d; stroke: #7f8c8d"/>
     <use xlink:href="#m990c7a6781" x="529.22574" y="327.862468" style="fill: #7f8c8d; stroke: #7f8c8d"/>
     <use xlink:href="#m990c7a6781" x="561.787804" y="327.862468" style="fill: #7f8c8d; stroke: #7f8c8d"/>
     <use xlink:href="#m990c7a6781" x="594.349869" y="327.862468" style="fill: #7f8c8d; stroke: #7f8c8d"/>
    </g>
   </g>
   <g id="line2d_29">
    <path d="M 366.415418 342.339832 
L 366.415418 23.837812 
" clip-path="url(#pd472322051)" style="fill: none; stroke-dasharray: 1,1.65; stroke-dashoffset: 0; stroke: #8c8c8c"/>
   </g>
   <g id="patch_3">
    <path d="M 47.307188 342.339832 
L 47.307188 23.837812 
" style="fill: none; stroke: #000000; stroke-width: 0.8; stroke-linejoin: miter; stroke-linecap: square"/>
   </g>
   <g id="patch_4">
    <path d="M 620.39952 342.339832 
L 620.39952 23.837812 
" style="fill: none; stroke: #000000; stroke-width: 0.8; stroke-linejoin: miter; stroke-linecap: square"/>
   </g>
   <g id="patch_5">
    <path d="M 47.307187 342.339832 
L 620.39952 342.339832 
" style="fill: none; stroke: #000000; stroke-width: 0.8; stroke-linejoin: miter; stroke-linecap: square"/>
   </g>
   <g id="patch_6">
    <path d="M 47.307187 23.837812 
L 620.39952 23.837812 
" style="fill: none; stroke: #000000; stroke-width: 0.8; stroke-linejoin: miter; stroke-linecap: square"/>
   </g>
   <g id="text_26">
    <!-- bet ramp starts -->
    <g style="fill: #666666" transform="translate(371.299728 45.119538) scale(0.09 -0.09)">
     <use xlink:href="#DejaVuSans-62"/>
     <use xlink:href="#DejaVuSans-65" transform="translate(63.476562 0)"/>
     <use xlink:href="#DejaVuSans-74" transform="translate(125 0)"/>
     <use xlink:href="#DejaVuSans-20" transform="translate(164.208984 0)"/>
     <use xlink:href="#DejaVuSans-72" transform="translate(195.996094 0)"/>
     <use xlink:href="#DejaVuSans-61" transform="translate(237.109375 0)"/>
     <use xlink:href="#DejaVuSans-6d" transform="translate(298.388672 0)"/>
     <use xlink:href="#DejaVuSans-70" transform="translate(395.800781 0)"/>
     <use xlink:href="#DejaVuSans-20" transform="translate(459.277344 0)"/>
     <use xlink:href="#DejaVuSans-73" transform="translate(491.064453 0)"/>
     <use xlink:href="#DejaVuSans-74" transform="translate(543.164062 0)"/>
     <use xlink:href="#DejaVuSans-61" transform="translate(582.373047 0)"/>
     <use xlink:href="#DejaVuSans-72" transform="translate(643.652344 0)"/>
     <use xlink:href="#DejaVuSans-74" transform="translate(684.765625 0)"/>
     <use xlink:href="#DejaVuSans-73" transform="translate(723.974609 0)"/>
    </g>
   </g>
   <g id="text_27">
    <!-- Why fewer decks help: how far the true count wanders -->
    <g transform="translate(141.456166 17.837812) scale(0.14 -0.14)">
     <defs>
      <path id="DejaVuSans-57" d="M 213 4666 
L 850 4666 
L 1831 722 
L 2809 4666 
L 3519 4666 
L 4500 722 
L 5478 4666 
L 6119 4666 
L 4947 0 
L 4153 0 
L 3169 4050 
L 2175 0 
L 1381 0 
L 213 4666 
z
" transform="scale(0.015625)"/>
      <path id="DejaVuSans-79" d="M 2059 -325 
Q 1816 -950 1584 -1140 
Q 1353 -1331 966 -1331 
L 506 -1331 
L 506 -850 
L 844 -850 
Q 1081 -850 1212 -737 
Q 1344 -625 1503 -206 
L 1606 56 
L 191 3500 
L 800 3500 
L 1894 763 
L 2988 3500 
L 3597 3500 
L 2059 -325 
z
" transform="scale(0.015625)"/>
      <path id="DejaVuSans-77" d="M 269 3500 
L 844 3500 
L 1563 769 
L 2278 3500 
L 2956 3500 
L 3675 769 
L 4391 3500 
L 4966 3500 
L 4050 0 
L 3372 0 
L 2619 2869 
L 1863 0 
L 1184 0 
L 269 3500 
z
" transform="scale(0.015625)"/>
      <path id="DejaVuSans-6b" d="M 581 4863 
L 1159 4863 
L 1159 1991 
L 2875 3500 
L 3609 3500 
L 1753 1863 
L 3688 0 
L 2938 0 
L 1159 1709 
L 1159 0 
L 581 0 
L 581 4863 
z
" transform="scale(0.015625)"/>
      <path id="DejaVuSans-3a" d="M 750 794 
L 1409 794 
L 1409 0 
L 750 0 
L 750 794 
z
M 750 3309 
L 1409 3309 
L 1409 2516 
L 750 2516 
L 750 3309 
z
" transform="scale(0.015625)"/>
     </defs>
     <use xlink:href="#DejaVuSans-57"/>
     <use xlink:href="#DejaVuSans-68" transform="translate(98.876953 0)"/>
     <use xlink:href="#DejaVuSans-79" transform="translate(162.255859 0)"/>
     <use xlink:href="#DejaVuSans-20" transform="translate(221.435547 0)"/>
     <use xlink:href="#DejaVuSans-66" transform="translate(253.222656 0)"/>
     <use xlink:href="#DejaVuSans-65" transform="translate(288.427734 0)"/>
     <use xlink:href="#DejaVuSans-77" transform="translate(349.951172 0)"/>
     <use xlink:href="#DejaVuSans-65" transform="translate(431.738281 0)"/>
     <use xlink:href="#DejaVuSans-72" transform="translate(493.261719 0)"/>
     <use xlink:href="#DejaVuSans-20" transform="translate(534.375 0)"/>
     <use xlink:href="#DejaVuSans-64" transform="translate(566.162109 0)"/>
     <use xlink:href="#DejaVuSans-65" transform="translate(629.638672 0)"/>
     <use xlink:href="#DejaVuSans-63" transform="translate(691.162109 0)"/>
     <use xlink:href="#DejaVuSans-6b" transform="translate(746.142578 0)"/>
     <use xlink:href="#DejaVuSans-73" transform="translate(804.052734 0)"/>
     <use xlink:href="#DejaVuSans-20" transform="translate(856.152344 0)"/>
     <use xlink:href="#DejaVuSans-68" transform="translate(887.939453 0)"/>
     <use xlink:href="#DejaVuSans-65" transform="translate(951.318359 0)"/>
     <use xlink:href="#DejaVuSans-6c" transform="translate(1012.841797 0)"/>
     <use xlink:href="#DejaVuSans-70" transform="translate(1040.625 0)"/>
     <use xlink:href="#DejaVuSans-3a" transform="translate(1104.101562 0)"/>
     <use xlink:href="#DejaVuSans-20" transform="translate(1137.792969 0)"/>
     <use xlink:href="#DejaVuSans-68" transform="translate(1169.580078 0)"/>
     <use xlink:href="#DejaVuSans-6f" transform="translate(1232.958984 0)"/>
     <use xlink:href="#DejaVuSans-77" transform="translate(1294.140625 0)"/>
     <use xlink:href="#DejaVuSans-20" transform="translate(1375.927734 0)"/>
     <use xlink:href="#DejaVuSans-66" transform="translate(1407.714844 0)"/>
     <use xlink:href="#DejaVuSans-61" transform="translate(1442.919922 0)"/>
     <use xlink:href="#DejaVuSans-72" transform="translate(1504.199219 0)"/>
     <use xlink:href="#DejaVuSans-20" transform="translate(1545.3125 0)"/>
     <use xlink:href="#DejaVuSans-74" transform="translate(1577.099609 0)"/>
     <use xlink:href="#DejaVuSans-68" transform="translate(1616.308594 0)"/>
     <use xlink:href="#DejaVuSans-65" transform="translate(1679.6875 0)"/>
     <use xlink:href="#DejaVuSans-20" transform="translate(1741.210938 0)"/>
     <use xlink:href="#DejaVuSans-74" transform="translate(1772.998047 0)"/>
     <use xlink:href="#DejaVuSans-72" transform="translate(1812.207031 0)"/>
     <use xlink:href="#DejaVuSans-75" transform="translate(1853.320312 0)"/>
     <use xlink:href="#DejaVuSans-65" transform="translate(1916.699219 0)"/>
     <use xlink:href="#DejaVuSans-20" transform="translate(1978.222656 0)"/>
     <use xlink:href="#DejaVuSans-63" transform="translate(2010.009766 0)"/>
     <use xlink:href="#DejaVuSans-6f" transform="translate(2064.990234 0)"/>
     <use xlink:href="#DejaVuSans-75" transform="translate(2126.171875 0)"/>
     <use xlink:href="#DejaVuSans-6e" transform="translate(2189.550781 0)"/>
     <use xlink:href="#DejaVuSans-74" transform="translate(2252.929688 0)"/>
     <use xlink:href="#DejaVuSans-20" transform="translate(2292.138672 0)"/>
     <use xlink:href="#DejaVuSans-77" transform="translate(2323.925781 0)"/>
     <use xlink:href="#DejaVuSans-61" transform="translate(2405.712891 0)"/>
     <use xlink:href="#DejaVuSans-6e" transform="translate(2466.992188 0)"/>
     <use xlink:href="#DejaVuSans-64" transform="translate(2530.371094 0)"/>
     <use xlink:href="#DejaVuSans-65" transform="translate(2593.847656 0)"/>
     <use xlink:href="#DejaVuSans-72" transform="translate(2655.371094 0)"/>
     <use xlink:href="#DejaVuSans-73" transform="translate(2696.484375 0)"/>
    </g>
   </g>
   <g id="legend_1">
    <g id="patch_7">
     <path d="M 514.54327 105.228437 
L 613.39952 105.228437 
Q 615.39952 105.228437 615.39952 103.228437 
L 615.39952 30.837812 
Q 615.39952 28.837812 613.39952 28.837812 
L 514.54327 28.837812 
Q 512.54327 28.837812 512.54327 30.837812 
L 512.54327 103.228437 
Q 512.54327 105.228437 514.54327 105.228437 
z
" style="fill: #ffffff; opacity: 0.8; stroke: #cccccc; stroke-linejoin: miter"/>
    </g>
    <g id="line2d_30">
     <path d="M 516.54327 36.93625 
L 526.54327 36.93625 
L 536.54327 36.93625 
" style="fill: none; stroke: #c0392b; stroke-width: 1.7; stroke-linecap: square"/>
     <g>
      <use xlink:href="#m1f5c02a673" x="526.54327" y="36.93625" style="fill: #c0392b; stroke: #c0392b"/>
     </g>
    </g>
    <g id="text_28">
     <!-- 1 deck -->
     <g transform="translate(544.54327 40.43625) scale(0.1 -0.1)">
      <use xlink:href="#DejaVuSans-31"/>
      <use xlink:href="#DejaVuSans-20" transform="translate(63.623047 0)"/>
      <use xlink:href="#DejaVuSans-64" transform="translate(95.410156 0)"/>
      <use xlink:href="#DejaVuSans-65" transform="translate(158.886719 0)"/>
      <use xlink:href="#DejaVuSans-63" transform="translate(220.410156 0)"/>
      <use xlink:href="#DejaVuSans-6b" transform="translate(275.390625 0)"/>
     </g>
    </g>
    <g id="line2d_31">
     <path d="M 516.54327 51.614375 
L 526.54327 51.614375 
L 536.54327 51.614375 
" style="fill: none; stroke: #e67e22; stroke-width: 1.7; stroke-linecap: square"/>
     <g>
      <use xlink:href="#m6e4aa79361" x="526.54327" y="51.614375" style="fill: #e67e22; stroke: #e67e22"/>
     </g>
    </g>
    <g id="text_29">
     <!-- 2 decks -->
     <g transform="translate(544.54327 55.114375) scale(0.1 -0.1)">
      <use xlink:href="#DejaVuSans-32"/>
      <use xlink:href="#DejaVuSans-20" transform="translate(63.623047 0)"/>
      <use xlink:href="#DejaVuSans-64" transform="translate(95.410156 0)"/>
      <use xlink:href="#DejaVuSans-65" transform="translate(158.886719 0)"/>
      <use xlink:href="#DejaVuSans-63" transform="translate(220.410156 0)"/>
      <use xlink:href="#DejaVuSans-6b" transform="translate(275.390625 0)"/>
      <use xlink:href="#DejaVuSans-73" transform="translate(333.300781 0)"/>
     </g>
    </g>
    <g id="line2d_32">
     <path d="M 516.54327 66.2925 
L 526.54327 66.2925 
L 536.54327 66.2925 
" style="fill: none; stroke: #2980b9; stroke-width: 1.7; stroke-linecap: square"/>
     <g>
      <use xlink:href="#m586e4a0ff8" x="526.54327" y="66.2925" style="fill: #2980b9; stroke: #2980b9"/>
     </g>
    </g>
    <g id="text_30">
     <!-- 6 decks -->
     <g transform="translate(544.54327 69.7925) scale(0.1 -0.1)">
      <use xlink:href="#DejaVuSans-36"/>
      <use xlink:href="#DejaVuSans-20" transform="translate(63.623047 0)"/>
      <use xlink:href="#DejaVuSans-64" transform="translate(95.410156 0)"/>
      <use xlink:href="#DejaVuSans-65" transform="translate(158.886719 0)"/>
      <use xlink:href="#DejaVuSans-63" transform="translate(220.410156 0)"/>
      <use xlink:href="#DejaVuSans-6b" transform="translate(275.390625 0)"/>
      <use xlink:href="#DejaVuSans-73" transform="translate(333.300781 0)"/>
     </g>
    </g>
    <g id="line2d_33">
     <path d="M 516.54327 80.970625 
L 526.54327 80.970625 
L 536.54327 80.970625 
" style="fill: none; stroke: #34495e; stroke-width: 1.7; stroke-linecap: square"/>
     <g>
      <use xlink:href="#mc9b01b4591" x="526.54327" y="80.970625" style="fill: #34495e; stroke: #34495e"/>
     </g>
    </g>
    <g id="text_31">
     <!-- 8 decks -->
     <g transform="translate(544.54327 84.470625) scale(0.1 -0.1)">
      <use xlink:href="#DejaVuSans-38"/>
      <use xlink:href="#DejaVuSans-20" transform="translate(63.623047 0)"/>
      <use xlink:href="#DejaVuSans-64" transform="translate(95.410156 0)"/>
      <use xlink:href="#DejaVuSans-65" transform="translate(158.886719 0)"/>
      <use xlink:href="#DejaVuSans-63" transform="translate(220.410156 0)"/>
      <use xlink:href="#DejaVuSans-6b" transform="translate(275.390625 0)"/>
      <use xlink:href="#DejaVuSans-73" transform="translate(333.300781 0)"/>
     </g>
    </g>
    <g id="line2d_34">
     <path d="M 516.54327 95.64875 
L 526.54327 95.64875 
L 536.54327 95.64875 
" style="fill: none; stroke-dasharray: 6.29,2.72; stroke-dashoffset: 0; stroke: #7f8c8d; stroke-width: 1.7"/>
     <g>
      <use xlink:href="#m990c7a6781" x="526.54327" y="95.64875" style="fill: #7f8c8d; stroke: #7f8c8d"/>
     </g>
    </g>
    <g id="text_32">
     <!-- 6 decks, CSM -->
     <g transform="translate(544.54327 99.14875) scale(0.1 -0.1)">
      <defs>
       <path id="DejaVuSans-2c" d="M 750 794 
L 1409 794 
L 1409 256 
L 897 -744 
L 494 -744 
L 750 256 
L 750 794 
z
" transform="scale(0.015625)"/>
       <path id="DejaVuSans-43" d="M 4122 4306 
L 4122 3641 
Q 3803 3938 3442 4084 
Q 3081 4231 2675 4231 
Q 1875 4231 1450 3742 
Q 1025 3253 1025 2328 
Q 1025 1406 1450 917 
Q 1875 428 2675 428 
Q 3081 428 3442 575 
Q 3803 722 4122 1019 
L 4122 359 
Q 3791 134 3420 21 
Q 3050 -91 2638 -91 
Q 1578 -91 968 557 
Q 359 1206 359 2328 
Q 359 3453 968 4101 
Q 1578 4750 2638 4750 
Q 3056 4750 3426 4639 
Q 3797 4528 4122 4306 
z
" transform="scale(0.015625)"/>
       <path id="DejaVuSans-53" d="M 3425 4513 
L 3425 3897 
Q 3066 4069 2747 4153 
Q 2428 4238 2131 4238 
Q 1616 4238 1336 4038 
Q 1056 3838 1056 3469 
Q 1056 3159 1242 3001 
Q 1428 2844 1947 2747 
L 2328 2669 
Q 3034 2534 3370 2195 
Q 3706 1856 3706 1288 
Q 3706 609 3251 259 
Q 2797 -91 1919 -91 
Q 1588 -91 1214 -16 
Q 841 59 441 206 
L 441 856 
Q 825 641 1194 531 
Q 1563 422 1919 422 
Q 2459 422 2753 634 
Q 3047 847 3047 1241 
Q 3047 1584 2836 1778 
Q 2625 1972 2144 2069 
L 1759 2144 
Q 1053 2284 737 2584 
Q 422 2884 422 3419 
Q 422 4038 858 4394 
Q 1294 4750 2059 4750 
Q 2388 4750 2728 4690 
Q 3069 4631 3425 4513 
z
" transform="scale(0.015625)"/>
       <path id="DejaVuSans-4d" d="M 628 4666 
L 1569 4666 
L 2759 1491 
L 3956 4666 
L 4897 4666 
L 4897 0 
L 4281 0 
L 4281 4097 
L 3078 897 
L 2444 897 
L 1241 4097 
L 1241 0 
L 628 0 
L 628 4666 
z
" transform="scale(0.015625)"/>
      </defs>
      <use xlink:href="#DejaVuSans-36"/>
      <use xlink:href="#DejaVuSans-20" transform="translate(63.623047 0)"/>
      <use xlink:href="#DejaVuSans-64" transform="translate(95.410156 0)"/>
      <use xlink:href="#DejaVuSans-65" transform="translate(158.886719 0)"/>
      <use xlink:href="#DejaVuSans-63" transform="translate(220.410156 0)"/>
      <use xlink:href="#DejaVuSans-6b" transform="translate(275.390625 0)"/>
      <use xlink:href="#DejaVuSans-73" transform="translate(333.300781 0)"/>
      <use xlink:href="#DejaVuSans-2c" transform="translate(385.400391 0)"/>
      <use xlink:href="#DejaVuSans-20" transform="translate(417.1875 0)"/>
      <use xlink:href="#DejaVuSans-43" transform="translate(448.974609 0)"/>
      <use xlink:href="#DejaVuSans-53" transform="translate(518.798828 0)"/>
      <use xlink:href="#DejaVuSans-4d" transform="translate(582.275391 0)"/>
     </g>
    </g>
   </g>
  </g>
 </g>
 <defs>
  <clipPath id="pd472322051">
   <rect x="47.307188" y="23.837812" width="573.092332" height="318.50202"/>
  </clipPath>
 </defs>
</svg>
